#N canvas 107 102 937 387 12;
#X floatatom 36 82 4 1 999 1 BPM \$0-engbpminit \$0-engbpm 0;
#X msg 168 247 tempo \$1 permin;
#X obj 180 75 tgl 15 0 \$0-engtog \$0-engtoginit empty 17 7 0 10 #fcfcfc #000000 #000000 0 1;
#X obj 168 296 metro 1 120 permin, f 19;
#X floatatom 36 104 3 1 16 1 Meter \$0-engmetinit \$0-engmet 0;
#X obj 804 272 mod;
#X obj 804 296 sel 0;
#X obj 804 222 i;
#X obj 804 247 + 1;
#X obj 106 106 bng 16 250 50 0 \$0-engres \$0-engresinit Reset 17 7 0 12 #fcfcfc #000000 #000000;
#X msg 315 247 tempo \$1 permin;
#X obj 315 296 metro 0.5 120 permin;
#X msg 469 247 tempo \$1 permin;
#X obj 469 296 metro 0.25 120 permin;
#X msg 630 247 tempo \$1 permin;
#X obj 630 296 metro 0.125 120 permin;
#X text 166 199 Qtr. notes;
#X text 313 199 8th notes;
#X text 466 199 16th notes;
#X text 627 199 32th notes;
#X obj 21 19 inlet;
#X obj 135 19 inlet;
#X text 65 18 BPM in;
#X text 179 18 Global Toggle;
#X obj 205 123 sel 1;
#X msg 822 174 -1;
#X obj 21 43 s \$0-engbpminit;
#X obj 168 222 r \$0-engbpm;
#X obj 315 222 r \$0-engbpm;
#X obj 469 222 r \$0-engbpm;
#X obj 630 222 r \$0-engbpm;
#X obj 836 272 r \$0-engmet;
#X obj 327 19 loadbang;
#X obj 327 43 f \$0;
#X obj 135 43 s \$0-engtoginit;
#X obj 178 272 r \$0-engtog;
#X obj 325 272 r \$0-engtog;
#X obj 479 272 r \$0-engtog;
#X obj 640 272 r \$0-engtog;
#X obj 178 321 s \$0-engqn;
#X obj 325 321 s \$0-engen;
#X obj 479 321 s \$0-engsn;
#X obj 640 321 s \$0-engtn;
#X obj 814 321 s \$0-eng1b;
#X obj 822 151 r \$0-engres;
#X obj 205 75 r \$0-engtog;
#X obj 205 147 s \$0-engresinit;
#X obj 205 99 == 0;
#X msg 327 75 \; \$1-engbpminit 170 \; \$1-engmetinit 4 \; \$1-engtoginit 0 \;;
#X msg 21 247 tempo \$1 permin;
#X obj 21 296 metro 2 120 permin, f 19;
#X text 19 199 Half notes;
#X obj 21 222 r \$0-engbpm;
#X obj 31 272 r \$0-engtog;
#X obj 31 321 s \$0-enghn;
#X obj 30 153 bng 12 250 50 0 empty \$0-enghn 2 3 -4 0 8 #e3c6ff #000000 #000000;
#X obj 61 153 bng 12 250 50 0 empty \$0-engqn 4 3 -4 0 8 #c7c6ff #000000 #000000;
#X obj 93 153 bng 12 250 50 0 empty \$0-engen 8 3 -4 0 8 #c6feff #000000 #000000;
#X obj 124 153 bng 12 250 50 0 empty \$0-engsn 16 0 -4 0 8 #c6ffc7 #000000 #000000;
#X obj 155 153 bng 12 50 25 0 empty \$0-engtn 32 0 -4 0 8 #feffc6 #000000 #000000;
#X obj 183 153 bng 12 250 50 0 empty \$0-eng1b 1B 0 -4 0 8 #ffe3c6 #000000 #000000;
#X obj 21 350 outlet;
#X obj 168 350 outlet;
#X obj 315 350 outlet;
#X obj 469 350 outlet;
#X obj 630 350 outlet;
#X obj 804 350 outlet;
#X obj 804 198 r \$0-engqn;
#X connect 1 0 3 0;
#X connect 3 0 39 0;
#X connect 3 0 62 0;
#X connect 5 0 6 0;
#X connect 5 0 7 1;
#X connect 6 0 43 0;
#X connect 6 0 66 0;
#X connect 7 0 8 0;
#X connect 8 0 5 0;
#X connect 10 0 11 0;
#X connect 11 0 40 0;
#X connect 11 0 63 0;
#X connect 12 0 13 0;
#X connect 13 0 41 0;
#X connect 13 0 64 0;
#X connect 14 0 15 0;
#X connect 15 0 42 0;
#X connect 15 0 65 0;
#X connect 20 0 26 0;
#X connect 21 0 34 0;
#X connect 24 0 46 0;
#X connect 25 0 7 1;
#X connect 27 0 1 0;
#X connect 28 0 10 0;
#X connect 29 0 12 0;
#X connect 30 0 14 0;
#X connect 31 0 5 1;
#X connect 32 0 33 0;
#X connect 33 0 48 0;
#X connect 35 0 3 0;
#X connect 36 0 11 0;
#X connect 37 0 13 0;
#X connect 38 0 15 0;
#X connect 44 0 25 0;
#X connect 45 0 47 0;
#X connect 47 0 24 0;
#X connect 49 0 50 0;
#X connect 50 0 54 0;
#X connect 50 0 61 0;
#X connect 52 0 49 0;
#X connect 53 0 50 0;
#X connect 67 0 7 0;
#X coords 0 -1 1 1 165 90 2 30 75;
