#N canvas 336 30 440 685 12;
#X obj 31 412 master_out;
#X obj 31 253 BPM-engine;
#X obj 29 48 tgl 30 0 empty empty empty 0 -10 0 12 #ff8300 #000000 #000000 0 1;
#X obj 29 82 s mstrswtch;
#X obj 189 230 r mstrswtch;
#X floatatom 120 48 5 1 1000 0 - bpminit - 24;
#X obj 120 82 s mstrbpm;
#X obj 31 230 r mstrbpm;
#X obj 121 378 catch~ all;
#X obj 94 348 s 8th;
#N canvas 482 178 280 177 preset 0;
#X obj 14 13 loadbang;
#X text 77 12 Presets;
#X msg 14 37 \; breakinit symbol ./187.wav \; sampleinit symbol ./stretch.wav \; basenoteinit 30 \; gloscale 8 \; basstoginit 1 \; breakstoginit 1 \; samplertoginit 1 \; bpminit 168 \;, f 33;
#X connect 0 0 2 0;
#X restore 29 19 pd preset;
#X f 23;
#X obj 31 378 catch~ left;
#X obj 199 378 catch~ right;
#X text 220 47 Global switch on and master BPM., f 27;
#X text 222 252 Rhythm engine based on master BPM that outputs bangs on different note values., f 27;
#X text 222 411 Master out section with main volume control and write-to-disc trigger., f 27;
#X text 222 544 Break slicer, f 27;
#N canvas 351 148 832 380 bassseq 0;
#X obj 250 69 scaleculator;
#X floatatom 250 304 2 0 0 1 Index - - 0;
#X floatatom 443 304 4 0 0 1 Note - - 0;
#X floatatom 443 44 2 0 0 1 Arr.\ Pos. - - 0;
#X obj 22 69 herrmann;
#X obj 84 44 bng 19 250 50 0 empty glonewpat New\ pattern 0 -7 0 8 #fcfcfc #000000 #000000;
#X obj 22 44 r 8th;
#X obj 22 204 bng 19 250 50 0 empty empty empty 0 -10 0 12 #ff8300 #000000 #000000;
#X obj 555 69 subbass;
#X obj 555 258 throw~ all;
#X obj 22 263 frauke;
#X obj 56 238 bng 19 250 50 0 empty glonewpat New\ pattern 0 -7 0 8 #fcfcfc #000000 #000000;
#X text 126 68 Herrmann sequencer, f 9;
#X text 135 263 Frauke sequencer, f 11;
#X obj 738 44 r basspres;
#X obj 53 14 bng 19 250 50 0 empty glorest Restart 0 -7 0 8 #fcfcfc #000000 #000000;
#X obj 250 327 s basssclindex;
#X obj 90 238 r basssclindex;
#X obj 22 341 s basscallpos;
#X obj 443 19 r basscallpos;
#X obj 443 327 s bassposnote;
#X obj 555 44 r bassposnote;
#X obj 250 44 r basenote;
#X obj 346 44 r gloscale;
#N canvas 92 117 228 201 midi 0;
#X obj 15 57 midi-noteout;
#X msg 133 31 2 80 65;
#X text 13 140 Midi note out abstraction, f 17;
#X text 13 11 Midi note in;
#X text 131 11 Preset;
#X floatatom 15 31 5 0 0 0 - - - 0;
#X connect 1 0 0 1;
#X connect 5 0 0 0;
#X restore 555 327 pd midi;
#X text 614 326 Optional Midi out;
#X obj 555 229 *~;
#X obj 573 206 inlet;
#X text 614 206 On/Off;
#X connect 0 0 1 0;
#X connect 0 1 2 0;
#X connect 1 0 16 0;
#X connect 2 0 20 0;
#X connect 3 0 0 2;
#X connect 4 0 7 0;
#X connect 5 0 4 2;
#X connect 6 0 4 0;
#X connect 7 0 10 0;
#X connect 8 0 26 0;
#X connect 10 0 18 0;
#X connect 11 0 10 1;
#X connect 14 0 8 1;
#X connect 15 0 4 1;
#X connect 17 0 10 2;
#X connect 19 0 3 0;
#X connect 21 0 8 0;
#X connect 22 0 0 0;
#X connect 23 0 0 1;
#X connect 26 0 9 0;
#X connect 27 0 26 1;
#X restore 31 596 pd bassseq;
#X f 24;
#X text 222 595 Harmonics \, sequencing and bassline gen., f 27;
#X text 220 18 Global presets, f 27;
#X floatatom 120 108 5 1 1000 0 - basenoteinit - 24;
#X obj 120 142 s basenote;
#X obj 31 572 tgl 19 0 empty basstoginit On/Off 22 10 0 10 #fcfcfc #000000 #000000 0 1;
#X obj 31 142 s glorest;
#X obj 31 202 s glonewpat;
#X obj 31 521 tgl 19 0 empty breakstoginit On/Off 22 10 0 10 #fcfcfc #000000 #000000 0 1;
#N canvas 386 183 316 372 breaks 0;
#X obj 19 70 slicer;
#X obj 207 47 r mstrbpm;
#X obj 205 21 r mstrswtch;
#X obj 19 47 bng 19 250 50 0 empty glorest Restart 0 -7 0 8 #fcfcfc #000000 #000000;
#X obj 81 47 r breakinit;
#X obj 143 21 bng 19 250 50 0 empty breakrndm New\ pattern 0 -7 0 8 #fcfcfc #000000 #000000;
#X obj 19 337 throw~ all;
#X obj 19 278 *~;
#X obj 37 255 inlet;
#X text 78 255 On/Off;
#X obj 104 297 rev2~ 89 10 1200 10;
#X obj 104 337 throw~ left;
#X obj 190 337 throw~ right;
#X connect 0 0 7 0;
#X connect 1 0 0 4;
#X connect 2 0 0 3;
#X connect 3 0 0 0;
#X connect 4 0 0 1;
#X connect 5 0 0 2;
#X connect 7 0 6 0;
#X connect 7 0 10 0;
#X connect 8 0 7 1;
#X connect 10 0 11 0;
#X connect 10 1 12 0;
#X restore 31 545 pd breaks;
#X f 24;
#X obj 31 113 bng 25 250 50 0 empty empty empty 0 -10 0 12 #c6feff #000000 #000000;
#X obj 31 173 bng 25 250 50 0 empty empty empty 0 -10 0 12 #e3c6ff #000000 #000000;
#N canvas 63 88 308 439 sampler 0;
#X obj 25 154 simpler;
#X obj 25 401 throw~ all;
#X obj 25 372 *~;
#X obj 43 349 inlet;
#X text 84 349 On/Off;
#X obj 25 9 r 1bar;
#X obj 25 33 i;
#X obj 25 57 + 1;
#X obj 25 105 sel 0;
#X obj 25 129 bng 19 250 50 0 empty empty empty 0 -10 0 12 #fcfcfc #000000 #000000;
#X obj 203 129 r sampleinit;
#X obj 25 81 mod 16;
#X connect 0 0 2 0;
#X connect 2 0 1 0;
#X connect 3 0 2 1;
#X connect 5 0 6 0;
#X connect 6 0 7 0;
#X connect 7 0 11 0;
#X connect 8 0 9 0;
#X connect 9 0 0 0;
#X connect 10 0 0 1;
#X connect 11 0 8 0;
#X connect 11 0 6 1;
#X restore 31 647 pd sampler;
#X f 24;
#X obj 189 348 s 1bar;
#X obj 31 624 tgl 19 0 empty samplertoginit On/Off 22 10 0 10 #fcfcfc #000000 #000000 0 1;
#X text 222 646 Simple sampler, f 27;
#X connect 1 2 9 0;
#X connect 1 5 30 0;
#X connect 2 0 3 0;
#X connect 4 0 1 1;
#X connect 5 0 6 0;
#X connect 7 0 1 0;
#X connect 8 0 0 0;
#X connect 8 0 0 1;
#X connect 11 0 0 0;
#X connect 12 0 0 1;
#X connect 20 0 21 0;
#X connect 22 0 17 0;
#X connect 25 0 26 0;
#X connect 27 0 23 0;
#X connect 28 0 24 0;
#X connect 31 0 29 0;
