#N canvas 121 146 302 322 12;
#X obj 27 13 inlet;
#X listbox 27 220 13 0 0 0 - - - 0;
#X obj 27 243 unpack f f f;
#X obj 27 277 noteout, f 9;
#X floatatom 80 90 4 0 16 1 Midi\ Channel - - 0;
#X obj 27 196 pack f f f, f 15;
#X obj 80 13 loadbang;
#X floatatom 80 116 4 0 100 1 Velocity - - 0;
#X floatatom 80 142 4 0 999 1 Duration - - 0;
#X obj 27 172 makenote;
#X msg 80 37 1 80 350;
#X obj 80 62 unpack f f f;
#X text 149 193 Input note value and send out via MIDI, f 17;
#X obj 205 13 inlet;
#X msg 205 37 \$1 \$2 \$3;
#X connect 0 0 9 0;
#X connect 1 0 2 0;
#X connect 2 0 3 0;
#X connect 2 1 3 1;
#X connect 2 2 3 2;
#X connect 4 0 5 2;
#X connect 5 0 1 0;
#X connect 6 0 10 0;
#X connect 7 0 9 1;
#X connect 8 0 9 2;
#X connect 9 0 5 0;
#X connect 9 1 5 1;
#X connect 10 0 11 0;
#X connect 11 0 4 0;
#X connect 11 1 7 0;
#X connect 11 2 8 0;
#X connect 13 0 14 0;
#X connect 14 0 11 0;
#X coords 0 -1 1 1 125 80 2 75 85;
