#N canvas 93 137 990 433 12;
#X listbox 364 360 22 0 0 0 - - - 0;
#X floatatom 550 360 5 0 0 0 - - - 0;
#N canvas 280 27 699 684 scaleculator 0;
#X floatatom 84 522 5 0 0 0 - - - 0;
#X floatatom 141 522 5 0 0 0 - - - 0;
#X floatatom 197 522 5 0 0 0 - - - 0;
#X floatatom 254 522 5 0 0 0 - - - 0;
#X floatatom 310 522 5 0 0 0 - - - 0;
#X floatatom 367 522 5 0 0 0 - - - 0;
#X floatatom 423 522 5 0 0 0 - - - 0;
#X floatatom 28 522 5 0 0 0 - - - 0;
#X obj 84 487 +;
#X obj 141 487 +;
#X obj 197 487 +;
#X obj 254 487 +;
#X obj 310 487 +;
#X obj 367 487 +;
#X obj 423 487 +;
#X obj 28 368 inlet;
#X obj 28 652 outlet;
#X obj 61 36 sel 0 1 2 3 4 5 6 7 8 9 10 11 12 13;
#X floatatom 480 522 5 0 0 0 - - - 0;
#X obj 480 487 +;
#X obj 28 555 pack f f f f f f f f f, f 65;
#X obj 28 497 t f f;
#X obj 84 422 unpack f f f f f f f f f, f 36;
#X text 79 652 Scale (1 octave) out;
#X obj 28 582 list split \$1;
#X listbox 28 606 35 0 0 0 - - - 0;
#X obj 84 445 t b f;
#X obj 28 392 t b f;
#X msg 367 66 8 2 3 5 7 9 10 12;
#X msg 367 91 8 1 3 5 7 8 10 12;
#X msg 367 116 8 2 4 6 7 9 11 12;
#X msg 367 141 8 2 4 5 7 9 10 12;
#X msg 367 166 8 2 3 5 7 8 10 12;
#X msg 367 191 8 1 3 5 6 8 10 12;
#X msg 367 216 8 2 4 6 7 9 10 12;
#X msg 367 241 8 1 3 4 6 8 10 12;
#X msg 367 266 6 3 5 7 10 12;
#X msg 367 291 6 2 4 7 9 12;
#X msg 367 316 7 3 5 6 7 10 12;
#X msg 367 341 7 2 3 4 7 9 12;
#X msg 367 366 9 2 3 5 6 8 9 11 12;
#X msg 367 391 9 1 3 4 6 7 9 10 12;
#X text 105 11 Scale select;
#X obj 265 652 outlet;
#X text 318 652 Index out;
#X text 27 330 Base note in OR bang (0), f 12;
#X text 530 483 Incremental values based on main note., f 11;
#X obj 61 11 inlet;
#X text 502 65 dorian;
#X text 502 90 phrygian;
#X text 502 115 lydian;
#X text 502 165 aeolian;
#X text 502 190 locrian;
#X text 502 140 mixolydian;
#X text 502 215 lydian dominant;
#X text 502 240 super locrian;
#X text 479 265 minor pentatonic;
#X text 469 290 major pentatonic;
#X text 489 315 minor blues;
#X text 479 340 major blues;
#X text 513 365 whole half diminished;
#X text 513 390 half whole diminished;
#X text 365 14 Source: https://www.guitarland.com/Music10/FGA/LectureMIDIscales.html First number = index, f 42;
#X obj 28 471 f;
#X connect 0 0 20 1;
#X connect 1 0 20 2;
#X connect 2 0 20 3;
#X connect 3 0 20 4;
#X connect 4 0 20 5;
#X connect 5 0 20 6;
#X connect 6 0 20 7;
#X connect 7 0 20 0;
#X connect 8 0 0 0;
#X connect 9 0 1 0;
#X connect 10 0 2 0;
#X connect 11 0 3 0;
#X connect 12 0 4 0;
#X connect 13 0 5 0;
#X connect 14 0 6 0;
#X connect 15 0 27 0;
#X connect 17 0 28 0;
#X connect 17 1 29 0;
#X connect 17 2 30 0;
#X connect 17 3 31 0;
#X connect 17 4 32 0;
#X connect 17 5 33 0;
#X connect 17 6 34 0;
#X connect 17 7 35 0;
#X connect 17 8 36 0;
#X connect 17 9 37 0;
#X connect 17 10 38 0;
#X connect 17 11 39 0;
#X connect 17 12 40 0;
#X connect 17 13 41 0;
#X connect 18 0 20 8;
#X connect 19 0 18 0;
#X connect 20 0 24 0;
#X connect 21 0 7 0;
#X connect 21 1 8 0;
#X connect 21 1 9 0;
#X connect 21 1 10 0;
#X connect 21 1 11 0;
#X connect 21 1 12 0;
#X connect 21 1 13 0;
#X connect 21 1 14 0;
#X connect 21 1 19 0;
#X connect 22 0 26 0;
#X connect 22 1 8 1;
#X connect 22 2 9 1;
#X connect 22 3 10 1;
#X connect 22 4 11 1;
#X connect 22 5 12 1;
#X connect 22 6 13 1;
#X connect 22 7 14 1;
#X connect 22 8 19 1;
#X connect 24 0 25 0;
#X connect 25 0 16 0;
#X connect 26 0 63 0;
#X connect 26 1 24 1;
#X connect 26 1 43 0;
#X connect 27 0 63 0;
#X connect 27 1 63 1;
#X connect 28 0 22 0;
#X connect 29 0 22 0;
#X connect 30 0 22 0;
#X connect 31 0 22 0;
#X connect 32 0 22 0;
#X connect 33 0 22 0;
#X connect 34 0 22 0;
#X connect 35 0 22 0;
#X connect 36 0 22 0;
#X connect 37 0 22 0;
#X connect 38 0 22 0;
#X connect 39 0 22 0;
#X connect 40 0 22 0;
#X connect 41 0 22 0;
#X connect 47 0 17 0;
#X connect 63 0 21 0;
#X coords 0 684 1 683 200 230 0;
#X restore 364 316 pd scaleculator;
#X floatatom 364 56 5 0 115 1 Base\ Midi\ Note - - 0;
#X floatatom 546 56 5 0 13 1 Scale\ select - - 0;
#X obj 364 32 inlet;
#X obj 546 32 inlet;
#X text 20 38 Scaleculator takes in a midi note value through the first inlet \, calculates one octave of note values based on the selected harmonic scale and outputs as list through the first outlet., f 37;
#X text 132 385 Updated Dec 16th 2022;
#X obj 364 387 array set \$0-scl;
#X obj 550 387 array define \$0-scl;
#X text 487 89 dorian;
#X text 473 104 phrygian;
#X text 487 119 lydian;
#X text 480 149 aeolian;
#X text 480 164 locrian;
#X text 459 134 mixolydian;
#X text 424 179 lydian dominant;
#X text 438 194 super locrian;
#X text 417 209 minor pentatonic;
#X text 417 224 major pentatonic;
#X text 452 239 minor blues;
#X text 452 254 major blues;
#X obj 546 91 vradio 15 1 0 14 empty empty empty 0 -8 0 10 #fcfcfc #000000 #000000 0;
#X text 382 269 whole half diminished;
#X text 382 284 half whole diminished;
#X floatatom 696 56 5 0 13 1 Array\ pos.\ select - - 0;
#X obj 696 32 inlet;
#X obj 696 79 array get \$0-scl;
#X floatatom 696 360 5 0 0 0 - - - 0;
#X obj 696 387 outlet;
#X text 20 136 By sending values from 0-13 to the second inlet \, harmonic scales can be selected or altered (when scaleculator is embedded., f 37;
#X obj 498 387 outlet;
#X text 20 210 The second outlet outputs the number of notes in the respective scale (e.g. 6 notes in pentatonic scales or 9 in whole half diminshed) and outputs through outlet to main patch., f 37;
#X text 20 300 Scale and index values are used to create array \$0-scl. Third inlet selects array position and outputs value through second outlet., f 37;
#X connect 0 0 9 0;
#X connect 1 0 10 0;
#X connect 1 0 32 0;
#X connect 2 0 0 0;
#X connect 2 1 1 0;
#X connect 3 0 2 0;
#X connect 4 0 23 0;
#X connect 5 0 3 0;
#X connect 6 0 4 0;
#X connect 23 0 2 1;
#X connect 26 0 28 0;
#X connect 27 0 26 0;
#X connect 28 0 29 0;
#X connect 29 0 30 0;
#X coords 0 -1 1 1 200 230 2 375 80;
