#N canvas 580 260 634 212 12;
#X obj 130 105 bng 15 250 50 0 empty empty empty 17 7 0 10 #fcfcfc #000000 #000000;
#X obj 112 157 *~;
#X floatatom 184 105 5 0 0 2 - - - 0;
#X floatatom 239 105 5 0 0 2 - - - 0;
#X floatatom 17 105 5 0 0 0 - - - 0;
#X floatatom 77 105 5 0 0 0 - - - 0;
#X obj 17 30 vsl 15 65 100 2500 0 0 empty hpfreq Freq 0 -9 0 10 #fcfcfc #000000 #000000 0 1;
#X obj 77 30 vsl 15 65 50 800 0 0 empty hprange Range 0 -9 0 10 #fcfcfc #000000 #000000 0 1;
#X obj 184 30 vsl 15 65 5 50 0 0 empty delay delay 0 -9 0 10 #fcfcfc #000000 #000000 0 1;
#X obj 239 30 vsl 15 65 5 50 0 0 empty decay decay 0 -9 0 10 #fcfcfc #000000 #000000 0 1;
#X obj 130 79 inlet;
#X obj 112 181 outlet~;
#X obj 300 28 loadbang;
#N canvas 299 107 325 230 envelope 0;
#X obj 14 85 inlet;
#X obj 130 189 outlet~;
#X floatatom 227 33 5 0 0 1 decay - - 0;
#X floatatom 148 33 5 0 0 1 delay - - 0;
#X obj 148 11 inlet;
#X obj 227 11 inlet;
#X obj 227 59 t b f;
#X floatatom 227 104 5 0 0 0 - - - 0;
#X obj 130 165 *~ 1;
#X obj 227 82 *;
#X obj 72 104 del;
#X obj 130 104 del;
#X obj 188 104 del;
#N canvas 222 38 209 208 env 0;
#X obj 17 17 inlet;
#X obj 17 41 f;
#X obj 17 89 vline~;
#X obj 17 113 *~;
#X obj 17 137 *~;
#X msg 17 65 1 0.3 \, 0 \$1 0.3;
#X obj 76 17 inlet;
#X obj 17 161 outlet~;
#X text 120 16 decay;
#X connect 0 0 1 0;
#X connect 1 0 5 0;
#X connect 2 0 3 0;
#X connect 2 0 3 1;
#X connect 3 0 4 0;
#X connect 3 0 4 1;
#X connect 4 0 7 0;
#X connect 5 0 2 0;
#X connect 6 0 1 1;
#X restore 188 126 pd env;
#N canvas 222 38 209 208 env 0;
#X obj 17 17 inlet;
#X obj 17 41 f;
#X obj 17 89 vline~;
#X obj 17 113 *~;
#X obj 17 137 *~;
#X msg 17 65 1 0.3 \, 0 \$1 0.3;
#X obj 76 17 inlet;
#X obj 17 161 outlet~;
#X text 120 16 decay;
#X connect 0 0 1 0;
#X connect 1 0 5 0;
#X connect 2 0 3 0;
#X connect 2 0 3 1;
#X connect 3 0 4 0;
#X connect 3 0 4 1;
#X connect 4 0 7 0;
#X connect 5 0 2 0;
#X connect 6 0 1 1;
#X restore 130 126 pd env;
#N canvas 222 38 209 208 env 0;
#X obj 17 17 inlet;
#X obj 17 41 f;
#X obj 17 89 vline~;
#X obj 17 113 *~;
#X obj 17 137 *~;
#X msg 17 65 1 0.3 \, 0 \$1 0.3;
#X obj 76 17 inlet;
#X obj 17 161 outlet~;
#X text 120 16 decay;
#X connect 0 0 1 0;
#X connect 1 0 5 0;
#X connect 2 0 3 0;
#X connect 2 0 3 1;
#X connect 3 0 4 0;
#X connect 3 0 4 1;
#X connect 4 0 7 0;
#X connect 5 0 2 0;
#X connect 6 0 1 1;
#X restore 72 126 pd env;
#N canvas 222 38 209 208 env 0;
#X obj 17 17 inlet;
#X obj 17 41 f;
#X obj 17 89 vline~;
#X obj 17 113 *~;
#X obj 17 137 *~;
#X msg 17 65 1 0.3 \, 0 \$1 0.3;
#X obj 76 17 inlet;
#X obj 17 161 outlet~;
#X text 120 16 decay;
#X connect 0 0 1 0;
#X connect 1 0 5 0;
#X connect 2 0 3 0;
#X connect 2 0 3 1;
#X connect 3 0 4 0;
#X connect 3 0 4 1;
#X connect 4 0 7 0;
#X connect 5 0 2 0;
#X connect 6 0 1 1;
#X restore 14 126 pd env;
#X connect 0 0 10 0;
#X connect 0 0 16 0;
#X connect 2 0 6 0;
#X connect 3 0 9 0;
#X connect 3 0 10 1;
#X connect 3 0 11 1;
#X connect 3 0 12 1;
#X connect 3 0 16 1;
#X connect 3 0 15 1;
#X connect 3 0 14 1;
#X connect 4 0 3 0;
#X connect 5 0 2 0;
#X connect 6 0 9 0;
#X connect 6 1 9 1;
#X connect 7 0 13 1;
#X connect 8 0 1 0;
#X connect 9 0 7 0;
#X connect 10 0 11 0;
#X connect 10 0 15 0;
#X connect 11 0 12 0;
#X connect 11 0 14 0;
#X connect 12 0 13 0;
#X connect 13 0 8 0;
#X connect 14 0 8 0;
#X connect 15 0 8 0;
#X connect 16 0 8 0;
#X restore 130 129 pd envelope;
#X f 16;
#N canvas 222 38 200 182 timbre 0;
#X obj 16 38 noise~;
#X obj 16 92 hip~;
#X obj 16 116 lop~;
#X floatatom 89 38 5 0 0 0 - - - 0;
#X floatatom 138 38 5 0 0 0 - - - 0;
#X obj 138 59 t b f;
#X obj 16 140 outlet~;
#X obj 89 12 inlet;
#X obj 138 12 inlet;
#X obj 89 92 +;
#X connect 0 0 1 0;
#X connect 1 0 2 0;
#X connect 2 0 6 0;
#X connect 3 0 1 1;
#X connect 3 0 9 0;
#X connect 4 0 5 0;
#X connect 5 0 9 0;
#X connect 5 1 9 1;
#X connect 7 0 3 0;
#X connect 8 0 4 0;
#X connect 9 0 2 1;
#X restore 17 129 pd timbre;
#N canvas 425 246 461 193 presets 0;
#X obj 105 16 inlet;
#X obj 105 40 sel 0 1 2 3;
#X msg 15 94 \; hpfreq 800 \; hprange 500 \; delay 15 \; decay 20;
#X msg 232 94 \; hpfreq 1800 \; hprange 800 \; delay 12 \; decay 33;
#X msg 341 94 \; hpfreq 600 \; hprange 400 \; delay 17 \; decay 20;
#X msg 123 94 \; hpfreq 1200 \; hprange 300 \; delay 10 \; decay 30;
#X connect 0 0 1 0;
#X connect 1 0 2 0;
#X connect 1 1 5 0;
#X connect 1 2 3 0;
#X connect 1 3 4 0;
#X restore 300 104 pd presets;
#X obj 300 80 hradio 19 1 0 4 empty empty empty 0 -10 0 12 #fcfcfc #000000 #000000 0;
#X msg 300 52 1;
#X text 405 27 Simple clap instrument/ abstraction. As seen on https://www.youtube.com/watch?v=3YIsn_t3wk4&list=PLqJgTfn3kSMWwpHS4IYVU5-2J9kkkU188&index=4. Last updated 20.12.2023, f 24;
#X connect 0 0 13 0;
#X connect 1 0 11 0;
#X connect 2 0 13 1;
#X connect 3 0 13 2;
#X connect 4 0 14 0;
#X connect 5 0 14 1;
#X connect 6 0 4 0;
#X connect 7 0 5 0;
#X connect 8 0 2 0;
#X connect 9 0 3 0;
#X connect 10 0 0 0;
#X connect 12 0 17 0;
#X connect 13 0 1 1;
#X connect 14 0 1 0;
#X connect 16 0 15 0;
#X connect 17 0 16 0;
