#N canvas 740 251 398 362 12;
#X obj 25 193 *~ 0.5;
#X obj 105 193 *~ 0.5;
#X obj 87 251 +~;
#X obj 87 275 *~;
#X obj 196 169 vline~;
#X obj 286 169 vline~;
#X obj 87 323 outlet~;
#X floatatom 25 97 5 0 0 0 - - - 0;
#X obj 105 116 * 1.5;
#X obj 105 169 phasor~;
#X msg 105 141 \$1;
#X msg 25 141 \$1;
#X obj 25 169 phasor~;
#X obj 35 43 loadbang;
#X obj 25 16 inlet;
#X msg 286 141 0.5 5 \, 0 \$1 5;
#X msg 196 141 1 5 \, 0 \$1 5;
#X obj 196 16 inlet;
#X obj 105 217 bp~ 0.3;
#X text 66 15 Frequency;
#X obj 228 70 inlet;
#X text 271 70 Decay;
#X msg 35 67 600;
#X obj 286 115 * 4;
#X obj 196 197 pow~ 8;
#X obj 286 197 pow~ 4;
#X obj 87 299 *~ 0.9;
#X text 242 15 Bang;
#X obj 196 95 f 250;
#X connect 0 0 2 0;
#X connect 1 0 18 0;
#X connect 2 0 3 0;
#X connect 3 0 26 0;
#X connect 4 0 24 0;
#X connect 5 0 25 0;
#X connect 7 0 8 0;
#X connect 7 0 11 0;
#X connect 8 0 10 0;
#X connect 8 0 18 1;
#X connect 9 0 1 0;
#X connect 10 0 9 0;
#X connect 11 0 12 0;
#X connect 12 0 0 0;
#X connect 13 0 22 0;
#X connect 14 0 7 0;
#X connect 15 0 5 0;
#X connect 16 0 4 0;
#X connect 17 0 28 0;
#X connect 18 0 2 1;
#X connect 20 0 28 1;
#X connect 22 0 7 0;
#X connect 23 0 15 0;
#X connect 24 0 3 1;
#X connect 25 0 3 1;
#X connect 26 0 6 0;
#X connect 28 0 16 0;
#X connect 28 0 23 0;
