#N canvas 553 172 327 200 12;
#X obj 80 30 vsl 19 58 100 1000 0 0 empty cyfreq Freq 0 -9 0 10 #fcfcfc #000000 #000000 0 1;
#X floatatom 80 94 5 0 0 0 - - - 0;
#X obj 138 30 vsl 19 58 0 1000 0 0 empty cydec Decay 0 -9 0 10 #fcfcfc #000000 #000000 0 1;
#X floatatom 138 94 5 0 0 0 - - - 0;
#X obj 190 28 hradio 19 1 0 2 cyfbank cyfbankinit Filterbank 0 -7 0 10 #c6ffc7 #000000 #000000 0;
#X obj 190 67 loadbang;
#N canvas 121 146 242 433 cymbal 0;
#X obj 30 72 noise~;
#X obj 31 265 *~;
#X floatatom 109 214 5 0 0 0 - - - 0;
#N canvas 121 146 209 187 volenv 0;
#X obj 17 18 inlet;
#X obj 17 42 f 200;
#X obj 17 90 vline~;
#X obj 17 114 *~;
#X obj 17 138 outlet~;
#X obj 60 18 inlet;
#X msg 17 66 1 2 \, 0.4 \$1 3 \, 0 \$1 5;
#X connect 0 0 1 0;
#X connect 1 0 6 0;
#X connect 2 0 3 0;
#X connect 2 0 3 1;
#X connect 3 0 4 0;
#X connect 5 0 1 1;
#X connect 6 0 2 0;
#X restore 49 239 pd volenv;
#N canvas 949 127 528 385 filterbank 0;
#X obj 417 17 inlet~;
#X obj 16 342 outlet~;
#X obj 416 200 lop~ 7000;
#X obj 416 228 hip~ 6800;
#X obj 416 284 hip~ 1200;
#X obj 416 256 hip~ 4800;
#X obj 17 200 biquad~ 0.638282 -0.176456 0.134544 0.269087 0.134544;
#X obj 17 228 biquad~ 0.88843 -0.568944 0.614344 -1.22869 0.614344;
#X obj 17 256 biquad~ 0.88843 -0.568944 0.614344 -1.22869 0.614344;
#X obj 17 284 biquad~ 1.86507 -0.892661 0.939432 -1.87886 0.939432;
#X obj 17 173 *~;
#X obj 416 173 *~;
#X obj 434 69 r cyfbank;
#X obj 434 94 hradio 20 1 0 2 empty empty empty 0 -10 0 12 #fcfcfc #000000 #000000 0;
#X obj 384 128 == 0;
#X obj 35 148 tgl 20 0 empty empty empty 0 -10 0 12 #fcfcfc #000000 #000000 0 1;
#X obj 434 148 tgl 20 0 empty empty empty 0 -10 0 12 #fcfcfc #000000 #000000 0 1;
#X connect 0 0 10 0;
#X connect 0 0 11 0;
#X connect 2 0 3 0;
#X connect 3 0 5 0;
#X connect 4 0 1 0;
#X connect 5 0 4 0;
#X connect 6 0 7 0;
#X connect 7 0 8 0;
#X connect 8 0 9 0;
#X connect 9 0 1 0;
#X connect 10 0 6 0;
#X connect 11 0 2 0;
#X connect 12 0 13 0;
#X connect 13 0 14 0;
#X connect 13 0 16 0;
#X connect 14 0 15 0;
#X connect 15 0 10 1;
#X connect 16 0 11 1;
#X restore 30 120 pd filterbank;
#X floatatom 80 49 5 0 0 0 - - - 0;
#N canvas 101 120 646 401 oscbank 0;
#X obj 16 35 inlet;
#X floatatom 16 109 5 0 0 0 - - - 0;
#X obj 117 15 loadbang;
#X obj 117 109 / 1000;
#X obj 117 133 + 1;
#X floatatom 117 157 5 0 0 0 - - - 0;
#X obj 99 186 *;
#X obj 99 210 phasor~;
#X obj 201 109 / 1000;
#X obj 201 133 + 1;
#X floatatom 201 157 5 0 0 0 - - - 0;
#X obj 183 186 *;
#X obj 183 210 phasor~;
#X obj 285 109 / 1000;
#X obj 285 133 + 1;
#X floatatom 285 157 5 0 0 0 - - - 0;
#X obj 267 186 *;
#X obj 267 210 phasor~;
#X obj 369 109 / 1000;
#X obj 369 133 + 1;
#X floatatom 369 157 5 0 0 0 - - - 0;
#X obj 351 186 *;
#X obj 351 210 phasor~;
#X obj 267 357 outlet~;
#X msg 34 83 220;
#X obj 99 234 expr~ $v1 > 0.55, f 8;
#X obj 183 234 expr~ $v1 > 0.55, f 8;
#X obj 267 234 expr~ $v1 > 0.55, f 8;
#X obj 351 234 expr~ $v1 > 0.55, f 8;
#X obj 267 323 *~ 0.8;
#X obj 16 210 phasor~;
#X obj 16 234 expr~ $v1 > 0.55, f 7;
#X obj 453 109 / 1000;
#X obj 453 133 + 1;
#X floatatom 453 157 5 0 0 0 - - - 0;
#X obj 435 210 phasor~;
#X obj 537 109 / 1000;
#X obj 537 133 + 1;
#X floatatom 537 157 5 0 0 0 - - - 0;
#X obj 519 186 *;
#X obj 519 210 phasor~;
#X obj 435 234 expr~ $v1 > 0.55, f 8;
#X obj 519 234 expr~ $v1 > 0.55, f 8;
#X obj 435 186 *;
#X obj 117 85 random 1500;
#X obj 201 85 random 1500;
#X obj 285 85 random 1500;
#X obj 369 85 random 1500;
#X obj 453 85 random 1500;
#X obj 537 85 random 1500;
#X connect 0 0 1 0;
#X connect 1 0 6 0;
#X connect 1 0 11 0;
#X connect 1 0 16 0;
#X connect 1 0 21 0;
#X connect 1 0 30 0;
#X connect 1 0 43 0;
#X connect 1 0 39 0;
#X connect 2 0 24 0;
#X connect 2 0 44 0;
#X connect 2 0 45 0;
#X connect 2 0 46 0;
#X connect 2 0 47 0;
#X connect 2 0 48 0;
#X connect 2 0 49 0;
#X connect 3 0 4 0;
#X connect 4 0 5 0;
#X connect 5 0 6 1;
#X connect 6 0 7 0;
#X connect 7 0 25 0;
#X connect 8 0 9 0;
#X connect 9 0 10 0;
#X connect 10 0 11 1;
#X connect 11 0 12 0;
#X connect 12 0 26 0;
#X connect 13 0 14 0;
#X connect 14 0 15 0;
#X connect 15 0 16 1;
#X connect 16 0 17 0;
#X connect 17 0 27 0;
#X connect 18 0 19 0;
#X connect 19 0 20 0;
#X connect 20 0 21 1;
#X connect 21 0 22 0;
#X connect 22 0 28 0;
#X connect 24 0 1 0;
#X connect 25 0 29 0;
#X connect 26 0 29 0;
#X connect 27 0 29 0;
#X connect 28 0 29 0;
#X connect 29 0 23 0;
#X connect 30 0 31 0;
#X connect 31 0 29 0;
#X connect 32 0 33 0;
#X connect 33 0 34 0;
#X connect 34 0 43 1;
#X connect 35 0 41 0;
#X connect 36 0 37 0;
#X connect 37 0 38 0;
#X connect 38 0 39 1;
#X connect 39 0 40 0;
#X connect 40 0 42 0;
#X connect 41 0 29 0;
#X connect 42 0 29 0;
#X connect 43 0 35 0;
#X connect 44 0 3 0;
#X connect 45 0 8 0;
#X connect 46 0 13 0;
#X connect 47 0 18 0;
#X connect 48 0 32 0;
#X connect 49 0 36 0;
#X restore 80 72 pd oscbank;
#X obj 45 296 delwrite~ \$0-delight 10;
#X obj 45 321 delread~ \$0-delight 5;
#X obj 31 361 *~ 0.8;
#X obj 49 189 inlet;
#X obj 80 25 inlet;
#X obj 109 189 inlet;
#X obj 31 385 outlet~;
#X obj 30 145 rev2~ 80 90 1000 10;
#X obj 49 214 bng 20 250 50 0 empty empty empty 0 -10 0 12 #fcfcfc #000000 #000000;
#X connect 0 0 4 0;
#X connect 1 0 7 0;
#X connect 1 0 9 0;
#X connect 2 0 3 1;
#X connect 3 0 1 1;
#X connect 4 0 14 0;
#X connect 5 0 6 0;
#X connect 6 0 4 0;
#X connect 8 0 9 0;
#X connect 9 0 13 0;
#X connect 10 0 15 0;
#X connect 11 0 5 0;
#X connect 12 0 2 0;
#X connect 14 0 1 0;
#X connect 15 0 3 0;
#X restore 22 119 pd cymbal;
#X f 17;
#X obj 22 28 inlet;
#X obj 22 163 outlet~;
#X msg 190 90 \; cyfreq 355 \; cydec 1000 \; cyfbankinit 0;
#N canvas 105 230 393 89 presets 0;
#X msg 13 9 \; cyfreq 390 \; cydec 220 \; cyfbankinit 0;
#X msg 131 9 \; cyfreq 220 \; cydec 550 \; cyfbankinit 0;
#X msg 253 9 \; cyfreq 700 \; cydec 660 \; cyfbankinit 0;
#X restore 190 163 pd presets;
#X connect 0 0 1 0;
#X connect 1 0 6 1;
#X connect 2 0 3 0;
#X connect 3 0 6 2;
#X connect 5 0 9 0;
#X connect 6 0 8 0;
#X connect 7 0 6 0;
