#N canvas 559 343 667 294 12;
#X obj 19 229 *~;
#X obj 19 258 outlet~;
#N canvas 72 133 735 577 synth 1;
#X obj 609 317 vline~;
#X obj 609 270 f, f 2;
#X obj 459 479 expr~ atan($v1);
#X floatatom 478 335 5 0 0 0 - - - 0;
#X obj 577 62 t f b;
#X obj 459 504 hip~ 10;
#X floatatom 620 248 5 0 0 0 - - - 0;
#X obj 439 360 *~ 800;
#X obj 439 385 +~ 50;
#X obj 609 341 *~;
#X obj 420 435 hip~;
#X obj 577 37 inlet note;
#X obj 620 225 inlet decay;
#X obj 478 311 inlet filter freq;
#X obj 459 531 outlet~;
#X obj 12 128 mtof;
#X obj 12 172 osc~;
#X obj 539 172 noise~;
#X obj 420 313 +~;
#X obj 420 335 hip~ 5;
#X obj 539 197 *~ 0.7;
#X obj 12 196 *~ 1e+07;
#X obj 12 104 - 12;
#X obj 12 220 clip~ -1 1;
#X obj 182 128 mtof;
#X obj 182 172 phasor~;
#X obj 100 172 osc~;
#X obj 100 196 *~ 1e+07;
#X obj 100 220 clip~ -1 1;
#X obj 12 244 +~;
#X obj 100 147 * 0.96;
#X obj 238 172 phasor~;
#X obj 238 147 * 0.96;
#X obj 182 244 +~;
#X obj 301 128 mtof;
#X obj 357 147 * 0.96;
#X obj 301 172 phasor~;
#X obj 357 172 phasor~;
#X obj 301 104 + 3;
#X obj 301 244 +~;
#X obj 420 128 mtof;
#X obj 476 147 * 0.96;
#X obj 420 172 phasor~;
#X obj 476 172 phasor~;
#X obj 420 244 +~;
#X obj 420 104 + 7;
#X obj 420 196 cos~;
#X obj 476 196 cos~;
#X floatatom 577 86 3 0 0 0 - - - 0;
#X obj 182 104 + 0;
#X obj 459 454 *~;
#X msg 609 293 1 15 \, 0 \$1 45;
#X obj 420 411 vcf~ 3;
#X connect 0 0 9 0;
#X connect 0 0 9 1;
#X connect 1 0 51 0;
#X connect 2 0 5 0;
#X connect 3 0 7 1;
#X connect 3 0 10 1;
#X connect 4 0 48 0;
#X connect 4 1 1 0;
#X connect 5 0 14 0;
#X connect 6 0 1 1;
#X connect 7 0 8 0;
#X connect 8 0 52 1;
#X connect 9 0 50 1;
#X connect 9 0 7 0;
#X connect 10 0 50 0;
#X connect 11 0 4 0;
#X connect 12 0 6 0;
#X connect 13 0 3 0;
#X connect 15 0 16 0;
#X connect 15 0 30 0;
#X connect 16 0 21 0;
#X connect 17 0 20 0;
#X connect 18 0 19 0;
#X connect 19 0 52 0;
#X connect 20 0 18 1;
#X connect 21 0 23 0;
#X connect 22 0 15 0;
#X connect 23 0 29 0;
#X connect 24 0 25 0;
#X connect 24 0 32 0;
#X connect 25 0 33 0;
#X connect 26 0 27 0;
#X connect 27 0 28 0;
#X connect 28 0 29 1;
#X connect 29 0 18 0;
#X connect 30 0 26 0;
#X connect 31 0 33 1;
#X connect 32 0 31 0;
#X connect 33 0 18 0;
#X connect 34 0 35 0;
#X connect 34 0 36 0;
#X connect 35 0 37 0;
#X connect 36 0 39 0;
#X connect 37 0 39 1;
#X connect 38 0 34 0;
#X connect 39 0 18 0;
#X connect 40 0 41 0;
#X connect 40 0 42 0;
#X connect 41 0 43 0;
#X connect 42 0 46 0;
#X connect 43 0 47 0;
#X connect 44 0 18 0;
#X connect 45 0 40 0;
#X connect 46 0 44 0;
#X connect 47 0 44 1;
#X connect 48 0 22 0;
#X connect 48 0 38 0;
#X connect 48 0 45 0;
#X connect 48 0 49 0;
#X connect 49 0 24 0;
#X connect 50 0 2 0;
#X connect 51 0 0 0;
#X connect 52 0 10 0;
#X connect 52 1 50 0;
#X restore 19 130 pd synth;
#N canvas 526 529 355 135 randomizer 0;
#X obj 225 12 inlet;
#X obj 179 40 spigot, f 7;
#X obj 179 12 inlet;
#X obj 11 104 s \$0-kcutinit;
#X obj 179 104 s \$0-kdecinit;
#X obj 11 78 expr random(200 \, 2000);
#X obj 179 78 expr random(500 \, 2000);
#X connect 0 0 1 1;
#X connect 1 0 5 0;
#X connect 1 0 6 0;
#X connect 2 0 1 0;
#X connect 5 0 3 0;
#X connect 6 0 4 0;
#X restore 77 59 pd randomizer;
#X obj 45 11 inlet;
#X floatatom 303 33 5 0 1000 1 - \$0-kdec \$0-dummy 0;
#X obj 232 80 hsl 65 18 0 1 0 0 \$0-kamp \$0-kampinit VOLUME 14 9 0 12 #fcfcfc #7c7c7c #000000 0 1;
#X obj 37 156 r \$0-kamp;
#X obj 72 82 r \$0-kdec;
#X obj 19 105 r \$0-kcut;
#X obj 362 58 f \$0;
#X obj 362 34 bng 20 250 50 0 empty empty empty 0 -10 0 12 #fcfcfc #000000 #000000;
#X text 389 34 Reset;
#X obj 45 35 t f b;
#X obj 105 35 r \$0-kran;
#X obj 229 109 tgl 19 0 \$0-kran \$0-kraninit Randomize 22 10 0 12 #fcfcfc #000000 #000000 0 1;
#X obj 362 11 loadbang;
#X obj 501 11 inlet;
#X listbox 501 35 22 0 0 0 - - - 0;
#X obj 501 88 s \$0-kdecinit;
#X obj 501 114 s \$0-kcutinit;
#X obj 501 141 s \$0-kampinit;
#X obj 501 167 s \$0-kraninit;
#X text 544 10 Preset in;
#X obj 37 204 lop~ 1;
#X obj 37 180 sig~;
#X text 115 192 DSTAB2 is a lightweight Dub Stab synth with a randomizer option., f 33;
#X text 171 228 Author: Martin Heinze, f 25;
#X text 171 248 Last updated 25.07.24, f 25;
#X obj 501 59 unpack f f f f;
#X obj 232 33 hsl 65 18 200 2000 0 0 \$0-kdec \$0-kdecinit DECAY 14 9 0 12 #fcfcfc #7c7c7c #000000 0 1;
#X floatatom 303 57 5 200 2000 1 - \$0-kcut \$0-dummy 0;
#X obj 232 57 hsl 65 18 200 9999 0 0 \$0-kcut \$0-kcutinit CUTOFF 14 9 0 12 #fcfcfc #7c7c7c #000000 0 1;
#X floatatom 303 80 5 0 1 1 - \$0-kamp \$0-dummy 0;
#X msg 362 81 \; \$1-kcutinit 1700 \; \$1-kdecinit 475 \; \$1-kampinit 0.7 \; \$1-kraninit 0;
#X connect 0 0 1 0;
#X connect 2 0 0 0;
#X connect 4 0 13 0;
#X connect 7 0 25 0;
#X connect 8 0 2 2;
#X connect 9 0 2 0;
#X connect 10 0 34 0;
#X connect 11 0 10 0;
#X connect 13 0 2 1;
#X connect 13 1 3 0;
#X connect 14 0 3 1;
#X connect 16 0 11 0;
#X connect 17 0 18 0;
#X connect 18 0 29 0;
#X connect 24 0 0 1;
#X connect 25 0 24 0;
#X connect 29 0 19 0;
#X connect 29 1 20 0;
#X connect 29 2 21 0;
#X connect 29 3 22 0;
#X coords 0 -1 1 1 130 110 2 220 25;
