#N canvas 428 91 760 357 12;
#X obj 19 258 *~;
#X obj 161 259 *~;
#X obj 303 259 *~;
#X obj 19 315 outlet~;
#X obj 161 315 outlet~;
#X obj 303 315 outlet~;
#N canvas 256 88 447 429 synth 0;
#X obj 71 255 *~;
#X obj 246 121 vline~;
#X obj 246 67 f, f 2;
#X obj 71 379 outlet~;
#X obj 71 280 expr~ atan($v1);
#X obj 51 189 +~ 25;
#X obj 51 164 *~ 500;
#X floatatom 90 139 5 0 0 0 - - - 0;
#X obj 90 114 inlet;
#X text 131 113 Filter CutOff;
#X obj 32 13 inlet;
#X obj 32 48 t f b;
#X text 80 12 MIDI Note in;
#X obj 32 215 vcf~ 6;
#X obj 246 145 pow~ 2;
#X obj 138 379 outlet~;
#X obj 282 379 outlet~;
#X text 196 378 Output L;
#X text 341 378 Output R;
#X obj 138 341 rev2~ 95 65 1000 10, f 21;
#X obj 71 305 hip~ 10;
#X obj 210 280 inlet;
#X floatatom 210 305 5 0 0 0 - - - 0;
#X text 254 279 Reverb amt.;
#X obj 257 13 inlet;
#X floatatom 257 45 5 0 0 0 - - - 0;
#N canvas 57 88 303 234 oscillators 0;
#X obj 27 16 inlet;
#X obj 27 155 +~;
#X floatatom 27 44 5 0 0 0 - - - 0;
#X obj 27 67 mtof;
#X obj 27 122 phasor~;
#X msg 163 62 seed 123;
#X obj 163 97 noise~;
#X obj 163 122 *~ 0.2;
#X obj 27 185 outlet~;
#X obj 87 122 phasor~;
#X obj 87 94 * 0.97;
#X connect 0 0 2 0;
#X connect 1 0 8 0;
#X connect 2 0 5 0;
#X connect 2 0 3 0;
#X connect 3 0 4 0;
#X connect 3 0 10 0;
#X connect 4 0 1 0;
#X connect 5 0 6 0;
#X connect 6 0 7 0;
#X connect 7 0 1 1;
#X connect 9 0 1 1;
#X connect 10 0 9 0;
#X restore 32 85 pd oscillators;
#X msg 246 97 1 5 \, 0 \$1 20;
#X text 300 12 Decay;
#X connect 0 0 4 0;
#X connect 1 0 14 0;
#X connect 2 0 27 0;
#X connect 4 0 20 0;
#X connect 5 0 13 1;
#X connect 6 0 5 0;
#X connect 7 0 6 1;
#X connect 8 0 7 0;
#X connect 10 0 11 0;
#X connect 11 0 26 0;
#X connect 11 1 2 0;
#X connect 13 0 0 0;
#X connect 13 1 0 0;
#X connect 14 0 0 1;
#X connect 14 0 6 0;
#X connect 19 0 15 0;
#X connect 19 1 16 0;
#X connect 19 2 15 0;
#X connect 19 3 16 0;
#X connect 20 0 3 0;
#X connect 20 0 19 0;
#X connect 21 0 22 0;
#X connect 22 0 19 2;
#X connect 24 0 25 0;
#X connect 25 0 2 1;
#X connect 26 0 13 0;
#X connect 27 0 1 0;
#X restore 19 207 pd synth;
#X f 41;
#X text 80 314 Mono;
#X text 219 314 Out l;
#X text 363 314 Out R;
#N canvas 785 451 495 152 randomizer 0;
#X obj 225 12 inlet;
#X obj 179 40 spigot, f 7;
#X obj 179 12 inlet;
#X obj 11 104 s \$0-kcutinit;
#X obj 179 104 s \$0-krevinit;
#X obj 327 104 s \$0-kdecinit;
#X obj 327 78 expr random(100 \, 2000);
#X obj 11 78 expr random(200 \, 1200);
#X obj 179 78 expr random(87 \, 94);
#X connect 0 0 1 1;
#X connect 1 0 6 0;
#X connect 1 0 7 0;
#X connect 1 0 8 0;
#X connect 2 0 1 0;
#X connect 6 0 5 0;
#X connect 7 0 3 0;
#X connect 8 0 4 0;
#X restore 51 59 pd randomizer;
#X obj 19 11 inlet;
#X floatatom 256 58 4 0 16000 1 CutOff \$0-kcutinit \$0-kcut 0;
#X floatatom 256 81 4 0 99 1 Reverb \$0-krevinit \$0-krev 0;
#X floatatom 256 35 4 0 1000 1 Decay \$0-kdecinit \$0-kdec 0;
#X obj 259 104 hsl 55 19 0 1 0 0 \$0-kamp \$0-kampinit Vol 60 10 0 12 #fcfcfc #000000 #000000 0 1;
#X obj 321 233 r \$0-kamp;
#X obj 179 233 r \$0-kamp;
#X obj 37 232 r \$0-kamp;
#X obj 303 181 r \$0-kdec;
#X obj 208 181 r \$0-krev;
#X obj 113 181 r \$0-kcut;
#X obj 392 58 f \$0;
#X obj 392 34 bng 20 250 50 0 empty empty empty 0 -10 0 12 #fcfcfc #000000 #000000;
#X text 419 34 Reset;
#X obj 19 35 t f b;
#X obj 139 35 r \$0-kran;
#X obj 256 128 tgl 19 0 \$0-kran \$0-kraninit Randomize 22 10 0 12 #fcfcfc #000000 #000000 0 1;
#X obj 392 11 loadbang;
#X text 63 10 MIDI note in;
#X obj 571 11 inlet;
#X listbox 571 35 22 0 0 0 - - - 0;
#X obj 571 59 unpack f f f f f;
#X obj 571 88 s \$0-kdecinit;
#X obj 571 114 s \$0-kcutinit;
#X obj 571 166 s \$0-kampinit;
#X obj 571 192 s \$0-kraninit;
#X text 614 10 Preset in;
#X obj 571 140 s \$0-krevinit;
#X msg 392 81 \; \$1-kcutinit 400 \; \$1-krevinit 85 \; \$1-kdecinit 600 \; \$1-kampinit 0.7 \; \$1-kraninit 0;
#X text 49 84 DSTAB mini is a lightweight stab synth with a randomizer option. Last updated 24.6.23, f 25;
#X obj 19 283 hip~ 150;
#X obj 161 283 hip~ 150;
#X obj 303 283 hip~ 150;
#X connect 0 0 41 0;
#X connect 1 0 42 0;
#X connect 2 0 43 0;
#X connect 6 0 0 0;
#X connect 6 1 1 0;
#X connect 6 2 2 0;
#X connect 11 0 25 0;
#X connect 16 0 2 1;
#X connect 17 0 1 1;
#X connect 18 0 0 1;
#X connect 19 0 6 3;
#X connect 20 0 6 2;
#X connect 21 0 6 1;
#X connect 22 0 39 0;
#X connect 23 0 22 0;
#X connect 25 0 6 0;
#X connect 25 1 10 0;
#X connect 26 0 10 1;
#X connect 28 0 23 0;
#X connect 30 0 31 0;
#X connect 31 0 32 0;
#X connect 32 0 33 0;
#X connect 32 1 34 0;
#X connect 32 2 38 0;
#X connect 32 3 35 0;
#X connect 32 4 36 0;
#X connect 41 0 3 0;
#X connect 42 0 4 0;
#X connect 43 0 5 0;
#X coords 0 -1 1 1 95 130 2 250 25;
