#N canvas 532 329 674 324 12;
#X obj 19 259 *~;
#X obj 19 288 outlet~;
#N canvas 360 312 318 443 synth 0;
#X obj 51 248 *~;
#X obj 201 110 vline~;
#X obj 201 57 f, f 2;
#X obj 51 273 expr~ atan($v1);
#X floatatom 70 129 5 0 0 0 - - - 0;
#X obj 12 38 t f b;
#X obj 81 350 rev2~ 95 65 1000 10, f 21;
#X obj 51 298 hip~ 10;
#X floatatom 153 320 5 0 0 0 - - - 0;
#X floatatom 212 35 5 0 0 0 - - - 0;
#N canvas 271 203 641 342 oscillators 0;
#X floatatom 181 31 5 0 0 0 - - - 0;
#X obj 11 74 mtof;
#X obj 11 118 osc~;
#X obj 538 118 noise~;
#X obj 419 306 outlet~;
#X obj 419 239 +~;
#X obj 419 277 hip~ 5;
#X obj 538 143 *~ 0.7;
#X obj 11 142 *~ 1e+07;
#X obj 11 49 - 12;
#X obj 11 166 clip~ -1 1;
#X obj 181 74 mtof;
#X obj 181 118 phasor~;
#X obj 99 118 osc~;
#X obj 99 142 *~ 1e+07;
#X obj 99 166 clip~ -1 1;
#X obj 11 190 +~;
#X obj 99 93 * 0.96;
#X obj 237 118 phasor~;
#X obj 237 93 * 0.96;
#X obj 181 190 +~;
#X obj 300 74 mtof;
#X obj 356 93 * 0.96;
#X obj 300 118 phasor~;
#X obj 356 118 phasor~;
#X obj 300 49 + 3;
#X obj 300 190 +~;
#X obj 419 74 mtof;
#X obj 475 93 * 0.96;
#X obj 419 118 phasor~;
#X obj 475 118 phasor~;
#X obj 419 190 +~;
#X obj 419 49 + 7;
#X obj 419 142 cos~;
#X obj 475 142 cos~;
#X obj 181 8 inlet note;
#X obj 538 74 inlet detune;
#X connect 0 0 9 0;
#X connect 0 0 11 0;
#X connect 0 0 25 0;
#X connect 0 0 32 0;
#X connect 1 0 2 0;
#X connect 1 0 17 0;
#X connect 2 0 8 0;
#X connect 3 0 7 0;
#X connect 5 0 6 0;
#X connect 6 0 4 0;
#X connect 7 0 5 1;
#X connect 8 0 10 0;
#X connect 9 0 1 0;
#X connect 10 0 16 0;
#X connect 11 0 12 0;
#X connect 11 0 19 0;
#X connect 12 0 20 0;
#X connect 13 0 14 0;
#X connect 14 0 15 0;
#X connect 15 0 16 1;
#X connect 16 0 5 0;
#X connect 17 0 13 0;
#X connect 18 0 20 1;
#X connect 19 0 18 0;
#X connect 20 0 5 0;
#X connect 21 0 22 0;
#X connect 21 0 23 0;
#X connect 22 0 24 0;
#X connect 23 0 26 0;
#X connect 24 0 26 1;
#X connect 25 0 21 0;
#X connect 26 0 5 0;
#X connect 27 0 28 0;
#X connect 27 0 29 0;
#X connect 28 0 30 0;
#X connect 29 0 33 0;
#X connect 30 0 34 0;
#X connect 31 0 5 0;
#X connect 32 0 27 0;
#X connect 33 0 31 0;
#X connect 34 0 31 1;
#X connect 35 0 0 0;
#X connect 36 0 28 1;
#X connect 36 0 22 1;
#X connect 36 0 19 1;
#X connect 36 0 17 1;
#X restore 12 75 pd oscillators;
#X obj 31 154 *~ 800;
#X obj 31 179 +~ 50;
#X obj 201 134 *~;
#X msg 201 86 1 5 \, 0 \$1 35;
#X obj 12 229 hip~;
#X obj 12 205 vcf~ 3;
#X obj 12 13 inlet note;
#X obj 212 12 inlet decay;
#X obj 70 105 inlet filter freq;
#X obj 153 298 inlet reverb;
#X obj 81 386 snake~, f 21;
#X obj 81 410 outlet~;
#X connect 0 0 3 0;
#X connect 1 0 13 0;
#X connect 1 0 13 1;
#X connect 2 0 14 0;
#X connect 3 0 7 0;
#X connect 4 0 11 1;
#X connect 4 0 15 1;
#X connect 5 0 10 0;
#X connect 5 1 2 0;
#X connect 6 0 21 0;
#X connect 6 1 21 1;
#X connect 6 2 21 0;
#X connect 6 2 21 1;
#X connect 6 3 21 1;
#X connect 7 0 6 0;
#X connect 7 0 21 0;
#X connect 7 0 21 1;
#X connect 8 0 6 2;
#X connect 9 0 2 1;
#X connect 10 0 16 0;
#X connect 11 0 12 0;
#X connect 12 0 16 1;
#X connect 13 0 11 0;
#X connect 13 0 0 1;
#X connect 14 0 1 0;
#X connect 15 0 0 0;
#X connect 16 0 15 0;
#X connect 16 1 0 0;
#X connect 17 0 5 0;
#X connect 18 0 9 0;
#X connect 19 0 4 0;
#X connect 20 0 8 0;
#X connect 21 0 22 0;
#X restore 19 160 pd synth;
#N canvas 526 529 500 135 randomizer 0;
#X obj 179 78 expr random(87 \, 99);
#X obj 225 12 inlet;
#X obj 179 40 spigot, f 7;
#X obj 179 12 inlet;
#X obj 11 104 s \$0-kcutinit;
#X obj 179 104 s \$0-krevinit;
#X obj 327 104 s \$0-kdecinit;
#X obj 11 78 expr random(200 \, 2000);
#X obj 327 78 expr random(100 \, 1000);
#X connect 0 0 5 0;
#X connect 1 0 2 1;
#X connect 2 0 0 0;
#X connect 2 0 7 0;
#X connect 2 0 8 0;
#X connect 3 0 2 0;
#X connect 7 0 4 0;
#X connect 8 0 6 0;
#X restore 51 59 pd randomizer;
#X obj 19 11 inlet;
#X floatatom 256 58 4 0 16000 1 CutOff \$0-kcutinit \$0-kcut 0;
#X floatatom 256 81 4 0 99 1 Reverb \$0-krevinit \$0-krev 0;
#X floatatom 256 35 4 0 1000 1 Decay \$0-kdecinit \$0-kdec 0;
#X obj 259 104 hsl 55 19 0 1 0 0 \$0-kamp \$0-kampinit Vol 60 10 0 12 #fcfcfc #000000 #000000 0 1;
#X obj 37 186 r \$0-kamp;
#X obj 72 86 r \$0-kdec;
#X obj 54 110 r \$0-krev;
#X obj 36 134 r \$0-kcut;
#X obj 362 58 f \$0;
#X obj 362 34 bng 20 250 50 0 empty empty empty 0 -10 0 12 #fcfcfc #000000 #000000;
#X text 389 34 Reset;
#X obj 19 35 t f b;
#X obj 139 35 r \$0-kran;
#X obj 256 128 tgl 19 0 \$0-kran \$0-kraninit Randomize 22 10 0 12 #fcfcfc #000000 #000000 0 1;
#X obj 362 11 loadbang;
#X obj 501 11 inlet;
#X listbox 501 35 22 0 0 0 - - - 0;
#X obj 501 59 unpack f f f f f;
#X obj 501 88 s \$0-kdecinit;
#X obj 501 114 s \$0-kcutinit;
#X obj 501 166 s \$0-kampinit;
#X obj 501 192 s \$0-kraninit;
#X text 544 10 Preset in;
#X obj 501 140 s \$0-krevinit;
#X msg 362 81 \; \$1-kcutinit 500 \; \$1-krevinit 85 \; \$1-kdecinit 175 \; \$1-kampinit 0.7 \; \$1-kraninit 0;
#X obj 37 234 lop~ 1;
#X obj 37 210 sig~;
#X text 251 182 DSTAB2 is a lightweight Dub Stab synth with a randomizer option., f 33;
#X text 307 218 Author: Martin Heinze, f 25;
#X text 307 238 Last updated 25.07.24, f 25;
#X connect 0 0 1 0;
#X connect 2 0 0 0;
#X connect 4 0 16 0;
#X connect 9 0 31 0;
#X connect 10 0 2 3;
#X connect 11 0 2 2;
#X connect 12 0 2 1;
#X connect 13 0 29 0;
#X connect 14 0 13 0;
#X connect 16 0 2 0;
#X connect 16 1 3 0;
#X connect 17 0 3 1;
#X connect 19 0 14 0;
#X connect 20 0 21 0;
#X connect 21 0 22 0;
#X connect 22 0 23 0;
#X connect 22 1 24 0;
#X connect 22 2 28 0;
#X connect 22 3 25 0;
#X connect 22 4 26 0;
#X connect 30 0 0 1;
#X connect 31 0 30 0;
#X coords 0 -1 1 1 95 130 2 250 25;
