#N canvas 196 255 751 332 12;
#X obj 19 258 *~;
#X obj 161 259 *~;
#X obj 303 259 *~;
#X obj 19 285 outlet~;
#X obj 161 285 outlet~;
#X obj 303 285 outlet~;
#N canvas 256 88 447 429 synth 0;
#X obj 71 255 *~;
#X obj 246 121 vline~;
#X obj 246 67 f, f 2;
#X obj 71 379 outlet~;
#X obj 71 280 expr~ atan($v1);
#X obj 51 189 +~ 25;
#X obj 51 164 *~ 500;
#X floatatom 90 139 5 0 0 0 - - - 0;
#X obj 90 114 inlet;
#X text 131 113 Filter CutOff;
#X obj 32 13 inlet;
#X obj 32 48 t f b;
#X text 80 12 MIDI Note in;
#X obj 32 215 vcf~ 6;
#X obj 246 145 pow~ 2;
#X obj 138 379 outlet~;
#X obj 282 379 outlet~;
#X text 196 378 Output L;
#X text 341 378 Output R;
#X obj 138 341 rev2~ 95 65 1000 10, f 21;
#X obj 71 305 hip~ 10;
#X obj 210 280 inlet;
#X floatatom 210 305 5 0 0 0 - - - 0;
#X text 254 279 Reverb amt.;
#X obj 257 13 inlet;
#X floatatom 257 45 5 0 0 0 - - - 0;
#N canvas 57 88 705 357 oscillators 0;
#X obj 120 17 inlet;
#X obj 120 242 +~;
#X floatatom 120 45 5 0 0 0 - - - 0;
#X obj 31 89 - 12;
#X obj 31 114 mtof;
#X obj 31 189 osc~;
#X obj 31 214 expr~ $v1>1;
#X obj 180 89 + 3;
#X obj 180 114 mtof;
#X obj 180 189 phasor~;
#X obj 243 114 mtof;
#X obj 243 189 phasor~;
#X obj 243 89 + 7;
#X msg 306 89 seed 123;
#X obj 306 164 noise~;
#X obj 306 189 *~ 0.2;
#X obj 462 271 +~;
#X obj 462 295 outlet~;
#X obj 391 189 osc~;
#X obj 391 214 expr~ $v1>1;
#X obj 540 189 phasor~;
#X obj 603 189 phasor~;
#X obj 540 164 * 0.97;
#X obj 480 242 *~ 0.75;
#X obj 391 164 * 0.97;
#X obj 603 164 * 0.97;
#X obj 120 114 mtof;
#X obj 120 189 phasor~;
#X obj 480 189 phasor~;
#X obj 480 164 * 0.97;
#X connect 0 0 2 0;
#X connect 1 0 16 0;
#X connect 2 0 3 0;
#X connect 2 0 7 0;
#X connect 2 0 12 0;
#X connect 2 0 13 0;
#X connect 2 0 26 0;
#X connect 3 0 4 0;
#X connect 4 0 5 0;
#X connect 4 0 24 0;
#X connect 5 0 6 0;
#X connect 6 0 1 0;
#X connect 7 0 8 0;
#X connect 8 0 9 0;
#X connect 8 0 22 0;
#X connect 9 0 1 0;
#X connect 10 0 11 0;
#X connect 10 0 25 0;
#X connect 11 0 1 0;
#X connect 12 0 10 0;
#X connect 13 0 14 0;
#X connect 14 0 15 0;
#X connect 15 0 1 1;
#X connect 16 0 17 0;
#X connect 18 0 19 0;
#X connect 19 0 23 0;
#X connect 20 0 23 0;
#X connect 21 0 23 0;
#X connect 22 0 20 0;
#X connect 23 0 16 1;
#X connect 24 0 18 0;
#X connect 25 0 21 0;
#X connect 26 0 27 0;
#X connect 26 0 29 0;
#X connect 27 0 1 0;
#X connect 28 0 23 0;
#X connect 29 0 28 0;
#X restore 32 85 pd oscillators;
#X msg 246 97 1 5 \, 0 \$1 20;
#X text 300 12 Decay;
#X connect 0 0 4 0;
#X connect 1 0 14 0;
#X connect 2 0 27 0;
#X connect 4 0 20 0;
#X connect 5 0 13 1;
#X connect 6 0 5 0;
#X connect 7 0 6 1;
#X connect 8 0 7 0;
#X connect 10 0 11 0;
#X connect 11 0 26 0;
#X connect 11 1 2 0;
#X connect 13 0 0 0;
#X connect 13 1 0 0;
#X connect 14 0 0 1;
#X connect 14 0 6 0;
#X connect 19 0 15 0;
#X connect 19 1 15 0;
#X connect 19 2 16 0;
#X connect 19 3 16 0;
#X connect 20 0 3 0;
#X connect 20 0 19 0;
#X connect 21 0 22 0;
#X connect 22 0 19 2;
#X connect 24 0 25 0;
#X connect 25 0 2 1;
#X connect 26 0 13 0;
#X connect 27 0 1 0;
#X restore 19 207 pd synth;
#X f 41;
#X text 80 284 Mono;
#X text 219 284 Out l;
#X text 363 284 Out R;
#N canvas 461 206 495 152 randomizer 0;
#X obj 327 78 expr random(30 \, 300);
#X obj 11 78 expr random(30 \, 1000);
#X obj 179 78 expr random(87 \, 99);
#X obj 225 12 inlet;
#X obj 179 40 spigot, f 7;
#X obj 179 12 inlet;
#X obj 11 104 s \$0-kcutinit;
#X obj 179 104 s \$0-krevinit;
#X obj 327 104 s \$0-kdecinit;
#X connect 0 0 8 0;
#X connect 1 0 6 0;
#X connect 2 0 7 0;
#X connect 3 0 4 1;
#X connect 4 0 1 0;
#X connect 4 0 2 0;
#X connect 4 0 0 0;
#X connect 5 0 4 0;
#X restore 51 59 pd randomizer;
#X obj 19 11 inlet;
#X floatatom 256 58 4 0 16000 1 CutOff \$0-kcutinit \$0-kcut 0;
#X floatatom 256 81 4 0 99 1 Reverb \$0-krevinit \$0-krev 0;
#X floatatom 256 35 4 0 1000 1 Decay \$0-kdecinit \$0-kdec 0;
#X obj 259 104 hsl 55 19 0 1 0 0 \$0-kamp \$0-kampinit Vol 60 10 0 12 #fcfcfc #000000 #000000 0 1;
#X obj 321 233 r \$0-kamp;
#X obj 179 233 r \$0-kamp;
#X obj 37 232 r \$0-kamp;
#X obj 303 181 r \$0-kdec;
#X obj 208 181 r \$0-krev;
#X obj 113 181 r \$0-kcut;
#X obj 392 59 f \$0;
#X obj 392 35 bng 20 250 50 0 empty empty empty 0 -10 0 12 #fcfcfc #000000 #000000;
#X text 419 34 Reset;
#X obj 19 35 t f b;
#X obj 139 35 r \$0-kran;
#X obj 256 128 tgl 19 0 \$0-kran \$0-kraninit Randomize 22 10 0 12 #fcfcfc #000000 #000000 0 1;
#X obj 392 11 loadbang;
#X text 63 10 MIDI note in;
#X text 49 84 DSTAB is a lightweight Dub Stab synth with a randomizer option. Last updated 9.6.23, f 25;
#X obj 571 11 inlet;
#X listbox 571 35 22 0 0 0 - - - 0;
#X obj 571 59 unpack f f f f f;
#X obj 571 88 s \$0-kdecinit;
#X obj 571 114 s \$0-kcutinit;
#X obj 571 166 s \$0-kampinit;
#X obj 571 192 s \$0-kraninit;
#X text 614 10 Preset in;
#X msg 392 88 \; \$1-kdecinit 75 \; \$1-kcutinit 200 \; \$1-krevinit 85 \; \$1-kampinit 0.7 \; \$1-kraninit 0;
#X obj 571 140 s \$0-krevinit;
#X connect 0 0 3 0;
#X connect 1 0 4 0;
#X connect 2 0 5 0;
#X connect 6 0 0 0;
#X connect 6 1 1 0;
#X connect 6 2 2 0;
#X connect 11 0 25 0;
#X connect 16 0 2 1;
#X connect 17 0 1 1;
#X connect 18 0 0 1;
#X connect 19 0 6 3;
#X connect 20 0 6 2;
#X connect 21 0 6 1;
#X connect 22 0 39 0;
#X connect 23 0 22 0;
#X connect 25 0 6 0;
#X connect 25 1 10 0;
#X connect 26 0 10 1;
#X connect 28 0 23 0;
#X connect 31 0 32 0;
#X connect 32 0 33 0;
#X connect 33 0 34 0;
#X connect 33 1 35 0;
#X connect 33 2 40 0;
#X connect 33 3 36 0;
#X connect 33 4 37 0;
#X coords 0 -1 1 1 95 130 2 250 25;
