#N canvas 442 462 667 294 12;
#X obj 19 229 *~;
#X obj 19 258 outlet~;
#N canvas 195 290 786 524 synth 1;
#X obj 610 261 vline~;
#X obj 610 214 f, f 2;
#X floatatom 621 192 5 0 0 0 - - - 0;
#X obj 610 285 *~;
#X obj 577 7 inlet note;
#X obj 621 169 inlet decay;
#X obj 478 281 inlet filter freq;
#X obj 459 497 outlet~;
#X obj 12 98 mtof;
#X obj 12 142 osc~;
#X obj 539 142 noise~;
#X obj 420 283 +~;
#X obj 420 305 hip~ 5;
#X obj 12 166 *~ 1e+07;
#X obj 12 74 - 12;
#X obj 12 190 clip~ -1 1;
#X obj 182 98 mtof;
#X obj 182 142 phasor~;
#X obj 100 142 osc~;
#X obj 100 166 *~ 1e+07;
#X obj 100 190 clip~ -1 1;
#X obj 12 214 +~;
#X obj 100 117 * 0.96;
#X obj 238 142 phasor~;
#X obj 238 117 * 0.96;
#X obj 182 214 +~;
#X obj 301 98 mtof;
#X obj 357 117 * 0.96;
#X obj 301 142 phasor~;
#X obj 357 142 phasor~;
#X obj 301 74 + 3;
#X obj 301 214 +~;
#X obj 420 98 mtof;
#X obj 476 117 * 0.96;
#X obj 420 142 phasor~;
#X obj 476 142 phasor~;
#X obj 420 214 +~;
#X obj 420 74 + 7;
#X obj 420 166 cos~;
#X obj 476 166 cos~;
#X floatatom 577 56 3 0 0 0 - - - 0;
#X obj 182 74 + 0;
#X obj 459 424 *~;
#X obj 610 311 *~;
#X obj 439 330 *~;
#X obj 539 167 *~ 0.3;
#X obj 459 449 *~ 0.6;
#X floatatom 533 99 6 0 0 0 - - - 0;
#X obj 459 471 hip~ 5;
#X obj 478 305 sig~;
#X obj 439 355 +~ 10;
#X obj 420 381 vcf~ 3;
#X obj 577 32 t f b b, f 10;
#X msg 610 237 0.8 2 3 \, 1 2 5 \, 0 \$1 7;
#X connect 0 0 3 0;
#X connect 0 0 3 1;
#X connect 1 0 53 0;
#X connect 2 0 1 1;
#X connect 3 0 43 0;
#X connect 3 0 43 1;
#X connect 4 0 52 0;
#X connect 5 0 2 0;
#X connect 6 0 49 0;
#X connect 8 0 9 0;
#X connect 8 0 22 0;
#X connect 9 0 13 0;
#X connect 10 0 45 0;
#X connect 11 0 12 0;
#X connect 12 0 51 0;
#X connect 13 0 15 0;
#X connect 14 0 8 0;
#X connect 15 0 21 0;
#X connect 16 0 17 0;
#X connect 16 0 24 0;
#X connect 17 0 25 0;
#X connect 18 0 19 0;
#X connect 19 0 20 0;
#X connect 20 0 21 1;
#X connect 21 0 11 0;
#X connect 22 0 18 0;
#X connect 23 0 25 1;
#X connect 24 0 23 0;
#X connect 25 0 11 0;
#X connect 26 0 27 0;
#X connect 26 0 28 0;
#X connect 27 0 29 0;
#X connect 28 0 31 0;
#X connect 29 0 31 1;
#X connect 30 0 26 0;
#X connect 31 0 11 0;
#X connect 32 0 33 0;
#X connect 32 0 34 0;
#X connect 33 0 35 0;
#X connect 34 0 38 0;
#X connect 35 0 39 0;
#X connect 36 0 11 0;
#X connect 37 0 32 0;
#X connect 38 0 36 0;
#X connect 39 0 36 1;
#X connect 40 0 14 0;
#X connect 40 0 30 0;
#X connect 40 0 37 0;
#X connect 40 0 41 0;
#X connect 41 0 16 0;
#X connect 42 0 46 0;
#X connect 43 0 42 1;
#X connect 43 0 44 0;
#X connect 44 0 50 0;
#X connect 45 0 11 1;
#X connect 46 0 48 0;
#X connect 47 0 22 1;
#X connect 47 0 33 1;
#X connect 47 0 27 1;
#X connect 47 0 24 1;
#X connect 48 0 7 0;
#X connect 49 0 44 1;
#X connect 50 0 51 1;
#X connect 51 0 42 0;
#X connect 51 1 42 0;
#X connect 52 0 40 0;
#X connect 52 1 1 0;
#X connect 53 0 0 0;
#X restore 19 130 pd synth;
#N canvas 526 529 355 135 randomizer 0;
#X obj 225 12 inlet;
#X obj 179 40 spigot, f 7;
#X obj 179 12 inlet;
#X obj 11 104 s \$0-kcutinit;
#X obj 179 104 s \$0-kdecinit;
#X obj 11 78 expr random(200 \, 2000);
#X obj 179 78 expr random(500 \, 2000);
#X connect 0 0 1 1;
#X connect 1 0 5 0;
#X connect 1 0 6 0;
#X connect 2 0 1 0;
#X connect 5 0 3 0;
#X connect 6 0 4 0;
#X restore 77 59 pd randomizer;
#X obj 45 11 inlet;
#X floatatom 303 53 5 0 1000 1 - \$0-kdec \$0-dummy 0;
#X obj 232 100 hsl 65 18 0 1 0 0 \$0-kamp \$0-kampinit VOLUME 14 9 0 12 #fcfcfc #7c7c7c #000000 0 1;
#X obj 37 156 r \$0-kamp;
#X obj 72 82 r \$0-kdec;
#X obj 19 105 r \$0-kcut;
#X obj 362 58 f \$0;
#X obj 362 34 bng 20 250 50 0 empty empty empty 0 -10 0 12 #fcfcfc #000000 #000000;
#X text 389 34 Reset;
#X obj 45 35 t f b;
#X obj 105 35 r \$0-kran;
#X obj 229 129 tgl 19 0 \$0-kran \$0-kraninit Randomize 22 10 0 12 #fcfcfc #000000 #000000 0 1;
#X obj 362 11 loadbang;
#X obj 501 11 inlet;
#X listbox 501 35 22 0 0 0 - - - 0;
#X obj 501 88 s \$0-kdecinit;
#X obj 501 114 s \$0-kcutinit;
#X obj 501 141 s \$0-kampinit;
#X obj 501 167 s \$0-kraninit;
#X text 544 10 Preset in;
#X obj 37 204 lop~ 1;
#X obj 37 180 sig~;
#X text 115 192 DSTAB2 is a lightweight Dub Stab synth with a randomizer option., f 33;
#X text 171 228 Author: Martin Heinze, f 25;
#X text 171 248 Last updated 25.07.24, f 25;
#X obj 501 59 unpack f f f f;
#X obj 232 53 hsl 65 18 200 2000 0 0 \$0-kdec \$0-kdecinit DECAY 14 9 0 12 #fcfcfc #7c7c7c #000000 0 1;
#X floatatom 303 77 5 200 2000 1 - \$0-kcut \$0-dummy 0;
#X obj 232 77 hsl 65 18 200 9999 0 0 \$0-kcut \$0-kcutinit CUTOFF 14 9 0 12 #fcfcfc #7c7c7c #000000 0 1;
#X floatatom 303 100 5 0 1 1 - \$0-kamp \$0-dummy 0;
#X text 224 27 ==== DSTAB 2 ====;
#X msg 362 81 \; \$1-kcutinit 1200 \; \$1-kdecinit 475 \; \$1-kampinit 0.6 \; \$1-kraninit 0;
#X connect 0 0 1 0;
#X connect 2 0 0 0;
#X connect 4 0 13 0;
#X connect 7 0 25 0;
#X connect 8 0 2 2;
#X connect 9 0 2 0;
#X connect 10 0 35 0;
#X connect 11 0 10 0;
#X connect 13 0 2 1;
#X connect 13 1 3 0;
#X connect 14 0 3 1;
#X connect 16 0 11 0;
#X connect 17 0 18 0;
#X connect 18 0 29 0;
#X connect 24 0 0 1;
#X connect 25 0 24 0;
#X connect 29 0 19 0;
#X connect 29 1 20 0;
#X connect 29 2 21 0;
#X connect 29 3 22 0;
#X coords 0 -1 1 1 130 130 2 220 25;
