#N canvas 155 85 771 381 12;
#X obj 19 258 *~;
#X obj 161 259 *~;
#X obj 303 259 *~;
#N canvas 373 44 465 594 synth 0;
#X obj 78 425 *~;
#X obj 246 291 vline~;
#X obj 271 105 f;
#X obj 78 549 outlet~;
#X obj 78 450 expr~ atan($v1);
#X obj 51 359 +~ 25;
#X obj 51 334 *~ 500;
#X floatatom 90 309 5 0 0 0 - - - 0;
#X obj 90 284 inlet;
#X text 131 283 Filter CutOff;
#X obj 32 13 inlet;
#X obj 32 68 t f b;
#X text 80 12 MIDI Note in;
#X obj 246 315 pow~ 2;
#X obj 145 549 outlet~;
#X obj 289 549 outlet~;
#X text 203 548 Output L;
#X text 348 548 Output R;
#X obj 145 511 rev2~ 95 65 1000 10, f 21;
#X obj 78 475 hip~ 10;
#X obj 217 450 inlet;
#X floatatom 217 475 5 0 0 0 - - - 0;
#X text 261 449 Reverb amt.;
#X obj 257 13 inlet;
#X floatatom 257 44 5 0 0 0 - - - 0;
#N canvas 155 142 318 176 oscillators 0;
#X obj 17 19 inlet;
#N canvas 481 297 754 403 base 0;
#X obj 124 252 +~;
#X floatatom 23 74 5 0 0 0 - - - 0;
#X obj 23 97 mtof;
#X obj 23 189 phasor~;
#X msg 230 93 seed 123;
#X obj 230 189 noise~;
#X obj 124 362 outlet~;
#X obj 83 189 phasor~;
#X floatatom 362 117 5 0 0 0 - - - 0;
#X obj 362 140 sig~;
#X obj 361 165 +~, f 7;
#X obj 361 189 phasor~;
#X obj 361 214 expr~ $v1 > $v2, f 24;
#X obj 525 140 *~ 0.3;
#X obj 525 165 +~ 0.4;
#X text 443 116 Tremolo;
#X text 561 116 Pulsewidth oscillation;
#X obj 525 16 loadbang;
#X obj 525 44 random 1000;
#X obj 525 70 * 0.0001;
#X obj 525 94 + 1;
#X obj 406 16 loadbang;
#X obj 406 44 random 1000;
#X obj 406 70 * 0.0001;
#X obj 406 94 + 4;
#X obj 406 117 osc~;
#X obj 525 117 osc~;
#X obj 83 165 * 0.995;
#X obj 143 189 osc~;
#X obj 143 165 * 0.495;
#X obj 230 214 *~ 0.3;
#X obj 23 18 inlet;
#X obj 124 276 *~ 0.8;
#X obj 406 140 *~ 4;
#X connect 0 0 32 0;
#X connect 1 0 4 0;
#X connect 1 0 2 0;
#X connect 2 0 3 0;
#X connect 2 0 8 0;
#X connect 2 0 27 0;
#X connect 2 0 29 0;
#X connect 3 0 0 0;
#X connect 4 0 5 0;
#X connect 5 0 30 0;
#X connect 7 0 0 1;
#X connect 8 0 9 0;
#X connect 9 0 10 0;
#X connect 10 0 11 0;
#X connect 11 0 12 0;
#X connect 12 0 0 1;
#X connect 13 0 14 0;
#X connect 14 0 12 1;
#X connect 17 0 18 0;
#X connect 18 0 19 0;
#X connect 19 0 20 0;
#X connect 20 0 26 0;
#X connect 21 0 22 0;
#X connect 22 0 23 0;
#X connect 23 0 24 0;
#X connect 24 0 25 0;
#X connect 25 0 33 0;
#X connect 26 0 13 0;
#X connect 27 0 7 0;
#X connect 28 0 0 1;
#X connect 29 0 28 0;
#X connect 30 0 0 1;
#X connect 31 0 1 0;
#X connect 32 0 6 0;
#X connect 33 0 10 1;
#X restore 17 62 pd base;
#N canvas 481 297 754 403 oct 0;
#X obj 124 252 +~;
#X floatatom 23 74 5 0 0 0 - - - 0;
#X obj 23 97 mtof;
#X obj 23 189 phasor~;
#X msg 230 93 seed 123;
#X obj 230 189 noise~;
#X obj 124 362 outlet~;
#X obj 83 189 phasor~;
#X floatatom 362 117 5 0 0 0 - - - 0;
#X obj 362 140 sig~;
#X obj 361 165 +~, f 7;
#X obj 361 189 phasor~;
#X obj 361 214 expr~ $v1 > $v2, f 24;
#X obj 525 140 *~ 0.3;
#X obj 525 165 +~ 0.4;
#X text 443 116 Tremolo;
#X text 561 116 Pulsewidth oscillation;
#X obj 525 16 loadbang;
#X obj 525 44 random 1000;
#X obj 525 70 * 0.0001;
#X obj 525 94 + 1;
#X obj 406 16 loadbang;
#X obj 406 44 random 1000;
#X obj 406 70 * 0.0001;
#X obj 406 94 + 4;
#X obj 406 117 osc~;
#X obj 525 117 osc~;
#X obj 83 165 * 0.995;
#X obj 143 189 osc~;
#X obj 143 165 * 0.495;
#X obj 230 214 *~ 0.3;
#X obj 23 18 inlet;
#X obj 23 42 + 12;
#X obj 124 276 *~ 0.5;
#X obj 406 140 *~ 4;
#X connect 0 0 33 0;
#X connect 1 0 4 0;
#X connect 1 0 2 0;
#X connect 2 0 3 0;
#X connect 2 0 8 0;
#X connect 2 0 27 0;
#X connect 2 0 29 0;
#X connect 3 0 0 0;
#X connect 4 0 5 0;
#X connect 5 0 30 0;
#X connect 7 0 0 1;
#X connect 8 0 9 0;
#X connect 9 0 10 0;
#X connect 10 0 11 0;
#X connect 11 0 12 0;
#X connect 12 0 0 1;
#X connect 13 0 14 0;
#X connect 14 0 12 1;
#X connect 17 0 18 0;
#X connect 18 0 19 0;
#X connect 19 0 20 0;
#X connect 20 0 26 0;
#X connect 21 0 22 0;
#X connect 22 0 23 0;
#X connect 23 0 24 0;
#X connect 24 0 25 0;
#X connect 25 0 34 0;
#X connect 26 0 13 0;
#X connect 27 0 7 0;
#X connect 28 0 0 1;
#X connect 29 0 28 0;
#X connect 30 0 0 1;
#X connect 31 0 32 0;
#X connect 32 0 1 0;
#X connect 33 0 6 0;
#X connect 34 0 10 1;
#X restore 77 62 pd oct;
#X obj 17 126 outlet~;
#N canvas 481 297 754 403 oct 0;
#X obj 124 252 +~;
#X floatatom 23 74 5 0 0 0 - - - 0;
#X obj 23 97 mtof;
#X obj 23 189 phasor~;
#X msg 230 93 seed 123;
#X obj 230 189 noise~;
#X obj 124 362 outlet~;
#X obj 83 189 phasor~;
#X floatatom 362 117 5 0 0 0 - - - 0;
#X obj 362 140 sig~;
#X obj 361 165 +~, f 7;
#X obj 361 189 phasor~;
#X obj 361 214 expr~ $v1 > $v2, f 24;
#X obj 525 140 *~ 0.3;
#X obj 525 165 +~ 0.4;
#X text 443 116 Tremolo;
#X text 561 116 Pulsewidth oscillation;
#X obj 525 16 loadbang;
#X obj 525 44 random 1000;
#X obj 525 70 * 0.0001;
#X obj 525 94 + 1;
#X obj 406 16 loadbang;
#X obj 406 44 random 1000;
#X obj 406 70 * 0.0001;
#X obj 406 94 + 4;
#X obj 406 117 osc~;
#X obj 525 117 osc~;
#X obj 83 165 * 0.995;
#X obj 143 189 osc~;
#X obj 143 165 * 0.495;
#X obj 230 214 *~ 0.3;
#X obj 23 18 inlet;
#X obj 23 42 - 12;
#X obj 124 276 *~ 0.4;
#X obj 406 140 *~ 4;
#X connect 0 0 33 0;
#X connect 1 0 4 0;
#X connect 1 0 2 0;
#X connect 2 0 3 0;
#X connect 2 0 8 0;
#X connect 2 0 27 0;
#X connect 2 0 29 0;
#X connect 3 0 0 0;
#X connect 4 0 5 0;
#X connect 5 0 30 0;
#X connect 7 0 0 1;
#X connect 8 0 9 0;
#X connect 9 0 10 0;
#X connect 10 0 11 0;
#X connect 11 0 12 0;
#X connect 12 0 0 1;
#X connect 13 0 14 0;
#X connect 14 0 12 1;
#X connect 17 0 18 0;
#X connect 18 0 19 0;
#X connect 19 0 20 0;
#X connect 20 0 26 0;
#X connect 21 0 22 0;
#X connect 22 0 23 0;
#X connect 23 0 24 0;
#X connect 24 0 25 0;
#X connect 25 0 34 0;
#X connect 26 0 13 0;
#X connect 27 0 7 0;
#X connect 28 0 0 1;
#X connect 29 0 28 0;
#X connect 30 0 0 1;
#X connect 31 0 32 0;
#X connect 32 0 1 0;
#X connect 33 0 6 0;
#X connect 34 0 10 1;
#X restore 130 62 pd oct;
#X connect 0 0 1 0;
#X connect 0 0 2 0;
#X connect 0 0 4 0;
#X connect 1 0 3 0;
#X connect 2 0 3 0;
#X connect 4 0 3 0;
#X restore 32 255 pd oscillators;
#X text 300 12 Decay;
#X obj 348 13 inlet;
#X floatatom 348 44 5 0 0 0 - - - 0;
#X obj 271 130 pack;
#X obj 246 218 list;
#X obj 348 68 t b f;
#X listbox 246 243 20 0 0 0 - - - 0;
#X obj 257 68 t b f;
#X obj 246 190 bng 20 250 50 0 empty empty empty 0 -10 0 12 #fcfcfc #000000 #000000;
#X text 394 12 Attack;
#X floatatom 32 44 5 0 0 0 - - - 0;
#X msg 246 267 1 \$2 \, 0 \$1 \$2;
#X obj 32 385 vcf~ 8;
#X connect 0 0 4 0;
#X connect 1 0 13 0;
#X connect 2 0 29 0;
#X connect 4 0 19 0;
#X connect 5 0 38 1;
#X connect 6 0 5 0;
#X connect 7 0 6 1;
#X connect 8 0 7 0;
#X connect 10 0 36 0;
#X connect 11 0 25 0;
#X connect 11 1 34 0;
#X connect 13 0 0 1;
#X connect 13 0 6 0;
#X connect 18 0 14 0;
#X connect 18 1 15 0;
#X connect 18 2 14 0;
#X connect 18 3 15 0;
#X connect 19 0 3 0;
#X connect 19 0 18 0;
#X connect 20 0 21 0;
#X connect 21 0 18 2;
#X connect 23 0 24 0;
#X connect 24 0 33 0;
#X connect 25 0 38 0;
#X connect 27 0 28 0;
#X connect 28 0 31 0;
#X connect 29 0 30 1;
#X connect 30 0 32 0;
#X connect 31 0 2 0;
#X connect 31 1 29 1;
#X connect 32 0 37 0;
#X connect 33 0 2 0;
#X connect 33 1 2 1;
#X connect 34 0 30 0;
#X connect 36 0 11 0;
#X connect 37 0 1 0;
#X connect 38 0 0 0;
#X connect 38 1 0 0;
#X restore 19 207 pd synth;
#X f 41;
#X text 80 284 Mono;
#X text 219 284 Out l;
#X text 363 284 Out R;
#N canvas 661 193 677 152 randomizer 1;
#X obj 179 78 expr random(87 \, 99);
#X obj 225 12 inlet;
#X obj 179 40 spigot, f 7;
#X obj 179 12 inlet;
#X obj 11 104 s \$0-kcutinit;
#X obj 179 104 s \$0-krevinit;
#X obj 327 104 s \$0-kdecinit;
#X obj 497 104 s \$0-kattinit;
#X obj 11 78 expr random(50 \, 2000);
#X obj 327 78 expr random(500 \, 1200);
#X obj 497 78 expr random(300 \, 800);
#X connect 0 0 5 0;
#X connect 1 0 2 1;
#X connect 2 0 0 0;
#X connect 2 0 8 0;
#X connect 2 0 9 0;
#X connect 2 0 10 0;
#X connect 3 0 2 0;
#X connect 8 0 4 0;
#X connect 9 0 6 0;
#X connect 10 0 7 0;
#X restore 51 59 pd randomizer;
#X obj 19 11 inlet;
#X floatatom 256 58 4 0 16000 1 CutOff \$0-kcutinit \$0-kcut 0;
#X floatatom 256 81 4 0 99 1 Reverb \$0-krevinit \$0-krev 0;
#X floatatom 256 35 4 0 1000 1 Decay \$0-kdecinit \$0-kdec 0;
#X obj 259 104 hsl 55 19 0 1 0 0 \$0-kamp \$0-kampinit Vol 60 10 0 12 #fcfcfc #000000 #000000 0 1;
#X obj 321 232 r \$0-kamp;
#X obj 179 232 r \$0-kamp;
#X obj 37 232 r \$0-kamp;
#X obj 232 181 r \$0-kdec;
#X obj 161 181 r \$0-krev;
#X obj 90 181 r \$0-kcut;
#X obj 392 58 f \$0;
#X obj 392 34 bng 20 250 50 0 empty empty empty 0 -10 0 12 #fcfcfc #000000 #000000;
#X text 419 34 Reset;
#X obj 19 35 t f b;
#X obj 139 35 r \$0-kran;
#X obj 256 128 tgl 19 0 \$0-kran \$0-kraninit Randomize 22 10 0 12 #fcfcfc #000000 #000000 0 1;
#X obj 392 11 loadbang;
#X text 63 10 MIDI note in;
#X obj 571 11 inlet;
#X listbox 571 35 22 0 0 0 - - - 0;
#X obj 571 88 s \$0-kdecinit;
#X obj 571 114 s \$0-kcutinit;
#X obj 571 166 s \$0-kampinit;
#X obj 571 192 s \$0-kraninit;
#X text 614 10 Preset in;
#X obj 571 140 s \$0-krevinit;
#X obj 303 181 r \$0-katt;
#X obj 571 218 s \$0-kattinit;
#X obj 571 59 unpack f f f f f f;
#X floatatom 256 12 4 0 1000 1 Attack \$0-kattinit \$0-katt 0;
#X obj 135 317 snake~ 3;
#X obj 19 283 hip~ 50;
#X obj 135 343 outlet~;
#X text 49 84 DSTRING is a lightweight string synth with a randomizer option. Last updated 16.02.24, f 25;
#X msg 392 81 \; \$1-kcutinit 400 \; \$1-krevinit 85 \; \$1-kdecinit 600 \; \$1-kampinit 0.4 \; \$1-kraninit 1 \; \$1-kattinit 250;
#X obj 161 283 hip~ 75;
#X obj 303 283 hip~ 75;
#X connect 0 0 40 0;
#X connect 1 0 44 0;
#X connect 2 0 45 0;
#X connect 3 0 0 0;
#X connect 3 1 1 0;
#X connect 3 2 2 0;
#X connect 8 0 22 0;
#X connect 13 0 2 1;
#X connect 14 0 1 1;
#X connect 15 0 0 1;
#X connect 16 0 3 3;
#X connect 17 0 3 2;
#X connect 18 0 3 1;
#X connect 19 0 43 0;
#X connect 20 0 19 0;
#X connect 22 0 3 0;
#X connect 22 1 7 0;
#X connect 23 0 7 1;
#X connect 25 0 20 0;
#X connect 27 0 28 0;
#X connect 28 0 37 0;
#X connect 35 0 3 4;
#X connect 37 0 29 0;
#X connect 37 1 30 0;
#X connect 37 2 34 0;
#X connect 37 3 31 0;
#X connect 37 4 32 0;
#X connect 37 5 36 0;
#X connect 39 0 41 0;
#X connect 40 0 39 0;
#X connect 44 0 39 1;
#X connect 45 0 39 2;
#X coords 0 -1 1 1 95 150 2 250 5;
