#N canvas 666 126 558 437 12;
#X obj 228 139 hsl 95 19 200 2000 0 0 \$0-sbdec \$0-sbdecinit Decay 30 9 0 10 #fcfcfc #000000 #000000 0 1;
#X obj 228 92 hsl 95 19 50 12 0 0 \$0-sbwob \$0-sbwobinit Wobble 28 9 0 10 #fcfcfc #000000 #000000 0 1;
#X obj 228 302 hsl 95 19 0 1 0 0 \$0-sbamp \$0-sbampinit Output 30 9 0 10 #fcfcfc #000000 #000000 0 1;
#X obj 19 193 *~;
#X obj 19 46 s \$0-note;
#X obj 201 92 tgl 19 0 \$0-sbwobtgl \$0-sbwobtglinit empty 0 -10 0 12 #fcfcfc #000000 #000000 0 1;
#X obj 228 260 hsl 95 19 1 5 0 0 \$0-sbod \$0-sbodinit Overdrive 22 9 0 10 #fcfcfc #000000 #000000 0 1;
#N canvas 488 118 355 521 synth 0;
#X obj 31 363 mtof;
#N canvas 133 268 171 323 wobble 0;
#X obj 70 180 sig~ 1;
#X obj 70 253 *~;
#X obj 13 253 *~;
#X obj 31 85 r \$0-sbwob;
#X obj 13 110 /;
#X obj 13 10 inlet;
#X obj 70 289 outlet~;
#X obj 31 154 r \$0-sbwobtgl;
#X obj 13 132 osc~;
#X obj 88 202 == 0;
#X obj 88 226 lop~ 1;
#X obj 31 226 lop~ 1;
#X obj 13 34 t f b;
#X msg 45 58 0, f 1;
#X connect 0 0 1 0;
#X connect 1 0 6 0;
#X connect 2 0 6 0;
#X connect 3 0 4 1;
#X connect 4 0 8 0;
#X connect 5 0 12 0;
#X connect 7 0 9 0;
#X connect 7 0 11 0;
#X connect 8 0 2 0;
#X connect 9 0 10 0;
#X connect 10 0 1 1;
#X connect 11 0 2 1;
#X connect 12 0 4 0;
#X connect 12 1 13 0;
#X connect 13 0 8 1;
#X restore 31 388 pd wobble;
#X obj 117 80 expr~ $v1>0;
#X obj 117 178 *~, f 2;
#X obj 31 338 r \$0-note;
#X obj 13 486 outlet~;
#X obj 13 413 *~;
#X obj 226 57 phasor~;
#X obj 226 178 *~, f 2;
#X obj 117 57 osc~;
#X obj 128 156 lop~ 1;
#X obj 237 108 sig~ 1;
#X obj 237 132 -~;
#X obj 237 156 lop~ 1;
#X obj 128 132 r \$0-sqstmix;
#X obj 255 85 r \$0-sqstmix;
#X obj 226 35 mtof;
#X obj 226 10 r \$0-note;
#X obj 117 35 mtof;
#X obj 117 10 r \$0-note;
#X obj 117 201 +~, f 2;
#X obj 13 35 mtof;
#X obj 13 57 osc~;
#X obj 13 10 r \$0-note;
#X obj 117 291 *~;
#X obj 135 225 r \$0-sqsttgl;
#X obj 135 249 lop~ 1;
#X obj 13 291 *~;
#X obj 31 268 -~;
#N canvas 909 217 268 278 env 0;
#X obj 13 193 vline~;
#X obj 83 8 r \$0-sbdec;
#X obj 13 241 outlet~;
#X obj 13 8 r \$0-note;
#X obj 13 32 bng 19 250 50 0 empty empty empty 0 -10 0 12 #fcfcfc #000000 #000000;
#X obj 13 120 list;
#X listbox 13 144 35 0 0 0 - - - 0;
#X obj 13 217 pow~ 2;
#X obj 163 8 r \$0-sbatt;
#X msg 13 169 \$1 \$2 \, 0 \$3 \$4;
#X obj 83 51 f;
#X obj 163 32 t b f f;
#X obj 83 75 t b f;
#X obj 147 75 * 2;
#X obj 52 101 pack 1 f f f, f 14;
#X connect 0 0 7 0;
#X connect 1 0 10 0;
#X connect 3 0 4 0;
#X connect 4 0 5 0;
#X connect 5 0 6 0;
#X connect 6 0 9 0;
#X connect 7 0 2 0;
#X connect 8 0 11 0;
#X connect 9 0 0 0;
#X connect 10 0 12 0;
#X connect 11 0 10 0;
#X connect 11 1 14 1;
#X connect 11 2 13 0;
#X connect 12 0 14 0;
#X connect 12 1 14 2;
#X connect 13 0 14 3;
#X connect 14 0 5 1;
#X restore 31 438 pd env;
#X obj 13 462 *~;
#X obj 13 315 +~;
#X obj 31 244 sig~ 1.3;
#X connect 0 0 1 0;
#X connect 1 0 6 1;
#X connect 2 0 3 0;
#X connect 3 0 20 0;
#X connect 4 0 0 0;
#X connect 6 0 30 0;
#X connect 7 0 8 0;
#X connect 8 0 20 1;
#X connect 9 0 2 0;
#X connect 10 0 3 1;
#X connect 11 0 12 0;
#X connect 12 0 13 0;
#X connect 13 0 8 1;
#X connect 14 0 10 0;
#X connect 15 0 12 1;
#X connect 16 0 7 0;
#X connect 17 0 16 0;
#X connect 18 0 9 0;
#X connect 19 0 18 0;
#X connect 20 0 24 0;
#X connect 21 0 22 0;
#X connect 22 0 27 0;
#X connect 23 0 21 0;
#X connect 24 0 31 1;
#X connect 25 0 26 0;
#X connect 26 0 24 1;
#X connect 26 0 28 1;
#X connect 27 0 31 0;
#X connect 28 0 27 1;
#X connect 29 0 30 1;
#X connect 30 0 5 0;
#X connect 31 0 6 0;
#X connect 32 0 28 0;
#X restore 19 75 pd synth;
#X obj 228 115 hsl 95 19 15 150 0 0 \$0-sbatt \$0-sbattinit Attack 28 9 0 10 #fcfcfc #000000 #000000 0 1;
#X obj 37 147 r \$0-sbamp;
#X obj 37 171 lop~ 1;
#X obj 228 190 hsl 95 19 100 4000 0 0 \$0-filterfreq \$0-filterfreqinit Filter\ Freq 12 9 0 10 #fcfcfc #000000 #000000 0 1;
#X obj 228 213 hsl 95 19 1 4 0 0 \$0-filterq \$0-filterqinit Filter\ Q 20 9 0 10 #fcfcfc #000000 #000000 0 1;
#X obj 228 69 hsl 95 19 1 0 0 0 \$0-sqstmix \$0-sqstmixinit Square/Sawtooth 2 9 0 10 #fcfcfc #000000 #000000 0 1;
#X obj 201 69 tgl 19 0 \$0-sqsttgl \$0-sqsttglinit empty 0 -10 0 12 #fcfcfc #000000 #000000 0 1;
#X obj 365 22 inlet Preset;
#X obj 19 22 inlet Note;
#N canvas 835 290 375 385 printer 0;
#X obj 217 9 r \$0-sqsttgl;
#X obj 217 36 r \$0-sqstmix;
#X obj 217 63 r \$0-sbwobtgl;
#X obj 217 90 r \$0-sbwob;
#X obj 217 117 r \$0-sbatt;
#X obj 217 144 r \$0-sbdec;
#X obj 217 171 r \$0-filterfreq;
#X obj 217 198 r \$0-filterq;
#X obj 10 276 r \$0-presprint;
#X obj 10 303 f \$0;
#X obj 10 352 print;
#X obj 217 225 r \$0-filterlfotgl;
#X obj 217 252 r \$0-filterlfo;
#X obj 217 279 r \$0-sbod;
#X obj 10 327 pack f f f f f f f f f f f f f;
#X obj 217 303 r \$0-filterlfoflwtgl;
#X connect 0 0 14 1;
#X connect 1 0 14 2;
#X connect 2 0 14 3;
#X connect 3 0 14 4;
#X connect 4 0 14 5;
#X connect 5 0 14 6;
#X connect 6 0 14 7;
#X connect 7 0 14 8;
#X connect 8 0 9 0;
#X connect 9 0 14 0;
#X connect 11 0 14 9;
#X connect 12 0 14 10;
#X connect 13 0 14 11;
#X connect 14 0 10 0;
#X connect 15 0 14 12;
#X restore 19 275 pd printer;
#X obj 225 326 bng 19 250 50 0 \$0-presprint \$0-presprintinit Print\ Preset 23 9 0 10 #fcfcfc #000000 #000000;
#N canvas 382 138 181 254 init 0;
#X obj 12 12 loadbang;
#X obj 12 36 f \$0;
#X obj 12 212 outlet;
#X msg 12 60 \; \$1-sbampinit 1 \; \$1-saturationinit 3 \; \$1-oversampleinit 2;
#X msg 12 132 0 0.723404 1 28.9787 25.0532 1463.83 2091.49 2.88298 1 1.25851 3.76596, f 18;
#X connect 0 0 1 0;
#X connect 0 0 4 0;
#X connect 1 0 3 0;
#X connect 4 0 2 0;
#X restore 375 46 pd init;
#X obj 19 236 outlet~;
#N canvas 475 357 231 374 distro 0;
#X obj 7 7 inlet;
#X obj 7 56 s \$0-sqsttglinit;
#X obj 7 83 s \$0-sqstmixinit;
#X obj 7 110 s \$0-sbwobtglinit;
#X obj 7 137 s \$0-sbwobinit;
#X obj 7 164 s \$0-sbattinit;
#X obj 7 191 s \$0-sbdecinit;
#X obj 7 218 s \$0-filterfreqinit;
#X obj 7 245 s \$0-filterqinit;
#X obj 7 270 s \$0-filterlfotglinit;
#X obj 7 295 s \$0-filterlfoinit;
#X obj 7 319 s \$0-sbodinit;
#X obj 7 31 unpack f f f f f f f f f f f f;
#X obj 7 344 s \$0-filterlfoflwtglinit;
#X connect 0 0 12 0;
#X connect 12 0 1 0;
#X connect 12 1 2 0;
#X connect 12 2 3 0;
#X connect 12 3 4 0;
#X connect 12 4 5 0;
#X connect 12 5 6 0;
#X connect 12 6 7 0;
#X connect 12 7 8 0;
#X connect 12 8 9 0;
#X connect 12 9 10 0;
#X connect 12 10 11 0;
#X connect 12 11 13 0;
#X restore 365 75 pd distro;
#X obj 228 236 hsl 95 19 0.1 10 0 0 \$0-filterlfo \$0-filterlfoinit Filter\ LFO 16 9 0 10 #fcfcfc #000000 #000000 0 1;
#X obj 330 236 tgl 19 0 \$0-filterlfotgl \$0-filterlfotglinit empty 0 -10 0 12 #fcfcfc #000000 #000000 0 1;
#X text 195 282 ----------------------;
#X text 196 166 --------filter--------;
#X text 195 43 --------synths--------;
#X text 390 255 Author: Martin Heinze;
#X text 383 271 Last updated: 30.06.25;
#X obj 201 236 tgl 19 0 \$0-filterlfoflwtgl \$0-filterlfoflwtglinit empty 0 -10 0 12 #fcfcfc #000000 #000000 0 1;
#X text 205 19 ////// DSUBZ \\\\\\\\\\\\;
#X text 369 121 DSUBZ is a simple additive bassline synthesizer abstraction with a main sinewave oscillator and additional square and sawtooth oscillators piped through a filter section., f 24;
#N canvas 160 348 581 354 filter 0;
#X obj 240 204 inlet~;
#X obj 240 299 bob~, f 28;
#X obj 433 276 lop~ 1;
#X obj 433 252 r \$0-filterq;
#X obj 5 256 r \$0-oversample;
#X msg 5 280 oversample \$1;
#X msg 118 280 saturation \$1;
#X obj 240 323 outlet~;
#X obj 118 256 r \$0-saturation;
#X obj 258 228 r \$0-sbod;
#X obj 258 252 lop~ 1;
#X obj 240 276 *~;
#X obj 382 228 r \$0-filterfreq;
#X obj 382 252 lop~ 1;
#X msg 375 102 0, f 1;
#X obj 336 276 *~, f 7;
#X obj 336 148 +~ 2;
#X obj 336 6 r \$0-filterlfo;
#X obj 375 30 r \$0-note;
#X msg 375 54 bang;
#X obj 375 78 spigot;
#X obj 414 54 r \$0-filterlfotgl;
#X obj 336 125 osc~ 1;
#X obj 336 172 /~ 3;
#X obj 417 153 r \$0-filterlfoflwtgl;
#X obj 336 196 *~;
#X obj 417 177 == 0;
#X obj 417 201 sig~;
#X obj 377 177 sig~;
#X obj 68 177 hsl 95 19 1 10 0 0 \$0-oversample \$0-oversampleinit Oversample 18 9 0 10 #fcfcfc #000000 #000000 0 1;
#X obj 68 153 hsl 95 19 5 0.5 0 0 \$0-saturation \$0-saturationinit Saturation 16 9 0 10 #fcfcfc #000000 #000000 0 1;
#X text 65 117 Optional filter configuration, f 15;
#X connect 0 0 11 0;
#X connect 1 0 7 0;
#X connect 2 0 1 2;
#X connect 3 0 2 0;
#X connect 4 0 5 0;
#X connect 5 0 1 0;
#X connect 6 0 1 0;
#X connect 8 0 6 0;
#X connect 9 0 10 0;
#X connect 10 0 11 1;
#X connect 11 0 1 0;
#X connect 12 0 13 0;
#X connect 13 0 15 1;
#X connect 14 0 22 1;
#X connect 15 0 1 1;
#X connect 16 0 23 0;
#X connect 17 0 22 0;
#X connect 18 0 19 0;
#X connect 19 0 20 0;
#X connect 20 0 14 0;
#X connect 21 0 20 1;
#X connect 22 0 16 0;
#X connect 23 0 25 0;
#X connect 24 0 26 0;
#X connect 24 0 28 0;
#X connect 25 0 15 0;
#X connect 26 0 27 0;
#X connect 27 0 15 0;
#X connect 28 0 25 1;
#X restore 19 98 pd filter;
#X obj 19 122 expr~ atan($v1);
#X obj 79 212 snake~, f 7;
#X obj 79 236 outlet~;
#N canvas 74 110 771 322 randomengine 0;
#X obj 8 59 s \$0-sqsttglinit;
#X obj 207 59 s \$0-sqstmixinit;
#X obj 8 36 random 2;
#X obj 8 178 random 2;
#X obj 8 201 s \$0-sbwobtglinit;
#X obj 8 249 random 2;
#X obj 8 273 s \$0-filterlfotglinit;
#X obj 8 107 random 2;
#X obj 8 131 s \$0-filterlfoflwtglinit;
#X obj 207 36 expr random(0 \, 1000) * 0.001;
#X obj 207 107 expr random(12000 \, 50000) * 0.001;
#X obj 207 131 s \$0-sbwobinit;
#X obj 207 178 expr random(15000 \, 150000) * 0.001;
#X obj 207 201 s \$0-sbattinit;
#X obj 207 249 expr random(200000 \, 2000000) * 0.001;
#X obj 207 273 s \$0-sbdecinit;
#X obj 493 59 s \$0-filterfreqinit;
#X obj 493 36 expr random(100000 \, 4000000) * 0.001;
#X obj 493 107 expr random(1000 \, 4000) * 0.001;
#X obj 493 131 s \$0-filterqinit;
#X obj 493 201 s \$0-filterlfoinit;
#X obj 493 178 expr random(100 \, 10000) * 0.001;
#X obj 493 249 expr random(1000 \, 5000) * 0.001;
#X obj 493 273 s \$0-sbodinit;
#X obj 8 13 r \$0-rndmtrigger;
#X obj 8 83 r \$0-rndmtrigger;
#X obj 8 155 r \$0-rndmtrigger;
#X obj 8 225 r \$0-rndmtrigger;
#X obj 207 13 r \$0-rndmtrigger;
#X obj 207 83 r \$0-rndmtrigger;
#X obj 207 155 r \$0-rndmtrigger;
#X obj 207 225 r \$0-rndmtrigger;
#X obj 493 13 r \$0-rndmtrigger;
#X obj 493 83 r \$0-rndmtrigger;
#X obj 493 155 r \$0-rndmtrigger;
#X obj 493 225 r \$0-rndmtrigger;
#X connect 2 0 0 0;
#X connect 3 0 4 0;
#X connect 5 0 6 0;
#X connect 7 0 8 0;
#X connect 9 0 1 0;
#X connect 10 0 11 0;
#X connect 12 0 13 0;
#X connect 14 0 15 0;
#X connect 17 0 16 0;
#X connect 18 0 19 0;
#X connect 21 0 20 0;
#X connect 22 0 23 0;
#X connect 24 0 2 0;
#X connect 25 0 7 0;
#X connect 26 0 3 0;
#X connect 27 0 5 0;
#X connect 28 0 9 0;
#X connect 29 0 10 0;
#X connect 30 0 12 0;
#X connect 31 0 14 0;
#X connect 32 0 17 0;
#X connect 33 0 18 0;
#X connect 34 0 21 0;
#X connect 35 0 22 0;
#X restore 19 299 pd randomengine;
#X obj 225 349 bng 19 250 50 0 \$0-rndmtrigger \$0-rndmtriggerinit Randomizer 23 9 0 10 #fcfcfc #000000 #000000;
#X connect 3 0 20 0;
#X connect 3 0 34 0;
#X connect 3 0 34 1;
#X connect 7 0 32 0;
#X connect 9 0 10 0;
#X connect 10 0 3 1;
#X connect 15 0 21 0;
#X connect 16 0 4 0;
#X connect 19 0 21 0;
#X connect 32 0 33 0;
#X connect 33 0 3 0;
#X connect 34 0 35 0;
#X coords 0 -1 1 1 160 360 2 195 15;
