#N canvas 614 191 767 439 12;
#X obj 19 297 *~, f 8;
#X obj 72 185 t b b;
#X floatatom 276 126 8 0 0 0 - - - 0;
#X obj 276 330 *~ 0.99;
#X obj 276 102 expr 1000 / $f1;
#X obj 276 81 mtof;
#X obj 325 297 hsl 96 19 0.79 0.9999 0 0 empty empty empty -2 -8 0 10 #fcfcfc #000000 #000000 0 1;
#X text 333 329 must not exceed 1 (!);
#X obj 19 273 noise~;
#X obj 104 209 del 20;
#X obj 72 18 inlet;
#X obj 276 392 outlet~;
#X obj 276 219 delread4~ \$0-del;
#X obj 72 41 t b f;
#X obj 19 392 delwrite~ \$0-del 123;
#X obj 72 273 tgl 19 0 empty empty empty 0 -10 0 12 #fcfcfc #000000 #000000 0 1;
#X obj 322 249 inlet;
#X obj 143 185 expr if($f1>0 \, $f1 \, $f2);
#X obj 143 126 inlet;
#X obj 143 150 clip 0 100;
#X text 115 17 MIDI Note in;
#X text 51 125 Burst length;
#X text 363 248 Delay intensity;
#X obj 266 150 t b f;
#X obj 276 354 lop~ 4000;
#X msg 104 254 0, f 1;
#X text 490 17 KARL is a lightweight Karplus-Strong synth abstraction. The first inlet takes in the MIDI note. The noise burst length equals the fundamental frequency for the delay (minimum length) \; it can be overwritten by the second inlet's input (must be >0). Through the third inlet \, the delay intensity can be controlled (max 1!). Last updated 13.12.23, f 36;
#X obj 322 273 clip -0.0999 0.9999;
#X obj 104 233 del 20;
#X connect 0 0 14 0;
#X connect 1 0 15 0;
#X connect 1 1 9 0;
#X connect 2 0 12 0;
#X connect 2 0 23 0;
#X connect 3 0 24 0;
#X connect 4 0 2 0;
#X connect 5 0 4 0;
#X connect 6 0 3 1;
#X connect 8 0 0 0;
#X connect 9 0 15 0;
#X connect 9 0 28 0;
#X connect 10 0 13 0;
#X connect 12 0 3 0;
#X connect 13 0 1 0;
#X connect 13 1 5 0;
#X connect 15 0 0 1;
#X connect 16 0 27 0;
#X connect 17 0 9 1;
#X connect 18 0 19 0;
#X connect 19 0 17 0;
#X connect 23 0 17 0;
#X connect 23 1 17 1;
#X connect 24 0 11 0;
#X connect 24 0 14 0;
#X connect 25 0 15 0;
#X connect 27 0 6 0;
#X connect 28 0 25 0;
