#N canvas 269 25 784 195 12;
#N canvas 697 191 505 532 kickdr 0;
#X obj 21 18 inlet;
#X obj 41 134 vline~;
#X obj 266 133 vline~;
#X obj 42 352 expr~ $v1 > 0.5;
#X floatatom 73 44 5 0 0 1 Decay - - 0;
#X obj 242 464 *~, f 4;
#X obj 41 73 f 200;
#X msg 41 109 1 \, 0.5 5 \, 0 \$1 5;
#X obj 41 184 *~ 80;
#X obj 41 208 +~ 29;
#X obj 41 232 mtof~;
#X obj 42 328 phasor~;
#X obj 41 302 *~ 1;
#X floatatom 98 283 5 0 10 1 Pitch_scale - - 0;
#X obj 142 385 *~ 1.5;
#X floatatom 181 352 5 0 10 1 Filter_scale - - 0;
#X obj 52 385 noise~;
#X floatatom 281 277 5 0 10 1 Sine_scale - - 0;
#X obj 242 302 *~ 0.5;
#X obj 242 328 osc~;
#X obj 73 18 inlet;
#X obj 98 256 inlet;
#X text 316 133 Volume envelope;
#X obj 181 328 inlet;
#X obj 281 251 inlet;
#X obj 242 494 outlet~;
#X obj 42 410 vcf~ 3, f 29;
#X msg 266 109 0.5 \, 1.5 5 \, 0.5 60 5 \, 0 \$1 65;
#X obj 266 157 pow~ 2;
#X obj 41 158 pow~ 2;
#X text 86 188 MIDI scale 109-29, f 11;
#X obj 21 43 bng 20 250 50 0 empty empty empty 0 -10 0 12 #fcfcfc #000000 #000000;
#X connect 0 0 31 0;
#X connect 1 0 29 0;
#X connect 2 0 28 0;
#X connect 3 0 26 0;
#X connect 4 0 6 1;
#X connect 5 0 25 0;
#X connect 6 0 27 0;
#X connect 6 0 7 0;
#X connect 7 0 1 0;
#X connect 8 0 9 0;
#X connect 9 0 10 0;
#X connect 10 0 12 0;
#X connect 10 0 14 0;
#X connect 10 0 18 0;
#X connect 11 0 3 0;
#X connect 12 0 11 0;
#X connect 13 0 12 1;
#X connect 14 0 26 1;
#X connect 15 0 14 1;
#X connect 16 0 26 0;
#X connect 17 0 18 1;
#X connect 18 0 19 0;
#X connect 19 0 5 0;
#X connect 20 0 4 0;
#X connect 21 0 13 0;
#X connect 23 0 15 0;
#X connect 24 0 17 0;
#X connect 26 0 5 0;
#X connect 26 1 5 0;
#X connect 27 0 2 0;
#X connect 28 0 5 1;
#X connect 29 0 8 0;
#X connect 31 0 6 0;
#X restore 20 120 pd kickdr;
#X f 72;
#X floatatom 145 96 5 0 0 1 Decay - - 0;
#X floatatom 270 96 5 0 10 1 Pitch_scale - - 0;
#X floatatom 395 96 5 0 10 1 Filter_scale - - 0;
#X floatatom 521 96 5 0 10 1 Sine_scale - - 0;
#X obj 145 23 vsl 15 65 10 1000 0 0 empty kdec empty 0 -9 0 10 #fcfcfc #000000 #000000 0 1;
#X obj 270 23 vsl 15 65 0 3 0 0 empty kpsc empty 0 -9 0 10 #fcfcfc #000000 #000000 0 1;
#X obj 395 23 vsl 15 65 0 10 0 0 empty kfsc empty 0 -9 0 10 #fcfcfc #000000 #000000 0 1;
#X obj 521 23 vsl 15 65 0 3 0 0 empty kssc empty 0 -9 0 10 #fcfcfc #000000 #000000 0 1;
#X obj 656 21 loadbang;
#X obj 20 164 outlet~;
#X obj 20 21 inlet;
#X msg 656 49 \; kdec 1000 \; kpsc 0 \; kfsc 0 \; kssc 0.3;
#X text 61 20 Bang;
#N canvas 965 127 588 116 presets 0;
#X msg 297 19 \; kdec 550 \; kpsc 0.3 \; kfsc 0 \; kssc 2;
#X msg 109 19 \; kdec 400 \; kpsc 3 \; kfsc 3 \; kssc 2.5;
#X msg 390 19 \; kdec 800 \; kpsc 0.5 \; kfsc 0.25 \; kssc 1;
#X msg 201 19 \; kdec 500 \; kpsc 1 \; kfsc 0.75 \; kssc 0.5;
#X msg 13 19 \; kdec 300 \; kpsc 0.75 \; kfsc 1.5 \; kssc 0.3;
#X msg 486 19 \; kdec 150 \; kpsc 3 \; kfsc 2 \; kssc 0.25;
#X restore 656 137 pd presets;
#X connect 0 0 10 0;
#X connect 1 0 0 1;
#X connect 2 0 0 2;
#X connect 3 0 0 3;
#X connect 4 0 0 4;
#X connect 5 0 1 0;
#X connect 6 0 2 0;
#X connect 7 0 3 0;
#X connect 8 0 4 0;
#X connect 9 0 12 0;
#X connect 11 0 0 0;
