#N canvas 880 177 568 296 12;
#X obj 26 177 bng 36 250 50 0 \$0-sloadfile \$0-sloadfileinit LOAD 7 18 0 10 #00ff04 #000000 #000000;
#X obj 174 95 vsl 15 75 0 1 0 0 \$0-sampl \$0-samplinit Vol. 0 -9 0 10 #feffc6 #000000 #000000 0 1;
#X symbolatom 67 177 35 0 0 0 - \$0-sfilename \$0-sfilenamedummy 10;
#X obj 26 261 outlet~;
#N canvas 959 60 553 305 sampleloader 0;
#X obj 18 39 openpanel;
#X obj 18 189 soundfiler, f 14;
#X obj 18 88 pack s f, f 11;
#X obj 18 234 s \$0-slength;
#X obj 92 39 loadbang;
#X obj 92 63 f \$0;
#X obj 33 113 unpack s;
#X obj 113 234 s \$0-srate;
#X msg 18 166 read -resize \$1 \$2-waver \$2-waver2;
#X obj 218 134 array define \$0-waver2;
#X text 215 82 Define array for second channel. Only channel 1 is used for display., f 23;
#X obj 392 14 loadbang;
#X obj 392 36 f \$0;
#X msg 392 58 \; \$1-waver edit 0;
#X obj 185 14 inlet Ext. filepath;
#X obj 18 14 inlet Open file panel;
#X obj 33 137 s \$0-sfilename;
#X obj 113 212 unpack f f f;
#X obj 194 234 == 1;
#X obj 194 258 s \$0-mstinit;
#X text 293 257 <- switch to double mono playback mode when sample is mono., f 33;
#X connect 0 0 2 0;
#X connect 1 0 3 0;
#X connect 1 1 17 0;
#X connect 2 0 8 0;
#X connect 2 0 6 0;
#X connect 4 0 5 0;
#X connect 5 0 2 1;
#X connect 6 0 16 0;
#X connect 8 0 1 0;
#X connect 11 0 12 0;
#X connect 12 0 13 0;
#X connect 14 0 2 0;
#X connect 15 0 0 0;
#X connect 17 0 7 0;
#X connect 17 2 18 0;
#X connect 18 0 19 0;
#X restore 180 40 pd sampleloader;
#X f 17;
#N canvas 534 218 783 474 sampleplayer 0;
#X obj 82 434 outlet~;
#X obj 82 405 *~, f 2;
#X obj 93 357 r \$0-sampl;
#X obj 337 249 r \$0-sstart;
#X obj 498 31 r \$0-send;
#X floatatom 498 136 8 0 0 0 - - - 0;
#X obj 498 305 t b f;
#X obj 498 111 expr $f1-$f2;
#X obj 547 55 r \$0-sstart;
#X obj 547 80 t b f;
#X obj 337 324 +, f 6;
#X obj 344 273 r \$0-soffset;
#X obj 344 298 t b f;
#X obj 337 391 s \$0-sstartslidershow;
#X obj 498 391 s \$0-sendslidershow;
#X obj 93 381 lop~ 10;
#X obj 14 192 tabread4~ \$0-waver \$0-waver2;
#X obj 506 280 s \$0-sdur;
#X obj 14 121 pack f f f;
#X obj 14 71 f, f 2;
#X msg 14 144 \$1 \, \$2 \$3;
#X obj 14 168 vline~;
#X obj 99 126 r \$0-sstopsample;
#X msg 99 149 0, f 1;
#X obj 498 344 +, f 5;
#X obj 587 136 r \$0-srate;
#X obj 506 159 expr $f1/$f2;
#X obj 506 182 * 1000;
#X text 556 181 Duration of selection in ms;
#X obj 81 95 r \$0-sdur;
#X obj 498 368 s \$0-sendreal;
#X obj 47 71 r \$0-sendreal;
#X obj 337 368 s \$0-sstartreal;
#X obj 25 47 r \$0-sstartreal;
#X obj 14 18 r \$0-splaysample;
#X obj 506 257 *;
#X obj 516 231 t b f;
#X obj 516 207 r \$0-spitch;
#X obj 100 271 r \$0-mst;
#X obj 82 222 snake~ out;
#X obj 82 318 *~;
#X obj 100 295 lop~ 10;
#X obj 82 247 snake~;
#X obj 14 336 *~;
#X obj 32 289 sig~ 1;
#X obj 32 313 -~;
#X text 160 294 Play back mono files in double mono \, stereo in stereo., f 20;
#X connect 1 0 0 0;
#X connect 2 0 15 0;
#X connect 3 0 10 0;
#X connect 4 0 7 0;
#X connect 5 0 26 0;
#X connect 5 0 6 0;
#X connect 6 0 10 0;
#X connect 6 1 24 1;
#X connect 7 0 5 0;
#X connect 8 0 9 0;
#X connect 9 0 7 0;
#X connect 9 1 7 1;
#X connect 10 0 13 0;
#X connect 10 0 24 0;
#X connect 10 0 32 0;
#X connect 11 0 12 0;
#X connect 12 0 10 0;
#X connect 12 1 10 1;
#X connect 15 0 1 1;
#X connect 16 0 39 0;
#X connect 16 0 43 0;
#X connect 18 0 20 0;
#X connect 19 0 18 0;
#X connect 20 0 21 0;
#X connect 21 0 16 0;
#X connect 22 0 23 0;
#X connect 23 0 21 0;
#X connect 24 0 14 0;
#X connect 24 0 30 0;
#X connect 25 0 26 1;
#X connect 26 0 27 0;
#X connect 27 0 35 0;
#X connect 29 0 18 2;
#X connect 31 0 18 1;
#X connect 33 0 19 1;
#X connect 34 0 19 0;
#X connect 35 0 17 0;
#X connect 36 0 35 0;
#X connect 36 1 35 1;
#X connect 37 0 36 0;
#X connect 38 0 41 0;
#X connect 39 0 42 0;
#X connect 39 0 42 1;
#X connect 40 0 1 0;
#X connect 41 0 40 1;
#X connect 41 0 45 1;
#X connect 42 0 40 0;
#X connect 43 0 1 0;
#X connect 44 0 45 0;
#X connect 45 0 43 1;
#X coords 0 474 1 473 180 45 0;
#X restore 26 237 pd sampleplayer;
#X obj 29 133 hsl 140 40 0 156831 0 0 \$0-dummy \$0-sendslidershow empty -2 -10 0 12 #ffffff #9c00ff #000000 0 1;
#X obj 29 93 hsl 140 40 0 156831 0 0 \$0-dummy \$0-sstartslidershow empty -2 -10 0 12 #ffffff #00faff #000000 0 1;
#N canvas 104 96 705 269 sliderinit 0;
#X obj 14 49 r \$0-slength;
#X obj 326 199 s \$0-soffsetsliderinit;
#X msg 173 153 range 0 \$1;
#X obj 173 206 s \$0-sendsliderinit;
#X obj 173 232 s \$0-sendslidershow;
#X msg 13 153 range 0 \$1;
#X obj 14 206 s \$0-sstartsliderinit;
#X obj 14 232 s \$0-sstartslidershow;
#X obj 24 72 r \$0-sreslength;
#X obj 445 39 r \$0-slength;
#X obj 326 13 r \$0-sstart;
#X obj 369 39 r \$0-send;
#X obj 326 92 expr -$f1 \; $f3-$f2, f 22;
#X obj 326 130 pack, f 22;
#X listbox 326 154 22 0 0 0 - - - 0;
#X msg 326 176 range \$1 \$2;
#X obj 369 63 t b f;
#X obj 445 63 t b f;
#X obj 14 99 f, f 2;
#X obj 14 123 t b f f;
#X msg 173 180 \$1, f 2;
#X msg 14 180 0, f 1;
#X text 328 231 TODO find a solution for relative position control.;
#X connect 0 0 18 0;
#X connect 2 0 4 0;
#X connect 2 0 3 0;
#X connect 5 0 6 0;
#X connect 5 0 7 0;
#X connect 8 0 18 0;
#X connect 9 0 17 0;
#X connect 10 0 12 0;
#X connect 11 0 16 0;
#X connect 12 0 13 0;
#X connect 12 1 13 1;
#X connect 13 0 14 0;
#X connect 14 0 15 0;
#X connect 15 0 1 0;
#X connect 16 0 12 0;
#X connect 16 1 12 1;
#X connect 17 0 12 0;
#X connect 17 1 12 2;
#X connect 18 0 19 0;
#X connect 19 0 21 0;
#X connect 19 1 20 0;
#X connect 19 2 2 0;
#X connect 19 2 5 0;
#X connect 20 0 4 0;
#X connect 20 0 3 0;
#X connect 21 0 6 0;
#X connect 21 0 7 0;
#X connect 21 0 1 0;
#X restore 145 237 pd sliderinit;
#X obj 67 198 bng 15 250 50 0 \$0-splaysample \$0-splaysampleinit ▸ 2 6 0 22 #000000 #00ff04 #00ff04;
#X obj 180 16 r \$0-sloadfile;
#X obj 26 40 s \$0-splaysampleinit;
#X obj 195 158 bng 15 250 50 0 \$0-sreslength \$0-sreslengthinit r 4 7 0 10 #000000 #000000 #ffffff;
#X obj 88 198 bng 15 250 50 0 \$0-sstopsample \$0-sstopsampleinit ■ 3 6 0 16 #000000 #000000 #ff8300;
#X obj 198 114 hsl 48 15 0 156831 0 0 \$0-send \$0-sendsliderinit End 52 8 0 10 #e3c6ff #9c00ff #000000 0 1;
#X obj 198 92 hsl 48 15 0 156831 0 0 \$0-sstart \$0-sstartsliderinit Start 52 8 0 10 #c6feff #00faff #000000 0 1;
#X obj 198 136 hsl 48 15 -0 0 0 0 \$0-soffset \$0-soffsetsliderinit Posit. 52 8 0 10 #ffc7c6 #ff0400 #000000 0 1;
#X text 388 235 Author: Martin Heinze, f 22;
#N canvas 830 139 450 278 (subpatch) 0;
#X array \$0-waver 156831 float 2;
#A color 0;
#A width 2;
#X coords 0 1 156831 -1 145 80 2 0 0;
#X restore 26 93 graph;
#N canvas 295 333 226 141 preset 0;
#X obj 11 38 f \$0;
#X obj 11 15 loadbang;
#X obj 78 15 r \$0-sreslength;
#X msg 11 61 \; \$1-samplinit 0.7 \; \$1-spitchinit 1 \; \$1-mstinit 0, f 19;
#X connect 0 0 3 0;
#X connect 1 0 0 0;
#X connect 2 0 0 0;
#X restore 145 261 pd preset;
#X obj 111 198 hsl 48 15 1.5 0.5 0 0 \$0-spitch \$0-spitchinit Pitch 52 8 0 10 #c6ffc7 #0f4710 #000000 0 1;
#X obj 26 16 inlet Bang to play;
#X obj 296 16 inlet Filepath;
#X obj 408 16 inlet Pitch;
#X obj 408 40 s \$0-spitchinit;
#X text 304 72 Sampler2 is a simple sample player abstraction. Start and end sliders define the respective position for sample playback. The position slider allows to shift the selected sample window. First inlet takes in bangs to trigger playback of the sample \, second one takes in the sample filepath \, third allows to control pitch., f 34;
#X obj 198 198 tgl 15 0 \$0-mst \$0-mstinit DM/St 20 8 0 10 #fcfcfc #000000 #000000 0 1;
#X text 381 251 Last updated: 05.10.25, f 23;
#X connect 5 0 3 0;
#X connect 10 0 4 0;
#X connect 21 0 11 0;
#X connect 22 0 4 1;
#X connect 23 0 24 0;
#X coords 0 -1 1 1 275 155 2 15 70;
