#N canvas 47 146 1036 388 12;
#X floatatom 243 275 3 0 0 1 - \$0-slicesinit \$0-slices 10;
#X obj 149 198 bng 36 250 50 0 \$0-loadfile \$0-loadfiledummy Load 6 18 0 10 #00ff04 #000000 #000000;
#N canvas 830 139 450 278 (subpatch) 0;
#X array \$0-waver 121656 float 2;
#X coords 0 1 121656 -1 200 80 2 0 0;
#X restore 149 112 graph;
#X obj 350 274 bng 15 250 50 0 \$0-rndmz \$0-rndmzinit r 4 7 0 10 #ff8300 #000000 #000000;
#X obj 356 114 vsl 15 75 0 1 0 0 \$0-ampl \$0-amplinit Vol. 0 -9 0 8 #feffc6 #000000 #000000 0 1;
#X obj 149 275 hradio 15 1 0 6 \$0-split \$0-splitinit Split\ &\ Slices 0 -7 0 10 #fcfcfc #000000 #000000 0;
#X obj 186 307 tgl 15 0 \$0-glotriggerforward \$0-glotrigger Playback 0 -7 0 10 #ff0400 #000000 #000000 0 1;
#X symbolatom 190 198 30 0 0 0 - \$0-filename \$0-filenamedummy 10;
#X floatatom 150 307 4 0 0 2 BPM \$0-adjbpminit \$0-adjbpm 10;
#X obj 317 274 hradio 15 1 0 2 \$0-sgldbl \$0-sgldblinit 1\ \ 2 5 8 0 8 #feffc6 #000000 #000000 0;
#N canvas 914 322 506 220 calcoriginbpm 0;
#X obj 82 12 r \$0-slength;
#X obj 142 36 /;
#X obj 173 12 r \$0-srate;
#X obj 12 90 expr (60*$f1*4)/$f2;
#X obj 12 12 r \$0-bars;
#X obj 12 114 s \$0-orgbpminit;
#X obj 12 35 sel 0 1 2;
#X msg 12 59 1, f 1;
#X msg 32 59 2, f 1;
#X msg 52 59 4, f 1;
#X obj 12 143 r \$0-orgbpm;
#X obj 12 189 s \$0-adjbpminit;
#X text 261 9 Calculate loop origin BPM (only works with tightly edited drum loops in 4/4 scheme). Uses total loop length \, no. of bars (1 \, 2 \, 4) as input., f 32;
#X msg 12 167 bang;
#X connect 0 0 1 0;
#X connect 1 0 3 1;
#X connect 2 0 1 1;
#X connect 3 0 5 0;
#X connect 4 0 6 0;
#X connect 6 0 7 0;
#X connect 6 1 8 0;
#X connect 6 2 9 0;
#X connect 7 0 3 0;
#X connect 8 0 3 0;
#X connect 9 0 3 0;
#X connect 10 0 13 0;
#X connect 13 0 11 0;
#X restore 16 171 pd calcoriginbpm;
#N canvas 460 364 353 167 calcpitch 0;
#X obj 8 132 s \$0-pitch;
#X floatatom 8 112 5 0 0 0 - - - 0;
#X obj 180 11 r \$0-slength;
#X obj 180 34 /;
#X obj 270 11 r \$0-srate;
#X obj 8 88 expr ((60*$f2*4)/$f1)/$f3;
#X obj 94 11 r \$0-bars;
#X obj 8 11 r \$0-adjbpm;
#X text 212 48 Calculate pitch according to adjusted BPM value., f 16;
#X obj 94 35 sel 0 1 2;
#X msg 94 59 1, f 1;
#X msg 114 59 2, f 1;
#X msg 134 59 4, f 1;
#X connect 1 0 0 0;
#X connect 2 0 3 0;
#X connect 3 0 5 2;
#X connect 4 0 3 1;
#X connect 5 0 1 0;
#X connect 6 0 9 0;
#X connect 7 0 5 0;
#X connect 9 0 10 0;
#X connect 9 1 11 0;
#X connect 9 2 12 0;
#X connect 10 0 5 1;
#X connect 11 0 5 1;
#X connect 12 0 5 1;
#X restore 16 193 pd calcpitch;
#X obj 170 20 r \$0-loadfile;
#X obj 16 43 s \$0-glotrigger;
#X obj 16 120 outlet~;
#X obj 872 66 s \$0-petrest;
#N canvas 315 170 406 335 sampleloader 0;
#X obj 18 39 openpanel;
#X obj 18 189 soundfiler, f 19;
#X obj 148 212 unpack f;
#X obj 18 88 pack s f, f 11;
#X obj 64 307 s \$0-slength;
#X obj 92 39 loadbang;
#X obj 92 63 f \$0;
#X obj 33 113 unpack s;
#X obj 148 235 s \$0-srate;
#X obj 33 137 s \$0-filename;
#X obj 18 262 s \$0-adjbpminit;
#X obj 41 240 s \$0-barsinit;
#X obj 41 284 s \$0-samplebang;
#X obj 18 211 t b b f;
#X msg 18 166 read -resize \$1 \$2-waver \$2-waver2;
#X obj 218 134 array define \$0-waver2;
#X text 215 82 Define array for second channel. Only channel 1 is used for display., f 23;
#X obj 248 212 loadbang;
#X obj 248 235 f \$0;
#X msg 248 257 \; \$1-waver edit 0;
#X obj 185 14 inlet Ext. filepath;
#X obj 18 14 inlet Open file panel;
#X connect 0 0 3 0;
#X connect 1 0 13 0;
#X connect 1 1 2 0;
#X connect 2 0 8 0;
#X connect 3 0 14 0;
#X connect 3 0 7 0;
#X connect 5 0 6 0;
#X connect 6 0 3 1;
#X connect 7 0 9 0;
#X connect 13 0 10 0;
#X connect 13 1 11 0;
#X connect 13 1 12 0;
#X connect 13 2 4 0;
#X connect 14 0 1 0;
#X connect 17 0 18 0;
#X connect 18 0 19 0;
#X connect 20 0 3 0;
#X connect 21 0 0 0;
#X restore 170 43 pd sampleloader;
#N canvas 497 420 202 134 metro 0;
#X obj 19 70 metro;
#X obj 19 93 s \$0-durbang;
#X obj 51 45 r \$0-sldur;
#X text 64 69 Master metro;
#X obj 19 20 r \$0-glotriggerforward;
#X connect 0 0 1 0;
#X connect 2 0 0 1;
#X connect 4 0 0 0;
#X restore 16 149 pd metro;
#X obj 277 274 vradio 16 1 0 3 \$0-patmode \$0-patmodeinit Playback\ mode 0 -7 0 10 #c6feff #000000 #000000 0;
#X obj 272 20 inlet filepath;
#X obj 16 20 inlet global trigger;
#X obj 489 20 inlet preset;
#X floatatom 349 307 3 0 0 1 - \$0-cslselinit \$0-cslsel 10;
#X text 295 272 ->;
#X text 295 305 ->;
#X obj 320 307 hsl 24 15 0 4 0 0 \$0-csselsl \$0-csselslinit empty -2 -10 0 12 #fcfcfc #000000 #000000 0 1;
#N canvas 798 235 192 200 selconf 0;
#X msg 48 64 range 0 \$1;
#X obj 48 88 s \$0-csselslinit;
#X obj 48 114 r \$0-csselsl;
#X obj 48 137 i, f 1;
#X obj 48 162 s \$0-cslselinit;
#X obj 16 16 r \$0-slices;
#X obj 16 40 t b f;
#X msg 16 64 0, f 1;
#X connect 0 0 1 0;
#X connect 2 0 3 0;
#X connect 3 0 4 0;
#X connect 5 0 6 0;
#X connect 6 0 7 0;
#X connect 6 1 0 0;
#X connect 7 0 1 0;
#X restore 16 215 pd selconf;
#N canvas 1000 399 168 98 slcalc 0;
#X obj 12 34 expr pow (2 \, $f1);
#X obj 12 57 s \$0-slicesinit;
#X obj 12 11 r \$0-split;
#X connect 0 0 1 0;
#X connect 2 0 0 0;
#X restore 16 237 pd slcalc;
#N canvas 556 64 412 678 sampleplayer 0;
#X obj 137 485 vline~;
#X msg 137 461 \$1 \, \$2 \$3;
#X obj 137 437 pack f f f;
#X floatatom 24 131 10 0 0 1 slice\ duration\ (samples) - - 0;
#X obj 137 368 t f f;
#X obj 87 33 t b f;
#X obj 24 107 expr $f2 / $f1;
#X obj 137 414 *, f 2;
#X obj 170 414 *, f 2;
#X obj 169 391 + 1;
#X floatatom 24 323 10 0 0 1 slice\ duration\ in\ ms - - 0;
#X obj 117 645 outlet~;
#X obj 117 519 tabread4~ \$0-waver;
#X obj 87 7 r \$0-slength;
#X obj 24 181 /;
#X obj 24 82 r \$0-slices;
#X obj 117 621 *~;
#X obj 135 572 r \$0-ampl;
#X obj 24 345 s \$0-sldur;
#X text 119 204 Alter pitch;
#X obj 42 251 * 1000;
#X obj 42 205 r \$0-pitch;
#X msg 50 228 1, f 1;
#X obj 24 300 *;
#X obj 42 275 t b f;
#X obj 42 157 r \$0-srate;
#X obj 69 228 r \$0-samplebang;
#X obj 87 58 s \$0-splitinit;
#X obj 126 157 s \$0-sldursamp;
#X obj 24 395 r \$0-sldursamp;
#X text 219 437 Jump to starting point in samples \, go to end point in samples in "one slice in ms", f 23;
#X obj 254 519 tabread4~ \$0-waver2;
#X obj 117 543 snake~, f 20;
#X obj 135 596 lop~ 10;
#X obj 137 345 r \$0-sliceno;
#X obj 204 414 r \$0-sldur;
#X connect 0 0 12 0;
#X connect 0 0 31 0;
#X connect 1 0 0 0;
#X connect 2 0 1 0;
#X connect 3 0 14 0;
#X connect 3 0 28 0;
#X connect 4 0 7 0;
#X connect 4 1 9 0;
#X connect 5 0 27 0;
#X connect 5 1 6 1;
#X connect 6 0 3 0;
#X connect 7 0 2 0;
#X connect 8 0 2 1;
#X connect 9 0 8 0;
#X connect 10 0 18 0;
#X connect 12 0 32 0;
#X connect 13 0 5 0;
#X connect 14 0 23 0;
#X connect 15 0 6 0;
#X connect 16 0 11 0;
#X connect 17 0 33 0;
#X connect 20 0 24 0;
#X connect 21 0 20 0;
#X connect 22 0 20 0;
#X connect 23 0 10 0;
#X connect 24 0 23 0;
#X connect 24 1 23 1;
#X connect 25 0 14 1;
#X connect 26 0 22 0;
#X connect 29 0 8 1;
#X connect 29 0 7 1;
#X connect 31 0 32 1;
#X connect 32 0 16 0;
#X connect 33 0 16 1;
#X connect 34 0 4 0;
#X connect 35 0 2 2;
#X restore 16 96 pd sampleplayer;
#N canvas 614 232 743 326 patterns 0;
#X obj 12 154 i;
#X obj 12 178 + 1;
#X floatatom 320 244 5 0 0 0 - - - 0;
#X obj 12 202 mod, f 5;
#X obj 320 128 random;
#X obj 359 105 r \$0-slices;
#X obj 12 79 spigot;
#X obj 320 79 spigot;
#X obj 12 55 r \$0-durbang;
#X obj 320 55 r \$0-durbang;
#X msg 30 128 -1, f 2;
#X obj 12 225 array get \$0-dpattern;
#X obj 156 128 f \$0;
#X obj 156 104 sel 0 1, f 8;
#X obj 182 178 f \$0;
#X msg 182 202 symbol \$1-dpattern;
#X msg 156 154 symbol \$1-pattern;
#X obj 156 79 r \$0-sgldbl;
#X text 112 13 Create single/ double length pattern.;
#X text 221 103 Pattern mode;
#X obj 30 104 r \$0-petrest;
#X obj 555 8 r \$0-patmode;
#X obj 474 104 r \$0-slices;
#X obj 450 79 spigot;
#X obj 450 55 r \$0-durbang;
#X obj 555 32 expr if($f1==0 \, 1 \, 0) \; if($f1==1 \, 1 \, 0) \; if($f1==2 \, 1 \, 0) \;, f 23;
#N canvas 242 462 308 376 random_centre 0;
#X obj 57 84 i;
#X obj 57 108 + 1;
#X obj 57 132 mod, f 4;
#X obj 82 9 inlet;
#X obj 96 346 outlet;
#X obj 18 34 bng 19 250 50 0 empty empty empty 0 -10 0 12 #fcfcfc #000000 #000000;
#X obj 18 9 inlet;
#X obj 18 58 t b b;
#X obj 18 156 random;
#X obj 96 322 mod;
#X obj 96 299 +, f 4;
#X obj 18 179 random;
#X obj 18 202 random;
#X obj 18 225 random;
#X obj 18 280 i, f 1;
#X obj 18 251 expr ($f1+$f2+$f3+$f4) / 8;
#X obj 82 58 * 2;
#X obj 121 276 inlet;
#X text 134 141 Set "centre" slice and play other slices in increasing random range (gaussian distribution \, double pattern length)., f 22;
#X obj 82 34 t f f;
#X connect 0 0 1 0;
#X connect 1 0 2 0;
#X connect 2 0 0 1;
#X connect 2 0 8 1;
#X connect 2 0 11 1;
#X connect 2 0 12 1;
#X connect 2 0 13 1;
#X connect 3 0 19 0;
#X connect 5 0 7 0;
#X connect 6 0 5 0;
#X connect 7 0 8 0;
#X connect 7 0 11 0;
#X connect 7 0 12 0;
#X connect 7 0 13 0;
#X connect 7 1 0 0;
#X connect 8 0 15 0;
#X connect 9 0 4 0;
#X connect 10 0 9 0;
#X connect 11 0 15 1;
#X connect 12 0 15 2;
#X connect 13 0 15 3;
#X connect 14 0 10 0;
#X connect 15 0 14 0;
#X connect 16 0 2 1;
#X connect 17 0 10 1;
#X connect 19 0 16 0;
#X connect 19 1 9 1;
#X restore 450 128 pd random_centre;
#X obj 559 104 r \$0-cslselinit;
#X obj 320 290 s \$0-sliceno;
#X obj 320 267 spigot, f 7;
#X obj 366 244 == 0;
#X obj 366 221 r \$0-override;
#N canvas 567 66 268 298 patterngen 0;
#X obj 45 90 array define \$0-pattern;
#X obj 14 218 array set \$0-pattern;
#X obj 13 15 r \$0-slices;
#X obj 45 116 * 2;
#X obj 14 241 array set \$0-dpattern;
#X obj 45 162 array define \$0-dpattern;
#N canvas 610 70 546 337 ranpat 0;
#X obj 85 11 inlet;
#X msg 117 162 \$1, f 2;
#X obj 117 186 until;
#X obj 211 166 i;
#X obj 211 191 + 1;
#X obj 211 239 sel 0;
#X obj 117 210 random, f 8;
#X msg 117 234 append \$1;
#X obj 117 258 list store, f 11;
#X listbox 117 282 33 0 0 0 - - - 0;
#X obj 85 40 t b f;
#X obj 85 65 f;
#X msg 85 114 0, f 1;
#X obj 85 89 sel 1;
#X obj 211 215 mod, f 5;
#X obj 117 114 t f b f f b;
#X obj 7 40 r \$0-rndmz;
#X obj 117 305 outlet;
#X text 169 304 Output random pattern;
#X obj 117 137 * 2;
#X text 130 10 Input amount of slices for one pattern length.;
#X obj 243 191 * 2;
#X text 148 136 Multiply for double length pattern.;
#X text 274 190 Multiply for double length pattern.;
#X connect 0 0 10 0;
#X connect 1 0 2 0;
#X connect 2 0 3 0;
#X connect 2 0 6 0;
#X connect 3 0 4 0;
#X connect 4 0 14 0;
#X connect 5 0 2 1;
#X connect 5 0 8 0;
#X connect 6 0 7 0;
#X connect 7 0 8 0;
#X connect 8 0 9 0;
#X connect 9 0 17 0;
#X connect 10 0 11 0;
#X connect 10 1 11 1;
#X connect 11 0 13 0;
#X connect 12 0 9 0;
#X connect 13 0 12 0;
#X connect 13 1 15 0;
#X connect 14 0 3 1;
#X connect 14 0 5 0;
#X connect 15 0 19 0;
#X connect 15 1 6 0;
#X connect 15 2 21 0;
#X connect 15 3 6 1;
#X connect 15 4 8 1;
#X connect 16 0 11 0;
#X connect 19 0 1 0;
#X connect 21 0 14 1;
#X restore 14 191 pd ranpat;
#X msg 45 67 resize \$1;
#X msg 45 139 resize \$1;
#X obj 13 38 t f f;
#X text 85 190 Generate random pattern;
#N canvas 897 143 459 269 patternprint 0;
#X obj 273 54 array get \$0-dpattern;
#X obj 53 54 array get \$0-pattern;
#X obj 7 66 f \$0;
#X obj 7 123 symbol;
#X obj 7 35 t b b;
#X obj 7 166 list, f 7;
#X obj 227 166 list, f 7;
#X obj 60 123 r \$0-split;
#X obj 7 189 list trim;
#X obj 7 213 print -n;
#X obj 7 144 pack s f;
#X obj 227 123 symbol;
#X obj 280 123 r \$0-split;
#X obj 227 144 pack s f;
#X obj 227 189 list trim;
#X obj 227 213 print -n;
#X text 5 240 Print instance name \, no. of splits \, slice order/ pattern.;
#X obj 7 100 makefilename %i-slicer3-single;
#X obj 227 100 makefilename %i-slicer3-double;
#X obj 7 11 r \$0-printall;
#X connect 0 0 6 1;
#X connect 1 0 5 1;
#X connect 2 0 17 0;
#X connect 2 0 18 0;
#X connect 3 0 10 0;
#X connect 4 0 2 0;
#X connect 4 1 1 0;
#X connect 4 1 0 0;
#X connect 5 0 8 0;
#X connect 6 0 14 0;
#X connect 7 0 10 1;
#X connect 8 0 9 0;
#X connect 10 0 5 0;
#X connect 11 0 13 0;
#X connect 12 0 13 1;
#X connect 13 0 6 0;
#X connect 14 0 15 0;
#X connect 17 0 3 0;
#X connect 18 0 11 0;
#X connect 19 0 4 0;
#X restore 14 270 pd patternprint;
#X connect 2 0 9 0;
#X connect 3 0 8 0;
#X connect 6 0 1 0;
#X connect 6 0 4 0;
#X connect 7 0 0 0;
#X connect 8 0 5 0;
#X connect 9 0 6 0;
#X connect 9 1 7 0;
#X connect 9 1 3 0;
#X restore 12 14 pd patterngen;
#N canvas 249 509 190 141 pamount 0;
#X obj 9 12 r \$0-slices;
#X obj 99 12 r \$0-sgldbl;
#X obj 99 36 + 1;
#X obj 99 110 outlet;
#X obj 99 60 t b f;
#X obj 99 86 * 1, f 5;
#X connect 0 0 5 0;
#X connect 1 0 2 0;
#X connect 2 0 4 0;
#X connect 4 0 5 0;
#X connect 4 1 5 1;
#X connect 5 0 3 0;
#X restore 44 178 pd pamount;
#X connect 0 0 1 0;
#X connect 1 0 3 0;
#X connect 2 0 29 0;
#X connect 3 0 0 1;
#X connect 3 0 11 0;
#X connect 4 0 2 0;
#X connect 5 0 4 1;
#X connect 6 0 0 0;
#X connect 7 0 4 0;
#X connect 8 0 6 0;
#X connect 9 0 7 0;
#X connect 10 0 0 1;
#X connect 11 0 2 0;
#X connect 12 0 16 0;
#X connect 13 0 12 0;
#X connect 13 1 14 0;
#X connect 14 0 15 0;
#X connect 15 0 11 2;
#X connect 16 0 11 2;
#X connect 17 0 13 0;
#X connect 20 0 10 0;
#X connect 21 0 25 0;
#X connect 22 0 26 1;
#X connect 23 0 26 0;
#X connect 24 0 23 0;
#X connect 25 0 6 1;
#X connect 25 1 7 1;
#X connect 25 2 23 1;
#X connect 26 0 2 0;
#X connect 27 0 26 2;
#X connect 29 0 28 0;
#X connect 30 0 29 1;
#X connect 31 0 30 0;
#X connect 33 0 3 1;
#X restore 16 72 pd patterns;
#X obj 587 20 inlet override;
#X obj 149 346 tgl 15 0 \$0-override \$0-overrideinit Override 17 7 0 10 #e3c6ff #000000 #000000 0 1;
#X obj 872 210 r \$0-sliceno;
#X obj 872 232 r \$0-sldursamp;
#X obj 872 254 r \$0-sldur;
#X obj 872 276 pack f f f;
#X obj 872 298 outlet overrider;
#N canvas 670 286 378 189 canvas 0;
#X obj 18 11 r \$0-override;
#X msg 250 105 vis_size \$1 \$2;
#X obj 250 155 s \$0-canvas;
#X obj 18 34 sel 0, f 15;
#X msg 18 86 0 0;
#X msg 250 79 label \$1;
#X msg 18 60 symbol empty;
#X msg 119 60 symbol overridden;
#X msg 120 86 222 80;
#X msg 250 126 label_pos 72 40;
#X connect 0 0 3 0;
#X connect 1 0 2 0;
#X connect 1 0 9 0;
#X connect 3 0 4 0;
#X connect 3 0 6 0;
#X connect 3 1 8 0;
#X connect 3 1 7 0;
#X connect 4 0 1 0;
#X connect 5 0 2 0;
#X connect 5 0 9 0;
#X connect 6 0 5 0;
#X connect 7 0 5 0;
#X connect 8 0 1 0;
#X connect 9 0 2 0;
#X restore 16 266 pd canvas;
#X text 197 71 ..== SLICER3 ==..;
#X floatatom 265 219 9 0 0 1 Org.BPM \$0-orgbpminit \$0-orgbpm 8;
#X obj 190 219 hradio 15 1 0 3 \$0-bars \$0-barsinit 1\ \ 2\ \ 4\ \ Bars 5 8 0 8 #fcfcfc #000000 #000000 0;
#X text 688 332 Author: Martin Heinze, f 22;
#X text 145 240 --------------------------------;
#X text 145 327 --------------------------------;
#N canvas 897 143 369 286 presetprint 0;
#X obj 240 14 r \$0-adjbpm;
#X obj 240 38 r \$0-split;
#X obj 240 62 r \$0-sgldbl;
#X obj 240 86 r \$0-patmode;
#X obj 240 110 r \$0-bars;
#X obj 240 134 r \$0-ampl;
#X obj 240 182 r \$0-override;
#X obj 240 158 r \$0-cslsel;
#X obj 12 205 pack s f f f f f f f f, f 33;
#X obj 12 229 list trim;
#X obj 12 134 f \$0;
#X obj 12 182 symbol;
#X obj 12 253 print -n;
#X obj 12 110 r \$0-printall;
#X obj 12 158 makefilename %i-slicer3-preset;
#X connect 0 0 8 1;
#X connect 1 0 8 2;
#X connect 2 0 8 3;
#X connect 3 0 8 4;
#X connect 4 0 8 5;
#X connect 5 0 8 6;
#X connect 6 0 8 8;
#X connect 7 0 8 7;
#X connect 8 0 9 0;
#X connect 9 0 12 0;
#X connect 10 0 14 0;
#X connect 11 0 8 0;
#X connect 13 0 10 0;
#X connect 14 0 11 0;
#X restore 16 289 pd presetprint;
#X obj 148 253 cnv 19 222 80 empty \$0-canvas overridden 72 40 0 12 #e0e0e0 #404040 0;
#X text 394 72 Slicer3 is a stereo sampler engine primarily useful for breakbeats. Samples can be loaded using the loading button or by sending the file path as message through the second inlet. The original tempo of the sample is calculated based on the assumption that it's a 4/4 meter (and either 1 \, 2 or 4 bars in length \, selectable via the radio button below sample load button). BPM can be adjusted \, e.g. to the global tempo of the main patch. The file can be split in half 0-5 times resulting in 1-32 equal slices that can be played back in a randomly generated but fixed pattern (mode 0) \, a totally random order (mode 1) or a centered random pattern with increasing values (mode 2). Radio button 1 / 3 switches between a pattern length 1x / 2x the amount of slices generated (mode 0). The "r" button (or a bang sent to the third inlet) generates another random pattern (mode 0). Slider in the bottom right selects center slide value for playback mode 2 Fifth inlet allows setting all parameters from outside the patch. Sixth inlet allows overriding slice order and duration by another instance of Slicer3., f 64;
#N canvas 886 134 169 153 override 0;
#X obj 7 7 inlet;
#X obj 7 31 spigot, f 7;
#X obj 53 7 r \$0-override;
#X obj 7 54 unpack f f f;
#X obj 7 78 s \$0-sliceno;
#X obj 7 100 s \$0-sldursamp;
#X obj 7 122 s \$0-sldur;
#X connect 0 0 1 0;
#X connect 1 0 3 0;
#X connect 2 0 1 1;
#X connect 3 0 4 0;
#X connect 3 1 5 0;
#X connect 3 2 6 0;
#X restore 587 43 pd override;
#N canvas 760 271 611 405 predistro 0;
#X obj 13 15 inlet;
#X obj 167 125 loadbang;
#X obj 67 213 s \$0-adjbpminit;
#X listbox 67 167 26 0 0 0 - - - 0;
#X obj 67 280 s \$0-patmodeinit;
#X obj 67 235 s \$0-splitinit;
#X obj 67 257 s \$0-sgldblinit;
#X obj 67 302 s \$0-barsinit;
#X obj 67 324 s \$0-amplinit;
#X obj 67 347 s \$0-csselslinit;
#X obj 67 116 r \$0-override;
#X obj 67 139 sel 0;
#X obj 67 370 s \$0-overrideinit;
#X obj 67 189 unpack f f f f f f f f;
#X msg 167 148 170 4 1 1 1 0.8 0 0;
#X obj 67 95 list split 8, f 72;
#X obj 317 118 list split 1, f 32;
#X obj 317 141 s \$0-splitinit;
#X obj 427 210 array set \$0-dpattern;
#X obj 427 233 array set \$0-pattern;
#X obj 427 187 list;
#X obj 427 141 t b a;
#X obj 427 164 del 20;
#X text 222 274 In this subpatch \, control level preset list is separated from playback pattern (with sample split as first value working as an index of sorts). An exemplary preset input would look like this:, f 51;
#X obj 13 39 route float list;
#X obj 13 63 s \$0-adjbpminit;
#X text 128 62 <-- change BPM only on float input.;
#X msg 223 342 160 4 0 0 1 0.716216 0 0 4 9 6 5 3 13 6 8 14 13 6 7 10 14 12 5 6 1 11 6 14 8 10 4 2 0 6 14 7 10 8 7 1, f 51;
#X connect 0 0 24 0;
#X connect 1 0 14 0;
#X connect 3 0 13 0;
#X connect 10 0 11 0;
#X connect 11 0 2 0;
#X connect 11 0 9 0;
#X connect 11 0 8 0;
#X connect 11 0 7 0;
#X connect 11 0 6 0;
#X connect 11 0 5 0;
#X connect 11 0 4 0;
#X connect 13 0 2 0;
#X connect 13 1 5 0;
#X connect 13 2 6 0;
#X connect 13 3 4 0;
#X connect 13 4 7 0;
#X connect 13 5 8 0;
#X connect 13 6 9 0;
#X connect 13 7 12 0;
#X connect 14 0 3 0;
#X connect 15 0 3 0;
#X connect 15 1 16 0;
#X connect 16 0 17 0;
#X connect 16 1 21 0;
#X connect 20 0 18 0;
#X connect 20 0 19 0;
#X connect 21 0 22 0;
#X connect 21 1 20 1;
#X connect 22 0 20 0;
#X connect 24 0 25 0;
#X connect 24 1 15 0;
#X restore 489 43 pd predistro;
#X obj 326 346 bng 15 250 50 0 \$0-printall \$0-printall Print 17 7 0 10 #9f9f9f #000000 #000000;
#X obj 872 43 bng 19 250 50 0 empty empty Restart 22 9 0 12 #fcfcfc #000000 #000000;
#X text 870 19 Legacy stuff:;
#N canvas 493 587 257 92 banking 0;
#X obj 7 7 inlet;
#X obj 7 31 route bang float, f 32;
#X obj 7 55 s \$0-rndmzinit;
#X obj 117 55 s \$0-bankselinit;
#X connect 0 0 1 0;
#X connect 1 0 2 0;
#X connect 1 1 3 0;
#X restore 384 44 pd banking;
#X obj 384 20 inlet banking;
#X text 868 123 Use the outlet below to control slice playback order of another Slicer3 instance., f 19;
#X text 688 350 Last updated: 18.05.25;
#X connect 12 0 16 0;
#X connect 19 0 16 1;
#X connect 20 0 13 0;
#X connect 21 0 48 0;
#X connect 28 0 14 0;
#X connect 30 0 47 0;
#X connect 32 0 35 0;
#X connect 33 0 35 1;
#X connect 34 0 35 2;
#X connect 35 0 36 0;
#X connect 50 0 15 0;
#X connect 53 0 52 0;
#X coords 0 -1 1 1 240 300 2 140 70;
