#N canvas 17 151 781 402 12;
#X obj 86 228 *~;
#X obj 86 353 outlet~;
#X obj 19 22 inlet;
#X obj 616 22 loadbang;
#X obj 265 138 hsl 42 16 100 7000 0 0 \$0-sbdec \$0-sbdecinit Dec -27 8 0 12 #fcfcfc #000000 #000000 0 1;
#X obj 265 60 hsl 42 16 50 2 0 0 \$0-sbwob \$0-sbwobinit WOB -27 8 0 12 #fcfcfc #000000 #000000 0 1;
#X obj 419 22 inlet;
#X listbox 419 46 20 0 0 0 - - - 0;
#X obj 319 60 nbx 3 16 -1e+37 1e+37 0 0 \$0-sbwobdummy \$0-sbwob empty 0 -10 0 12 #fcfcfc #000000 #000000 0 256;
#X obj 319 138 nbx 4 16 -1e+37 1e+37 0 0 \$0-sbdecdummy \$0-sbdec empty 0 -10 0 12 #fcfcfc #000000 #000000 0 256;
#X text 465 21 Preset inlet;
#X text 62 21 Note in;
#X obj 265 186 hsl 42 16 0 1 0 0 \$0-sbamp \$0-sbampinit Amp -27 8 0 12 #fcfcfc #000000 #000000 0 1;
#X obj 319 186 nbx 3 16 -1e+37 1e+37 0 0 \$0-sbampdummy \$0-sbamp empty 0 -10 0 12 #fcfcfc #000000 #000000 0 256;
#X obj 86 324 *~;
#X obj 104 301 r \$0-sbamp;
#X obj 616 69 f \$0;
#X obj 265 89 hsl 42 16 1 20 1 0 \$0-sbfq \$0-sbfqinit Q -27 8 0 12 #fcfcfc #000000 #000000 0 1;
#X obj 19 183 vcf~, f 10;
#X obj 616 46 bng 19 250 50 0 empty empty empty 0 -10 0 12 #fcfcfc #000000 #000000;
#X obj 320 89 nbx 3 16 -1e+37 1e+37 0 0 \$0-sbfqdummy \$0-sbfq empty 0 -10 0 12 #fcfcfc #000000 #000000 0 256;
#N canvas 909 217 308 329 env 0;
#X obj 23 248 vline~;
#X obj 133 37 r \$0-sbdec;
#X obj 23 302 outlet~;
#X obj 23 11 r \$0-note;
#X obj 23 35 bng 19 250 50 0 empty empty empty 0 -10 0 12 #fcfcfc #000000 #000000;
#X obj 102 11 r \$0-sbod;
#X obj 23 175 list;
#X listbox 23 199 35 0 0 0 - - - 0;
#X obj 23 272 pow~ 2;
#X obj 213 37 r \$0-sbatt;
#X obj 102 155 pack f f f f, f 14;
#X msg 23 224 \$1 \$2 \, 0 \$3 \$4;
#X obj 133 80 f;
#X obj 213 61 t b f f;
#X obj 133 104 t b f;
#X obj 197 130 * 2;
#X connect 0 0 8 0;
#X connect 1 0 12 0;
#X connect 3 0 4 0;
#X connect 4 0 6 0;
#X connect 5 0 10 0;
#X connect 6 0 7 0;
#X connect 7 0 11 0;
#X connect 8 0 2 0;
#X connect 9 0 13 0;
#X connect 10 0 6 1;
#X connect 11 0 0 0;
#X connect 12 0 14 0;
#X connect 13 0 12 0;
#X connect 13 1 10 1;
#X connect 13 2 15 0;
#X connect 14 0 10 0;
#X connect 14 1 10 2;
#X connect 15 0 10 3;
#X restore 104 204 pd env;
#X obj 19 46 s \$0-note;
#X obj 370 60 tgl 16 0 \$0-sbwobtgl \$0-sbwobtglinit empty 0 -10 0 12 #fcfcfc #000000 #000000 0 1;
#X obj 52 158 sig~;
#X obj 265 167 hsl 42 16 1 5 0 0 \$0-sbod \$0-sbodinit OD -27 8 0 12 #fcfcfc #000000 #000000 0 1;
#X obj 319 167 nbx 3 16 -1e+37 1e+37 0 0 \$0-sboddummy \$0-sbod empty 0 -10 0 12 #fcfcfc #000000 #000000 0 256;
#X obj 86 252 expr~ atan($v1);
#X obj 265 41 hsl 42 16 0 1 0 0 \$0-sbsq \$0-sbsqinit SQ -27 8 0 12 #fcfcfc #000000 #000000 0 1;
#X obj 319 41 nbx 3 16 -1e+37 1e+37 0 0 \$0-sbsqdummy \$0-sbsq empty 0 -10 0 12 #fcfcfc #000000 #000000 0 256;
#N canvas 924 204 294 371 synth 0;
#X obj 116 42 mtof;
#X obj 116 254 *~;
#N canvas 783 516 203 245 wobble 0;
#X obj 101 121 sig~ 1;
#X obj 101 168 *~;
#X obj 54 168 *~;
#X obj 119 143 == 0;
#X obj 18 143 osc~;
#X obj 36 65 r \$0-sbwob;
#X obj 18 121 /;
#X obj 17 15 inlet;
#X obj 17 39 t f b;
#X obj 54 202 outlet~;
#X msg 46 121 0, f 1;
#X obj 72 95 r \$0-sbwobtgl;
#X connect 0 0 1 0;
#X connect 1 0 9 0;
#X connect 2 0 9 0;
#X connect 3 0 1 1;
#X connect 4 0 2 0;
#X connect 5 0 6 1;
#X connect 6 0 4 0;
#X connect 7 0 8 0;
#X connect 8 0 6 0;
#X connect 8 1 10 0;
#X connect 10 0 4 1;
#X connect 11 0 2 1;
#X connect 11 0 3 0;
#X restore 134 212 pd wobble;
#X msg 141 81 0, f 1;
#X obj 116 103 osc~;
#X obj 23 126 expr~ $v1>0;
#X obj 98 287 +~;
#X obj 23 180 *~;
#X obj 23 254 *~;
#X obj 116 17 r \$0-note;
#X obj 98 335 outlet~;
#X obj 186 254 *~;
#X obj 186 103 phasor~;
#X msg 232 81 0, f 1;
#X obj 186 180 *~;
#X obj 23 103 osc~;
#X msg 48 81 0, f 1;
#X obj 98 311 expr~ atan($v1);
#X obj 41 155 r \$0-sbsq;
#X obj 204 155 r \$0-sbsaw;
#X connect 0 0 2 0;
#X connect 0 0 4 0;
#X connect 0 0 12 0;
#X connect 0 0 3 0;
#X connect 0 0 13 0;
#X connect 0 0 16 0;
#X connect 0 0 15 0;
#X connect 1 0 6 1;
#X connect 2 0 1 1;
#X connect 2 0 8 1;
#X connect 2 0 11 1;
#X connect 3 0 4 1;
#X connect 4 0 1 0;
#X connect 5 0 7 0;
#X connect 6 0 17 0;
#X connect 7 0 8 0;
#X connect 8 0 6 0;
#X connect 9 0 0 0;
#X connect 11 0 6 1;
#X connect 12 0 14 0;
#X connect 13 0 12 1;
#X connect 14 0 11 0;
#X connect 15 0 5 0;
#X connect 16 0 15 1;
#X connect 17 0 10 0;
#X connect 18 0 7 1;
#X connect 19 0 14 1;
#X restore 19 83 pd synth;
#X obj 52 110 r \$0-note;
#X obj 265 22 hsl 42 16 0 1 0 0 \$0-sbsaw \$0-sbsawinit SW -27 8 0 12 #fcfcfc #000000 #000000 0 1;
#X obj 319 22 nbx 3 16 -1e+37 1e+37 0 0 \$0-sbawdummy \$0-sbsaw empty 0 -10 0 12 #fcfcfc #000000 #000000 0 256;
#X obj 265 118 hsl 42 16 5 500 0 0 \$0-sbatt \$0-sbattinit Att -27 8 0 12 #fcfcfc #000000 #000000 0 1;
#X obj 319 118 nbx 4 16 -1e+37 1e+37 0 0 \$0-sbattdummy \$0-sbatt empty 0 -10 0 12 #fcfcfc #000000 #000000 0 256;
#X obj 86 276 hip~ 5;
#X obj 86 158 r \$0-sbfq;
#X msg 616 94 \; \$1-sbsawinit 0 \; \$1-sbsqinit 0 \; \$1-sbwobinit 23 \; \$1-sbwobtglinit 1 \; \$1-sbfqinit 1.2 \; \$1-sbattinit 25 \; \$1-sbdecinit 2500 \; \$1-sbodinit 1.2 \; \$1-sbampinit 0.6 \;;
#X obj 419 69 unpack f f f f f f f f f;
#X obj 419 94 s \$0-sbsawinit;
#X obj 419 119 s \$0-sbsqinit;
#X obj 419 144 s \$0-sbwobinit;
#X obj 419 169 s \$0-sbwobtglinit;
#X obj 419 194 s \$0-sbfqinit;
#X obj 419 219 s \$0-sbattinit;
#X obj 419 244 s \$0-sbdecinit;
#X obj 419 269 s \$0-sbodinit;
#X obj 419 294 s \$0-sbampinit;
#N canvas 1031 252 376 463 presetprinter 0;
#X obj 15 262 t b f;
#X obj 56 262 t b f;
#X obj 97 262 t b f;
#X obj 138 262 t b f;
#X obj 179 262 t b f;
#X obj 220 262 t b f;
#X obj 92 392 list store;
#X obj 92 359 bng 20 250 50 0 empty \$0-doropresprnt empty 0 -10 0 12 #fcfcfc #000000 #000000;
#X obj 261 262 t b f;
#X obj 302 262 t b f;
#X obj 159 358 pack f f f f f f f f f, f 23;
#X obj 159 14 r \$0-sbsaw;
#X obj 159 39 r \$0-sbsq;
#X obj 159 64 r \$0-sbwob;
#X obj 159 89 r \$0-sbwobtgl;
#X obj 159 114 r \$0-sbfq;
#X obj 159 139 r \$0-sbatt;
#X obj 159 164 r \$0-sbdec;
#X obj 159 189 r \$0-sbod;
#X obj 159 214 r \$0-sbamp;
#X obj 92 417 print \$0-subz-Preset;
#X connect 0 0 10 0;
#X connect 0 1 10 1;
#X connect 1 0 10 0;
#X connect 1 1 10 2;
#X connect 2 0 10 0;
#X connect 2 1 10 3;
#X connect 3 0 10 0;
#X connect 3 1 10 4;
#X connect 4 0 10 0;
#X connect 4 1 10 5;
#X connect 5 0 10 0;
#X connect 5 1 10 6;
#X connect 6 0 20 0;
#X connect 7 0 6 0;
#X connect 8 0 10 0;
#X connect 8 1 10 7;
#X connect 9 0 10 0;
#X connect 9 1 10 8;
#X connect 10 0 6 1;
#X connect 11 0 10 0;
#X connect 12 0 0 0;
#X connect 13 0 1 0;
#X connect 14 0 2 0;
#X connect 15 0 3 0;
#X connect 16 0 4 0;
#X connect 17 0 5 0;
#X connect 18 0 8 0;
#X connect 19 0 9 0;
#X restore 616 249 pd presetprinter;
#X obj 262 214 bng 15 250 50 0 \$0-doropresprnt empty Prnt\ Pres 17 8 0 10 #fcfcfc #000000 #000000;
#X text 237 257 Subz is a simple bassline synthesizer with three oscillators \, LFO and filter. Last updated 20.12.23., f 22;
#X obj 52 134 mtof;
#X connect 0 0 27 0;
#X connect 2 0 22 0;
#X connect 3 0 19 0;
#X connect 6 0 7 0;
#X connect 7 0 39 0;
#X connect 14 0 1 0;
#X connect 15 0 14 1;
#X connect 16 0 38 0;
#X connect 18 0 0 0;
#X connect 18 1 0 0;
#X connect 19 0 16 0;
#X connect 21 0 0 1;
#X connect 24 0 18 1;
#X connect 27 0 36 0;
#X connect 30 0 18 0;
#X connect 31 0 52 0;
#X connect 36 0 14 0;
#X connect 37 0 18 2;
#X connect 39 0 40 0;
#X connect 39 1 41 0;
#X connect 39 2 42 0;
#X connect 39 3 43 0;
#X connect 39 4 44 0;
#X connect 39 5 45 0;
#X connect 39 6 46 0;
#X connect 39 7 47 0;
#X connect 39 8 48 0;
#X connect 52 0 24 0;
#X coords 0 -1 1 1 170 220 2 225 15;
