#N canvas 654 173 480 343 12;
#X obj 14 21 inlet~;
#X obj 119 96 snake~, f 20;
#X obj 164 233 outlet~;
#X floatatom 173 40 5 0 0 0 - - - 0;
#X floatatom 245 40 5 0 0 0 - - - 0;
#X obj 119 65 rev3~ 30 20 1000 10, f 20;
#X obj 351 44 hsl 100 14 60 120 0 0 \$0-int \$0-intinit Intensity 20 7 0 10 #fcfcfc #000000 #000000 0 1;
#X obj 351 62 hsl 100 14 20 120 0 0 \$0-room \$0-roominit Room\ size 20 7 0 10 #fcfcfc #000000 #000000 0 1;
#X obj 351 80 hsl 100 14 1 0 0 0 \$0-drywet \$0-drywetinit Dry/Wet 24 7 0 10 #fcfcfc #000000 #000000 0 1;
#X obj 173 17 r \$0-int;
#X obj 245 17 r \$0-room;
#X obj 32 188 lop~ 1;
#X obj 14 214 *~;
#X obj 137 119 sig~ 1;
#X obj 137 164 -~;
#X obj 137 188 lop~ 1;
#X obj 119 214 *~;
#X obj 32 165 r \$0-drywet;
#X obj 155 141 r \$0-drywet;
#X obj 79 40 snake~ out;
#X text 359 23 ..:BERND:..;
#X text 271 243 Bernd is a simple 2 channel reverberator unit based on rev3~., f 26;
#X text 299 297 Author: Martin Heinze, f 22;
#X text 299 313 Last updated: 09.08.25;
#X obj 274 119 loadbang;
#X obj 274 141 f \$0;
#X msg 274 164 \; \$1-intinit 70 \; \$1-roominit 50 \; \$1-drywetinit 0.5;
#X connect 0 0 12 0;
#X connect 0 0 19 0;
#X connect 1 0 16 0;
#X connect 3 0 5 2;
#X connect 4 0 5 3;
#X connect 5 0 1 0;
#X connect 5 1 1 1;
#X connect 5 2 1 0;
#X connect 5 3 1 1;
#X connect 9 0 3 0;
#X connect 10 0 4 0;
#X connect 11 0 12 1;
#X connect 12 0 2 0;
#X connect 13 0 14 0;
#X connect 14 0 15 0;
#X connect 15 0 16 1;
#X connect 16 0 2 0;
#X connect 17 0 11 0;
#X connect 18 0 14 1;
#X connect 19 0 5 0;
#X connect 19 1 5 1;
#X connect 24 0 25 0;
#X connect 25 0 26 0;
#X coords 0 -1 1 1 120 80 2 340 20;
