#N canvas 114 151 653 320 12;
#X obj 14 21 inlet~;
#X obj 119 96 snake~, f 22;
#X obj 164 233 outlet~;
#X obj 119 65 rev3~ 30 20 1000 10, f 22;
#X obj 511 102 hsl 75 15 80 120 0 0 \$0-int \$0-intinit Int.\ (dB) 9 7 0 10 #fcfcfc #000000 #bbbbbb 0 1;
#X obj 511 120 hsl 75 15 20 100 0 0 \$0-room \$0-roominit Liveness\ (%) 3 7 0 10 #ffffff #000000 #bbbbbb 0 1;
#X obj 511 188 hsl 110 15 1 0 0 0 \$0-drywet \$0-drywetinit Dry/Wet 33 7 0 10 #9f9f9f #202020 #dfdfdf 0 1;
#X obj 169 17 r \$0-int;
#X obj 208 39 r \$0-room;
#X obj 32 188 lop~ 1;
#X obj 14 214 *~;
#X obj 137 119 sig~ 1;
#X obj 137 164 -~;
#X obj 137 188 lop~ 1;
#X obj 119 214 *~;
#X obj 32 165 r \$0-drywet;
#X obj 155 141 r \$0-drywet;
#X obj 82 40 snake~ out;
#X text 526 81 ..:BERND:..;
#X text 473 267 Author: Martin Heinze, f 22;
#X obj 401 17 loadbang;
#X obj 352 17 inlet;
#X obj 352 88 s \$0-intinit;
#X obj 352 112 s \$0-roominit;
#X text 473 283 Last updated: 10.08.25;
#X text 333 227 Bernd is a simple 2 channel reverberator unit based on rev3~ (basically a wrapper)., f 42;
#X obj 511 160 hsl 75 15 0 100 0 0 \$0-damp \$0-dampinit Damping\ (%) 6 7 0 10 #fcfcfc #000000 #bbbbbb 0 1;
#X floatatom 508 139 5 300 3000 1 Cutoff \$0-cutinit \$0-cut 10;
#X obj 280 39 r \$0-damp;
#X obj 352 64 unpack f f f f f;
#X obj 239 17 r \$0-cut;
#X floatatom 591 102 5 0 0 1 - \$0-int \$0-intdummy 10;
#X floatatom 591 120 5 0 0 1 - \$0-room \$0-roomdummy 10;
#X msg 401 40 80 50 1000 10 0.5, f 18;
#X obj 352 184 s \$0-drywetinit;
#X obj 352 136 s \$0-cutinit;
#X obj 352 160 s \$0-dampinit;
#X floatatom 591 160 5 0 0 1 - \$0-damp \$0-dampdummy 10;
#X text 500 172 ------------------;
#X obj 471 17 r \$0-reset;
#X obj 591 139 bng 15 250 50 0 \$0-reset \$0-resetinit empty 0 -10 0 12 #c6feff #00faff #000000;
#X connect 0 0 10 0;
#X connect 0 0 17 0;
#X connect 1 0 14 0;
#X connect 3 0 1 0;
#X connect 3 1 1 1;
#X connect 3 2 1 0;
#X connect 3 3 1 1;
#X connect 7 0 3 2;
#X connect 8 0 3 3;
#X connect 9 0 10 1;
#X connect 10 0 2 0;
#X connect 11 0 12 0;
#X connect 12 0 13 0;
#X connect 13 0 14 1;
#X connect 14 0 2 0;
#X connect 15 0 9 0;
#X connect 16 0 12 1;
#X connect 17 0 3 0;
#X connect 17 1 3 1;
#X connect 20 0 33 0;
#X connect 21 0 29 0;
#X connect 28 0 3 5;
#X connect 29 0 22 0;
#X connect 29 1 23 0;
#X connect 29 2 35 0;
#X connect 29 3 36 0;
#X connect 29 4 34 0;
#X connect 30 0 3 4;
#X connect 33 0 29 0;
#X connect 39 0 33 0;
#X coords 0 -1 1 1 130 130 2 500 80;
