#N canvas 202 221 1153 563 12;
#X obj 667 41 t b f, f 6;
#X obj 241 36 vsl 19 75 0 1.25 0 0 \$0-fbk \$0-fbkinit FBK 0 -9 0 10 #ff0400 #000000 #000000 0 1;
#X obj 209 36 vsl 19 75 100 5500 1 0 \$0-fhip \$0-fhipinit HIP 0 -9 0 10 #fcfcfc #000000 #000000 0 1;
#X floatatom 209 119 4 0 0 0 - \$0-fhip - 8;
#X floatatom 241 119 4 0 0 0 - \$0-fbk - 8;
#X obj 273 36 vsl 19 75 0 1 0 0 \$0-fvo \$0-fvoinit WET 0 -9 0 10 #fcfcfc #000000 #000000 0 1;
#X floatatom 273 119 4 0 0 0 - \$0-fvo - 8;
#X obj 360 457 outlet~;
#X obj 476 457 outlet~;
#X obj 177 226 hradio 15 1 0 8 \$0-dright \$0-drightinit Delay\ right 0 -8 0 10 #fcfcfc #000000 #000000 0;
#X obj 177 194 hradio 15 1 0 8 \$0-dleft \$0-dleftinit Delay\ left 0 -8 0 10 #fcfcfc #000000 #000000 0;
#X obj 378 351 *~;
#X obj 496 351 *~;
#X obj 801 439 hip~;
#X obj 667 439 hip~;
#X obj 177 36 vsl 19 75 100 7500 1 0 \$0-flop \$0-flopinit LOP 0 -9 0 10 #fcfcfc #000000 #000000 0 1;
#X floatatom 177 119 5 0 0 0 - \$0-flop - 8;
#X obj 667 394 lop~;
#X obj 801 394 lop~;
#X obj 360 407 hip~ 5;
#X obj 476 407 hip~ 5;
#X obj 360 97 delwrite~ \$0-dell 2000;
#X obj 360 151 delwrite~ \$0-delr 2000;
#X obj 360 429 expr~ atan($v1);
#X obj 476 429 expr~ atan($v1);
#X obj 514 328 r \$0-fvo;
#X obj 396 328 r \$0-fvo;
#X obj 826 371 r \$0-flop;
#X obj 12 15 r \$0-reset;
#X obj 12 41 bng 19 250 50 0 empty empty empty 0 -10 0 12 #fcfcfc #000000 #000000;
#X obj 12 67 f \$0;
#X obj 692 371 r \$0-flop;
#X obj 826 416 r \$0-fhip;
#X obj 692 416 r \$0-fhip;
#X obj 667 484 *~, f 4;
#X obj 692 461 r \$0-fbk;
#X obj 801 484 *~, f 4;
#X obj 826 461 r \$0-fbk;
#X obj 93 15 loadbang;
#X obj 706 64 s \$0-fdur;
#N canvas 644 424 384 244 ddurleft 0;
#X obj 153 185 *;
#X obj 77 42 sel 0 1 2 3 4 5 6 7, f 20;
#X msg 26 72 0.25;
#X msg 68 72 0.33;
#X msg 111 72 0.5;
#X msg 153 72 0.66;
#X msg 196 72 0.75;
#X msg 238 72 1;
#X msg 281 72 1.5;
#X msg 323 72 2;
#X obj 77 17 r \$0-dleft;
#X obj 183 185 r \$0-fdur;
#X obj 153 209 outlet;
#X connect 0 0 12 0;
#X connect 1 0 2 0;
#X connect 1 1 3 0;
#X connect 1 2 4 0;
#X connect 1 3 5 0;
#X connect 1 4 6 0;
#X connect 1 5 7 0;
#X connect 1 6 8 0;
#X connect 1 7 9 0;
#X connect 2 0 0 0;
#X connect 3 0 0 0;
#X connect 4 0 0 0;
#X connect 5 0 0 0;
#X connect 6 0 0 0;
#X connect 7 0 0 0;
#X connect 8 0 0 0;
#X connect 9 0 0 0;
#X connect 10 0 1 0;
#X connect 11 0 0 1;
#X restore 667 151 pd ddurleft;
#N canvas 665 568 384 253 ddurright 0;
#X obj 153 185 *;
#X obj 77 42 sel 0 1 2 3 4 5 6 7, f 20;
#X msg 26 72 0.25;
#X msg 68 72 0.33;
#X msg 111 72 0.5;
#X msg 153 72 0.66;
#X msg 196 72 0.75;
#X msg 238 72 1;
#X msg 281 72 1.5;
#X msg 323 72 2;
#X obj 183 185 r \$0-fdur;
#X obj 153 209 outlet;
#X obj 77 17 r \$0-dright;
#X connect 0 0 11 0;
#X connect 1 0 2 0;
#X connect 1 1 3 0;
#X connect 1 2 4 0;
#X connect 1 3 5 0;
#X connect 1 4 6 0;
#X connect 1 5 7 0;
#X connect 1 6 8 0;
#X connect 1 7 9 0;
#X connect 2 0 0 0;
#X connect 3 0 0 0;
#X connect 4 0 0 0;
#X connect 5 0 0 0;
#X connect 6 0 0 0;
#X connect 7 0 0 0;
#X connect 8 0 0 0;
#X connect 9 0 0 0;
#X connect 10 0 0 1;
#X connect 12 0 1 0;
#X restore 801 151 pd ddurright;
#X obj 667 64 f \$0;
#X msg 667 88 \; \$1-drightinit bang \; \$1-dleftinit bang;
#X obj 360 15 inlet~;
#X text 414 14 Mono in;
#X obj 943 15 inlet;
#X listbox 943 37 20 0 0 0 - - - 0;
#X obj 943 108 s \$0-flopinit;
#X obj 943 130 s \$0-fhipinit;
#X obj 943 152 s \$0-fbkinit;
#X obj 943 174 s \$0-fvoinit;
#X obj 943 196 s \$0-dleftinit;
#X obj 943 218 s \$0-drightinit;
#X text 986 14 Preset inlet;
#X obj 360 37 s~ \$0-channels;
#X obj 430 71 r~ \$0-channels;
#X obj 430 125 r~ \$0-channels;
#X obj 360 71 r~ \$0-fbl;
#X obj 360 125 r~ \$0-fbr;
#X obj 378 305 r~ \$0-fbl;
#X obj 496 305 r~ \$0-fbr;
#X obj 476 192 r~ \$0-channels;
#X obj 360 192 r~ \$0-channels;
#X obj 667 507 s~ \$0-fbl;
#X obj 801 507 s~ \$0-fbr;
#X obj 667 15 r \$0-dbl;
#X floatatom 177 160 6 0 0 2 Dur \$0-dblinit \$0-dbl 10;
#X obj 943 240 s \$0-dblinit;
#X obj 685 178 r \$0-dvar;
#X obj 819 178 r \$0-dvar;
#X obj 237 162 hsl 35 15 0.95 1.05 0 0 \$0-dvar \$0-dvarinit Vari -4 -8 0 10 #fcfcfc #000000 #000000 0 1;
#X floatatom 667 274 5 0 0 0 - - - 0;
#X floatatom 801 274 5 0 0 0 - - - 0;
#X obj 685 203 t b f;
#X obj 667 229 * 1;
#X obj 801 229 * 1;
#X obj 819 203 t b f;
#X obj 277 162 bng 15 250 50 0 \$0-dvarres \$0-dvarresinit Res -2 -8 0 10 #fcfcfc #000000 #000000;
#X obj 12 264 r \$0-dvarres;
#X msg 12 289 1, f 1;
#X obj 12 314 s \$0-dvarinit;
#X obj 943 263 s \$0-dvarinit;
#X obj 360 271 *~;
#X obj 476 271 *~;
#X obj 378 248 r \$0-dvo;
#X obj 494 248 r \$0-dvo;
#X obj 303 36 vsl 19 75 0 1 0 0 \$0-dvo \$0-dvoinit DRY 0 -9 0 10 #fcfcfc #000000 #000000 0 1;
#X floatatom 303 119 4 0 0 0 - \$0-dvo - 8;
#X obj 360 376 +~;
#X obj 477 376 +~;
#X obj 943 286 s \$0-dvoinit;
#X obj 943 61 unpack f f f f f f f f f;
#X msg 11 93 \; \$1-flopinit 4000 \; \$1-fhipinit 200 \; \$1-fvoinit 0.9 \; \$1-fbkinit 0.7 \; \$1-drightinit 5 \; \$1-dleftinit 3 \; \$1-dblinit 1000 \; \$1-dvarinit 0.99 \; \$1-dvoinit 1;
#X text 503 270 Dry signal;
#X text 529 350 Wet signal;
#N canvas 134 95 671 193 presetprinter 0;
#X obj 81 42 t b f;
#X obj 152 42 t b f;
#X obj 216 42 t b f;
#X obj 280 42 t b f;
#X obj 358 42 t b f;
#X obj 443 42 t b f;
#X obj 75 132 list store;
#X obj 75 99 bng 20 250 50 0 empty \$0-doropresprnt empty 0 -10 0 12 #fcfcfc #000000 #000000;
#X obj 10 15 r \$0-flop;
#X obj 81 15 r \$0-fhip;
#X obj 152 15 r \$0-fbk;
#X obj 216 15 r \$0-fvo;
#X obj 280 15 r \$0-dleft;
#X obj 358 15 r \$0-dright;
#X obj 443 15 r \$0-dbl;
#X obj 507 42 t b f;
#X obj 578 42 t b f;
#X obj 507 15 r \$0-dvar;
#X obj 578 15 r \$0-dvo;
#X obj 142 98 pack f f f f f f f f f, f 49;
#X obj 75 157 print \$0-dorothea-Preset;
#X connect 0 0 19 0;
#X connect 0 1 19 1;
#X connect 1 0 19 0;
#X connect 1 1 19 2;
#X connect 2 0 19 0;
#X connect 2 1 19 3;
#X connect 3 0 19 0;
#X connect 3 1 19 4;
#X connect 4 0 19 0;
#X connect 4 1 19 5;
#X connect 5 0 19 0;
#X connect 5 1 19 6;
#X connect 6 0 20 0;
#X connect 7 0 6 0;
#X connect 8 0 19 0;
#X connect 9 0 0 0;
#X connect 10 0 1 0;
#X connect 11 0 2 0;
#X connect 12 0 3 0;
#X connect 13 0 4 0;
#X connect 14 0 5 0;
#X connect 15 0 19 0;
#X connect 15 1 19 7;
#X connect 16 0 19 0;
#X connect 16 1 19 8;
#X connect 17 0 15 0;
#X connect 18 0 16 0;
#X connect 19 0 6 1;
#X restore 943 326 pd presetprinter;
#X obj 177 251 bng 15 250 50 0 \$0-doropresprnt empty Prnt\ Pres 17 8 0 10 #fcfcfc #000000 #000000;
#X obj 667 348 delread4~ \$0-dell;
#X obj 801 348 delread4~ \$0-delr;
#X obj 801 297 sig~;
#X obj 801 321 +~;
#X obj 850 297 osc~ 1;
#X obj 667 297 sig~;
#X text 13 350 Dorothea is a simple stereo delay unit with mono input through first inlet \, based on a delay base duration in ms. Second inlet processes presets. Beware of constant feedback >1 \, only use when in full control :) -- Last updated 28.07.24, f 42;
#X connect 0 0 42 0;
#X connect 0 1 39 0;
#X connect 11 0 89 1;
#X connect 12 0 90 1;
#X connect 13 0 36 0;
#X connect 14 0 34 0;
#X connect 17 0 14 0;
#X connect 18 0 13 0;
#X connect 19 0 23 0;
#X connect 20 0 24 0;
#X connect 23 0 7 0;
#X connect 24 0 8 0;
#X connect 25 0 12 1;
#X connect 26 0 11 1;
#X connect 27 0 18 1;
#X connect 28 0 29 0;
#X connect 29 0 30 0;
#X connect 30 0 93 0;
#X connect 31 0 17 1;
#X connect 32 0 13 1;
#X connect 33 0 14 1;
#X connect 34 0 64 0;
#X connect 35 0 34 1;
#X connect 36 0 65 0;
#X connect 37 0 36 1;
#X connect 38 0 29 0;
#X connect 40 0 75 0;
#X connect 41 0 76 0;
#X connect 42 0 43 0;
#X connect 44 0 55 0;
#X connect 46 0 47 0;
#X connect 47 0 92 0;
#X connect 56 0 21 0;
#X connect 57 0 22 0;
#X connect 58 0 21 0;
#X connect 59 0 22 0;
#X connect 60 0 11 0;
#X connect 61 0 12 0;
#X connect 62 0 84 0;
#X connect 63 0 83 0;
#X connect 66 0 0 0;
#X connect 69 0 74 0;
#X connect 70 0 77 0;
#X connect 72 0 103 0;
#X connect 73 0 100 0;
#X connect 74 0 75 0;
#X connect 74 1 75 1;
#X connect 75 0 72 0;
#X connect 76 0 73 0;
#X connect 77 0 76 0;
#X connect 77 1 76 1;
#X connect 79 0 80 0;
#X connect 80 0 81 0;
#X connect 83 0 89 0;
#X connect 84 0 90 0;
#X connect 85 0 83 1;
#X connect 86 0 84 1;
#X connect 89 0 19 0;
#X connect 90 0 20 0;
#X connect 92 0 48 0;
#X connect 92 1 49 0;
#X connect 92 2 50 0;
#X connect 92 3 51 0;
#X connect 92 4 52 0;
#X connect 92 5 53 0;
#X connect 92 6 68 0;
#X connect 92 7 82 0;
#X connect 92 8 91 0;
#X connect 98 0 17 0;
#X connect 99 0 18 0;
#X connect 100 0 101 0;
#X connect 101 0 99 0;
#X connect 102 0 101 1;
#X connect 103 0 98 0;
#X coords 0 -1 1 1 160 255 2 170 15;
