#N canvas 128 104 1089 397 12;
#X obj 71 35 vsl 19 75 0 1.25 0 0 \$0-fbk \$0-fbkinit FBK 0 -9 0 10 #ff0400 #000000 #000000 0 1;
#X obj 46 35 vsl 19 75 100 5500 1 0 \$0-fhip \$0-fhipinit HIP 0 -9 0 10 #fcfcfc #000000 #000000 0 1;
#X floatatom 46 118 4 0 0 0 - \$0-fhip \$0-dummy 8;
#X floatatom 71 118 4 0 0 0 - \$0-fbk \$0-dummy 8;
#X obj 96 35 vsl 19 75 0 1 0 0 \$0-fvo \$0-fvoinit WET 0 -9 0 10 #fcfcfc #000000 #000000 0 1;
#X floatatom 96 118 4 0 0 0 - \$0-fvo \$0-dummy 8;
#X obj 21 225 hradio 15 1 0 8 \$0-dright \$0-drightinit Delay\ right 0 -8 0 10 #fcfcfc #000000 #000000 0;
#X obj 21 193 hradio 15 1 0 8 \$0-dleft \$0-dleftinit Delay\ left 0 -8 0 10 #fcfcfc #000000 #000000 0;
#X obj 185 233 *~;
#X obj 301 233 *~;
#X obj 662 250 hip~;
#X obj 526 250 hip~;
#X obj 21 35 vsl 19 75 100 7500 1 0 \$0-flop \$0-flopinit LOP 0 -9 0 10 #fcfcfc #000000 #000000 0 1;
#X floatatom 21 118 4 0 0 0 - \$0-flop \$0-dummy 8;
#X obj 526 222 lop~;
#X obj 662 222 lop~;
#X obj 167 279 hip~ 5;
#X obj 283 279 hip~ 5;
#X obj 167 301 expr~ atan($v1);
#X obj 283 301 expr~ atan($v1);
#X obj 813 61 r \$0-reset;
#X obj 803 84 bng 19 250 50 0 empty empty empty 0 -10 0 12 #fcfcfc #000000 #000000;
#X obj 590 231 r \$0-fhip;
#X obj 526 297 *~, f 2;
#X obj 662 297 *~, f 2;
#X obj 803 38 loadbang;
#N canvas 644 424 384 244 ddurleft 0;
#X obj 153 185 *;
#X obj 77 42 sel 0 1 2 3 4 5 6 7, f 20;
#X msg 26 72 0.25;
#X msg 68 72 0.33;
#X msg 111 72 0.5;
#X msg 153 72 0.66;
#X msg 196 72 0.75;
#X msg 238 72 1;
#X msg 281 72 1.5;
#X msg 323 72 2;
#X obj 77 17 r \$0-dleft;
#X obj 183 185 r \$0-fdur;
#X obj 153 209 outlet;
#X connect 0 0 12 0;
#X connect 1 0 2 0;
#X connect 1 1 3 0;
#X connect 1 2 4 0;
#X connect 1 3 5 0;
#X connect 1 4 6 0;
#X connect 1 5 7 0;
#X connect 1 6 8 0;
#X connect 1 7 9 0;
#X connect 2 0 0 0;
#X connect 3 0 0 0;
#X connect 4 0 0 0;
#X connect 5 0 0 0;
#X connect 6 0 0 0;
#X connect 7 0 0 0;
#X connect 8 0 0 0;
#X connect 9 0 0 0;
#X connect 10 0 1 0;
#X connect 11 0 0 1;
#X restore 526 57 pd ddurleft;
#N canvas 665 568 384 253 ddurright 0;
#X obj 153 185 *;
#X obj 77 42 sel 0 1 2 3 4 5 6 7, f 20;
#X msg 26 72 0.25;
#X msg 68 72 0.33;
#X msg 111 72 0.5;
#X msg 153 72 0.66;
#X msg 196 72 0.75;
#X msg 238 72 1;
#X msg 281 72 1.5;
#X msg 323 72 2;
#X obj 183 185 r \$0-fdur;
#X obj 153 209 outlet;
#X obj 77 17 r \$0-dright;
#X connect 0 0 11 0;
#X connect 1 0 2 0;
#X connect 1 1 3 0;
#X connect 1 2 4 0;
#X connect 1 3 5 0;
#X connect 1 4 6 0;
#X connect 1 5 7 0;
#X connect 1 6 8 0;
#X connect 1 7 9 0;
#X connect 2 0 0 0;
#X connect 3 0 0 0;
#X connect 4 0 0 0;
#X connect 5 0 0 0;
#X connect 6 0 0 0;
#X connect 7 0 0 0;
#X connect 8 0 0 0;
#X connect 9 0 0 0;
#X connect 10 0 0 1;
#X connect 12 0 1 0;
#X restore 662 57 pd ddurright;
#X obj 167 15 inlet~;
#X obj 793 15 inlet;
#X listbox 793 131 35 0 0 0 - - - 0;
#X obj 793 182 s \$0-flopinit;
#X obj 793 204 s \$0-fhipinit;
#X obj 793 226 s \$0-fbkinit;
#X obj 793 248 s \$0-fvoinit;
#X obj 793 336 s \$0-dleftinit;
#X obj 793 358 s \$0-drightinit;
#X text 836 14 Preset inlet;
#X obj 187 63 r~ \$0-fbl;
#X obj 359 63 r~ \$0-fbr;
#X obj 185 209 r~ \$0-fbl;
#X obj 301 209 r~ \$0-fbr;
#X obj 526 320 s~ \$0-fbl;
#X obj 662 320 s~ \$0-fbr;
#X floatatom 21 159 6 0 10000 2 Dur \$0-dblinit \$0-dbl 10;
#X obj 793 292 s \$0-dblinit;
#X obj 70 159 hsl 35 15 0 9 0 0 \$0-dflut \$0-dflutinit Flutter -4 -7 0 10 #fcfcfc #000000 #000000 0 1;
#X floatatom 526 80 5 0 0 0 - - - 0;
#X floatatom 662 80 5 0 0 0 - - - 0;
#X obj 167 161 *~;
#X obj 185 115 r \$0-dvo;
#X obj 122 35 vsl 19 75 0 1 0 0 \$0-dvo \$0-dvoinit DRY 0 -9 0 10 #fcfcfc #000000 #000000 0 1;
#X floatatom 122 118 4 0 0 0 - \$0-dvo \$0-dummy 8;
#X obj 167 257 +~;
#X obj 283 257 +~;
#X obj 793 270 s \$0-dvoinit;
#X obj 793 155 unpack f f f f f f f f f;
#X text 331 234 Wet signal;
#N canvas 417 124 660 211 presetprinter 0;
#X obj 81 38 t b f;
#X obj 152 38 t b f;
#X obj 216 38 t b f;
#X obj 280 38 t b f;
#X obj 343 38 t b f;
#X obj 408 38 t b f;
#X obj 122 145 list store;
#X obj 122 120 bng 20 250 50 0 empty \$0-doropresprnt empty 0 -10 0 12 #fcfcfc #000000 #000000;
#X obj 10 15 r \$0-flop;
#X obj 81 15 r \$0-fhip;
#X obj 152 15 r \$0-fbk;
#X obj 216 15 r \$0-fvo;
#X obj 485 38 t b f;
#X obj 562 38 t b f;
#X obj 189 120 pack f f f f f f f f f, f 23;
#X obj 122 169 print \$0-dorothea2-Preset;
#X obj 280 15 r \$0-dvo;
#X obj 343 15 r \$0-dbl;
#X obj 408 15 r \$0-dflut;
#X obj 485 15 r \$0-dleft;
#X obj 562 15 r \$0-dright;
#X connect 0 0 14 0;
#X connect 0 1 14 1;
#X connect 1 0 14 0;
#X connect 1 1 14 2;
#X connect 2 0 14 0;
#X connect 2 1 14 3;
#X connect 3 0 14 0;
#X connect 3 1 14 4;
#X connect 4 0 14 0;
#X connect 4 1 14 5;
#X connect 5 0 14 0;
#X connect 5 1 14 6;
#X connect 6 0 15 0;
#X connect 7 0 6 0;
#X connect 8 0 14 0;
#X connect 9 0 0 0;
#X connect 10 0 1 0;
#X connect 11 0 2 0;
#X connect 12 0 14 0;
#X connect 12 1 14 7;
#X connect 13 0 14 0;
#X connect 13 1 14 8;
#X connect 14 0 6 1;
#X connect 16 0 3 0;
#X connect 17 0 4 0;
#X connect 18 0 5 0;
#X connect 19 0 12 0;
#X connect 20 0 13 0;
#X restore 15 284 pd presetprinter;
#X obj 117 159 bng 15 250 50 0 \$0-doropresprnt \$0-dummyin Prntr -2 -7 0 10 #fcfcfc #000000 #000000;
#X obj 526 155 delread4~ \$0-dell;
#X obj 662 155 delread4~ \$0-delr;
#X obj 662 129 +~;
#X obj 167 351 outlet~;
#X obj 167 325 snake~, f 17;
#X text 225 350 Stereo out;
#X obj 526 130 +~;
#X obj 793 314 s \$0-dflutinit;
#X obj 185 138 lop~ 10;
#X obj 383 214 lop~ 10;
#X obj 383 191 r \$0-fvo;
#X obj 526 103 lop~ 10;
#X obj 662 103 lop~ 10;
#N canvas 795 389 190 146 aligner 0;
#X obj 13 34 t b f, f 6;
#X obj 52 59 s \$0-fdur;
#X obj 13 58 f \$0;
#X msg 13 82 \; \$1-drightinit bang \; \$1-dleftinit bang;
#X obj 13 10 r \$0-dbl;
#X connect 0 0 2 0;
#X connect 0 1 1 0;
#X connect 2 0 3 0;
#X connect 4 0 0 0;
#X restore 15 261 pd aligner;
#X msg 803 107 4000 200 0.7 0.9 0.7 1000 1.2 3 5;
#X text 914 344 Author: Martin Heinze;
#X text 195 160 Dry signal;
#X obj 177 42 snake~ out, f 25;
#X text 914 240 Dorothea3 is a stereo-in stereo-out dub delay unit. Beware of constant feedback >1 \, only use when in full control :), f 21;
#X text 914 360 Last updated 05.04.25;
#X text 221 14 Stereo in;
#X obj 167 185 snake~ out, f 17;
#X obj 590 254 r \$0-fbk;
#X obj 590 278 lop~ 10;
#N canvas 858 351 191 132 flutter 0;
#X obj 102 76 *~;
#X obj 9 76 *~;
#X obj 41 57 lop~ 10;
#X obj 41 34 r \$0-dflut;
#X obj 9 100 outlet~;
#X obj 102 100 outlet~;
#X obj 9 12 osc~ 0.95;
#X obj 102 12 osc~ 1.05;
#X connect 0 0 5 0;
#X connect 1 0 4 0;
#X connect 2 0 1 1;
#X connect 2 0 0 1;
#X connect 3 0 2 0;
#X connect 6 0 1 0;
#X connect 7 0 0 0;
#X restore 583 111 pd flutter;
#X obj 177 86 delwrite~ \$0-dell 10000;
#X obj 349 86 delwrite~ \$0-delr 10000;
#X obj 590 179 r \$0-flop;
#X obj 590 203 lop~ 10;
#X connect 8 0 53 1;
#X connect 9 0 54 1;
#X connect 10 0 24 0;
#X connect 11 0 23 0;
#X connect 14 0 11 0;
#X connect 15 0 10 0;
#X connect 16 0 18 0;
#X connect 17 0 19 0;
#X connect 18 0 64 0;
#X connect 19 0 64 1;
#X connect 20 0 21 0;
#X connect 21 0 74 0;
#X connect 22 0 11 1;
#X connect 22 0 10 1;
#X connect 23 0 42 0;
#X connect 24 0 43 0;
#X connect 25 0 21 0;
#X connect 26 0 47 0;
#X connect 27 0 48 0;
#X connect 28 0 49 0;
#X connect 28 0 77 0;
#X connect 29 0 30 0;
#X connect 30 0 56 0;
#X connect 38 0 85 0;
#X connect 39 0 86 0;
#X connect 40 0 8 0;
#X connect 41 0 9 0;
#X connect 47 0 71 0;
#X connect 48 0 72 0;
#X connect 49 0 81 0;
#X connect 50 0 68 0;
#X connect 53 0 16 0;
#X connect 54 0 17 0;
#X connect 56 0 31 0;
#X connect 56 1 32 0;
#X connect 56 2 33 0;
#X connect 56 3 34 0;
#X connect 56 4 55 0;
#X connect 56 5 45 0;
#X connect 56 6 67 0;
#X connect 56 7 35 0;
#X connect 56 8 36 0;
#X connect 60 0 14 0;
#X connect 61 0 15 0;
#X connect 62 0 61 0;
#X connect 64 0 63 0;
#X connect 66 0 60 0;
#X connect 68 0 49 1;
#X connect 69 0 8 1;
#X connect 69 0 9 1;
#X connect 70 0 69 0;
#X connect 71 0 66 0;
#X connect 72 0 62 0;
#X connect 74 0 30 0;
#X connect 77 0 85 0;
#X connect 77 1 86 0;
#X connect 81 0 53 0;
#X connect 81 1 54 0;
#X connect 82 0 83 0;
#X connect 83 0 23 1;
#X connect 83 0 24 1;
#X connect 84 0 66 1;
#X connect 84 1 62 1;
#X connect 87 0 88 0;
#X connect 88 0 14 1;
#X connect 88 0 15 1;
#X coords 0 -1 1 1 135 235 2 15 15;
