#N canvas 548 114 745 628 12;
#X obj 399 26 inlet;
#X obj 33 66 r \$0-buflen;
#X msg 33 90 \$1, f 2;
#X obj 226 66 r \$0-buflen;
#X msg 226 90 \$1, f 2;
#X obj 226 544 s~ \$0-goutr;
#X obj 32 544 s~ \$0-goutl;
#X obj 23 15 inlet~;
#X obj 58 101 r~ \$0-goutl;
#X obj 23 422 *~;
#X obj 41 375 tgl 19 0 empty empty empty 0 -10 0 12 #fcfcfc #000000 #000000 0 1;
#X obj 216 422 *~;
#X obj 234 375 tgl 19 0 empty empty empty 0 -10 0 12 #fcfcfc #000000 #000000 0 1;
#X obj 23 319 delread4~ \$0-glitchl;
#X obj 216 319 delread4~ \$0-glitchr;
#X obj 41 446 r \$0-res;
#X obj 234 446 r \$0-res;
#X obj 392 387 hsl 48 16 0 0.9 0 0 \$0-res \$0-resinit Feedback -2 -7 0 10 #fcfcfc #000000 #000000 0 1;
#X floatatom 389 467 5 10 10000 1 Buffer\ length \$0-bufleninit \$0-buflen 10;
#X obj 563 26 loadbang;
#X obj 563 51 bng 20 250 50 0 empty empty empty 0 -10 0 12 #fcfcfc #000000 #000000;
#X obj 563 76 f \$0;
#X obj 23 493 *~;
#X obj 216 493 *~;
#X listbox 399 51 20 0 0 0 - - - 0;
#X obj 23 161 r \$0-phspl;
#X obj 216 161 r \$0-phspr;
#X floatatom 389 285 5 -10 10 1 Phase\ Speed\ L \$0-phsplinit \$0-phspl 10;
#X floatatom 389 306 5 -10 10 1 Phase\ Speed\ R \$0-phsprinit \$0-phspr 10;
#X floatatom 389 348 5 0 100 1 Buffer\ Offset \$0-bufofsinit \$0-bufofs 10;
#X obj 91 251 r \$0-bufofs;
#X obj 91 196 r \$0-buf;
#X obj 23 294 +~;
#X obj 216 293 +~;
#X floatatom 389 327 5 10 10000 1 Buffer \$0-bufinit \$0-buf 10;
#X obj 41 351 inlet;
#X obj 234 351 inlet;
#X obj 399 148 s \$0-phsplinit;
#X obj 399 172 s \$0-phsprinit;
#X obj 399 196 s \$0-bufofsinit;
#X obj 399 220 s \$0-bufinit;
#X obj 399 100 s \$0-resinit;
#X obj 399 124 s \$0-bufleninit;
#X obj 110 378 r \$0-smoo;
#X obj 462 387 hsl 48 16 50 0.5 1 0 \$0-smoo \$0-smooinit Smooth -2 -8 0 10 #fcfcfc #000000 #000000 0 1;
#X text 444 25 Preset inlet;
#X text 82 350 Activate L;
#X text 276 350 Activate R;
#X obj 399 245 s \$0-smooinit;
#X obj 399 75 unpack f f f f f f f;
#X obj 23 209 phasor~;
#X obj 216 209 phasor~;
#X obj 23 239 *~;
#X obj 216 239 *~;
#X obj 216 127 delwrite~ \$0-glitchr 100;
#X obj 23 127 delwrite~ \$0-glitchl 100;
#X obj 23 518 hip~ 50;
#X obj 216 518 hip~ 50;
#N canvas 795 269 596 220 presetprinter 0;
#X obj 95 25 r \$0-buflen;
#X obj 30 25 r \$0-res;
#X obj 181 25 r \$0-phspl;
#X obj 260 25 r \$0-phspr;
#X obj 339 25 r \$0-bufofs;
#X obj 425 25 r \$0-buf;
#X obj 490 25 r \$0-smoo;
#X obj 100 108 pack f f f f f f f, f 49;
#X obj 95 52 t b f;
#X obj 181 52 t b f;
#X obj 260 52 t b f;
#X obj 339 52 t b f;
#X obj 425 52 t b f;
#X obj 490 52 t b f;
#X obj 33 142 list store;
#X obj 33 109 bng 20 250 50 0 empty \$0-gpresprnt empty 0 -10 0 12 #fcfcfc #000000 #000000;
#X obj 33 167 print \$0-glitzher-Preset;
#X connect 0 0 8 0;
#X connect 1 0 7 0;
#X connect 2 0 9 0;
#X connect 3 0 10 0;
#X connect 4 0 11 0;
#X connect 5 0 12 0;
#X connect 6 0 13 0;
#X connect 7 0 14 1;
#X connect 8 0 7 0;
#X connect 8 1 7 1;
#X connect 9 0 7 0;
#X connect 9 1 7 2;
#X connect 10 0 7 0;
#X connect 10 1 7 3;
#X connect 11 0 7 0;
#X connect 11 1 7 4;
#X connect 12 0 7 0;
#X connect 12 1 7 5;
#X connect 13 0 7 0;
#X connect 13 1 7 6;
#X connect 14 0 16 0;
#X connect 15 0 14 0;
#X restore 562 245 pd presetprinter;
#X obj 389 407 bng 16 250 50 0 \$0-gpresprnt empty Prnt\ Pres 18 8 0 10 #fcfcfc #000000 #000000;
#N canvas 35 69 211 129 buffercalc 0;
#X obj 14 17 r \$0-buf;
#X obj 83 17 r \$0-bufofs;
#X obj 83 41 t b f;
#X obj 83 74 + 0;
#X obj 83 99 s \$0-bufleninit;
#X connect 0 0 3 0;
#X connect 1 0 2 0;
#X connect 2 0 3 0;
#X connect 2 1 3 1;
#X connect 3 0 4 0;
#X restore 562 274 pd buffercalc;
#X msg 563 101 \; \$1-resinit 0.4 \; \$1-phsplinit 0.2 \; \$1-phsprinit -0.3 \; \$1-bufofsinit 20 \; \$1-bufinit 100 \; \$1-smooinit 100;
#X obj 23 185 sig~;
#X obj 216 185 sig~;
#X obj 91 220 sig~;
#X obj 91 275 sig~;
#X obj 41 397 lop~, f 6;
#X obj 234 397 lop~, f 6;
#X obj 41 470 sig~;
#X obj 234 470 sig~;
#X obj 23 39 snake~ out, f 28;
#X obj 251 101 r~ \$0-goutr;
#X text 565 313 Glitzher2 is a stereo delay unit that creates short delay glitch dub effects \, whatever that means. Last updated 30.11.24, f 21;
#X text 389 488 Total buffer length left in for compatibility, f 26;
#X obj 23 573 snake~, f 28;
#X obj 23 597 outlet~, f 8;
#X connect 0 0 24 0;
#X connect 1 0 2 0;
#X connect 2 0 55 0;
#X connect 3 0 4 0;
#X connect 4 0 54 0;
#X connect 7 0 70 0;
#X connect 8 0 55 0;
#X connect 9 0 22 0;
#X connect 10 0 66 0;
#X connect 11 0 23 0;
#X connect 12 0 67 0;
#X connect 13 0 9 0;
#X connect 14 0 11 0;
#X connect 15 0 68 0;
#X connect 16 0 69 0;
#X connect 19 0 20 0;
#X connect 20 0 21 0;
#X connect 21 0 61 0;
#X connect 22 0 56 0;
#X connect 23 0 57 0;
#X connect 24 0 49 0;
#X connect 25 0 62 0;
#X connect 26 0 63 0;
#X connect 30 0 65 0;
#X connect 31 0 64 0;
#X connect 32 0 13 0;
#X connect 33 0 14 0;
#X connect 35 0 10 0;
#X connect 36 0 12 0;
#X connect 43 0 66 1;
#X connect 43 0 67 1;
#X connect 49 0 41 0;
#X connect 49 1 42 0;
#X connect 49 2 37 0;
#X connect 49 3 38 0;
#X connect 49 4 39 0;
#X connect 49 5 40 0;
#X connect 49 6 48 0;
#X connect 50 0 52 0;
#X connect 51 0 53 0;
#X connect 52 0 32 0;
#X connect 53 0 33 0;
#X connect 56 0 6 0;
#X connect 56 0 74 0;
#X connect 57 0 5 0;
#X connect 57 0 74 1;
#X connect 62 0 50 0;
#X connect 63 0 51 0;
#X connect 64 0 53 1;
#X connect 64 0 52 1;
#X connect 65 0 32 1;
#X connect 65 0 33 1;
#X connect 66 0 9 1;
#X connect 67 0 11 1;
#X connect 68 0 22 1;
#X connect 69 0 23 1;
#X connect 70 0 55 0;
#X connect 70 1 54 0;
#X connect 71 0 54 0;
#X connect 74 0 75 0;
#X coords 0 -1 1 1 140 155 2 380 275;
