#N canvas 327 183 598 568 12;
#X obj 10 10 inlet~;
#X obj 238 214 r \$0-res;
#X obj 206 279 *~;
#X obj 308 279 *~;
#X obj 238 236 sig~;
#X obj 238 260 lop~ 1;
#X obj 206 376 snake~, f 15;
#X text 40 368 Author: Martin Heinze;
#X obj 206 80 expr 1000 / $f1;
#X obj 206 56 mtof;
#X obj 206 104 sig~;
#X obj 23 214 hsl 65 18 0.7 0.99 0 0 \$0-res \$0-resinit FDBACK 13 9 0 12 #fcfcfc #7c7c7c #bbbbbb 0 1;
#X obj 326 104 sig~;
#X obj 326 126 lop~ 1;
#X obj 308 303 hip~ 10;
#X obj 206 303 hip~ 10;
#X obj 23 36 r~ \$0-fed 2;
#X obj 308 170 delread4~ \$0-glitchr, f 10;
#X obj 206 170 delread4~ \$0-glitchl, f 10;
#X obj 23 60 snake~ out;
#X obj 308 147 -~;
#X obj 326 80 r \$0-det;
#X obj 23 192 hsl 65 18 -0.2 0.2 0 0 \$0-det \$0-detinit DETUNE 12 9 0 12 #fcfcfc #7c7c7c #bbbbbb 0 1;
#X obj 206 534 outlet~;
#X obj 23 84 delwrite~ \$0-glitchl 50;
#X obj 23 108 delwrite~ \$0-glitchr 50;
#X obj 216 403 s~ \$0-fed 2;
#X obj 206 327 lop~ 16000;
#X obj 308 327 lop~ 16000;
#X obj 20 272 block~ 64 0 128;
#X floatatom 94 192 4 0 0 0 - \$0-det \$0-dummy 0;
#X floatatom 94 214 4 0 0 0 - \$0-res \$0-dummy 0;
#X obj 206 128 lop~ 50;
#X obj 308 434 r~ \$0-dry;
#X obj 23 236 hsl 65 18 0 1 0 0 \$0-drywet \$0-drywetinit DRY/WET 9 9 0 12 #fcfcfc #7c7c7c #bbbbbb 0 1;
#X floatatom 94 236 4 0 1 0 - \$0-drywet \$0-dummy 0;
#X obj 224 434 r \$0-drywet;
#X obj 224 463 lop~ 1;
#X obj 326 458 sig~ 1;
#X obj 326 482 -~;
#X obj 206 502 *~;
#X obj 308 505 *~;
#X obj 206 351 clip~ -1 1;
#X obj 308 351 clip~ -1 1;
#X obj 10 133 s~ \$0-dry 2;
#X text 14 168 == GLITZTUNE2 ==;
#X text 12 301 Glitztune2 tunes 2 channel audio input to a given MIDI note by using very short delay lines., f 25;
#X obj 206 10 inlet Note \, Presets;
#X obj 206 34 route float list;
#X obj 395 5 loadbang;
#X obj 435 100 s \$0-resinit;
#X obj 395 77 s \$0-detinit;
#X obj 395 53 unpack f f f;
#X obj 476 123 s \$0-drywetinit;
#X msg 395 29 -0.15 0.8 0.8;
#X text 40 384 Last updated 08.10.25;
#X connect 0 0 19 0;
#X connect 0 0 44 0;
#X connect 1 0 4 0;
#X connect 2 0 15 0;
#X connect 3 0 14 0;
#X connect 4 0 5 0;
#X connect 5 0 2 1;
#X connect 5 0 3 1;
#X connect 6 0 26 0;
#X connect 6 0 40 0;
#X connect 8 0 10 0;
#X connect 9 0 8 0;
#X connect 10 0 32 0;
#X connect 12 0 13 0;
#X connect 13 0 20 1;
#X connect 14 0 28 0;
#X connect 15 0 27 0;
#X connect 16 0 19 0;
#X connect 17 0 3 0;
#X connect 18 0 2 0;
#X connect 19 0 24 0;
#X connect 19 1 25 0;
#X connect 20 0 17 0;
#X connect 21 0 12 0;
#X connect 27 0 42 0;
#X connect 28 0 43 0;
#X connect 32 0 20 0;
#X connect 32 0 18 0;
#X connect 33 0 41 0;
#X connect 36 0 37 0;
#X connect 37 0 39 1;
#X connect 37 0 40 1;
#X connect 38 0 39 0;
#X connect 39 0 41 1;
#X connect 40 0 23 0;
#X connect 41 0 23 0;
#X connect 42 0 6 0;
#X connect 43 0 6 1;
#X connect 47 0 48 0;
#X connect 48 0 9 0;
#X connect 48 1 52 0;
#X connect 49 0 54 0;
#X connect 52 0 51 0;
#X connect 52 1 50 0;
#X connect 52 2 53 0;
#X connect 54 0 52 0;
#X coords 0 -1 1 1 125 95 2 10 165;
