#N canvas 685 116 736 590 12;
#X obj 207 15 inlet~;
#X obj 14 555 outlet~;
#X obj 399 15 inlet;
#X obj 114 15 r \$0-buflen;
#X msg 114 41 \$1, f 2;
#X obj 307 15 r \$0-buflen;
#X msg 307 41 \$1, f 2;
#X obj 217 495 s~ \$0-goutr;
#X obj 23 495 s~ \$0-goutl;
#X obj 13 15 inlet~;
#X obj 23 41 r~ \$0-goutl;
#X obj 14 419 *~;
#X obj 32 346 tgl 19 0 empty empty empty 0 -10 0 12 #fcfcfc #000000 #000000 0 1;
#X obj 207 419 *~;
#X obj 225 346 tgl 19 0 empty empty empty 0 -10 0 12 #fcfcfc #000000 #000000 0 1;
#X obj 207 290 delread4~ \$0-glitchr;
#X obj 116 380 r \$0-res;
#X obj 382 362 hsl 48 16 0 0.99 0 0 \$0-res \$0-resinit Fdback 53 8 0 10 #fcfcfc #000000 #000000 0 1;
#X obj 542 15 loadbang;
#X obj 14 445 *~;
#X obj 207 445 *~;
#X obj 13 97 r \$0-phspl;
#X obj 207 97 r \$0-phspr;
#X obj 116 118 r \$0-buf;
#X obj 14 265 +~;
#X obj 207 264 +~;
#X obj 32 322 inlet;
#X obj 225 322 inlet;
#X obj 399 141 s \$0-phsplinit;
#X obj 399 165 s \$0-phsprinit;
#X obj 399 189 s \$0-bufofsinit;
#X obj 399 213 s \$0-bufinit;
#X obj 399 117 s \$0-resinit;
#X text 444 14 Preset inlet;
#X text 73 321 Activate L;
#X text 267 321 Activate R;
#X obj 14 183 *~;
#X obj 207 183 *~;
#X obj 14 469 hip~ 50;
#X obj 207 469 hip~ 50;
#N canvas 806 401 411 168 presetprinter 0;
#X obj 30 15 r \$0-res;
#X obj 95 15 r \$0-phspl;
#X obj 174 15 r \$0-phspr;
#X obj 253 15 r \$0-bufofs;
#X obj 339 15 r \$0-buf;
#X obj 95 38 t b f;
#X obj 174 38 t b f;
#X obj 253 38 t b f;
#X obj 339 38 t b f;
#X obj 10 112 list store;
#X obj 10 79 bng 20 250 50 0 empty \$0-gpresprnt empty 0 -10 0 12 #fcfcfc #000000 #000000;
#X obj 10 137 print \$0-glitzem-Preset;
#X obj 77 78 pack f f f f f, f 29;
#X connect 0 0 12 0;
#X connect 1 0 5 0;
#X connect 2 0 6 0;
#X connect 3 0 7 0;
#X connect 4 0 8 0;
#X connect 5 0 12 0;
#X connect 5 1 12 1;
#X connect 6 0 12 0;
#X connect 6 1 12 2;
#X connect 7 0 12 0;
#X connect 7 1 12 3;
#X connect 8 0 12 0;
#X connect 8 1 12 4;
#X connect 9 0 11 0;
#X connect 10 0 9 0;
#X connect 12 0 9 1;
#X restore 379 430 pd presetprinter;
#X obj 416 384 bng 16 250 50 0 \$0-gpresprnt \$0-dummy Prntr 18 8 0 10 #fcfcfc #000000 #000000;
#N canvas 35 69 192 129 buffercalc 0;
#X obj 14 17 r \$0-buf;
#X obj 83 17 r \$0-bufofs;
#X obj 83 41 t b f;
#X obj 83 74 + 0;
#X obj 83 99 s \$0-buflen;
#X connect 0 0 3 0;
#X connect 1 0 2 0;
#X connect 2 0 3 0;
#X connect 2 1 3 1;
#X connect 3 0 4 0;
#X restore 379 454 pd buffercalc;
#X obj 14 290 delread4~ \$0-glitchl;
#X obj 207 120 osc~;
#X obj 207 145 expr~ ($v1+1)/2, f 9;
#X obj 13 121 osc~;
#X obj 13 146 expr~ ($v1+1)/2, f 10;
#X obj 382 272 hsl 48 16 -0.1 0.1 0 0 \$0-phspl \$0-phsplinit LFO\ L 55 8 0 10 #fcfcfc #000000 #000000 0 1;
#X obj 382 291 hsl 48 16 -0.1 0.1 0 0 \$0-phspr \$0-phsprinit LFO\ R 55 8 0 10 #fcfcfc #000000 #000000 0 1;
#X obj 399 92 unpack f f f f f;
#X obj 32 370 sig~;
#X obj 225 370 sig~;
#X obj 116 402 sig~;
#X obj 116 426 lop~ 1;
#X obj 32 394 lop~ 10;
#X obj 225 394 lop~ 10;
#X obj 116 140 sig~;
#X obj 116 164 lop~ 10;
#X obj 116 221 sig~;
#X obj 116 245 lop~ 10;
#X obj 116 199 r \$0-bufofs;
#X obj 216 41 r~ \$0-goutr;
#X obj 14 530 snake~, f 28;
#X text 542 120 Glitz'em is a flanger delay unit that creates very short delay detune fx \, whatever that means., f 21;
#X text 542 201 Author: Martin Heinze;
#X text 542 215 Last updated 29.07.24;
#X listbox 399 67 30 0 0 0 - - - 0;
#X obj 382 317 hsl 48 16 1 10 0 0 \$0-buf \$0-bufinit Amount 55 8 0 10 #fcfcfc #000000 #000000 0 1;
#X obj 382 336 hsl 48 16 1 10 0 0 \$0-bufofs \$0-bufofsinit Offset 55 8 0 10 #fcfcfc #000000 #000000 0 1;
#X obj 13 67 delwrite~ \$0-glitchl 200;
#X obj 207 67 delwrite~ \$0-glitchr 200;
#X msg 542 36 0.8 0.02 -0.03 5 6;
#X connect 0 0 71 0;
#X connect 2 0 67 0;
#X connect 3 0 4 0;
#X connect 4 0 70 0;
#X connect 5 0 6 0;
#X connect 6 0 71 0;
#X connect 9 0 70 0;
#X connect 10 0 70 0;
#X connect 11 0 19 0;
#X connect 12 0 51 0;
#X connect 13 0 20 0;
#X connect 14 0 52 0;
#X connect 15 0 13 0;
#X connect 16 0 53 0;
#X connect 18 0 72 0;
#X connect 19 0 38 0;
#X connect 20 0 39 0;
#X connect 21 0 46 0;
#X connect 22 0 44 0;
#X connect 23 0 57 0;
#X connect 24 0 43 0;
#X connect 25 0 15 0;
#X connect 26 0 12 0;
#X connect 27 0 14 0;
#X connect 36 0 24 0;
#X connect 37 0 25 0;
#X connect 38 0 8 0;
#X connect 38 0 63 0;
#X connect 39 0 7 0;
#X connect 39 0 63 1;
#X connect 43 0 11 0;
#X connect 44 0 45 0;
#X connect 45 0 37 0;
#X connect 46 0 47 0;
#X connect 47 0 36 0;
#X connect 50 0 32 0;
#X connect 50 1 28 0;
#X connect 50 2 29 0;
#X connect 50 3 30 0;
#X connect 50 4 31 0;
#X connect 51 0 55 0;
#X connect 52 0 56 0;
#X connect 53 0 54 0;
#X connect 54 0 19 1;
#X connect 54 0 20 1;
#X connect 55 0 11 1;
#X connect 56 0 13 1;
#X connect 57 0 58 0;
#X connect 58 0 36 1;
#X connect 58 0 37 1;
#X connect 59 0 60 0;
#X connect 60 0 24 1;
#X connect 60 0 25 1;
#X connect 61 0 59 0;
#X connect 62 0 71 0;
#X connect 63 0 1 0;
#X connect 67 0 50 0;
#X connect 72 0 67 0;
#X coords 0 -1 1 1 110 140 2 370 265;
