#N canvas 177 106 543 394 12;
#X obj 29 62 hsl 70 15 20 2000 0 0 \$0-hpfreq \$0-hpfreqinit HP\ Freq 15 8 0 10 #fcfcfc #000000 #bbbbbb 0 1;
#X obj 46 44 hradio 14 1 0 4 \$0-poles \$0-polesinit Poles 60 7 0 10 #fcfcfc #000000 #000000 0;
#X obj 164 58 r \$0-poles;
#X obj 297 34 t b f;
#X obj 297 58 s \$0-polesinit;
#X obj 164 82 expr if($f1>=0 \, $f2 \, 0) \; if($f1>=1 \, $f2 \, 0) \; if($f1>=2 \, $f2 \, 0) \; if($f1>=3 \, $f2 \, 0) \;;
#X obj 185 178 hip~ 99;
#X obj 185 201 hip~ 99;
#X obj 185 224 hip~ 99;
#X obj 185 247 hip~ 99;
#X obj 118 179 hip~ 99;
#X obj 118 202 hip~ 99;
#X obj 118 225 hip~ 99;
#X obj 118 248 hip~ 99;
#X obj 18 136 inlet~;
#X obj 118 155 snake~ out;
#X obj 297 10 r \$0-hpfreq;
#X obj 118 272 snake~, f 10;
#X obj 18 366 outlet~;
#X floatatom 103 62 5 0 0 0 - \$0-hpfreq \$0-hpfreqdummy 10;
#X obj 26 44 tgl 14 0 \$0-act \$0-actinit empty 0 -10 0 12 #c6ffc7 #000000 #000000 0 1;
#X obj 129 321 lop~ 1;
#X obj 118 347 *~, f 2;
#X obj 29 242 sig~ 1;
#X obj 29 287 -~;
#X obj 29 311 lop~ 1;
#X obj 18 337 *~, f 2;
#X obj 129 298 r \$0-act;
#X obj 47 264 r \$0-act;
#X text 37 21 ...:HPMP:...;
#X text 319 192 HPMP is a simple 2 channel multi pole high pass filter., f 28;
#X text 368 232 Author: Martin Heinze;
#X obj 410 10 inlet;
#X obj 410 58 unpack f f f;
#X obj 410 82 s \$0-actinit;
#X obj 410 106 s \$0-hpfreqinit;
#X obj 410 130 s \$0-polesinit;
#X obj 460 10 loadbang;
#X msg 460 34 1 200 2;
#X text 347 248 Last updated: 10.08.2025;
#X connect 2 0 5 0;
#X connect 3 0 4 0;
#X connect 3 1 5 1;
#X connect 5 0 10 1;
#X connect 5 0 6 1;
#X connect 5 1 11 1;
#X connect 5 1 7 1;
#X connect 5 2 12 1;
#X connect 5 2 8 1;
#X connect 5 3 13 1;
#X connect 5 3 9 1;
#X connect 6 0 7 0;
#X connect 7 0 8 0;
#X connect 8 0 9 0;
#X connect 9 0 17 1;
#X connect 10 0 11 0;
#X connect 11 0 12 0;
#X connect 12 0 13 0;
#X connect 13 0 17 0;
#X connect 14 0 15 0;
#X connect 14 0 26 0;
#X connect 15 0 10 0;
#X connect 15 1 6 0;
#X connect 16 0 3 0;
#X connect 17 0 22 0;
#X connect 21 0 22 1;
#X connect 22 0 18 0;
#X connect 23 0 24 0;
#X connect 24 0 25 0;
#X connect 25 0 26 1;
#X connect 26 0 18 0;
#X connect 27 0 21 0;
#X connect 28 0 24 1;
#X connect 32 0 33 0;
#X connect 33 0 34 0;
#X connect 33 1 35 0;
#X connect 33 2 36 0;
#X connect 37 0 38 0;
#X connect 38 0 33 0;
#X coords 0 -1 1 1 120 65 2 20 20;
