#N canvas 492 253 505 434 12;
#X obj 29 62 hsl 70 15 80 8000 0 0 \$0-lpfreq \$0-lpfreqinit LP\ Freq 15 8 0 10 #fcfcfc #000000 #bbbbbb 0 1;
#X obj 46 44 hradio 14 1 0 4 \$0-poles \$0-polesinit Poles 60 7 0 10 #fcfcfc #000000 #000000 0;
#X obj 164 58 r \$0-poles;
#X obj 262 34 t b f;
#X obj 262 58 s \$0-polesinit;
#X obj 18 166 inlet~;
#X obj 118 185 snake~ out;
#X obj 118 302 snake~, f 10;
#X obj 18 406 outlet~;
#X floatatom 103 62 5 0 0 0 - \$0-lpfreq \$0-lpfreqdummy 10;
#X obj 26 44 tgl 14 0 \$0-act \$0-actinit empty 0 -10 0 12 #c6ffc7 #000000 #000000 0 1;
#X obj 129 361 lop~ 1;
#X obj 118 387 *~, f 2;
#X obj 29 262 sig~ 1;
#X obj 29 307 -~;
#X obj 29 331 lop~ 1;
#X obj 18 357 *~, f 2;
#X obj 129 338 r \$0-act;
#X obj 47 284 r \$0-act;
#X text 332 313 Author: Martin Heinze;
#X obj 374 10 inlet;
#X obj 374 58 unpack f f f;
#X obj 374 82 s \$0-actinit;
#X obj 374 130 s \$0-polesinit;
#X obj 424 10 loadbang;
#X text 311 329 Last updated: 10.08.2025;
#X obj 118 209 lop~ 99;
#X obj 118 232 lop~ 99;
#X obj 118 255 lop~ 99;
#X obj 118 278 lop~ 99;
#X obj 185 277 lop~ 99;
#X obj 185 254 lop~ 99;
#X obj 185 231 lop~ 99;
#X obj 185 208 lop~ 99;
#X obj 164 153 lop~ 10;
#X obj 226 153 lop~ 10;
#X obj 288 153 lop~ 10;
#X obj 350 153 lop~ 10;
#X text 283 273 LPMP is a simple 2 channel multi pole low pass filter., f 28;
#X text 37 21 ...:LPMP:...;
#X obj 262 10 r \$0-lpfreq;
#X obj 374 106 s \$0-lpfreqinit;
#X msg 424 34 1 2000 2;
#X obj 164 82 expr if($f1>=0 \, $f2 \, 8000) \; if($f1>=1 \, $f2 \, 8000) \; if($f1>=2 \, $f2 \, 8000) \; if($f1>=3 \, $f2 \, 8000) \;;
#X connect 2 0 43 0;
#X connect 3 0 4 0;
#X connect 3 1 43 1;
#X connect 5 0 6 0;
#X connect 5 0 16 0;
#X connect 6 0 26 0;
#X connect 6 1 33 0;
#X connect 7 0 12 0;
#X connect 11 0 12 1;
#X connect 12 0 8 0;
#X connect 13 0 14 0;
#X connect 14 0 15 0;
#X connect 15 0 16 1;
#X connect 16 0 8 0;
#X connect 17 0 11 0;
#X connect 18 0 14 1;
#X connect 20 0 21 0;
#X connect 21 0 22 0;
#X connect 21 1 41 0;
#X connect 21 2 23 0;
#X connect 24 0 42 0;
#X connect 26 0 27 0;
#X connect 27 0 28 0;
#X connect 28 0 29 0;
#X connect 29 0 7 0;
#X connect 30 0 7 1;
#X connect 31 0 30 0;
#X connect 32 0 31 0;
#X connect 33 0 32 0;
#X connect 34 0 26 1;
#X connect 34 0 33 1;
#X connect 35 0 27 1;
#X connect 35 0 32 1;
#X connect 36 0 28 1;
#X connect 36 0 31 1;
#X connect 37 0 29 1;
#X connect 37 0 30 1;
#X connect 40 0 3 0;
#X connect 42 0 21 0;
#X connect 43 0 34 0;
#X connect 43 1 35 0;
#X connect 43 2 36 0;
#X connect 43 3 37 0;
#X coords 0 -1 1 1 120 65 2 20 20;
