#N canvas 676 255 752 493 12;
#X obj 60 58 gemhead;
#X obj 61 137 pix_video;
#X msg 69 112 device 0;
#X msg 301 82 create \, 1;
#X msg 69 86 enumerate;
#X obj 61 219 pix_movement2, f 14;
#X msg 71 174 bang;
#X obj 209 309 pix_data;
#X obj 235 413 bng 19 250 50 0 empty empty empty 0 -10 0 12 #fcfcfc #000000 #000000;
#X listbox 235 338 9 0 0 0 - - - 0;
#X obj 235 387 sel 1;
#X floatatom 108 174 5 0 0 0 - - - 0;
#X floatatom 156 174 5 0 0 0 - - - 0;
#X obj 108 196 / 100;
#X obj 156 196 / 100;
#X msg 209 237 bang;
#X obj 209 259 bang~;
#X obj 60 33 bng 19 250 50 0 empty empty empty 0 -10 0 12 #fcfcfc #000000 #000000;
#X floatatom 307 338 5 0 0 0 - - - 0;
#X obj 61 315 _pix2rectangle 3;
#X msg 301 108 0 \, destroy;
#X obj 301 189 gemwin;
#X obj 235 437 outlet;
#X obj 301 33 inlet;
#X obj 301 57 sel 1;
#X msg 231 283 20 20;
#X floatatom 295 257 5 0 0 0 - - - 0;
#X floatatom 335 257 5 0 0 0 - - - 0;
#X obj 235 362 unpack f;
#X obj 404 43 vradio 15 1 0 3 empty empty empty 0 -8 0 10 #fcfcfc #000000 #000000 0;
#X floatatom 404 94 5 0 0 0 - - - 0;
#X msg 404 115 reset \, fullscreen \$1 \, create \, 1;
#X text 426 40 deactivate fullscreen;
#X text 425 57 fullscreen on screen 1;
#X text 425 73 fullscreen on screen 2;
#X msg 417 170 0 \, destroy;
#N canvas 107 50 450 300 esc 0;
#X obj 65 20 gemkeyboard;
#X obj 65 167 outlet;
#X obj 89 71 keyname;
#X obj 128 96 sel Escape;
#X obj 65 41 sel 53;
#X obj 189 47 sel Escape;
#X obj 150 22 gemkeyname;
#X connect 0 0 4 0;
#X connect 2 1 3 0;
#X connect 3 0 1 0;
#X connect 4 0 1 0;
#X connect 5 0 1 0;
#X connect 6 1 5 0;
#X restore 417 148 pd esc;
#X connect 0 0 1 0;
#X connect 1 0 5 0;
#X connect 2 0 1 0;
#X connect 3 0 21 0;
#X connect 4 0 1 0;
#X connect 5 0 7 1;
#X connect 5 0 19 0;
#X connect 6 0 5 0;
#X connect 7 1 9 0;
#X connect 7 2 18 0;
#X connect 8 0 22 0;
#X connect 9 0 28 0;
#X connect 10 0 8 0;
#X connect 11 0 13 0;
#X connect 12 0 14 0;
#X connect 13 0 5 1;
#X connect 14 0 5 2;
#X connect 15 0 7 0;
#X connect 16 0 7 0;
#X connect 17 0 0 0;
#X connect 20 0 21 0;
#X connect 23 0 24 0;
#X connect 24 0 3 0;
#X connect 24 1 20 0;
#X connect 25 0 7 0;
#X connect 26 0 7 2;
#X connect 27 0 7 3;
#X connect 28 0 10 0;
#X connect 29 0 30 0;
#X connect 30 0 31 0;
#X connect 31 0 21 0;
#X connect 35 0 21 0;
#X connect 36 0 35 0;
