#N canvas 620 236 582 326 12;
#X obj 10 11 inlet~;
#N canvas 179 204 641 589 (subpatch) 0;
#X array \$0-arconl 512 float 0;
#X coords 0 1 511 -1 100 70 2 0 0;
#X restore 27 228 graph;
#X obj 20 64 env~;
#X obj 247 267 tgl 13 0 \$0-switch \$0-switchinit Cont 15 7 0 8 #fcfcfc #000000 #000000 0 1;
#X obj 247 285 bng 13 250 50 0 \$0-bang \$0-banginit Print 15 6 0 8 #fcfcfc #000000 #000000;
#X obj 20 137 r \$0-bang;
#X obj 59 64 r \$0-switch;
#X msg 20 112 bang;
#X obj 20 88 spigot;
#X obj 250 228 hsl 26 13 1 8 0 0 \$0-ranger \$0-rangerinit Range -2 -6 0 8 #fcfcfc #000000 #000000 0 1;
#N canvas 1085 264 248 249 arconpres 0;
#X obj 14 15 loadbang;
#X obj 14 39 bng 19 250 50 0 empty empty empty 0 -10 0 12 #fcfcfc #000000 #000000;
#X obj 14 63 f \$0;
#X msg 14 87 \; \$1-arconl yticks 0 0.5 2 \; \$1-arconl ylabel -0.1 -1 0 1 \; \$1-arconl edit 0 \; \$1-arconl color 900 \; \$1-arconr yticks 0 0.5 2 \; \$1-arconr edit 0 \; \$1-arconr color 200 \; \$1-rangerinit 8 \; \$1-switchinit 1;
#X connect 0 0 1 0;
#X connect 1 0 2 0;
#X connect 2 0 3 0;
#X restore 471 140 pd arconpres;
#N canvas 1123 333 183 187 ranger 0;
#X obj 9 11 r \$0-ranger;
#X obj 9 35 * 64;
#X obj 9 59 t b f;
#X obj 9 107 pack;
#X obj 9 83 f \$0;
#X msg 9 131 \; \$1-arconl resize \$2 \; \$1-arconl resize \$2;
#X connect 0 0 1 0;
#X connect 1 0 2 0;
#X connect 2 0 4 0;
#X connect 2 1 3 1;
#X connect 3 0 5 0;
#X connect 4 0 3 0;
#X restore 471 163 pd ranger;
#X obj 248 65 env~;
#X obj 248 138 r \$0-bang;
#X obj 287 65 r \$0-switch;
#X msg 248 113 bang;
#X obj 248 89 spigot;
#X obj 10 163 tabwrite~ \$0-arconl;
#X obj 238 163 tabwrite~ \$0-arconr;
#X obj 10 35 snake~ out, f 33;
#N canvas 179 204 641 589 (subpatch) 0;
#X array \$0-arconr 512 float 0;
#X coords 0 1 511 -1 100 70 2 0 0;
#X restore 138 228 graph;
#X text 302 207 Arcon ST is a simple graph abstraction to analyze incoming stereo signal values - either continuously or as one shot block print out. Last updated 29.05.2024. Martin Heinze, f 28;
#X obj 150 163 print~ left;
#X obj 378 163 print~ right;
#X connect 0 0 19 0;
#X connect 2 0 8 0;
#X connect 5 0 17 0;
#X connect 5 0 22 0;
#X connect 6 0 8 1;
#X connect 7 0 17 0;
#X connect 8 0 7 0;
#X connect 12 0 16 0;
#X connect 13 0 18 0;
#X connect 13 0 23 0;
#X connect 14 0 16 1;
#X connect 15 0 18 0;
#X connect 16 0 15 0;
#X connect 19 0 2 0;
#X connect 19 0 17 0;
#X connect 19 0 22 0;
#X connect 19 1 12 0;
#X connect 19 1 18 0;
#X connect 19 1 23 0;
#X coords 0 -1 1 1 280 100 2 10 210;
