#N canvas 498 208 424 331 12;
#X obj 217 21 inlet~;
#N canvas 179 204 641 589 (subpatch) 0;
#X array \$0-arcon 512 float 0;
#X coords 0 -1 511 1 100 70 2 0 0;
#X restore 28 228 graph;
#X obj 217 163 tabwrite~ \$0-arcon;
#X obj 227 55 env~;
#X obj 137 267 tgl 13 0 \$0-switch \$0-switchinit Cont 15 7 0 8 #fcfcfc #000000 #000000 0 1;
#X obj 137 285 bng 13 250 50 0 \$0-bang \$0-banginit Print 15 6 0 8 #fcfcfc #000000 #000000;
#X obj 227 133 r \$0-bang;
#X obj 266 55 r \$0-switch;
#X obj 357 163 print~;
#X msg 227 103 bang;
#X obj 227 79 spigot;
#X obj 140 228 hsl 26 13 1 8 0 0 \$0-ranger \$0-rangerinit Range -2 -6 0 8 #fcfcfc #000000 #000000 0 1;
#N canvas 1085 264 248 208 arconpres 1;
#X obj 14 15 loadbang;
#X obj 14 39 bng 19 250 50 0 empty empty empty 0 -10 0 12 #fcfcfc #000000 #000000;
#X obj 14 63 f \$0;
#X msg 14 87 \; \$1-arcon yticks 0 0.5 2 \; \$1-arcon ylabel -0.1 -1 0 1 \; \$1-arcon edit 0 \; \$1-arcon color 900 \; \$1-rangerinit 8 \; \$1-switchinit 1;
#X connect 0 0 1 0;
#X connect 1 0 2 0;
#X connect 2 0 3 0;
#X restore 217 192 pd arconpres;
#N canvas 880 451 187 206 ranger 0;
#X obj 19 26 r \$0-ranger;
#X obj 19 50 * 64;
#X obj 19 74 t b f;
#X obj 19 122 pack;
#X obj 19 98 f \$0;
#X msg 19 146 \; \$1-arcon resize \$2;
#X connect 0 0 1 0;
#X connect 1 0 2 0;
#X connect 2 0 4 0;
#X connect 2 1 3 1;
#X connect 3 0 5 0;
#X connect 4 0 3 0;
#X restore 217 215 pd ranger;
#X text 16 20 Arcon is a simple graph abstraction to analyze incoming signal values - either continuously or as one shot block print out. Last updated 16.01.2023, f 22;
#X connect 0 0 2 0;
#X connect 0 0 3 0;
#X connect 0 0 8 0;
#X connect 3 0 10 0;
#X connect 6 0 2 0;
#X connect 6 0 8 0;
#X connect 7 0 10 1;
#X connect 9 0 2 0;
#X connect 10 0 9 0;
#X coords 0 -1 1 1 170 100 2 10 210;
