#N canvas 423 168 424 331 12;
#X obj 217 21 inlet~;
#N canvas 179 204 641 589 (subpatch) 0;
#X array \$0-arcon 512 float 0;
#X coords 0 8 512 -8 100 70 2 0 0;
#X restore 28 228 graph;
#X obj 217 163 tabwrite~ \$0-arcon;
#X obj 227 55 env~;
#X obj 137 267 tgl 13 0 \$0-switch \$0-switchinit Cont 15 7 0 8 #fcfcfc #000000 #000000 0 1;
#X obj 137 285 bng 13 250 50 0 \$0-bang \$0-banginit Print 15 6 0 8 #fcfcfc #000000 #000000;
#X obj 227 133 r \$0-bang;
#X obj 266 55 r \$0-switch;
#X obj 357 163 print~;
#X msg 227 103 bang;
#X obj 227 79 spigot;
#X obj 140 228 hsl 26 10 1 8 0 0 \$0-ranger \$0-rangerinit Width -2 -6 0 8 #fcfcfc #000000 #000000 0 1;
#N canvas 1085 264 248 208 arconpres 0;
#X obj 14 15 loadbang;
#X obj 14 39 bng 19 250 50 0 empty empty empty 0 -10 0 12 #fcfcfc #000000 #000000;
#X obj 14 63 f \$0;
#X msg 14 87 \; \$1-arcon yticks 0 0.5 2 \; \$1-arcon edit 0 \; \$1-arcon color 900 \; \$1-rangerinit 8 \; \$1-boundsinit 1 \; \$1-switchinit 1;
#X connect 0 0 1 0;
#X connect 1 0 2 0;
#X connect 2 0 3 0;
#X restore 217 192 pd arconpres;
#N canvas 856 296 235 329 ranger 0;
#X obj 65 13 r \$0-ranger;
#X obj 65 37 * 64;
#X obj 65 61 t b f;
#X obj 65 109 pack;
#X obj 65 85 f \$0;
#X msg 65 133 \; \$1-arcon resize \$2;
#X obj 16 178 r \$0-bounds;
#X obj 62 226 * -1;
#X obj 16 202 t b f f;
#X obj 16 226 f \$0;
#X obj 16 250 pack f f f f;
#X msg 16 273 \; \$1-arcon bounds 0 \$2 \$4 \$3;
#X connect 0 0 1 0;
#X connect 1 0 2 0;
#X connect 2 0 4 0;
#X connect 2 1 3 1;
#X connect 2 1 10 3;
#X connect 3 0 5 0;
#X connect 4 0 3 0;
#X connect 6 0 8 0;
#X connect 7 0 10 2;
#X connect 8 0 9 0;
#X connect 8 1 10 1;
#X connect 8 2 7 0;
#X connect 9 0 10 0;
#X connect 10 0 11 0;
#X restore 217 215 pd ranger;
#X obj 140 252 hsl 26 10 1 8 0 0 \$0-bounds \$0-boundsinit Height -2 -6 0 8 #fcfcfc #000000 #000000 0 1;
#X text 16 20 Arcon is a simple graph abstraction to analyze incoming signal values - either continuously or as one shot block print out. Last updated 16.10.2024, f 22;
#X connect 0 0 2 0;
#X connect 0 0 3 0;
#X connect 0 0 8 0;
#X connect 3 0 10 0;
#X connect 6 0 2 0;
#X connect 6 0 8 0;
#X connect 7 0 10 1;
#X connect 9 0 2 0;
#X connect 10 0 9 0;
#X coords 0 -1 1 1 170 100 2 10 210;
