#N canvas 8 37 435 960 12;
#X obj 10 19 inlet~;
#N canvas 179 204 450 278 (subpatch) 0;
#X array \$0-arcon 512 float 0;
#X coords 0 3 511 -3 200 140 2 0 0;
#X restore 10 130 graph;
#X obj 10 92 tabwrite~ \$0-arcon;
#X obj 36 43 env~;
#X msg 36 67 bang;
#X connect 0 0 2 0;
#X connect 0 0 3 0;
#X connect 3 0 4 0;
#X connect 4 0 2 0;
#X coords 0 -1 1 1 200 140 2 10 130;
