#N canvas 505 175 813 343 12;
#X obj 23 248 hsl 80 18 -5 5 0 0 \$0-stepsslider \$0-stepsinit Arp.\ Interv. 6 9 0 10 #fcfcfc #000000 #bbbbbb 0 1;
#X floatatom 110 248 4 0 0 0 - \$0-steps \$0-stepsshowdummy 0;
#N canvas 735 471 291 221 defsteps 0;
#X obj 13 15 r \$0-index;
#X obj 13 111 s \$0-stepsinit;
#X obj 13 137 r \$0-stepsslider;
#X obj 13 161 i, f 1;
#X obj 13 185 s \$0-steps;
#X obj 13 39 t f f, f 6;
#X obj 13 63 pack;
#X obj 52 63 * -1;
#X msg 13 87 range \$2 \$1;
#X obj 133 161 i, f 1;
#X obj 133 137 r \$0-seqsaddsteps;
#X obj 133 185 s \$0-seqszshow;
#X obj 123 111 s \$0-seqsaddstepsinit;
#X obj 123 63 r \$0-reset;
#X msg 123 87 0;
#X connect 0 0 5 0;
#X connect 2 0 3 0;
#X connect 3 0 4 0;
#X connect 5 0 6 0;
#X connect 5 1 7 0;
#X connect 6 0 8 0;
#X connect 7 0 6 1;
#X connect 8 0 1 0;
#X connect 8 0 12 0;
#X connect 9 0 11 0;
#X connect 10 0 9 0;
#X connect 13 0 14 0;
#X connect 14 0 12 0;
#X restore 159 180 pd defsteps;
#X obj 18 40 bng 19 250 50 0 empty empty empty 0 -10 0 12 #fcfcfc #000000 #000000;
#X obj 18 64 i;
#X obj 18 88 + 1;
#X obj 18 110 mod, f 5;
#X obj 18 180 outlet;
#X obj 324 88 i, f 2;
#X obj 18 17 inlet Bang;
#X obj 18 157 array get \$0-arpa;
#X obj 440 17 inlet Presets;
#X obj 547 87 s \$0-stepsinit;
#X obj 598 110 s \$0-arraninit;
#X obj 143 248 bng 18 250 50 0 \$0-bpat \$0-bpatinit g 6 9 0 12 #000000 #000000 #ffffff;
#X obj 324 17 r \$0-bpat;
#X text 86 222 ..~ARPA~..;
#X obj 672 21 loadbang;
#X text 469 280 Author: Martin Heinze, f 22;
#X text 469 297 Last updated: 10.10.25;
#X floatatom 110 294 4 0 0 1 - \$0-seqszshow \$0-seqsz 0;
#X obj 159 157 array define \$0-arpa;
#X obj 159 17 inlet Notes;
#X obj 182 64 list length;
#X obj 192 88 s \$0-index;
#X obj 159 134 array set \$0-arpa;
#X obj 440 40 route bang list, f 31;
#X obj 159 40 t l l b;
#X obj 182 110 array size \$0-arpa;
#X obj 324 110 +, f 4;
#X obj 349 64 r \$0-seqsz;
#X obj 349 88 t b f;
#X obj 335 40 r \$0-index;
#X obj 324 134 s \$0-whlseq;
#X obj 50 88 r \$0-whlseq;
#N canvas 638 425 466 300 seqselect 1;
#X obj 12 11 inlet;
#X obj 12 163 array get \$0-seq;
#X obj 164 163 array get \$0-ran;
#X obj 12 141 spigot;
#X obj 164 141 spigot;
#X floatatom 132 182 3 0 0 0 - - - 0;
#X obj 132 205 outlet;
#X obj 203 211 sel 1;
#X obj 203 234 array get \$0-ran;
#X obj 203 263 s \$0-cseq;
#X obj 51 211 sel 1;
#X obj 51 234 array get \$0-seq;
#X obj 51 64 f, f 2;
#X obj 144 45 t b f;
#X obj 144 11 r \$0-arran;
#X obj 51 41 r \$0-rearran;
#X obj 317 163 random, f 8;
#X obj 317 141 spigot;
#X obj 51 88 expr if($f1==0 \, 1 \, 0) \; if($f1==1 \, 1 \, 0) \; if($f1==2 \, 1 \, 0), f 44;
#X obj 370 141 r \$0-index;
#X obj 317 187 s \$0-ranshow;
#X connect 0 0 3 0;
#X connect 0 0 4 0;
#X connect 0 0 17 0;
#X connect 1 0 5 0;
#X connect 2 0 5 0;
#X connect 3 0 1 0;
#X connect 4 0 2 0;
#X connect 5 0 6 0;
#X connect 7 0 8 0;
#X connect 8 0 9 0;
#X connect 10 0 11 0;
#X connect 11 0 9 0;
#X connect 12 0 18 0;
#X connect 13 0 12 0;
#X connect 13 1 12 1;
#X connect 14 0 13 0;
#X connect 15 0 12 0;
#X connect 16 0 5 0;
#X connect 16 0 20 0;
#X connect 17 0 16 0;
#X connect 18 0 3 1;
#X connect 18 0 10 0;
#X connect 18 1 4 1;
#X connect 18 1 7 0;
#X connect 18 2 17 1;
#X connect 19 0 16 1;
#X restore 18 134 pd seqselect;
#N canvas 475 379 548 398 sequences 0;
#X obj 101 105 r \$0-steps;
#X obj 36 202 list store;
#X msg 69 56 \$1, f 2;
#X obj 69 79 until;
#X msg 69 177 append \$1;
#X obj 69 105 i;
#X obj 69 130 +, f 5;
#X obj 69 154 mod, f 7;
#X msg 113 79 \$1, f 2;
#X obj 202 32 r \$0-steps;
#X obj 113 56 expr if($f2>=0 \, -1 \, 1);
#X obj 322 202 list store;
#X msg 353 106 \$1, f 2;
#X obj 353 129 until;
#X msg 353 177 append \$1;
#X obj 353 154 random, f 7;
#X obj 80 226 array define \$0-seq;
#X obj 36 226 t l l;
#X obj 68 251 list length;
#X obj 68 275 array size \$0-seq;
#X obj 36 299 array set \$0-seq;
#X obj 322 226 t l l;
#X obj 354 251 list length;
#X obj 366 226 array define \$0-ran;
#X obj 354 275 array size \$0-ran;
#X obj 322 299 array set \$0-ran;
#X obj 399 129 r \$0-index;
#X listbox 302 335 34 0 0 0 - - - 0;
#X listbox 16 335 36 0 0 0 - - - 0;
#X obj 322 32 t b f b, f 9;
#X obj 115 130 r \$0-index;
#X obj 36 32 t b f b, f 10;
#X obj 35 9 r \$0-whlseq;
#X obj 322 9 r \$0-whlseq;
#X text 40 362 Step up/down sequence;
#X text 330 362 Random sequence;
#X connect 0 0 6 1;
#X connect 1 0 17 0;
#X connect 2 0 3 0;
#X connect 3 0 5 0;
#X connect 4 0 1 0;
#X connect 5 0 6 0;
#X connect 6 0 7 0;
#X connect 7 0 5 1;
#X connect 7 0 4 0;
#X connect 8 0 5 1;
#X connect 9 0 10 1;
#X connect 10 0 8 0;
#X connect 11 0 21 0;
#X connect 12 0 13 0;
#X connect 13 0 15 0;
#X connect 14 0 11 0;
#X connect 15 0 14 0;
#X connect 17 0 20 0;
#X connect 17 0 28 0;
#X connect 17 1 18 0;
#X connect 18 0 19 0;
#X connect 21 0 25 0;
#X connect 21 0 27 0;
#X connect 21 1 22 0;
#X connect 22 0 24 0;
#X connect 26 0 15 1;
#X connect 29 0 11 0;
#X connect 29 1 12 0;
#X connect 29 2 11 1;
#X connect 30 0 7 1;
#X connect 31 0 1 0;
#X connect 31 1 2 0;
#X connect 31 2 10 0;
#X connect 31 2 1 1;
#X connect 32 0 31 0;
#X connect 33 0 29 0;
#X restore 324 157 pd sequences;
#X obj 440 64 s \$0-bpatinit;
#X listbox 20 271 26 0 0 0 - \$0-cseq \$0-cseqdummy 0;
#X msg 411 110 bang;
#X text 252 218 Arpa is a simple arpeggiator addon for Scaleculator or Chordculator abstractions that generates arpeggio sequences based on the scale's/chord's note values (arpeggio step up/down and random)., f 53;
#X obj 411 133 s \$0-rearran;
#X obj 23 294 hsl 80 18 -5 5 0 0 \$0-seqsaddsteps \$0-seqsaddstepsinit Adj.\ Steps 7 9 0 10 #fcfcfc #000000 #bbbbbb 0 1;
#X obj 144 294 bng 18 250 50 0 \$0-reset \$0-resetinit r 5 10 0 12 #000000 #000000 #ffffff;
#X obj 649 133 s \$0-seqsaddstepsinit;
#X obj 547 64 unpack f f f, f 15;
#X msg 672 45 1 0 0;
#X text 670 218 Todo \; Pendulum mode \; Custom pattern;
#X obj 171 248 hradio 18 1 0 3 \$0-arran \$0-arraninit empty 0 -10 0 12 #fcfcfc #000000 #000000 0;
#X floatatom 209 271 3 0 0 0 - \$0-ranshow \$0-ranshowdummy 0;
#X connect 3 0 4 0;
#X connect 4 0 5 0;
#X connect 5 0 6 0;
#X connect 6 0 4 1;
#X connect 6 0 35 0;
#X connect 8 0 29 0;
#X connect 9 0 3 0;
#X connect 10 0 7 0;
#X connect 11 0 26 0;
#X connect 15 0 8 0;
#X connect 17 0 46 0;
#X connect 22 0 27 0;
#X connect 23 0 24 0;
#X connect 23 0 28 0;
#X connect 26 0 37 0;
#X connect 26 1 45 0;
#X connect 27 0 25 0;
#X connect 27 1 23 0;
#X connect 29 0 33 0;
#X connect 29 0 39 0;
#X connect 30 0 31 0;
#X connect 31 0 8 0;
#X connect 31 1 29 1;
#X connect 32 0 8 1;
#X connect 34 0 6 1;
#X connect 35 0 10 0;
#X connect 39 0 41 0;
#X connect 45 0 12 0;
#X connect 45 1 13 0;
#X connect 45 2 44 0;
#X connect 46 0 45 0;
#X coords 0 -1 1 1 230 100 2 10 220;
