#N canvas 61 361 643 412 12;
#X floatatom 63 151 4 1 999 1 BPM \$0-engbpminit \$0-engbpm 12;
#X obj 34 150 tgl 19 0 \$0-engtog \$0-engtoginit empty 17 7 0 10 #feffc6 #535512 #faff00 0 1;
#X obj 119 288 metro 1 120 permin, f 10;
#X floatatom 125 151 3 1 16 1 Met \$0-engmetinit \$0-engmet 12;
#X obj 519 265 mod, f 5;
#X obj 519 288 sel 0;
#X obj 519 217 i;
#X obj 519 241 + 1;
#X obj 217 288 metro 0.5 120 permin, f 10;
#X obj 315 288 metro 0.25 120 permin, f 10;
#X obj 413 288 metro 0.125 120 permin, f 11;
#X text 117 219 Qtr. notes;
#X text 215 219 8th notes;
#X text 312 219 16th notes;
#X text 410 219 32th notes;
#X msg 537 194 -1, f 2;
#X obj 21 67 s \$0-engbpminit;
#X obj 551 241 r \$0-engmet;
#X obj 140 43 s \$0-engtoginit;
#X obj 129 265 r \$0-engtog;
#X obj 227 265 r \$0-engtog;
#X obj 325 265 r \$0-engtog;
#X obj 423 265 r \$0-engtog;
#X obj 131 351 s \$0-engqn;
#X obj 537 146 r \$0-engtog;
#X obj 21 288 metro 2 120 permin, f 10;
#X text 19 219 Half notes;
#X obj 31 265 r \$0-engtog;
#X obj 181 151 bng 19 250 50 0 \$0-eng1bdummy \$0-eng1binit BAR 3 10 0 8 #c6ffc7 #0f4710 #2f004d;
#X obj 21 375 outlet;
#X obj 119 375 outlet;
#X obj 217 375 outlet;
#X obj 315 375 outlet;
#X obj 413 375 outlet;
#X obj 519 375 outlet;
#X obj 519 121 r \$0-engqn;
#X obj 21 43 unpack f f;
#X obj 21 91 s \$0-engmetinit;
#X obj 21 19 inlet Preset;
#X obj 140 19 inlet Toggle;
#X text 22 121 /////// BPM-ENGINE2 \\\\\\\\\\\\;
#X text 21 180 2||||4||||8||||16|||32||BAR;
#X obj 231 133 r \$0-engbpm;
#X msg 231 157 tempo \$1 permin;
#X obj 231 181 s \$0-metroin;
#X obj 21 241 r \$0-metroin;
#X obj 119 241 r \$0-metroin;
#X obj 217 241 r \$0-metroin;
#X obj 315 241 r \$0-metroin;
#X obj 413 241 r \$0-metroin;
#X obj 529 326 s \$0-eng1binit;
#X text 266 18 BPM-engine2 generates bangs on different note values based on a global BPM and a given meter., f 47;
#X text 448 58 Author: Martin Heinze;
#N canvas 962 342 177 144 preset 0;
#X obj 10 11 loadbang;
#X obj 10 35 f \$0;
#X msg 10 59 \; \$1-engbpminit 120 \; \$1-engmetinit 4 \; \$1-engtoginit 0 \;;
#X connect 0 0 1 0;
#X connect 1 0 2 0;
#X restore 140 67 pd preset;
#X obj 119 326 t b b;
#X text 441 73 Last updated: 17.04.26;
#X obj 537 170 sel 0;
#X connect 2 0 54 0;
#X connect 4 0 5 0;
#X connect 4 0 6 1;
#X connect 5 0 34 0;
#X connect 5 0 50 0;
#X connect 6 0 7 0;
#X connect 7 0 4 0;
#X connect 8 0 31 0;
#X connect 9 0 32 0;
#X connect 10 0 33 0;
#X connect 15 0 6 1;
#X connect 17 0 4 1;
#X connect 19 0 2 0;
#X connect 20 0 8 0;
#X connect 21 0 9 0;
#X connect 22 0 10 0;
#X connect 24 0 56 0;
#X connect 25 0 29 0;
#X connect 27 0 25 0;
#X connect 35 0 6 0;
#X connect 36 0 16 0;
#X connect 36 1 37 0;
#X connect 38 0 36 0;
#X connect 39 0 18 0;
#X connect 42 0 43 0;
#X connect 43 0 44 0;
#X connect 45 0 25 0;
#X connect 46 0 2 0;
#X connect 47 0 8 0;
#X connect 48 0 9 0;
#X connect 49 0 10 0;
#X connect 54 0 30 0;
#X connect 54 1 23 0;
#X connect 56 0 15 0;
#X coords 0 -1 1 1 195 80 2 20 120;
