#N canvas 192 99 618 623 12;
#X listbox 54 567 35 0 0 0 - - - 0;
#X floatatom 23 386 5 0 127 0 - - - 0;
#X obj 23 360 inlet;
#X obj 54 589 outlet;
#X obj 168 335 list length;
#X obj 168 359 s \$0-chindex;
#X listbox 136 288 20 0 0 0 - - - 0;
#X obj 136 311 t l l;
#X obj 54 544 list split \$1;
#X obj 141 496 r \$0-chindex;
#X obj 100 437 +, f 2;
#X obj 122 437 +, f 2;
#X obj 144 437 +, f 2;
#X obj 165 437 +, f 2;
#X obj 187 437 +, f 2;
#X obj 55 437 t f f;
#X obj 136 385 unpack f f f f f f, f 19;
#X obj 209 437 +, f 2;
#X obj 79 468 pack f f f f f f f, f 19;
#X obj 141 522 + 1;
#X obj 15 264 list split 1, f 35;
#X listbox 15 288 15 0 0 0 - - - 0;
#X obj 15 311 s \$0-chordtype;
#X symbolatom 356 268 19 0 0 1 Chord\ Type \$0-chordtype \$0-chordtypeotp 0;
#X obj 15 237 text get \$0-chordstxt;
#X obj 187 107 text define \$0-chordstxt;
#X obj 15 12 loadbang;
#X obj 15 36 bng 19 250 50 0 empty empty empty 0 -10 0 12 #fcfcfc #000000 #000000;
#X msg 187 84 read chords.txt;
#X obj 15 212 r \$0-chordsel;
#X text 66 359 Note in;
#X text 174 521 Only forward no. of chord notes and base note, f 26;
#X obj 15 84 text size \$0-chordstxt;
#X floatatom 15 107 3 0 0 0 - - - 0;
#X obj 359 239 hsl 129 19 0 35 0 0 \$0-chordsel \$0-chordselslinit Chord\ Select 133 10 0 12 #fcfcfc #000000 #000000 0 1;
#X msg 15 129 range 0 \$1;
#X obj 15 60 t b b, f 25;
#X text 81 11 Load chords.txt list (needs to be in same folder) and scales Chord Select slider according to no. of list entries., f 63;
#X msg 15 153 14, f 2;
#X obj 55 153 inlet;
#X obj 55 177 s \$0-chordselslinit;
#X text 99 152 Chord selection;
#X obj 54 496 list;
#X obj 23 411 t b f;
#X obj 357 567 r \$0-chordtypeotp;
#X obj 357 589 outlet;
#X text 352 301 Chordculator imports an external text file of chords with their name and half tone interval sequence. The base MIDI note value can be put in via the first inlet. Second inlet is for chord no. selection. Chord note values are forwarded as a list via first outlet to the calling patch \, chord type as symbol through second outlet. Last updated 30.10.23, f 32;
#X connect 0 0 3 0;
#X connect 1 0 43 0;
#X connect 2 0 1 0;
#X connect 4 0 5 0;
#X connect 6 0 7 0;
#X connect 7 0 16 0;
#X connect 7 1 4 0;
#X connect 8 0 0 0;
#X connect 9 0 19 0;
#X connect 10 0 18 1;
#X connect 10 0 11 0;
#X connect 11 0 18 2;
#X connect 11 0 12 0;
#X connect 12 0 18 3;
#X connect 12 0 13 0;
#X connect 13 0 18 4;
#X connect 13 0 14 0;
#X connect 14 0 18 5;
#X connect 14 0 17 0;
#X connect 15 0 18 0;
#X connect 15 1 10 0;
#X connect 16 0 10 1;
#X connect 16 1 11 1;
#X connect 16 2 12 1;
#X connect 16 3 13 1;
#X connect 16 4 14 1;
#X connect 16 5 17 1;
#X connect 17 0 18 6;
#X connect 18 0 42 1;
#X connect 19 0 8 1;
#X connect 20 0 21 0;
#X connect 20 1 6 0;
#X connect 21 0 22 0;
#X connect 24 0 20 0;
#X connect 26 0 27 0;
#X connect 27 0 36 0;
#X connect 28 0 25 0;
#X connect 29 0 24 0;
#X connect 32 0 33 0;
#X connect 33 0 35 0;
#X connect 35 0 40 0;
#X connect 35 0 38 0;
#X connect 36 0 32 0;
#X connect 36 1 28 0;
#X connect 38 0 40 0;
#X connect 39 0 40 0;
#X connect 42 0 8 0;
#X connect 43 0 42 0;
#X connect 43 1 15 0;
#X connect 44 0 45 0;
#X coords 0 -1 1 1 235 65 2 350 230;
