#N canvas 191 99 523 544 12;
#X floatatom 13 339 5 0 127 0 - - - 0;
#X obj 166 316 list length;
#X obj 166 361 s \$0-chindex;
#X obj 13 483 list split \$1;
#X obj 66 410 +, f 2;
#X obj 88 410 +, f 2;
#X obj 110 410 +, f 2;
#X obj 131 410 +, f 2;
#X obj 153 410 +, f 2;
#X obj 45 386 t f f;
#X obj 87 386 unpack f f f f f f;
#X obj 175 410 +, f 2;
#X obj 45 434 pack f f f f f f f, f 19;
#X obj 13 270 list split 1, f 31;
#X obj 13 293 s \$0-chordtype;
#X symbolatom 277 188 22 0 0 1 - \$0-chordtype \$0-chordtypeotp 0;
#X obj 13 247 text get \$0-chordstxt;
#X obj 178 108 text define \$0-chordstxt;
#X obj 13 12 loadbang;
#X obj 13 36 bng 19 250 50 0 empty empty empty 0 -10 0 12 #fcfcfc #000000 #000000;
#X msg 178 84 read chords.txt;
#X obj 13 202 r \$0-chordsel;
#X obj 13 84 text size \$0-chordstxt;
#X obj 280 165 hsl 150 18 0 35 0 0 \$0-chordsel \$0-chordselslinit Chord\ Select 35 10 0 12 #dfdfdf #000000 #7c7c7c 0 1;
#X obj 13 60 t b b, f 24;
#X obj 13 459 list;
#X obj 13 361 t b f;
#X obj 225 459 r \$0-chordtypeotp;
#X obj 195 12 inlet Preset;
#X obj 195 36 unpack f f, f 15;
#X obj 195 60 s \$0-noteinit;
#X floatatom 436 165 4 0 127 1 Note \$0-noteinit \$0-note 0;
#X obj 13 316 r \$0-note;
#X obj 297 60 s \$0-chordselslinit;
#X msg 13 108 range 0 \$1;
#X msg 13 133 0, f 1;
#X obj 13 174 s \$0-noteinit;
#X obj 120 293 t b l l;
#X floatatom 436 188 4 0 0 1 Ind \$0-chindex \$0-chindexotp 0;
#X obj 33 152 s \$0-chordselslinit;
#X obj 13 225 i, f 2;
#X text 295 83 Load ./chords.txt;
#X obj 166 339 + 1;
#X obj 101 459 r \$0-chindexotp;
#X obj 13 508 outlet Chord incl. base note;
#X obj 355 459 r \$0-chindexotp;
#X obj 225 483 pack s f, f 19;
#X obj 225 508 outlet Chord name \, index;
#X text 303 141 ..== CHORDCULATOR2 ==..;
#X text 268 231 Chordculator2 calculates note values chords based on a given key midi note and the selected chord type., f 32;
#X text 268 291 The chord note values are put out as a list through the first outlet \; chord type (name) and index are sent through the second outlet., f 32;
#X text 338 381 Author: Martin Heinze, f 22;
#X text 338 397 Last updated: 11.05.24;
#X connect 0 0 26 0;
#X connect 1 0 42 0;
#X connect 3 0 44 0;
#X connect 4 0 12 1;
#X connect 4 0 5 0;
#X connect 5 0 12 2;
#X connect 5 0 6 0;
#X connect 6 0 12 3;
#X connect 6 0 7 0;
#X connect 7 0 12 4;
#X connect 7 0 8 0;
#X connect 8 0 12 5;
#X connect 8 0 11 0;
#X connect 9 0 12 0;
#X connect 9 1 4 0;
#X connect 10 0 4 1;
#X connect 10 1 5 1;
#X connect 10 2 6 1;
#X connect 10 3 7 1;
#X connect 10 4 8 1;
#X connect 10 5 11 1;
#X connect 11 0 12 6;
#X connect 12 0 25 1;
#X connect 13 0 14 0;
#X connect 13 1 37 0;
#X connect 16 0 13 0;
#X connect 18 0 19 0;
#X connect 19 0 24 0;
#X connect 20 0 17 0;
#X connect 21 0 40 0;
#X connect 22 0 34 0;
#X connect 24 0 22 0;
#X connect 24 1 20 0;
#X connect 25 0 3 0;
#X connect 26 0 25 0;
#X connect 26 1 9 0;
#X connect 27 0 46 0;
#X connect 28 0 29 0;
#X connect 29 0 30 0;
#X connect 29 1 33 0;
#X connect 32 0 0 0;
#X connect 34 0 35 0;
#X connect 34 0 39 0;
#X connect 35 0 36 0;
#X connect 35 0 39 0;
#X connect 37 0 0 0;
#X connect 37 1 10 0;
#X connect 37 2 1 0;
#X connect 40 0 16 0;
#X connect 42 0 2 0;
#X connect 43 0 3 1;
#X connect 45 0 46 1;
#X connect 46 0 47 0;
#X coords 0 -1 1 1 230 75 2 270 140;
