#N canvas 275 44 618 725 12;
#X listbox 108 663 35 0 0 0 - - - 0;
#X floatatom 23 446 5 0 127 0 - - - 0;
#X obj 23 420 inlet;
#X obj 108 685 outlet;
#X obj 168 395 list length;
#X obj 168 419 s \$0-chindex;
#X listbox 136 348 20 0 0 0 - - - 0;
#X obj 136 371 t l l;
#X obj 108 640 list split \$1;
#X obj 195 594 r \$0-chindex;
#X obj 129 533 +, f 2;
#X obj 151 533 +, f 2;
#X obj 173 533 +, f 2;
#X obj 194 533 +, f 2;
#X obj 216 533 +, f 2;
#X obj 84 533 t f f;
#X obj 84 506 f, f 2;
#X obj 136 445 unpack f f f f f f, f 19;
#X obj 108 471 t b f;
#X obj 238 533 +, f 2;
#X obj 108 564 pack f f f f f f f, f 19;
#X obj 195 618 + 1;
#X obj 15 324 list split 1, f 35;
#X listbox 15 348 15 0 0 0 - - - 0;
#X obj 15 371 s \$0-chordtype;
#X symbolatom 356 268 19 0 0 1 Chord\ Type \$0-chordtype - 0;
#X obj 15 297 text get \$0-chordstxt;
#X obj 187 107 text define \$0-chordstxt;
#X obj 15 12 loadbang;
#X obj 15 36 bng 19 250 50 0 empty empty empty 0 -10 0 12 #fcfcfc #000000 #000000;
#X msg 187 84 read chords.txt;
#X obj 15 272 r \$0-chordsel;
#X text 66 419 Note in;
#X text 228 617 Only forward no. of chord notes and base note, f 26;
#X obj 15 84 text size \$0-chordstxt;
#X floatatom 15 107 3 0 0 0 - - - 0;
#X obj 359 239 hsl 129 19 0 35 0 0 \$0-chordsel \$0-chordselslinit Chord\ Select 133 10 0 12 #fcfcfc #000000 #000000 0 1;
#X msg 15 129 range 0 \$1;
#X obj 15 60 t b b, f 25;
#X text 81 11 Load chords.txt list (needs to be in same folder) and scales Chord Select slider according to no. of list entries., f 40;
#X msg 29 201 14, f 2;
#X obj 105 177 inlet;
#X obj 80 201 f, f 4;
#X obj 15 233 s \$0-chordselslinit;
#X obj 80 153 r \$0-nt;
#X obj 23 471 t b f b;
#X obj 22 506 s \$0-nt;
#X text 149 177 Chord selection;
#X text 352 301 Chordculator imports an external text file of chords with their name and half tone interval sequence. The base MIDI note value can be put in via the first inlet. Second inlet is for chord no. selection. Chord note values are forwarded as a list via the outlet to the calling patch. Last updated 24.6.23, f 32;
#X connect 0 0 3 0;
#X connect 1 0 45 0;
#X connect 2 0 1 0;
#X connect 4 0 5 0;
#X connect 6 0 7 0;
#X connect 7 0 17 0;
#X connect 7 1 4 0;
#X connect 8 0 0 0;
#X connect 9 0 21 0;
#X connect 10 0 20 1;
#X connect 10 0 11 0;
#X connect 11 0 20 2;
#X connect 11 0 12 0;
#X connect 12 0 20 3;
#X connect 12 0 13 0;
#X connect 13 0 20 4;
#X connect 13 0 14 0;
#X connect 14 0 20 5;
#X connect 14 0 19 0;
#X connect 15 0 20 0;
#X connect 15 1 10 0;
#X connect 16 0 15 0;
#X connect 17 0 18 0;
#X connect 17 1 11 1;
#X connect 17 2 12 1;
#X connect 17 3 13 1;
#X connect 17 4 14 1;
#X connect 17 5 19 1;
#X connect 18 0 16 0;
#X connect 18 1 10 1;
#X connect 19 0 20 6;
#X connect 20 0 8 0;
#X connect 21 0 8 1;
#X connect 22 0 23 0;
#X connect 22 1 6 0;
#X connect 23 0 24 0;
#X connect 26 0 22 0;
#X connect 28 0 29 0;
#X connect 29 0 38 0;
#X connect 30 0 27 0;
#X connect 31 0 26 0;
#X connect 34 0 35 0;
#X connect 35 0 37 0;
#X connect 37 0 43 0;
#X connect 37 0 40 0;
#X connect 38 0 34 0;
#X connect 38 1 30 0;
#X connect 40 0 43 0;
#X connect 41 0 42 1;
#X connect 42 0 43 0;
#X connect 44 0 42 0;
#X connect 45 0 16 0;
#X connect 45 1 16 1;
#X connect 45 2 46 0;
#X coords 0 -1 1 1 235 65 2 350 230;
