#N canvas 209 157 878 384 12;
#X obj 341 186 bng 30 250 50 0 \$0-sloadfile dummy Load 3 15 0 10 #00ff04 #000000 #000000;
#N canvas 830 139 450 278 (subpatch) 0;
#X array \$0-waver 1.40305e+07 float 2;
#X coords 0 1 1.40305e+07 -1 512 200 2 0 0;
#X restore 341 -78 graph;
#X obj 268 -34 vsl 30 125 0 1 0 0 \$0-sampl \$0-samplinit Vol. 5 122 0 8 #faff00 #404040 #000000 0 1;
#X symbolatom 376 186 34 0 0 0 - \$0-sfilename \$0-sfilenamedummy 24;
#X obj 26 -111 loadbang;
#X obj 25 147 outlet~;
#N canvas 617 126 227 356 sampleloader 0;
#X obj 18 39 openpanel;
#X obj 18 276 soundfiler, f 14;
#X obj 113 299 unpack f;
#X obj 18 135 pack s f, f 16;
#X msg 18 251 read -resize \$1 \$2-waver;
#X obj 18 322 s \$0-slength;
#X obj 127 86 loadbang;
#X obj 127 110 f \$0;
#X obj 33 160 unpack s;
#X obj 113 322 s \$0-srate;
#X obj 18 14 inlet;
#X text 60 13 Open file panel;
#X obj 35 104 bng 20 250 50 0 empty \$0-sreload empty 0 -10 0 12 #fcfcfc #000000 #000000;
#X obj 28 64 inlet Filepath;
#X obj 33 183 file splitname;
#X obj 33 206 unpack s s;
#X obj 100 228 s \$0-sfilename;
#X connect 0 0 3 0;
#X connect 1 0 5 0;
#X connect 1 1 2 0;
#X connect 2 0 9 0;
#X connect 3 0 4 0;
#X connect 3 0 8 0;
#X connect 4 0 1 0;
#X connect 6 0 7 0;
#X connect 7 0 3 1;
#X connect 8 0 14 0;
#X connect 10 0 0 0;
#X connect 12 0 3 0;
#X connect 13 0 3 0;
#X connect 14 0 15 0;
#X connect 15 1 16 0;
#X restore 25 -4 pd sampleloader;
#X f 16;
#N canvas 77 88 397 429 sampleplayer 0;
#X obj 18 391 outlet~;
#X obj 18 364 tabread4~ \$0-waver;
#X obj 127 14 r \$0-srate;
#X obj 18 14 r \$0-slength;
#X obj 18 37 expr (1/$f1)*$f2;
#X obj 18 240 *~;
#X obj 36 216 r \$0-slength;
#X obj 18 170 *;
#X msg 211 60 1, f 1;
#X obj 47 268 snapshot~;
#X obj 47 244 bang~;
#X obj 58 292 r \$0-srate;
#X obj 47 315 /, f 2;
#X obj 211 14 r \$0-spres;
#X obj 211 124 r \$0-spit;
#X obj 211 37 loadbang;
#X obj 29 60 r \$0-stgl;
#X obj 211 85 s \$0-spitinit;
#X obj 211 147 - 1;
#X obj 211 195 s \$0-spitdisinit;
#X obj 211 170 * 100;
#X obj 102 60 r \$0-spit;
#X obj 102 85 t b f;
#X obj 29 117 *;
#X obj 29 141 t b f;
#X obj 192 257 r \$0-restart;
#X obj 18 192 phasor~;
#X obj 211 234 r \$0-sstartslider;
#X obj 292 257 r \$0-slength;
#X obj 211 280 expr $f1/$f2;
#X msg 192 280 0, f 1;
#X obj 64 170 r \$0-sphas;
#X obj 211 305 s \$0-sphas;
#X obj 47 339 s \$0-stdis;
#X connect 1 0 0 0;
#X connect 2 0 4 1;
#X connect 3 0 4 0;
#X connect 4 0 7 0;
#X connect 5 0 1 0;
#X connect 5 0 9 0;
#X connect 6 0 5 1;
#X connect 7 0 26 0;
#X connect 8 0 17 0;
#X connect 9 0 12 0;
#X connect 10 0 9 0;
#X connect 11 0 12 1;
#X connect 12 0 33 0;
#X connect 13 0 8 0;
#X connect 14 0 18 0;
#X connect 15 0 8 0;
#X connect 16 0 23 0;
#X connect 18 0 20 0;
#X connect 20 0 19 0;
#X connect 21 0 22 0;
#X connect 22 0 23 0;
#X connect 22 1 23 1;
#X connect 23 0 24 0;
#X connect 24 0 7 0;
#X connect 24 1 7 1;
#X connect 25 0 30 0;
#X connect 26 0 5 0;
#X connect 27 0 29 0;
#X connect 28 0 29 1;
#X connect 29 0 32 0;
#X connect 30 0 32 0;
#X connect 31 0 26 1;
#X coords 0 429 1 428 180 45 0;
#X restore 25 25 pd sampleplayer;
#X obj 344 125 hsl 507 20 0 1.40305e+07 0 0 \$0-sstartslider \$0-sstartsliderinit empty -2 -10 0 12 #ffffff #00faff #000000 0 1;
#N canvas 161 375 189 169 sliderinit 0;
#X obj 13 9 r \$0-slength;
#X msg 59 112 range 0 \$1;
#X obj 13 139 s \$0-sstartsliderinit;
#X msg 13 112 set 0;
#X obj 13 82 t b b f;
#X obj 21 33 r \$0-restart;
#X obj 13 57 f, f 2;
#X connect 0 0 6 0;
#X connect 1 0 2 0;
#X connect 3 0 2 0;
#X connect 4 0 3 0;
#X connect 4 1 2 0;
#X connect 4 2 1 0;
#X connect 5 0 6 0;
#X connect 6 0 4 0;
#X restore 758 -101 pd sliderinit;
#X obj 25 -28 r \$0-sloadfile;
#X obj 342 224 bng 15 250 50 0 \$0-sreload \$0-sreloadinit Reload 18 8 0 10 #fcfcfc #000000 #000000;
#X obj 25 121 *~;
#X obj 43 48 r \$0-sampl;
#X obj 43 72 sig~;
#X obj 43 96 lop~ 1;
#X obj 302 115 bng 30 250 50 0 \$0-spres \$0-spresdummy Res 8 15 0 8 #ffffff #000000 #000000;
#X obj 268 -71 tgl 30 0 \$0-stgl dummy empty 6 15 0 10 #bbbbbb #ffffff #ffffff 0 1;
#X obj 302 -69 vsl 30 160 0.9 1.1 0 0 \$0-spit \$0-spitinit Pitch 3 157 0 8 #fcfcfc #000000 #000000 0 1;
#X floatatom 302 97 5 0 0 0 - \$0-spitdisinit \$0-spitdis 8;
#X obj 134 -28 inlet Filepath;
#X obj 342 151 bng 30 250 50 0 \$0-restart \$0-restartdummy Cue 7 15 0 10 #ffffff #000000 #000000;
#X floatatom 376 151 5 0 0 0 - \$0-stdis \$0-stdisdummy 24;
#X msg 26 -87 0.7;
#X obj 26 -63 s \$0-samplinit;
#X connect 4 0 23 0;
#X connect 7 0 12 0;
#X connect 10 0 6 0;
#X connect 12 0 5 0;
#X connect 13 0 14 0;
#X connect 14 0 15 0;
#X connect 15 0 12 1;
#X connect 20 0 6 1;
#X connect 23 0 24 0;
#X coords 0 384 1 383 275 155 0;
