#N canvas 124 38 770 417 12;
#X obj 300 39 bng 23 250 50 0 \$0-sloadfile dummy LD 7 13 0 8 #00ff04 #000000 #000000;
#X symbolatom 329 39 41 0 0 0 - \$0-sfilename \$0-sfilenamedummy 16;
#X obj 25 25 loadbang;
#X obj 25 252 outlet~;
#N canvas 672 239 474 384 sampleloader 0;
#X obj 18 39 openpanel;
#X obj 18 228 soundfiler, f 14;
#X obj 113 251 unpack f;
#X obj 18 87 pack s f, f 13;
#X obj 18 274 s \$0-slength;
#X obj 106 39 loadbang;
#X obj 106 63 f \$0;
#X obj 33 112 unpack s;
#X obj 113 274 s \$0-srate;
#X obj 18 14 inlet;
#X text 60 13 Open file panel;
#X obj 33 135 file splitname;
#X obj 33 158 unpack s s;
#X obj 100 180 s \$0-sfilename;
#X obj 278 222 bng 19 250 50 0 empty empty empty 0 -10 0 12 #fcfcfc #000000 #000000;
#X obj 278 246 f \$0;
#X msg 278 270 \; \$1-spres bang \; \$1-stglinit 0 \; \$1-sstartsliderinit 0 \; \$1-sphas 0 \; \$1-ssavcue 0;
#X text 319 221 Reset settings when a new file is loaded, f 15;
#X msg 18 203 read -resize \$1 \$2-waver \$2-waver2;
#X obj 278 180 array define \$0-waver2;
#X text 275 128 Define array for second channel. Only channel 1 is used for display., f 23;
#X connect 0 0 3 0;
#X connect 1 0 4 0;
#X connect 1 1 2 0;
#X connect 2 0 8 0;
#X connect 3 0 18 0;
#X connect 3 0 7 0;
#X connect 5 0 6 0;
#X connect 6 0 3 1;
#X connect 7 0 11 0;
#X connect 9 0 0 0;
#X connect 11 0 12 0;
#X connect 12 1 13 0;
#X connect 14 0 15 0;
#X connect 15 0 16 0;
#X connect 18 0 1 0;
#X connect 18 0 14 0;
#X restore 25 193 pd sampleloader;
#X f 16;
#N canvas 277 135 361 704 sampleplayer 0;
#X obj 170 21 r \$0-srate;
#X obj 61 21 r \$0-slength;
#X obj 61 44 expr (1/$f1)*$f2;
#X obj 61 375 *~;
#X obj 79 351 r \$0-slength;
#X obj 61 294 *;
#X obj 90 403 snapshot~;
#X obj 90 379 bang~;
#X obj 101 475 r \$0-srate;
#X obj 90 499 /, f 2;
#X obj 72 73 r \$0-stgl;
#X obj 82 125 t b f;
#X obj 72 154 *;
#X obj 72 265 t b f;
#X obj 61 322 phasor~;
#X obj 90 523 s \$0-stdis;
#X obj 72 241 +;
#X obj 107 294 r \$0-sphas;
#X text 218 427 Playback position;
#N canvas 876 291 192 227 pitchbend 0;
#X obj 10 12 r \$0-spitdwn;
#X obj 100 12 r \$0-spitup;
#X msg 20 82 0, f 1;
#X msg 10 36 -0.15;
#X msg 100 36 0.15;
#X obj 20 60 pipe 200;
#X obj 20 171 line;
#X obj 20 195 outlet;
#X msg 20 147 \$1 200;
#X connect 0 0 3 0;
#X connect 1 0 4 0;
#X connect 2 0 8 0;
#X connect 3 0 5 0;
#X connect 3 0 8 0;
#X connect 4 0 5 0;
#X connect 4 0 8 0;
#X connect 5 0 2 0;
#X connect 6 0 7 0;
#X connect 8 0 6 0;
#X restore 82 190 pd pitchbend;
#X obj 82 214 t b f;
#N canvas 1035 73 372 335 cuelogic 0;
#X obj 64 12 r \$0-sstartslider;
#X obj 145 109 r \$0-slength;
#X obj 64 132 expr $f1/$f2;
#X obj 53 182 f, f 2;
#X obj 42 277 s \$0-sphas;
#X obj 53 157 r \$0-ssavcue;
#X obj 10 207 r \$0-splcue;
#X obj 42 254 f, f 2;
#X obj 10 231 t b b;
#X msg 10 277 1, f 1;
#X obj 10 301 s \$0-stglinit;
#X obj 85 36 r \$0-srate;
#X obj 74 59 /, f 2;
#X obj 74 83 s \$0-ssposdis;
#X obj 101 207 r \$0-restart;
#X msg 101 231 0, f 1;
#X obj 101 254 pipe 1;
#X text 170 82 Cue select slider position;
#X connect 0 0 2 0;
#X connect 0 0 12 0;
#X connect 1 0 2 1;
#X connect 2 0 3 1;
#X connect 3 0 7 1;
#X connect 5 0 3 0;
#X connect 6 0 8 0;
#X connect 7 0 4 0;
#X connect 8 0 9 0;
#X connect 8 1 7 0;
#X connect 9 0 10 0;
#X connect 11 0 12 1;
#X connect 12 0 13 0;
#X connect 14 0 15 0;
#X connect 15 0 4 0;
#X connect 15 0 16 0;
#X connect 16 0 4 0;
#X restore 133 322 pd cuelogic;
#N canvas 746 188 229 291 pitch 0;
#X msg 12 60 1, f 1;
#X obj 12 14 r \$0-spres;
#X obj 22 37 loadbang;
#X obj 12 85 s \$0-spitinit;
#X obj 44 171 - 1;
#X obj 44 219 s \$0-spitdisinit;
#X obj 44 194 * 100;
#X obj 12 123 r \$0-spit;
#X text 85 122 Pitch from slider;
#X obj 12 147 t f f;
#X obj 12 254 outlet;
#X connect 0 0 3 0;
#X connect 1 0 0 0;
#X connect 2 0 0 0;
#X connect 4 0 6 0;
#X connect 6 0 5 0;
#X connect 7 0 9 0;
#X connect 9 0 10 0;
#X connect 9 1 4 0;
#X restore 82 101 pd pitch;
#X obj 61 599 tabread4~ \$0-waver2;
#X obj 22 646 snake~;
#X obj 22 670 outlet~;
#X obj 22 622 tabread4~ \$0-waver;
#X obj 90 427 s \$0-pbsliderinit;
#X obj 90 451 r \$0-pbslider;
#X connect 0 0 2 1;
#X connect 1 0 2 0;
#X connect 2 0 5 0;
#X connect 3 0 6 0;
#X connect 3 0 23 0;
#X connect 3 0 26 0;
#X connect 4 0 3 1;
#X connect 5 0 14 0;
#X connect 6 0 27 0;
#X connect 7 0 6 0;
#X connect 8 0 9 1;
#X connect 9 0 15 0;
#X connect 10 0 12 0;
#X connect 11 0 12 0;
#X connect 11 1 12 1;
#X connect 12 0 16 0;
#X connect 13 0 5 0;
#X connect 13 1 5 1;
#X connect 14 0 3 0;
#X connect 16 0 13 0;
#X connect 17 0 14 1;
#X connect 19 0 20 0;
#X connect 20 0 16 0;
#X connect 20 1 16 1;
#X connect 22 0 11 0;
#X connect 23 0 24 1;
#X connect 24 0 25 0;
#X connect 26 0 24 0;
#X connect 28 0 9 0;
#X coords 0 704 1 703 180 45 0;
#X restore 25 221 pd sampleplayer;
#N canvas 98 169 196 144 sliderinit 0;
#X obj 13 9 r \$0-slength;
#X msg 59 58 range 0 \$1;
#X obj 13 85 s \$0-sstartsliderinit;
#X msg 13 58 set 0;
#X obj 13 34 t b b f;
#X obj 13 114 s \$0-pbsliderinit;
#X connect 0 0 4 0;
#X connect 1 0 2 0;
#X connect 1 0 5 0;
#X connect 3 0 2 0;
#X connect 3 0 5 0;
#X connect 4 0 3 0;
#X connect 4 1 2 0;
#X connect 4 1 5 0;
#X connect 4 2 1 0;
#X restore 25 127 pd sliderinit;
#X obj 25 169 r \$0-sloadfile;
#X obj 260 242 bng 30 250 50 0 \$0-spres \$0-spresdummy RES 8 15 0 8 #ffffff #000000 #9f9f9f;
#X obj 260 32 tgl 30 0 \$0-stgl \$0-stglinit TGL 6 15 0 10 #202020 #dfdfdf #ffffff 0 1;
#X obj 260 89 vsl 30 145 0.9 1.1 0 0 \$0-spit \$0-spitinit PITCH 3 140 0 8 #fcfcfc #000000 #9f9f9f 0 1;
#X floatatom 260 66 4 0 0 0 - \$0-spitdisinit \$0-spitdis 12;
#X obj 439 242 bng 30 250 50 0 \$0-restart \$0-restartdummy REST 5 15 0 8 #ffffff #000000 #000000;
#N canvas 663 161 312 173 canvasinit 0;
#X msg 9 86 \; \$1-waver edit 0 \; \$1-waver style 0 \; \$1-waver width 0.5;
#X obj 9 14 loadbang;
#X obj 9 62 f \$0;
#X obj 9 38 bng 19 250 50 0 empty empty empty 0 -10 0 12 #fcfcfc #000000 #000000;
#X obj 160 62 f \$0;
#X obj 160 14 inlet;
#X obj 160 86 pack;
#X obj 160 38 t b f;
#X msg 160 114 \; \$1-waver vis \$2;
#X connect 1 0 3 0;
#X connect 2 0 0 0;
#X connect 3 0 2 0;
#X connect 4 0 6 0;
#X connect 5 0 7 0;
#X connect 6 0 8 0;
#X connect 7 0 4 0;
#X connect 7 1 6 1;
#X restore 25 103 pd canvasinit;
#X obj 25 73 tgl 19 0 empty empty Vis 22 9 0 12 #fcfcfc #000000 #000000 0 1;
#X obj 334 242 bng 30 200 200 0 \$0-spitup \$0-spitupdummy + 6 14 0 30 #000000 #606060 #ffffff;
#X obj 300 242 bng 30 200 200 0 \$0-spitdwn \$0-spitdwndummy - 6 14 0 30 #000000 #606060 #ffffff;
#X obj 371 242 bng 30 250 50 0 \$0-ssavcue \$0-ssavcuedummy sCUE 6 15 0 8 #ffffff #000000 #000000;
#X obj 405 242 bng 30 250 50 0 \$0-splcue \$0-splcuedummy pCUE 6 15 0 8 #ffffff #000000 #000000;
#X text 594 355 Author: Martin Heinze;
#X text 20 300 Dex is a DJ deck abstraction that can handle uncompressed stereo audio files. You can change pitch and pitch bend via the +/- buttons. The slides lets you select a position in the track where you can set a Cue point (sCUE button) and later play back from that Cue point (pCUE)., f 103;
#X text 84 251 2ch/ stereo out;
#X msg 25 49 1, f 2;
#X obj 303 187 hsl 379 23 0 1.07682e+07 0 0 \$0-pbslider \$0-pbsliderinit PLAYBACK 2 13 0 12 #ffffff #ff8300 #9f9f9f 0 1;
#N canvas 830 139 450 278 (subpatch) 0;
#X array \$0-waver 1.07682e+07 float 2;
#A color 0;
#A width 1;
#X coords 0 1 1.07682e+07 -1 384 100 1 0 0;
#X restore 300 87 graph;
#X floatatom 684 187 5 0 0 1 - \$0-stdis \$0-stdisdummy 16;
#X obj 303 214 hsl 379 23 0 1.07682e+07 0 0 \$0-sstartslider \$0-sstartsliderinit CUE 2 13 0 12 #ffffff #00faff #9f9f9f 0 1;
#X floatatom 684 214 5 0 0 1 - \$0-ssposdis \$0-ssposdisdummy 16;
#X text 587 373 Last updated: 26.09.25;
#X connect 2 0 22 0;
#X connect 5 0 3 0;
#X connect 7 0 4 0;
#X connect 14 0 13 0;
#X connect 22 0 14 0;
#X coords 0 -1 1 1 500 265 2 250 20;
