#N canvas 59 282 1066 526 12;
#X obj 607 41 t b f, f 6;
#X obj 227 35 vsl 19 75 0 1.25 0 0 \$0-fbk \$0-fbkinit FBK 0 -9 0 10 #ff0400 #000000 #000000 0 1;
#X obj 202 35 vsl 19 75 100 5500 1 0 \$0-fhip \$0-fhipinit HIP 0 -9 0 10 #fcfcfc #000000 #000000 0 1;
#X floatatom 202 118 4 0 0 0 - \$0-fhip \$0-dummy 8;
#X floatatom 227 118 4 0 0 0 - \$0-fbk \$0-dummy 8;
#X obj 252 35 vsl 19 75 0 1 0 0 \$0-fvo \$0-fvoinit WET 0 -9 0 10 #fcfcfc #000000 #000000 0 1;
#X floatatom 252 118 4 0 0 0 - \$0-fvo \$0-dummy 8;
#X obj 177 225 hradio 15 1 0 8 \$0-dright \$0-drightinit Delay\ right 0 -8 0 10 #fcfcfc #000000 #000000 0;
#X obj 177 193 hradio 15 1 0 8 \$0-dleft \$0-dleftinit Delay\ left 0 -8 0 10 #fcfcfc #000000 #000000 0;
#X obj 348 351 *~;
#X obj 465 351 *~;
#X obj 741 418 hip~;
#X obj 607 418 hip~;
#X obj 177 35 vsl 19 75 100 7500 1 0 \$0-flop \$0-flopinit LOP 0 -9 0 10 #fcfcfc #000000 #000000 0 1;
#X floatatom 177 118 4 0 0 0 - \$0-flop \$0-dummy 8;
#X obj 607 373 lop~;
#X obj 741 373 lop~;
#X obj 330 407 hip~ 5;
#X obj 447 407 hip~ 5;
#X obj 330 97 delwrite~ \$0-dell 2000;
#X obj 330 151 delwrite~ \$0-delr 2000;
#X obj 330 429 expr~ atan($v1);
#X obj 447 429 expr~ atan($v1);
#X obj 483 328 r \$0-fvo;
#X obj 366 328 r \$0-fvo;
#X obj 766 350 r \$0-flop;
#X obj 12 15 r \$0-reset;
#X obj 12 41 bng 19 250 50 0 empty empty empty 0 -10 0 12 #fcfcfc #000000 #000000;
#X obj 12 67 f \$0;
#X obj 632 350 r \$0-flop;
#X obj 766 395 r \$0-fhip;
#X obj 632 395 r \$0-fhip;
#X obj 607 463 *~, f 4;
#X obj 632 440 r \$0-fbk;
#X obj 741 463 *~, f 4;
#X obj 766 440 r \$0-fbk;
#X obj 93 15 loadbang;
#X obj 646 64 s \$0-fdur;
#N canvas 644 424 384 244 ddurleft 0;
#X obj 153 185 *;
#X obj 77 42 sel 0 1 2 3 4 5 6 7, f 20;
#X msg 26 72 0.25;
#X msg 68 72 0.33;
#X msg 111 72 0.5;
#X msg 153 72 0.66;
#X msg 196 72 0.75;
#X msg 238 72 1;
#X msg 281 72 1.5;
#X msg 323 72 2;
#X obj 77 17 r \$0-dleft;
#X obj 183 185 r \$0-fdur;
#X obj 153 209 outlet;
#X connect 0 0 12 0;
#X connect 1 0 2 0;
#X connect 1 1 3 0;
#X connect 1 2 4 0;
#X connect 1 3 5 0;
#X connect 1 4 6 0;
#X connect 1 5 7 0;
#X connect 1 6 8 0;
#X connect 1 7 9 0;
#X connect 2 0 0 0;
#X connect 3 0 0 0;
#X connect 4 0 0 0;
#X connect 5 0 0 0;
#X connect 6 0 0 0;
#X connect 7 0 0 0;
#X connect 8 0 0 0;
#X connect 9 0 0 0;
#X connect 10 0 1 0;
#X connect 11 0 0 1;
#X restore 607 151 pd ddurleft;
#N canvas 665 568 384 253 ddurright 0;
#X obj 153 185 *;
#X obj 77 42 sel 0 1 2 3 4 5 6 7, f 20;
#X msg 26 72 0.25;
#X msg 68 72 0.33;
#X msg 111 72 0.5;
#X msg 153 72 0.66;
#X msg 196 72 0.75;
#X msg 238 72 1;
#X msg 281 72 1.5;
#X msg 323 72 2;
#X obj 183 185 r \$0-fdur;
#X obj 153 209 outlet;
#X obj 77 17 r \$0-dright;
#X connect 0 0 11 0;
#X connect 1 0 2 0;
#X connect 1 1 3 0;
#X connect 1 2 4 0;
#X connect 1 3 5 0;
#X connect 1 4 6 0;
#X connect 1 5 7 0;
#X connect 1 6 8 0;
#X connect 1 7 9 0;
#X connect 2 0 0 0;
#X connect 3 0 0 0;
#X connect 4 0 0 0;
#X connect 5 0 0 0;
#X connect 6 0 0 0;
#X connect 7 0 0 0;
#X connect 8 0 0 0;
#X connect 9 0 0 0;
#X connect 10 0 0 1;
#X connect 12 0 1 0;
#X restore 741 151 pd ddurright;
#X obj 607 64 f \$0;
#X msg 607 88 \; \$1-drightinit bang \; \$1-dleftinit bang;
#X obj 330 15 inlet~;
#X text 384 14 Mono in;
#X obj 883 15 inlet;
#X listbox 883 37 20 0 0 0 - - - 0;
#X obj 883 88 s \$0-flopinit;
#X obj 883 110 s \$0-fhipinit;
#X obj 883 132 s \$0-fbkinit;
#X obj 883 154 s \$0-fvoinit;
#X obj 883 176 s \$0-dleftinit;
#X obj 883 198 s \$0-drightinit;
#X text 926 14 Preset inlet;
#X obj 330 37 s~ \$0-channels;
#X obj 400 71 r~ \$0-channels;
#X obj 400 125 r~ \$0-channels;
#X obj 330 71 r~ \$0-fbl;
#X obj 330 125 r~ \$0-fbr;
#X obj 348 305 r~ \$0-fbl;
#X obj 465 305 r~ \$0-fbr;
#X obj 446 192 r~ \$0-channels;
#X obj 330 192 r~ \$0-channels;
#X obj 607 489 s~ \$0-fbl;
#X obj 741 489 s~ \$0-fbr;
#X obj 607 15 r \$0-dbl;
#X floatatom 177 159 6 0 0 2 Dur \$0-dblinit \$0-dbl 10;
#X obj 883 220 s \$0-dblinit;
#X obj 625 178 r \$0-dvar;
#X obj 759 178 r \$0-dvar;
#X obj 226 159 hsl 35 15 1 20 0 0 \$0-flut \$0-flutinit Flutter -4 -7 0 10 #fcfcfc #000000 #000000 0 1;
#X floatatom 607 254 5 0 0 0 - - - 0;
#X floatatom 741 254 5 0 0 0 - - - 0;
#X obj 625 203 t b f;
#X obj 607 229 * 1;
#X obj 741 229 * 1;
#X obj 759 203 t b f;
#X obj 330 271 *~;
#X obj 446 271 *~;
#X obj 348 248 r \$0-dvo;
#X obj 464 248 r \$0-dvo;
#X obj 278 35 vsl 19 75 0 1 0 0 \$0-dvo \$0-dvoinit DRY 0 -9 0 10 #fcfcfc #000000 #000000 0 1;
#X floatatom 278 118 4 0 0 0 - \$0-dvo \$0-dummy 8;
#X obj 330 376 +~;
#X obj 447 376 +~;
#X obj 883 266 s \$0-dvoinit;
#X obj 883 61 unpack f f f f f f f f f;
#X text 473 270 Dry signal;
#X text 498 350 Wet signal;
#N canvas 134 95 671 193 presetprinter 0;
#X obj 81 42 t b f;
#X obj 152 42 t b f;
#X obj 216 42 t b f;
#X obj 280 42 t b f;
#X obj 358 42 t b f;
#X obj 443 42 t b f;
#X obj 75 132 list store;
#X obj 75 99 bng 20 250 50 0 empty \$0-doropresprnt empty 0 -10 0 12 #fcfcfc #000000 #000000;
#X obj 10 15 r \$0-flop;
#X obj 81 15 r \$0-fhip;
#X obj 152 15 r \$0-fbk;
#X obj 216 15 r \$0-fvo;
#X obj 280 15 r \$0-dleft;
#X obj 358 15 r \$0-dright;
#X obj 443 15 r \$0-dbl;
#X obj 507 42 t b f;
#X obj 578 42 t b f;
#X obj 578 15 r \$0-dvo;
#X obj 142 98 pack f f f f f f f f f, f 49;
#X obj 507 15 r \$0-flut;
#X obj 75 157 print \$0-dorothea2-Preset;
#X connect 0 0 18 0;
#X connect 0 1 18 1;
#X connect 1 0 18 0;
#X connect 1 1 18 2;
#X connect 2 0 18 0;
#X connect 2 1 18 3;
#X connect 3 0 18 0;
#X connect 3 1 18 4;
#X connect 4 0 18 0;
#X connect 4 1 18 5;
#X connect 5 0 18 0;
#X connect 5 1 18 6;
#X connect 6 0 20 0;
#X connect 7 0 6 0;
#X connect 8 0 18 0;
#X connect 9 0 0 0;
#X connect 10 0 1 0;
#X connect 11 0 2 0;
#X connect 12 0 3 0;
#X connect 13 0 4 0;
#X connect 14 0 5 0;
#X connect 15 0 18 0;
#X connect 15 1 18 7;
#X connect 16 0 18 0;
#X connect 16 1 18 8;
#X connect 17 0 16 0;
#X connect 18 0 6 1;
#X connect 19 0 15 0;
#X restore 883 326 pd presetprinter;
#X obj 273 159 bng 15 250 50 0 \$0-doropresprnt \$0-dummyin Prntr -2 -7 0 10 #fcfcfc #000000 #000000;
#X obj 607 327 delread4~ \$0-dell;
#X obj 741 327 delread4~ \$0-delr;
#X obj 608 277 sig~;
#X obj 741 277 sig~;
#X obj 741 301 +~;
#X obj 330 489 outlet~;
#X obj 330 453 snake~;
#X text 13 270 Dorothea2 is a mono-in stereo-out delay unit with input through first inlet \, based on a delay base duration in ms. Second inlet processes presets. Beware of constant feedback >1 \, only use when in full control :) -- Last updated 28.07.24, f 41;
#X text 388 488 Stereo out;
#X obj 793 270 *~;
#X obj 607 302 +~;
#X obj 649 302 *~;
#X obj 667 203 r \$0-flut;
#X obj 883 243 s \$0-dflutinit;
#X obj 667 227 sig~;
#X obj 667 251 lop~ 10;
#X obj 649 278 osc~ 0.95;
#X obj 793 246 osc~ 1.05;
#X msg 11 93 \; \$1-flopinit 4000 \; \$1-fhipinit 200 \; \$1-fvoinit 0.9 \; \$1-fbkinit 0.7 \; \$1-drightinit 5 \; \$1-dleftinit 3 \; \$1-dblinit 1000 \; \$1-dflutinit 1.2 \; \$1-dvoinit 1;
#X connect 0 0 40 0;
#X connect 0 1 37 0;
#X connect 9 0 82 1;
#X connect 10 0 83 1;
#X connect 11 0 34 0;
#X connect 12 0 32 0;
#X connect 15 0 12 0;
#X connect 16 0 11 0;
#X connect 17 0 21 0;
#X connect 18 0 22 0;
#X connect 21 0 96 0;
#X connect 22 0 96 1;
#X connect 23 0 10 1;
#X connect 24 0 9 1;
#X connect 25 0 16 1;
#X connect 26 0 27 0;
#X connect 27 0 28 0;
#X connect 28 0 108 0;
#X connect 29 0 15 1;
#X connect 30 0 11 1;
#X connect 31 0 12 1;
#X connect 32 0 62 0;
#X connect 33 0 32 1;
#X connect 34 0 63 0;
#X connect 35 0 34 1;
#X connect 36 0 27 0;
#X connect 38 0 73 0;
#X connect 39 0 74 0;
#X connect 40 0 41 0;
#X connect 42 0 53 0;
#X connect 44 0 45 0;
#X connect 45 0 85 0;
#X connect 54 0 19 0;
#X connect 55 0 20 0;
#X connect 56 0 19 0;
#X connect 57 0 20 0;
#X connect 58 0 9 0;
#X connect 59 0 10 0;
#X connect 60 0 77 0;
#X connect 61 0 76 0;
#X connect 64 0 0 0;
#X connect 67 0 72 0;
#X connect 68 0 75 0;
#X connect 70 0 92 0;
#X connect 71 0 93 0;
#X connect 72 0 73 0;
#X connect 72 1 73 1;
#X connect 73 0 70 0;
#X connect 74 0 71 0;
#X connect 75 0 74 0;
#X connect 75 1 74 1;
#X connect 76 0 82 0;
#X connect 77 0 83 0;
#X connect 78 0 76 1;
#X connect 79 0 77 1;
#X connect 82 0 17 0;
#X connect 83 0 18 0;
#X connect 85 0 46 0;
#X connect 85 1 47 0;
#X connect 85 2 48 0;
#X connect 85 3 49 0;
#X connect 85 4 50 0;
#X connect 85 5 51 0;
#X connect 85 6 66 0;
#X connect 85 7 103 0;
#X connect 85 8 84 0;
#X connect 90 0 15 0;
#X connect 91 0 16 0;
#X connect 92 0 100 0;
#X connect 93 0 94 0;
#X connect 94 0 91 0;
#X connect 96 0 95 0;
#X connect 99 0 94 1;
#X connect 100 0 90 0;
#X connect 101 0 100 1;
#X connect 102 0 104 0;
#X connect 104 0 105 0;
#X connect 105 0 101 1;
#X connect 105 0 99 1;
#X connect 106 0 101 0;
#X connect 107 0 99 0;
#X coords 0 -1 1 1 135 235 2 170 15;
