#N canvas 778 84 604 392 12;
#X obj 412 13 loadbang;
#X obj 20 104 i;
#X obj 20 128 + 1;
#X obj 20 152 mod, f 5;
#X obj 145 56 bng 19 250 50 0 empty \$0-rander empty 0 -10 0 12 #fcfcfc #000000 #000000;
#X obj 321 230 tgl 19 0 \$0-o2 \$0-i2 empty 0 -10 0 12 #ffffff #000000 #000000 0 1;
#X obj 342 230 tgl 19 0 \$0-o3 \$0-i3 empty 0 -10 0 12 #ffffff #000000 #000000 0 1;
#X obj 278 252 tgl 19 0 \$0-o4 \$0-i4 empty 0 -10 0 12 #ffffff #000000 #000000 0 1;
#X obj 300 252 tgl 19 0 \$0-o5 \$0-i5 empty 0 -10 0 12 #ffffff #000000 #000000 0 1;
#X obj 321 252 tgl 19 0 \$0-o6 \$0-i6 empty 0 -10 0 12 #ffffff #000000 #000000 0 1;
#X obj 342 252 tgl 19 0 \$0-o7 \$0-i7 empty 0 -10 0 12 #ffffff #000000 #000000 0 1;
#X obj 278 274 tgl 19 0 \$0-o8 \$0-i8 empty 0 -10 0 12 #ffffff #000000 #000000 0 1;
#X obj 300 274 tgl 19 0 \$0-o9 \$0-i9 empty 0 -10 0 12 #ffffff #000000 #000000 0 1;
#X obj 321 274 tgl 19 0 \$0-o10 \$0-i10 empty 0 -10 0 12 #ffffff #000000 #000000 0 1;
#X obj 342 274 tgl 19 0 \$0-o11 \$0-i11 empty 0 -10 0 12 #ffffff #000000 #000000 0 1;
#X obj 278 296 tgl 19 0 \$0-o12 \$0-i12 empty 0 -10 0 12 #ffffff #000000 #000000 0 1;
#X obj 300 230 tgl 19 0 \$0-o1 \$0-i1 empty 0 -10 0 12 #ffffff #000000 #000000 0 1;
#X floatatom 278 207 3 1 16 1 Length \$0-patleninit \$0-patlen 10;
#X obj 412 37 t b b;
#X obj 327 104 s \$0-patleninit;
#X obj 300 296 tgl 19 0 \$0-o13 \$0-i13 empty 0 -10 0 12 #ffffff #000000 #000000 0 1;
#X obj 321 296 tgl 19 0 \$0-o14 \$0-i14 empty 0 -10 0 12 #ffffff #000000 #000000 0 1;
#X obj 342 296 tgl 19 0 \$0-o15 \$0-i15 empty 0 -10 0 12 #ffffff #000000 #000000 0 1;
#X obj 278 230 tgl 19 0 \$0-o0 \$0-i0 empty 0 -10 0 12 #ffffff #000000 #000000 0 1;
#X msg 444 85 16, f 2;
#N canvas 672 360 385 222 poscolflash 0;
#X obj 107 22 inlet;
#X obj 107 46 t b f;
#X obj 209 69 f \$0;
#X obj 209 22 loadbang;
#X msg 209 118 set \$1;
#X obj 199 146 makefilename;
#X obj 209 94 makefilename %d-i%%s;
#X obj 107 178 s \$1;
#X msg 27 118 color #000000 #ffffff, f 8;
#X msg 107 118 color #ffffff #000000, f 8;
#X obj 107 94 del 50;
#X connect 0 0 1 0;
#X connect 1 0 8 0;
#X connect 1 0 10 0;
#X connect 1 1 5 0;
#X connect 2 0 6 0;
#X connect 3 0 2 0;
#X connect 4 0 5 0;
#X connect 5 0 7 1;
#X connect 6 0 4 0;
#X connect 8 0 7 0;
#X connect 9 0 7 0;
#X connect 10 0 9 0;
#X restore 31 176 pd poscolflash;
#N canvas 304 150 389 420 colcalc 0;
#X obj 113 263 t b f;
#X obj 215 215 f \$0;
#X obj 215 191 loadbang;
#X msg 215 263 set \$1;
#X obj 205 293 makefilename;
#X obj 215 239 makefilename %d-i%%s;
#X obj 180 375 s \$1;
#X msg 113 295 color #ffffff #000000, f 8;
#X msg 23 295 color #dedede #dedede, f 8;
#X obj 113 143 until;
#X msg 113 119 \$1;
#X obj 113 167 i;
#X obj 113 191 + 1;
#X obj 113 215 mod;
#X obj 23 263 t b f;
#X obj 23 143 until;
#X msg 23 119 \$1;
#X obj 23 167 i;
#X obj 23 191 + 1;
#X obj 23 215 mod;
#X obj 23 239 +;
#X obj 73 37 t f f f f;
#X obj 23 70 expr 16-$f1;
#X obj 23 94 t f f;
#X obj 73 13 r \$0-patlen;
#X connect 0 0 7 0;
#X connect 0 1 4 0;
#X connect 1 0 5 0;
#X connect 2 0 1 0;
#X connect 3 0 4 0;
#X connect 4 0 6 1;
#X connect 5 0 3 0;
#X connect 7 0 6 0;
#X connect 8 0 6 0;
#X connect 9 0 11 0;
#X connect 10 0 9 0;
#X connect 11 0 12 0;
#X connect 12 0 13 0;
#X connect 13 0 11 1;
#X connect 13 0 0 0;
#X connect 14 0 8 0;
#X connect 14 1 4 0;
#X connect 15 0 17 0;
#X connect 16 0 15 0;
#X connect 17 0 18 0;
#X connect 18 0 19 0;
#X connect 19 0 17 1;
#X connect 19 0 20 0;
#X connect 20 0 14 0;
#X connect 21 0 22 0;
#X connect 21 1 20 1;
#X connect 21 2 10 0;
#X connect 21 3 13 1;
#X connect 22 0 23 0;
#X connect 23 0 16 0;
#X connect 23 1 19 1;
#X connect 24 0 21 0;
#X restore 97 318 pd colcalc;
#X obj 52 128 r \$0-patlen;
#X msg 38 80 -1, f 2;
#X obj 20 341 outlet;
#X obj 145 30 inlet Randomize;
#X obj 278 187 hradio 16 1 0 4 \$0-banksel \$0-bankseldummy Bnk 68 7 0 10 #fcfcfc #000000 #000000 0;
#X obj 319 325 bng 16 250 50 0 \$0-getter \$0-getterdummy p 6 8 0 8 #ffffff #606060 #000000;
#X obj 278 325 bng 16 250 50 0 \$0-rander \$0-randerinit r 6 8 0 8 #000000 #ffffff #ffffff;
#X obj 299 325 bng 16 250 50 0 \$0-clear \$0-cleardummy c 6 8 0 8 #000000 #ffffff #ffffff;
#X obj 80 200 r \$0-banksel;
#X obj 80 223 makefilename \$0-bank%i;
#X obj 20 246 array get;
#X obj 20 30 inlet Bangs;
#X obj 38 56 inlet Restart;
#N canvas 95 38 572 828 store 0;
#X obj 18 141 r \$0-banksel;
#X obj 78 183 makefilename \$0-bank%i;
#X obj 18 208 array get;
#X obj 358 527 r \$0-banksel;
#X obj 358 551 makefilename \$0-bank%i;
#X obj 298 575 array set;
#X obj 18 164 t b f;
#X text 373 574 <- store to bank;
#X obj 18 235 unpack f f f f f f f f f f f f f f f f;
#X obj 18 261 s \$0-i0;
#X obj 18 282 s \$0-i1;
#X obj 18 303 s \$0-i2;
#X obj 18 324 s \$0-i3;
#X obj 18 345 s \$0-i4;
#X obj 18 366 s \$0-i5;
#X obj 18 387 s \$0-i6;
#X obj 18 408 s \$0-i7;
#X obj 18 429 s \$0-i8;
#X obj 18 450 s \$0-i9;
#X obj 18 471 s \$0-i10;
#X obj 18 492 s \$0-i11;
#X obj 18 513 s \$0-i12;
#X obj 18 534 s \$0-i13;
#X obj 18 555 s \$0-i14;
#X obj 18 576 s \$0-i15;
#X obj 356 280 r \$0-o1;
#X obj 414 280 r \$0-o2;
#X obj 472 280 r \$0-o3;
#X obj 298 333 r \$0-o4;
#X obj 356 333 r \$0-o5;
#X obj 414 333 r \$0-o6;
#X obj 472 333 r \$0-o7;
#X obj 298 386 r \$0-o8;
#X obj 356 386 r \$0-o9;
#X obj 414 386 r \$0-o10;
#X obj 479 386 r \$0-o11;
#X obj 298 439 r \$0-o12;
#X obj 363 439 r \$0-o13;
#X obj 428 439 r \$0-o14;
#X obj 493 439 r \$0-o15;
#X obj 298 280 r \$0-o0;
#X obj 298 503 pack f f f f f f f f f f f f f f f f;
#X obj 18 678 array get \$0-bank1;
#X obj 18 606 r \$0-getter;
#X obj 18 726 array get \$0-bank2;
#X obj 18 630 array get \$0-bank0;
#X obj 18 774 array get \$0-bank3;
#X text 104 605 <- print all banks;
#X obj 18 654 print \$0-edgar-bank0;
#X obj 18 702 print \$0-edgar-bank1;
#X obj 18 750 print \$0-edgar-bank2;
#X obj 18 798 print \$0-edgar-bank3;
#X obj 18 10 r \$0-patlen;
#X obj 18 35 array define \$0-bank0;
#X obj 18 60 array define \$0-bank1;
#X obj 18 85 array define \$0-bank2;
#X obj 18 110 array define \$0-bank3;
#X obj 356 304 t b f;
#X obj 414 304 t b f;
#X obj 472 304 t b f;
#X obj 298 357 t b f;
#X obj 356 357 t b f;
#X obj 414 357 t b f;
#X obj 472 357 t b f;
#X obj 298 410 t b f;
#X obj 356 410 t b f;
#X obj 414 410 t b f;
#X obj 479 410 t b f;
#X obj 298 463 t b f;
#X obj 363 463 t b f;
#X obj 428 463 t b f;
#X obj 493 463 t b f;
#X obj 295 192 r \$0-clear;
#X msg 295 216 0 0 0 0 0 0 0 0 0 0 0 0 0 0 0 0;
#X text 90 208 <- load from bank;
#X connect 0 0 6 0;
#X connect 1 0 2 2;
#X connect 2 0 8 0;
#X connect 3 0 4 0;
#X connect 4 0 5 2;
#X connect 6 0 2 0;
#X connect 6 1 1 0;
#X connect 8 0 9 0;
#X connect 8 1 10 0;
#X connect 8 2 11 0;
#X connect 8 3 12 0;
#X connect 8 4 13 0;
#X connect 8 5 14 0;
#X connect 8 6 15 0;
#X connect 8 7 16 0;
#X connect 8 8 17 0;
#X connect 8 9 18 0;
#X connect 8 10 19 0;
#X connect 8 11 20 0;
#X connect 8 12 21 0;
#X connect 8 13 22 0;
#X connect 8 14 23 0;
#X connect 8 15 24 0;
#X connect 25 0 57 0;
#X connect 26 0 58 0;
#X connect 27 0 59 0;
#X connect 28 0 60 0;
#X connect 29 0 61 0;
#X connect 30 0 62 0;
#X connect 31 0 63 0;
#X connect 32 0 64 0;
#X connect 33 0 65 0;
#X connect 34 0 66 0;
#X connect 35 0 67 0;
#X connect 36 0 68 0;
#X connect 37 0 69 0;
#X connect 38 0 70 0;
#X connect 39 0 71 0;
#X connect 40 0 41 0;
#X connect 41 0 5 0;
#X connect 42 0 49 0;
#X connect 43 0 45 0;
#X connect 43 0 42 0;
#X connect 43 0 46 0;
#X connect 43 0 44 0;
#X connect 44 0 50 0;
#X connect 45 0 48 0;
#X connect 46 0 51 0;
#X connect 52 0 53 0;
#X connect 52 0 54 0;
#X connect 52 0 55 0;
#X connect 52 0 56 0;
#X connect 57 0 41 0;
#X connect 57 1 41 1;
#X connect 58 0 41 0;
#X connect 58 1 41 2;
#X connect 59 0 41 0;
#X connect 59 1 41 3;
#X connect 60 0 41 0;
#X connect 60 1 41 4;
#X connect 61 0 41 0;
#X connect 61 1 41 5;
#X connect 62 0 41 0;
#X connect 62 1 41 6;
#X connect 63 0 41 0;
#X connect 63 1 41 7;
#X connect 64 0 41 0;
#X connect 64 1 41 8;
#X connect 65 0 41 0;
#X connect 65 1 41 9;
#X connect 66 0 41 0;
#X connect 66 1 41 10;
#X connect 67 0 41 0;
#X connect 67 1 41 11;
#X connect 68 0 41 0;
#X connect 68 1 41 12;
#X connect 69 0 41 0;
#X connect 69 1 41 13;
#X connect 70 0 41 0;
#X connect 70 1 41 14;
#X connect 71 0 41 0;
#X connect 71 1 41 15;
#X connect 72 0 73 0;
#X connect 73 0 8 0;
#X restore 177 318 pd store;
#N canvas 546 164 291 599 randomizer 0;
#X obj 11 226 unpack f f f f f f f f f f f f f f f f;
#X obj 11 252 s \$0-i0;
#X obj 11 273 s \$0-i1;
#X obj 11 294 s \$0-i2;
#X obj 11 315 s \$0-i3;
#X obj 11 336 s \$0-i4;
#X obj 11 357 s \$0-i5;
#X obj 11 378 s \$0-i6;
#X obj 11 399 s \$0-i7;
#X obj 11 420 s \$0-i8;
#X obj 11 441 s \$0-i9;
#X obj 11 462 s \$0-i10;
#X obj 11 483 s \$0-i11;
#X obj 11 505 s \$0-i12;
#X obj 11 526 s \$0-i13;
#X obj 11 547 s \$0-i14;
#X obj 11 568 s \$0-i15;
#X obj 11 202 list store;
#X msg 44 104 \$1;
#X obj 44 128 until;
#X obj 44 152 random 2;
#X msg 44 176 append \$1;
#X obj 11 54 f, f 2;
#X obj 22 31 r \$0-patlen;
#X obj 11 77 t b f b, f 10;
#X obj 11 8 inlet;
#X connect 0 0 1 0;
#X connect 0 1 2 0;
#X connect 0 2 3 0;
#X connect 0 3 4 0;
#X connect 0 4 5 0;
#X connect 0 5 6 0;
#X connect 0 6 7 0;
#X connect 0 7 8 0;
#X connect 0 8 9 0;
#X connect 0 9 10 0;
#X connect 0 10 11 0;
#X connect 0 11 12 0;
#X connect 0 12 13 0;
#X connect 0 13 14 0;
#X connect 0 14 15 0;
#X connect 0 15 16 0;
#X connect 17 0 0 0;
#X connect 18 0 19 0;
#X connect 19 0 20 0;
#X connect 20 0 21 0;
#X connect 21 0 17 0;
#X connect 22 0 24 0;
#X connect 23 0 22 1;
#X connect 24 0 17 0;
#X connect 24 1 18 0;
#X connect 24 2 17 1;
#X connect 25 0 22 0;
#X restore 145 80 pd randomizer;
#X msg 454 61 0, f 1;
#X obj 260 80 s \$0-bankseldummy;
#X obj 260 30 inlet Preset;
#X obj 260 56 unpack f f;
#X text 279 156 .-=EDGAR=-.;
#X text 393 156 Edgar is a simple step sequencer component that can store up to 4 banks of patterns. Wire bangs (e.g. from a metro object) to the first inlet to cycle through the sequence - on ticked steps in the sequence \, bangs are sent through the outlet., f 27;
#X text 428 303 Author: Martin Heinze, f 22;
#X obj 20 294 sel 1;
#X obj 20 318 bng 19 250 50 0 empty empty empty 0 -10 0 12 #fcfcfc #000000 #000000;
#X obj 20 270 tgl 19 0 empty empty empty 0 -10 0 12 #fcfcfc #000000 #000000 0 1;
#X text 428 319 Last updated: 21.07.25;
#X connect 0 0 18 0;
#X connect 1 0 2 0;
#X connect 2 0 3 0;
#X connect 3 0 1 1;
#X connect 3 0 25 0;
#X connect 3 0 37 0;
#X connect 4 0 41 0;
#X connect 18 0 4 0;
#X connect 18 1 24 0;
#X connect 18 1 42 0;
#X connect 24 0 19 0;
#X connect 27 0 3 1;
#X connect 28 0 1 1;
#X connect 30 0 4 0;
#X connect 35 0 36 0;
#X connect 36 0 37 2;
#X connect 37 0 51 0;
#X connect 38 0 1 0;
#X connect 39 0 28 0;
#X connect 42 0 43 0;
#X connect 44 0 45 0;
#X connect 45 0 43 0;
#X connect 45 1 19 0;
#X connect 49 0 50 0;
#X connect 50 0 29 0;
#X connect 51 0 49 0;
#X coords 0 -1 1 1 100 200 2 270 150;
