#N canvas 537 106 580 291 12;
#X obj 7 11 inlet Bang;
#X obj 7 35 i;
#X obj 7 59 + 1;
#X obj 7 203 sel 1, f 8;
#X obj 7 252 outlet;
#X msg 60 228 bang;
#X obj 60 252 outlet;
#X floatatom 244 205 5 1 32 0 Sequence\ length \$0-plin \$0-plout 0;
#X obj 51 83 r \$0-plout;
#X floatatom 244 251 5 0 32 0 Beat\ offset \$0-ofsin \$0-ofsout 0;
#X obj 37 108 r \$0-ofsout;
#X floatatom 244 228 5 1 32 0 No.\ of\ events \$0-nnin \$0-nnout 0;
#X obj 37 132 r \$0-nnout;
#X obj 51 155 r \$0-plout;
#X obj 37 179 r \$0-nnout;
#X obj 141 11 inlet Preset;
#X obj 141 54 unpack f f f;
#X obj 141 78 s \$0-plin;
#X obj 141 126 s \$0-ofsin;
#X obj 141 102 s \$0-nnin;
#X text 287 250 Offset from the first beat in a cycle, f 38;
#X text 383 176 Last updated 29.03.2025, f 24;
#X text 383 156 Martin Heinze, f 24;
#X obj 239 11 loadbang;
#X text 250 88 Euclid is a simple euclidian rhythm abstraction that distributes a number of events equally over a defined discrete sequence of max 32 events., f 43;
#X msg 35 35 -1, f 2;
#X msg 239 35 16 8 0;
#X obj 7 83 mod 1;
#X obj 7 108 + 0;
#X obj 7 132 * 1;
#X obj 7 155 mod 1;
#X obj 7 179 < 0;
#X text 151 174 ..==EUCLID==..;
#X connect 0 0 1 0;
#X connect 1 0 2 0;
#X connect 2 0 1 1;
#X connect 2 0 27 0;
#X connect 3 0 4 0;
#X connect 3 1 5 0;
#X connect 5 0 6 0;
#X connect 8 0 27 1;
#X connect 10 0 28 1;
#X connect 12 0 29 1;
#X connect 13 0 30 1;
#X connect 14 0 31 1;
#X connect 15 0 16 0;
#X connect 15 0 25 0;
#X connect 16 0 17 0;
#X connect 16 1 19 0;
#X connect 16 2 18 0;
#X connect 23 0 26 0;
#X connect 25 0 1 1;
#X connect 26 0 16 0;
#X connect 27 0 28 0;
#X connect 28 0 29 0;
#X connect 29 0 30 0;
#X connect 30 0 31 0;
#X connect 31 0 3 0;
#X coords 0 -1 1 1 155 105 2 130 170;
