#N canvas 172 115 483 291 12;
#X obj 7 11 inlet Bang;
#X obj 7 35 i;
#X obj 7 59 + 1;
#X obj 7 203 sel 1, f 8;
#X obj 7 252 outlet;
#X msg 60 228 bang;
#X obj 60 252 outlet;
#X floatatom 137 200 5 1 32 1 Seq.\ length \$0-plin \$0-plout 0;
#X obj 51 83 r \$0-plout;
#X floatatom 137 246 5 0 32 1 Beat\ offset \$0-ofsin \$0-ofsout 0;
#X obj 37 108 r \$0-ofsout;
#X floatatom 137 223 5 1 32 1 No.\ of\ events \$0-nnin \$0-nnout 0;
#X obj 37 132 r \$0-nnout;
#X obj 51 155 r \$0-plout;
#X obj 37 179 r \$0-nnout;
#X obj 90 11 inlet Preset;
#X obj 141 59 unpack f f f;
#X obj 141 83 s \$0-plin;
#X obj 141 131 s \$0-ofsin;
#X obj 141 107 s \$0-nnin;
#X obj 239 17 loadbang;
#X text 250 81 Euclid is a simple euclidian rhythm abstraction that distributes a number of events equally over a defined discrete sequence of max 32 events., f 31;
#X msg 35 35 -1, f 2;
#X msg 239 40 16 8 0;
#X obj 7 83 mod 1;
#X obj 7 108 + 0;
#X obj 7 132 * 1;
#X obj 7 155 mod 1;
#X obj 7 179 < 0;
#X text 313 159 Author: Martin Heinze, f 22;
#X text 292 176 Last updated: 12.05.2025, f 25;
#X text 139 176 ..== EUCLID ==..;
#X text 279 247 Offset from 1st beat/cycle;
#X obj 90 35 route bang list;
#X connect 0 0 1 0;
#X connect 1 0 2 0;
#X connect 2 0 1 1;
#X connect 2 0 24 0;
#X connect 3 0 4 0;
#X connect 3 1 5 0;
#X connect 5 0 6 0;
#X connect 8 0 24 1;
#X connect 10 0 25 1;
#X connect 12 0 26 1;
#X connect 13 0 27 1;
#X connect 14 0 28 1;
#X connect 15 0 33 0;
#X connect 16 0 17 0;
#X connect 16 1 19 0;
#X connect 16 2 18 0;
#X connect 20 0 23 0;
#X connect 22 0 1 1;
#X connect 23 0 16 0;
#X connect 24 0 25 0;
#X connect 25 0 26 0;
#X connect 26 0 27 0;
#X connect 27 0 28 0;
#X connect 28 0 3 0;
#X connect 33 0 22 0;
#X connect 33 1 16 0;
#X coords 0 -1 1 1 140 98 2 130 175;
