#N canvas 431 162 574 439 12;
#X symbolatom 15 207 10 0 0 0 - \$0-sfoldinit - 0;
#X listbox 361 340 20 0 0 2 Sample\ name \$0-samplename \$0-samplenamedummy 8;
#X obj 364 364 hsl 150 16 0 12 0 0 \$0-slsel \$0-slselinit Sample\ select 45 9 0 8 #fcfcfc #000000 #000000 0 1;
#N canvas 565 569 163 225 sliderconf 0;
#X msg 18 37 range 0 \$1;
#X obj 18 113 i;
#X floatatom 18 137 5 0 0 0 - - - 0;
#X obj 18 89 r \$0-slsel;
#X obj 18 183 s \$0-selector;
#X obj 18 61 s \$0-slselinit;
#X obj 18 160 change;
#X obj 18 15 inlet;
#X connect 0 0 5 0;
#X connect 1 0 2 0;
#X connect 2 0 6 0;
#X connect 3 0 1 0;
#X connect 6 0 4 0;
#X connect 7 0 0 0;
#X restore 15 278 pd sliderconf;
#N canvas 952 74 433 762 scanner 1;
#X obj 20 15 inlet;
#X obj 21 300 file glob;
#X msg 21 324 \$2 \$1;
#X obj 21 348 route 0;
#X obj 21 396 symbol;
#X obj 21 251 t a a, f 6;
#X obj 21 420 file splitext;
#X msg 21 444 \$2 \$1;
#X obj 21 494 symbol;
#X msg 102 542 symbol \$1;
#X obj 21 542 list trim;
#X obj 21 566 route symbol;
#X obj 21 518 file splitname;
#X obj 21 590 t a b, f 6;
#X obj 94 638 + 1;
#X obj 94 614 i 0;
#X obj 21 663 bng 19 250 50 0 empty empty empty 0 -10 0 12 #fcfcfc #000000 #000000;
#X obj 21 372 t a a;
#X obj 51 638 list;
#X msg 21 40 symbol \$1;
#X obj 245 15 r \$0-showtext;
#X msg 245 137 click;
#X msg 295 137 close;
#X obj 245 40 i;
#X obj 245 64 + 1;
#X obj 245 88 mod 2;
#X obj 245 112 sel 1;
#X msg 21 276 symbol \$1/*.wav;
#X obj 21 469 route wav;
#X obj 51 663 text set \$0-samples;
#X obj 21 687 text size \$0-samples;
#X obj 245 161 text define \$0-samples;
#X obj 21 711 outlet;
#X obj 73 227 file patchpath;
#X obj 44 136 file isabsolute;
#X msg 67 88 -1, f 2;
#X obj 67 112 text delete \$0-samples;
#X obj 21 64 t a a b;
#X obj 21 204 spigot;
#X obj 59 182 tgl 19 0 empty empty empty 0 -10 0 12 #fcfcfc #000000 #000000 0 1;
#X obj 73 204 spigot;
#X obj 112 182 tgl 19 0 empty empty empty 0 -10 0 12 #fcfcfc #000000 #000000 0 1;
#X obj 59 160 == 1;
#X obj 112 160 == 0;
#X connect 0 0 19 0;
#X connect 1 0 2 0;
#X connect 2 0 3 0;
#X connect 3 0 17 0;
#X connect 4 0 6 0;
#X connect 5 0 27 0;
#X connect 5 1 9 0;
#X connect 6 0 7 0;
#X connect 7 0 28 0;
#X connect 8 0 12 0;
#X connect 9 0 11 1;
#X connect 10 0 11 0;
#X connect 11 0 13 0;
#X connect 12 0 10 0;
#X connect 13 0 18 0;
#X connect 13 0 16 0;
#X connect 13 1 15 0;
#X connect 14 0 15 1;
#X connect 14 0 29 1;
#X connect 15 0 14 0;
#X connect 16 0 30 0;
#X connect 17 0 4 0;
#X connect 17 1 18 1;
#X connect 18 0 29 0;
#X connect 19 0 37 0;
#X connect 20 0 23 0;
#X connect 21 0 31 0;
#X connect 22 0 31 0;
#X connect 23 0 24 0;
#X connect 24 0 25 0;
#X connect 25 0 23 1;
#X connect 25 0 26 0;
#X connect 26 0 21 0;
#X connect 26 1 22 0;
#X connect 27 0 1 0;
#X connect 28 0 8 0;
#X connect 30 0 32 0;
#X connect 33 0 5 0;
#X connect 34 0 42 0;
#X connect 34 0 43 0;
#X connect 35 0 36 0;
#X connect 37 0 38 0;
#X connect 37 0 40 0;
#X connect 37 1 34 0;
#X connect 37 2 35 0;
#X connect 38 0 5 0;
#X connect 39 0 38 1;
#X connect 40 0 33 0;
#X connect 41 0 40 1;
#X connect 42 0 39 0;
#X connect 43 0 41 0;
#X restore 15 230 pd scanner;
#X obj 468 340 bng 14 250 50 0 \$0-showtext \$0-showtextinit Show\ list 0 -7 0 8 #fcfcfc #000000 #000000;
#X obj 15 13 loadbang;
#X obj 15 37 i \$0;
#X text 95 229 <- File scan inside;
#X obj 15 144 inlet;
#X obj 15 171 s \$0-slselinit;
#X obj 15 307 r \$0-selector;
#X obj 15 356 list split 1;
#X obj 15 404 outlet;
#X obj 15 380 s \$0-samplename;
#X obj 15 332 text get \$0-samples;
#X obj 45 254 outlet;
#X msg 15 61 \; \$1-sfoldinit symbol . \; \$1-slselinit 0;
#X obj 124 144 inlet;
#X obj 124 171 s \$0-sfoldinit;
#X text 95 206 <- Sample subfolder name. "." for root.;
#X text 95 254 <- Output index/ no. of samples in folder;
#X text 67 403 <- Output absolute filepath;
#X text 218 12 Fileswapper scans a given folder (abs. or rel. path) for .wav files \; Sample select slider is doing exactly that :) The filepath to the selected sample is parsed through the first outlet. The second outlet outputs the index of items in the text list., f 45;
#X text 344 117 Last updated: 03.05.2024 Author: Martin Heinze, f 27;
#X connect 0 0 4 0;
#X connect 4 0 16 0;
#X connect 4 0 3 0;
#X connect 6 0 7 0;
#X connect 7 0 17 0;
#X connect 9 0 10 0;
#X connect 11 0 15 0;
#X connect 12 0 14 0;
#X connect 12 1 13 0;
#X connect 15 0 12 0;
#X connect 18 0 19 0;
#X coords 0 -1 1 1 180 70 2 350 320;
