#N canvas 353 166 684 335 12;
#X symbolatom 15 77 13 0 0 0 - \$0-sfoldinit - 0;
#X listbox 423 258 27 0 0 1 - \$0-samplename \$0-samplenamedummy 12;
#X obj 425 231 hsl 134 19 0 197 0 0 \$0-slsel \$0-slselinit Select\ file 28 10 0 12 #fcfcfc #000000 #bbbbbb 0 1;
#N canvas 565 569 163 225 sliderconf 0;
#X msg 18 37 range 0 \$1;
#X obj 18 113 i;
#X floatatom 18 137 5 0 0 0 - - - 0;
#X obj 18 89 r \$0-slsel;
#X obj 18 183 s \$0-selector;
#X obj 18 61 s \$0-slselinit;
#X obj 18 160 change;
#X obj 18 15 r \$0-fileno;
#X connect 0 0 5 0;
#X connect 1 0 2 0;
#X connect 2 0 6 0;
#X connect 3 0 1 0;
#X connect 6 0 4 0;
#X connect 7 0 0 0;
#X restore 15 126 pd sliderconf;
#N canvas 952 74 419 746 scanner 0;
#X obj 20 15 inlet;
#X obj 21 300 file glob;
#X msg 21 324 \$2 \$1;
#X obj 21 348 route 0;
#X obj 21 396 symbol;
#X obj 21 251 t a a, f 6;
#X obj 21 420 file splitext;
#X msg 21 444 \$2 \$1;
#X obj 21 494 symbol;
#X msg 102 542 symbol \$1;
#X obj 21 542 list trim;
#X obj 21 566 route symbol;
#X obj 21 518 file splitname;
#X obj 21 590 t a b, f 6;
#X obj 94 638 + 1;
#X obj 94 614 i 0;
#X obj 21 663 bng 19 250 50 0 empty empty empty 0 -10 0 12 #fcfcfc #000000 #000000;
#X obj 21 372 t a a;
#X obj 51 638 list;
#X msg 21 40 symbol \$1;
#X obj 245 15 r \$0-showtext;
#X msg 245 137 click;
#X msg 295 137 close;
#X obj 245 40 i;
#X obj 245 64 + 1;
#X obj 245 88 mod 2;
#X obj 245 112 sel 1;
#X msg 21 276 symbol \$1/*.wav;
#X obj 21 469 route wav;
#X obj 51 663 text set \$0-samples;
#X obj 21 687 text size \$0-samples;
#X obj 245 161 text define \$0-samples;
#X obj 73 227 file patchpath;
#X obj 44 136 file isabsolute;
#X msg 67 88 -1, f 2;
#X obj 67 112 text delete \$0-samples;
#X obj 21 64 t a a b;
#X obj 21 204 spigot;
#X obj 59 182 tgl 19 0 empty empty empty 0 -10 0 12 #fcfcfc #000000 #000000 0 1;
#X obj 73 204 spigot;
#X obj 112 182 tgl 19 0 empty empty empty 0 -10 0 12 #fcfcfc #000000 #000000 0 1;
#X obj 59 160 == 1;
#X obj 112 160 == 0;
#X obj 21 711 s \$0-fileno;
#X connect 0 0 19 0;
#X connect 1 0 2 0;
#X connect 2 0 3 0;
#X connect 3 0 17 0;
#X connect 4 0 6 0;
#X connect 5 0 27 0;
#X connect 5 1 9 0;
#X connect 6 0 7 0;
#X connect 7 0 28 0;
#X connect 8 0 12 0;
#X connect 9 0 11 1;
#X connect 10 0 11 0;
#X connect 11 0 13 0;
#X connect 12 0 10 0;
#X connect 13 0 18 0;
#X connect 13 0 16 0;
#X connect 13 1 15 0;
#X connect 14 0 15 1;
#X connect 14 0 29 1;
#X connect 15 0 14 0;
#X connect 16 0 30 0;
#X connect 17 0 4 0;
#X connect 17 1 18 1;
#X connect 18 0 29 0;
#X connect 19 0 36 0;
#X connect 20 0 23 0;
#X connect 21 0 31 0;
#X connect 22 0 31 0;
#X connect 23 0 24 0;
#X connect 24 0 25 0;
#X connect 25 0 23 1;
#X connect 25 0 26 0;
#X connect 26 0 21 0;
#X connect 26 1 22 0;
#X connect 27 0 1 0;
#X connect 28 0 8 0;
#X connect 30 0 43 0;
#X connect 32 0 5 0;
#X connect 33 0 41 0;
#X connect 33 0 42 0;
#X connect 34 0 35 0;
#X connect 36 0 37 0;
#X connect 36 0 39 0;
#X connect 36 1 33 0;
#X connect 36 2 34 0;
#X connect 37 0 5 0;
#X connect 38 0 37 1;
#X connect 39 0 32 0;
#X connect 40 0 39 1;
#X connect 41 0 38 0;
#X connect 42 0 40 0;
#X restore 15 100 pd scanner;
#X f 13;
#X obj 582 202 bng 19 250 50 0 \$0-showtext \$0-showtextinit Sh 5 10 0 8 #fcfcfc #000000 #000000;
#X text 115 99 <- File scan inside;
#X obj 15 188 r \$0-selector;
#X obj 15 237 list split 1;
#X obj 55 295 outlet;
#X obj 15 261 s \$0-samplename;
#X obj 15 213 text get \$0-samples;
#X obj 164 44 s \$0-sfoldinit;
#X text 115 76 <- Sample subfolder name. "." for root.;
#X text 107 294 <- Output absolute filepath;
#X obj 15 44 s \$0-rndflinit;
#X obj 15 19 inlet Random Select;
#X obj 164 19 inlet Folder;
#X text 491 132 Last updated: 03.10.2025;
#X text 512 114 Author: Martin Heinze;
#X text 421 18 Fileswapper scans a given folder (abs. or rel. path) for .wav files. Sample select slider is doing exactly that. Filepath to the selected sample is put out through the first outlet., f 34;
#N canvas 701 81 207 132 preset 0;
#X obj 15 13 loadbang;
#X msg 15 61 \; \$1-sfoldinit symbol . \; \$1-slselinit 0;
#X obj 15 37 f \$0;
#X connect 0 0 2 0;
#X connect 2 0 1 0;
#X restore 262 19 pd preset;
#X obj 423 202 bng 19 250 50 0 \$0-sfoldinit \$0-rescandummy Rescan 24 10 0 12 #fcfcfc #000000 #000000;
#X obj 582 231 bng 19 250 50 0 \$0-rndfl \$0-rndflinit R 6 10 0 12 #000000 #000000 #ffffff;
#X floatatom 494 202 5 0 0 1 Files \$0-fileno \$0-filenodummy 0;
#N canvas 737 415 194 97 randomer 0;
#X obj 10 36 random;
#X obj 10 10 r \$0-rndfl;
#X obj 10 60 s \$0-slselinit;
#X obj 91 10 r \$0-fileno;
#X connect 0 0 2 0;
#X connect 1 0 0 0;
#X connect 3 0 0 1;
#X restore 15 152 pd randomer;
#X f 13;
#X text 115 125 <- Setup slider;
#X text 115 151 <- Setup randomization;
#X connect 0 0 4 0;
#X connect 7 0 11 0;
#X connect 8 0 10 0;
#X connect 8 1 9 0;
#X connect 11 0 8 0;
#X connect 16 0 15 0;
#X connect 17 0 12 0;
#X coords 0 -1 1 1 220 100 2 410 190;
