#N canvas 586 89 710 468 12;
#X obj 155 378 +~, f 2;
#X obj 165 402 delwrite~ \$0-b1 100;
#X obj 155 426 delwrite~ \$0-b2 100;
#X obj 166 354 *~, f 2;
#X obj 336 244 hsl 60 18 0 1 0 0 \$0-florrate \$0-florrateinit RATE 2 10 0 12 #ffffff #7c7c7c #000000 0 1;
#X obj 177 132 osc~;
#X obj 177 156 *~, f 2;
#X obj 177 205 delread4~ \$0-b2;
#X obj 65 205 delread4~ \$0-b1;
#X obj 65 132 osc~;
#X obj 65 156 *~, f 2;
#X obj 65 180 +~, f 2;
#X obj 107 307 snake~;
#X obj 336 268 hsl 60 18 0.5 1.5 0 0 \$0-flordist \$0-flordistinit DISTANCE 2 10 0 12 #fcfcfc #7c7c7c #000000 0 1;
#X obj 336 220 hsl 60 18 -1 1 0 0 \$0-florfdbk \$0-florfdbkinit FEEDBACK 2 10 0 12 #fcfcfc #7c7c7c #000000 0 1;
#X obj 177 85 t b f;
#X obj 336 292 hsl 60 18 1 10 0 0 \$0-flordepth \$0-flordepthinit DEPTH 2 10 0 12 #fcfcfc #7c7c7c #000000 0 1;
#X obj 221 113 sig~;
#X obj 221 137 lop~ 1;
#X obj 177 180 +~, f 2;
#X obj 221 161 lop~ 1;
#X obj 166 259 +~, f 2;
#X obj 107 331 outlet~;
#X obj 27 243 inlet~;
#X obj 27 288 clip~ -1 1;
#X obj 177 283 r \$0-florfdbk;
#X obj 65 90 r \$0-florrate;
#X obj 177 61 r \$0-flordist;
#X obj 221 89 r \$0-flordepth;
#X obj 491 60 f \$0;
#X obj 491 38 loadbang;
#X listbox 333 60 20 0 0 0 - - - 0;
#X obj 333 81 unpack f f f f;
#X obj 333 103 s \$0-florfdbkinit;
#X obj 333 125 s \$0-florrateinit;
#X obj 333 147 s \$0-flordistinit;
#X obj 333 169 s \$0-flordepthinit;
#X obj 333 38 inlet preset;
#X text 524 356 Author: Martin Heinze;
#X floatatom 402 220 4 0 0 0 - \$0-florfdbk \$0-dummy 12;
#X floatatom 402 244 4 0 0 0 - \$0-florrate \$0-dummy 12;
#X floatatom 402 268 4 0 0 0 - \$0-flordist \$0-dummy 12;
#X floatatom 402 292 4 0 0 0 - \$0-flordepth \$0-dummy 12;
#X obj 177 109 +, f 2;
#X obj 177 331 * 0.4;
#X obj 177 307 clip -1 1;
#X obj 90 38 inlet phaseres;
#X msg 90 62 0, f 1;
#X text 454 217 Florus is a simple mono-in stereo-out chorus/ flanger effect. First inlet receives signal \, second inlet can be used to reset phase \, apply presets through third inlet. Outlet is 2ch/ stereo. Requires 'snake~ out' to split., f 31;
#X msg 491 81 \; \$1-florfdbkinit -0.5 \; \$1-florrateinit 0.2 \; \$1-flordistinit 0.3 \; \$1-flordepthinit 5, f 23;
#X text 524 376 Last updated 28.07.24;
#X obj 27 267 hip~ 80;
#X connect 0 0 1 0;
#X connect 0 0 2 0;
#X connect 3 0 0 1;
#X connect 5 0 6 0;
#X connect 6 0 19 0;
#X connect 7 0 21 1;
#X connect 8 0 21 0;
#X connect 9 0 10 0;
#X connect 10 0 11 0;
#X connect 11 0 8 0;
#X connect 12 0 22 0;
#X connect 15 0 43 0;
#X connect 15 1 43 1;
#X connect 17 0 18 0;
#X connect 18 0 10 1;
#X connect 18 0 6 1;
#X connect 18 0 20 0;
#X connect 19 0 7 0;
#X connect 20 0 11 1;
#X connect 20 0 19 1;
#X connect 21 0 3 0;
#X connect 21 0 12 1;
#X connect 23 0 51 0;
#X connect 24 0 0 0;
#X connect 24 0 12 0;
#X connect 25 0 45 0;
#X connect 26 0 43 0;
#X connect 26 0 9 0;
#X connect 27 0 15 0;
#X connect 28 0 17 0;
#X connect 29 0 49 0;
#X connect 30 0 29 0;
#X connect 31 0 32 0;
#X connect 32 0 33 0;
#X connect 32 1 34 0;
#X connect 32 2 35 0;
#X connect 32 3 36 0;
#X connect 37 0 31 0;
#X connect 43 0 5 0;
#X connect 44 0 3 1;
#X connect 45 0 44 0;
#X connect 46 0 47 0;
#X connect 47 0 5 1;
#X connect 47 0 9 1;
#X connect 51 0 24 0;
#X coords 0 -1 1 1 115 110 2 325 210;
