#N canvas 781 92 199 387 12;
#X obj 9 254 bang~;
#X obj 70 287 t b b;
#X obj 70 313 timer;
#X obj 9 340 outlet;
#X floatatom 9 163 12 0 0 0 - - - 0;
#X floatatom 9 70 5 -8 0 0 - - - 0;
#X obj 9 93 t b f;
#X msg 9 116 2, f 1;
#X obj 9 139 pow;
#X obj 9 22 loadbang;
#X msg 9 46 -2, f 2;
#X msg 9 190 set 4096 1 \$1;
#X obj 9 215 block~ 4096 1 1;
#X obj 90 51 inlet;
#X obj 70 340 outlet;
#X connect 0 0 1 0;
#X connect 0 0 3 0;
#X connect 1 0 2 0;
#X connect 1 1 2 1;
#X connect 2 0 14 0;
#X connect 4 0 11 0;
#X connect 5 0 6 0;
#X connect 6 0 7 0;
#X connect 6 1 8 1;
#X connect 7 0 8 0;
#X connect 8 0 4 0;
#X connect 9 0 10 0;
#X connect 10 0 5 0;
#X connect 11 0 12 0;
#X connect 13 0 5 0;
#X coords 0 387 1 386 245 30 0;
