#N canvas 788 294 499 586 12;
#X obj 179 372 bng 19 250 50 0 empty empty empty 0 -10 0 12 #fcfcfc #000000 #000000;
#X obj 179 396 samplerate~;
#X obj 179 348 loadbang;
#X floatatom 179 419 5 0 0 0 - - - 0;
#X obj 126 416 bang~;
#X obj 126 488 mod;
#X obj 126 512 sel 0;
#X obj 126 464 + 1;
#X obj 126 536 outlet;
#X obj 18 105 block~ 64;
#X obj 179 444 / 512;
#X obj 179 13 inlet;
#X obj 293 352 t b f;
#X obj 126 440 i;
#X floatatom 357 101 6 0 0 0 - \$0-wsize \$0-wsizeout 0;
#X obj 171 101 hradio 20 1 0 9 \$0-wsizesel \$0-wsizeselinit empty 0 -10 0 12 #fcfcfc #000000 #000000 0;
#X obj 179 158 r \$0-wsizesel;
#X msg 83 218 32;
#X msg 123 218 64;
#X msg 163 218 96;
#X msg 203 218 128;
#X msg 243 218 256;
#X msg 283 218 384;
#X msg 323 218 512;
#X msg 363 218 1024;
#X msg 403 218 2048;
#X obj 179 183 sel 0 1 2 3 4 5 6 7 8;
#X obj 179 268 s \$0-wsize;
#X obj 293 327 r \$0-wsizeout;
#X floatatom 179 469 8 0 0 0 - - - 0;
#X msg 18 63 \; \$1-wsizeselinit 3;
#X obj 18 13 loadbang;
#X obj 18 38 i \$0;
#X obj 179 38 s \$0-wsizeselinit;
#X connect 0 0 1 0;
#X connect 1 0 3 0;
#X connect 2 0 0 0;
#X connect 3 0 10 0;
#X connect 4 0 13 0;
#X connect 5 0 6 0;
#X connect 5 0 13 1;
#X connect 6 0 8 0;
#X connect 7 0 5 0;
#X connect 10 0 29 0;
#X connect 11 0 33 0;
#X connect 12 0 0 0;
#X connect 12 1 10 1;
#X connect 13 0 7 0;
#X connect 16 0 26 0;
#X connect 17 0 27 0;
#X connect 18 0 27 0;
#X connect 19 0 27 0;
#X connect 20 0 27 0;
#X connect 21 0 27 0;
#X connect 22 0 27 0;
#X connect 23 0 27 0;
#X connect 24 0 27 0;
#X connect 25 0 27 0;
#X connect 26 0 17 0;
#X connect 26 1 18 0;
#X connect 26 2 19 0;
#X connect 26 3 20 0;
#X connect 26 4 21 0;
#X connect 26 5 22 0;
#X connect 26 6 23 0;
#X connect 26 7 24 0;
#X connect 26 8 25 0;
#X connect 28 0 12 0;
#X connect 29 0 5 1;
#X connect 31 0 32 0;
#X connect 32 0 30 0;
#X coords 0 -1 1 1 245 30 2 165 95;
