#N canvas 539 143 581 333 12;
#X obj 26 197 bang~;
#X obj 126 244 t b b;
#X obj 126 270 timer;
#X obj 26 297 outlet;
#X floatatom 114 20 5 -8 0 0 - \$0-expinit \$0-exp 0;
#X obj 231 118 t b f;
#X msg 231 141 2, f 1;
#X obj 231 164 pow;
#X obj 295 273 block~ 4096 1 1;
#X obj 231 10 inlet;
#X obj 126 297 outlet;
#X obj 26 20 hradio 19 1 0 3 \$0-win \$0-wininit empty 0 -10 0 12 #fcfcfc #000000 #000000 0;
#X obj 326 58 s \$0-expinit;
#X obj 26 75 loadbang;
#X obj 26 98 f \$0;
#X obj 295 220 pack;
#X obj 295 95 r \$0-win;
#X msg 295 246 set \$2 1 \$1;
#X obj 295 118 sel 0 1 2;
#X msg 295 141 2048;
#X msg 335 141 4096;
#X msg 375 141 8192;
#X obj 295 164 t b f;
#X floatatom 26 43 5 0 0 1 Block\ size \$0-windisinit \$0-windisdummy 8;
#X obj 337 194 s \$0-windisinit;
#X text 75 296 Bang;
#X text 177 296 Length in ms;
#X obj 231 95 r \$0-exp;
#X obj 221 194 s \$0-dsinit;
#X floatatom 114 43 5 0 0 1 Dwnsmpl\ fact. \$0-dsinit \$0-dsdummy 8;
#X obj 231 34 unpack f f, f 14;
#X obj 231 58 s \$0-wininit;
#X text 276 9 Preset inlet;
#X obj 422 10 inlet;
#X obj 422 58 s \$0-switchinit;
#X obj 203 10 tgl 12 0 \$0-switch \$0-switchinit empty 0 -10 0 12 #fcfcfc #000000 #000000 0 1;
#X obj 65 197 r \$0-switch;
#X obj 26 224 spigot;
#X msg 26 121 \; \$1-expinit -2 \; \$1-wininit 1 \; \$1-switchinit 1;
#X connect 0 0 37 0;
#X connect 1 0 2 0;
#X connect 1 1 2 1;
#X connect 2 0 10 0;
#X connect 5 0 6 0;
#X connect 5 1 7 1;
#X connect 6 0 7 0;
#X connect 7 0 28 0;
#X connect 7 0 15 0;
#X connect 9 0 30 0;
#X connect 13 0 14 0;
#X connect 14 0 38 0;
#X connect 15 0 17 0;
#X connect 16 0 18 0;
#X connect 17 0 8 0;
#X connect 18 0 19 0;
#X connect 18 1 20 0;
#X connect 18 2 21 0;
#X connect 19 0 22 0;
#X connect 20 0 22 0;
#X connect 21 0 22 0;
#X connect 22 0 15 0;
#X connect 22 1 15 1;
#X connect 22 1 24 0;
#X connect 27 0 5 0;
#X connect 30 0 31 0;
#X connect 30 1 12 0;
#X connect 33 0 34 0;
#X connect 36 0 37 1;
#X connect 37 0 3 0;
#X connect 37 0 1 0;
#X coords 0 -1 1 1 200 55 2 15 10;
