#N canvas 753 165 763 744 12;
#X obj 216 75 inlet~;
#X obj 215 666 outlet~;
#X obj 22 666 outlet~;
#X obj 409 26 inlet;
#X obj 59 26 r \$0-buflen;
#X msg 59 50 \$1, f 2;
#X obj 251 26 r \$0-buflen;
#X msg 251 50 \$1, f 2;
#X obj 225 637 s~ \$0-goutr;
#X obj 32 637 s~ \$0-goutl;
#X obj 280 75 r~ \$0-goutr;
#X obj 280 101 r~ \$0-goutl;
#X obj 24 75 inlet~;
#X obj 88 75 r~ \$0-goutr;
#X obj 88 101 r~ \$0-goutl;
#X obj 24 577 *~;
#X obj 42 484 line;
#X obj 42 396 tgl 19 0 empty empty empty 0 -10 0 12 #fcfcfc #000000 #000000 0 1;
#X obj 216 537 *~;
#X obj 234 484 line;
#X obj 234 396 tgl 19 0 empty empty empty 0 -10 0 12 #fcfcfc #000000 #000000 0 1;
#X obj 216 340 delread4~ \$0-glitchr;
#X obj 41 561 r \$0-res;
#X obj 233 561 r \$0-res;
#X obj 392 387 hsl 48 16 0.005 0.45 1 0 \$0-res \$0-resinit Feedback -2 -10 0 10 #fcfcfc #000000 #000000 0 1;
#X obj 573 26 loadbang;
#X obj 573 51 bng 20 250 50 0 empty empty empty 0 -10 0 12 #fcfcfc #000000 #000000;
#X obj 573 76 f \$0;
#X obj 23 626 *~;
#X obj 215 586 *~;
#X obj 23 161 r \$0-phspl;
#X obj 215 161 r \$0-phspr;
#X floatatom 389 348 5 0 100 1 Buffer\ Offset \$0-bufofsinit \$0-bufofs 10;
#X obj 42 291 r \$0-bufofs;
#X obj 234 291 r \$0-bufofs;
#X obj 234 241 r \$0-buf;
#X obj 42 241 r \$0-buf;
#X obj 24 315 +~;
#X obj 216 314 +~;
#X floatatom 389 327 5 10 10000 1 Buffer \$0-bufinit \$0-buf 10;
#X obj 42 372 inlet;
#X obj 234 372 inlet;
#X obj 409 124 s \$0-phsplinit;
#X obj 409 148 s \$0-phsprinit;
#X obj 409 172 s \$0-bufofsinit;
#X obj 409 196 s \$0-bufinit;
#X obj 409 100 s \$0-resinit;
#X msg 42 460 \$1 \$2;
#X obj 42 437 pack;
#X obj 67 411 r \$0-smoo;
#X msg 234 460 \$1 \$2;
#X obj 234 437 pack;
#X obj 259 411 r \$0-smoo;
#X obj 462 387 hsl 48 16 20 200 1 0 \$0-smoo \$0-smooinit Smooth -2 -10 0 10 #fcfcfc #000000 #000000 0 1;
#X text 454 25 Preset inlet;
#X text 83 371 Activate L;
#X text 276 371 Activate R;
#X obj 409 221 s \$0-smooinit;
#X obj 24 266 *~;
#X obj 216 266 *~;
#X obj 23 611 hip~ 50;
#X obj 215 611 hip~ 50;
#N canvas 795 269 596 220 presetprinter 0;
#X obj 100 25 r \$0-res;
#X obj 181 25 r \$0-phspl;
#X obj 260 25 r \$0-phspr;
#X obj 339 25 r \$0-bufofs;
#X obj 425 25 r \$0-buf;
#X obj 490 25 r \$0-smoo;
#X obj 181 52 t b f;
#X obj 260 52 t b f;
#X obj 339 52 t b f;
#X obj 425 52 t b f;
#X obj 490 52 t b f;
#X obj 33 142 list store;
#X obj 33 109 bng 20 250 50 0 empty \$0-gpresprnt empty 0 -10 0 12 #fcfcfc #000000 #000000;
#X obj 100 108 pack f f f f f f, f 29;
#X obj 33 167 print \$0-glitzem-Preset;
#X connect 0 0 13 0;
#X connect 1 0 6 0;
#X connect 2 0 7 0;
#X connect 3 0 8 0;
#X connect 4 0 9 0;
#X connect 5 0 10 0;
#X connect 6 0 13 0;
#X connect 6 1 13 1;
#X connect 7 0 13 0;
#X connect 7 1 13 2;
#X connect 8 0 13 0;
#X connect 8 1 13 3;
#X connect 9 0 13 0;
#X connect 9 1 13 4;
#X connect 10 0 13 0;
#X connect 10 1 13 5;
#X connect 11 0 14 0;
#X connect 12 0 11 0;
#X connect 13 0 11 1;
#X restore 389 440 pd presetprinter;
#X obj 389 407 bng 16 250 50 0 \$0-gpresprnt empty Prnt\ Pres 18 8 0 10 #fcfcfc #000000 #000000;
#X obj 234 509 pow 2;
#X obj 42 509 pow 2;
#N canvas 35 69 192 129 buffercalc 0;
#X obj 14 17 r \$0-buf;
#X obj 83 17 r \$0-bufofs;
#X obj 83 41 t b f;
#X obj 83 74 + 0;
#X obj 83 99 s \$0-buflen;
#X connect 0 0 3 0;
#X connect 1 0 2 0;
#X connect 2 0 3 0;
#X connect 2 1 3 1;
#X connect 3 0 4 0;
#X restore 389 469 pd buffercalc;
#X obj 409 75 unpack f f f f f f;
#X obj 23 127 delwrite~ \$0-glitchl 10000;
#X obj 215 127 delwrite~ \$0-glitchr 10000;
#X obj 24 340 delread4~ \$0-glitchl;
#X obj 215 190 osc~;
#X obj 215 215 expr~ ($v1+1)/2;
#X obj 23 191 osc~;
#X obj 23 216 expr~ ($v1+1)/2;
#X text 575 273 Glitz'em is a flanger delay unit that creates very short delay detune fx \, whatever that means. Last updated 26.11.23, f 21;
#X obj 392 282 hsl 48 16 -0.01 0.01 0 0 \$0-phspl \$0-phsplinit Del\ L 55 8 0 10 #fcfcfc #000000 #000000 0 1;
#X obj 392 303 hsl 48 16 -0.01 0.01 0 0 \$0-phspr \$0-phsprinit Del\ R 55 8 0 10 #fcfcfc #000000 #000000 0 1;
#X msg 573 101 \; \$1-resinit 0.4 \; \$1-phsplinit 0.002 \; \$1-phsprinit -0.003 \; \$1-bufofsinit 20 \; \$1-bufinit 100 \; \$1-smooinit 100;
#X connect 0 0 69 0;
#X connect 3 0 67 0;
#X connect 4 0 5 0;
#X connect 5 0 68 0;
#X connect 6 0 7 0;
#X connect 7 0 69 0;
#X connect 10 0 69 0;
#X connect 11 0 69 0;
#X connect 12 0 68 0;
#X connect 13 0 68 0;
#X connect 14 0 68 0;
#X connect 15 0 28 0;
#X connect 16 0 65 0;
#X connect 17 0 48 0;
#X connect 18 0 29 0;
#X connect 19 0 64 0;
#X connect 20 0 51 0;
#X connect 21 0 18 0;
#X connect 22 0 28 1;
#X connect 23 0 29 1;
#X connect 25 0 26 0;
#X connect 26 0 27 0;
#X connect 27 0 78 0;
#X connect 28 0 60 0;
#X connect 29 0 61 0;
#X connect 30 0 73 0;
#X connect 31 0 71 0;
#X connect 33 0 37 1;
#X connect 34 0 38 1;
#X connect 35 0 59 1;
#X connect 36 0 58 1;
#X connect 37 0 70 0;
#X connect 38 0 21 0;
#X connect 40 0 17 0;
#X connect 41 0 20 0;
#X connect 47 0 16 0;
#X connect 48 0 47 0;
#X connect 49 0 48 1;
#X connect 50 0 19 0;
#X connect 51 0 50 0;
#X connect 52 0 51 1;
#X connect 58 0 37 0;
#X connect 59 0 38 0;
#X connect 60 0 9 0;
#X connect 60 0 2 0;
#X connect 61 0 8 0;
#X connect 61 0 1 0;
#X connect 64 0 18 1;
#X connect 65 0 15 1;
#X connect 67 0 46 0;
#X connect 67 1 42 0;
#X connect 67 2 43 0;
#X connect 67 3 44 0;
#X connect 67 4 45 0;
#X connect 67 5 57 0;
#X connect 70 0 15 0;
#X connect 71 0 72 0;
#X connect 72 0 59 0;
#X connect 73 0 74 0;
#X connect 74 0 58 0;
#X coords 0 -1 1 1 140 155 2 380 275;
