#N canvas 405 115 730 687 12;
#X obj 216 75 inlet~;
#X obj 215 646 outlet~;
#X obj 22 646 outlet~;
#X obj 389 26 inlet;
#X obj 59 26 r \$0-buflen;
#X msg 59 50 \$1, f 2;
#X obj 251 26 r \$0-buflen;
#X msg 251 50 \$1, f 2;
#X obj 225 617 s~ \$0-goutr;
#X obj 32 617 s~ \$0-goutl;
#X obj 280 75 r~ \$0-goutr;
#X obj 280 101 r~ \$0-goutl;
#X obj 24 75 inlet~;
#X obj 88 75 r~ \$0-goutr;
#X obj 88 101 r~ \$0-goutl;
#X obj 24 517 *~;
#X obj 42 464 line;
#X obj 42 376 tgl 19 0 empty empty empty 0 -10 0 12 #fcfcfc #000000 #000000 0 1;
#X obj 216 517 *~;
#X obj 234 464 line;
#X obj 234 376 tgl 19 0 empty empty empty 0 -10 0 12 #fcfcfc #000000 #000000 0 1;
#X obj 24 320 delread4~ \$0-glitchl;
#X obj 216 320 delread4~ \$0-glitchr;
#X obj 41 541 r \$0-res;
#X obj 233 541 r \$0-res;
#X obj 392 387 hsl 48 16 0.005 0.45 1 0 \$0-res \$0-resinit Feedback -2 -10 0 10 #fcfcfc #000000 #000000 0 1;
#X obj 553 26 loadbang;
#X obj 553 51 bng 20 250 50 0 empty empty empty 0 -10 0 12 #fcfcfc #000000 #000000;
#X obj 553 76 f \$0;
#X obj 23 566 *~;
#X obj 215 566 *~;
#X listbox 389 51 20 0 0 0 - - - 0;
#X obj 23 161 r \$0-phspl;
#X obj 215 161 r \$0-phspr;
#X floatatom 389 285 5 -10 10 1 Phase\ Speed\ L \$0-phsplinit \$0-phspl 10;
#X floatatom 389 306 5 -10 10 1 Phase\ Speed\ R \$0-phsprinit \$0-phspr 10;
#X floatatom 389 348 5 0 100 1 Buffer\ Offset \$0-bufofsinit \$0-bufofs 10;
#X obj 42 271 r \$0-bufofs;
#X obj 234 271 r \$0-bufofs;
#X obj 234 221 r \$0-buf;
#X obj 42 221 r \$0-buf;
#X obj 24 295 +~;
#X obj 216 294 +~;
#X floatatom 389 327 5 10 10000 1 Buffer \$0-bufinit \$0-buf 10;
#X obj 42 352 inlet;
#X obj 234 352 inlet;
#X obj 389 124 s \$0-phsplinit;
#X obj 389 148 s \$0-phsprinit;
#X obj 389 172 s \$0-bufofsinit;
#X obj 389 196 s \$0-bufinit;
#X obj 389 100 s \$0-resinit;
#X msg 42 440 \$1 \$2;
#X obj 42 417 pack;
#X obj 67 391 r \$0-smoo;
#X msg 234 440 \$1 \$2;
#X obj 234 417 pack;
#X obj 259 391 r \$0-smoo;
#X obj 462 387 hsl 48 16 20 200 1 0 \$0-smoo \$0-smooinit Smooth -2 -10 0 10 #fcfcfc #000000 #000000 0 1;
#X text 434 25 Preset inlet;
#X text 83 351 Activate L;
#X text 276 351 Activate R;
#X obj 389 221 s \$0-smooinit;
#X obj 23 186 phasor~;
#X obj 215 186 phasor~;
#X obj 24 246 *~;
#X obj 216 246 *~;
#X obj 23 591 hip~ 50;
#X obj 215 591 hip~ 50;
#N canvas 795 269 596 220 presetprinter 0;
#X obj 100 25 r \$0-res;
#X obj 181 25 r \$0-phspl;
#X obj 260 25 r \$0-phspr;
#X obj 339 25 r \$0-bufofs;
#X obj 425 25 r \$0-buf;
#X obj 490 25 r \$0-smoo;
#X obj 181 52 t b f;
#X obj 260 52 t b f;
#X obj 339 52 t b f;
#X obj 425 52 t b f;
#X obj 490 52 t b f;
#X obj 33 142 list store;
#X obj 33 109 bng 20 250 50 0 empty \$0-gpresprnt empty 0 -10 0 12 #fcfcfc #000000 #000000;
#X obj 33 167 print \$0-glitzhis-Preset;
#X obj 100 108 pack f f f f f f, f 29;
#X connect 0 0 14 0;
#X connect 1 0 6 0;
#X connect 2 0 7 0;
#X connect 3 0 8 0;
#X connect 4 0 9 0;
#X connect 5 0 10 0;
#X connect 6 0 14 0;
#X connect 6 1 14 1;
#X connect 7 0 14 0;
#X connect 7 1 14 2;
#X connect 8 0 14 0;
#X connect 8 1 14 3;
#X connect 9 0 14 0;
#X connect 9 1 14 4;
#X connect 10 0 14 0;
#X connect 10 1 14 5;
#X connect 11 0 13 0;
#X connect 12 0 11 0;
#X connect 14 0 11 1;
#X restore 552 245 pd presetprinter;
#X obj 389 407 bng 16 250 50 0 \$0-gpresprnt empty Prnt\ Pres 18 8 0 10 #fcfcfc #000000 #000000;
#X obj 234 489 pow 2;
#X obj 42 489 pow 2;
#N canvas 35 69 192 129 buffercalc 0;
#X obj 14 17 r \$0-buf;
#X obj 83 17 r \$0-bufofs;
#X obj 83 41 t b f;
#X obj 83 74 + 0;
#X obj 83 99 s \$0-buflen;
#X connect 0 0 3 0;
#X connect 1 0 2 0;
#X connect 2 0 3 0;
#X connect 2 1 3 1;
#X connect 3 0 4 0;
#X restore 552 274 pd buffercalc;
#X msg 553 101 \; \$1-resinit 0.4 \; \$1-phsplinit 0.2 \; \$1-phsprinit -0.3 \; \$1-bufofsinit 20 \; \$1-bufinit 100 \; \$1-smooinit 100;
#X obj 389 75 unpack f f f f f f;
#X obj 215 127 delwrite~ \$0-glitchr 1;
#X obj 23 127 delwrite~ \$0-glitchl 1;
#X text 555 313 Glitzhis is a stereo delay unit that creates short delay glitch dub effects \, whatever that means. Last updated 19.10.23, f 21;
#X connect 0 0 75 0;
#X connect 3 0 31 0;
#X connect 4 0 5 0;
#X connect 5 0 76 0;
#X connect 6 0 7 0;
#X connect 7 0 75 0;
#X connect 10 0 75 0;
#X connect 11 0 75 0;
#X connect 12 0 76 0;
#X connect 13 0 76 0;
#X connect 14 0 76 0;
#X connect 15 0 29 0;
#X connect 16 0 71 0;
#X connect 17 0 52 0;
#X connect 18 0 30 0;
#X connect 19 0 70 0;
#X connect 20 0 55 0;
#X connect 21 0 15 0;
#X connect 22 0 18 0;
#X connect 23 0 29 1;
#X connect 24 0 30 1;
#X connect 26 0 27 0;
#X connect 27 0 28 0;
#X connect 28 0 73 0;
#X connect 29 0 66 0;
#X connect 30 0 67 0;
#X connect 31 0 74 0;
#X connect 32 0 62 0;
#X connect 33 0 63 0;
#X connect 37 0 41 1;
#X connect 38 0 42 1;
#X connect 39 0 65 1;
#X connect 40 0 64 1;
#X connect 41 0 21 0;
#X connect 42 0 22 0;
#X connect 44 0 17 0;
#X connect 45 0 20 0;
#X connect 51 0 16 0;
#X connect 52 0 51 0;
#X connect 53 0 52 1;
#X connect 54 0 19 0;
#X connect 55 0 54 0;
#X connect 56 0 55 1;
#X connect 62 0 64 0;
#X connect 63 0 65 0;
#X connect 64 0 41 0;
#X connect 65 0 42 0;
#X connect 66 0 9 0;
#X connect 66 0 2 0;
#X connect 67 0 8 0;
#X connect 67 0 1 0;
#X connect 70 0 18 1;
#X connect 71 0 15 1;
#X connect 74 0 50 0;
#X connect 74 1 46 0;
#X connect 74 2 47 0;
#X connect 74 3 48 0;
#X connect 74 4 49 0;
#X connect 74 5 61 0;
#X coords 0 -1 1 1 140 155 2 380 275;
