#N canvas 986 204 398 417 12;
#X obj 10 10 inlet~;
#X obj 238 194 r \$0-res;
#X obj 206 259 *~;
#X obj 308 259 *~;
#X obj 238 216 sig~;
#X obj 238 240 lop~ 1;
#X obj 206 330 snake~, f 15;
#X text 26 319 Author: Martin Heinze;
#X obj 206 60 expr 1000 / $f1;
#X obj 206 36 mtof;
#X obj 206 84 sig~;
#X obj 23 214 hsl 65 18 0 0.9 0 0 \$0-res \$0-resinit FDBACK 14 9 0 12 #fcfcfc #7c7c7c #000000 0 1;
#X obj 326 75 sig~;
#X obj 326 99 lop~ 1;
#X obj 308 283 hip~ 10;
#X obj 206 283 hip~ 10;
#X obj 63 10 r~ \$0-fed 2;
#X obj 308 150 delread4~ \$0-glitchr, f 10;
#X obj 206 150 delread4~ \$0-glitchl, f 10;
#X obj 63 34 snake~ out;
#X obj 308 127 -~;
#X obj 206 10 inlet note;
#X text 12 249 Glitztune tunes audio input to a given MIDI note by using very short delay lines., f 23;
#X obj 326 53 r \$0-det;
#X obj 23 192 hsl 65 18 -0.5 0.5 0 0 \$0-det \$0-detinit DETUNE 14 9 0 12 #fcfcfc #7c7c7c #000000 0 1;
#X obj 206 384 outlet~;
#N canvas 707 383 190 144 preset 0;
#X obj 13 13 loadbang;
#X obj 13 61 unpack f f;
#X obj 80 108 s \$0-resinit;
#X obj 13 85 s \$0-detinit;
#X msg 13 37 -0.3 0.8;
#X connect 0 0 4 0;
#X connect 1 0 3 0;
#X connect 1 1 2 0;
#X connect 4 0 1 0;
#X restore 10 112 pd preset;
#X obj 20 62 delwrite~ \$0-glitchl 50;
#X obj 10 85 delwrite~ \$0-glitchr 50;
#X obj 216 357 s~ \$0-fed 2;
#X obj 206 307 lop~ 16000;
#X obj 308 307 lop~ 16000;
#X obj 10 135 block~ 64 0 128;
#X text 26 335 Last updated 30.07.24;
#X floatatom 94 192 4 0 0 0 - \$0-det \$0-dummy 0;
#X floatatom 94 214 4 0 0 0 - \$0-res \$0-dummy 0;
#X text 19 168 == GLITZTUNE ==;
#X obj 206 108 lop~ 5;
#X connect 0 0 27 0;
#X connect 0 0 28 0;
#X connect 1 0 4 0;
#X connect 2 0 15 0;
#X connect 3 0 14 0;
#X connect 4 0 5 0;
#X connect 5 0 2 1;
#X connect 5 0 3 1;
#X connect 6 0 25 0;
#X connect 6 0 29 0;
#X connect 8 0 10 0;
#X connect 9 0 8 0;
#X connect 10 0 37 0;
#X connect 12 0 13 0;
#X connect 13 0 20 1;
#X connect 14 0 31 0;
#X connect 15 0 30 0;
#X connect 16 0 19 0;
#X connect 17 0 3 0;
#X connect 18 0 2 0;
#X connect 19 0 27 0;
#X connect 19 1 28 0;
#X connect 20 0 17 0;
#X connect 21 0 9 0;
#X connect 23 0 12 0;
#X connect 30 0 6 0;
#X connect 31 0 6 1;
#X connect 37 0 20 0;
#X connect 37 0 18 0;
#X coords 0 -1 1 1 125 75 2 10 165;
