#N canvas 768 203 415 592 12;
#X obj 10 10 inlet~;
#X obj 238 194 r \$0-res;
#X obj 206 259 *~;
#X obj 308 259 *~;
#X obj 238 216 sig~;
#X obj 238 240 lop~ 1;
#X obj 206 356 snake~, f 15;
#X text 26 349 Author: Martin Heinze;
#X obj 206 60 expr 1000 / $f1;
#X obj 206 36 mtof;
#X obj 206 84 sig~;
#X obj 23 214 hsl 65 18 0.7 0.99 0 0 \$0-res \$0-resinit FDBACK 14 9 0 12 #fcfcfc #7c7c7c #000000 0 1;
#X obj 326 75 sig~;
#X obj 326 99 lop~ 1;
#X obj 308 283 hip~ 10;
#X obj 206 283 hip~ 10;
#X obj 63 10 r~ \$0-fed 2;
#X obj 308 150 delread4~ \$0-glitchr, f 10;
#X obj 206 150 delread4~ \$0-glitchl, f 10;
#X obj 63 34 snake~ out;
#X obj 308 127 -~;
#X obj 206 10 inlet note;
#X text 12 279 Glitztune tunes audio input to a given MIDI note by using very short delay lines., f 23;
#X obj 326 53 r \$0-det;
#X obj 23 192 hsl 65 18 -0.2 0.2 0 0 \$0-det \$0-detinit DETUNE 14 9 0 12 #fcfcfc #7c7c7c #000000 0 1;
#X obj 206 558 outlet~;
#N canvas 707 383 219 170 preset 0;
#X obj 13 13 loadbang;
#X obj 53 108 s \$0-resinit;
#X obj 13 85 s \$0-detinit;
#X obj 13 61 unpack f f f;
#X obj 94 131 s \$0-drywetinit;
#X msg 13 37 -0.15 0.8 0.8;
#X connect 0 0 5 0;
#X connect 3 0 2 0;
#X connect 3 1 1 0;
#X connect 3 2 4 0;
#X connect 5 0 3 0;
#X restore 10 135 pd preset;
#X obj 30 62 delwrite~ \$0-glitchl 50;
#X obj 20 85 delwrite~ \$0-glitchr 50;
#X obj 216 383 s~ \$0-fed 2;
#X obj 206 307 lop~ 16000;
#X obj 308 307 lop~ 16000;
#X obj 84 113 block~ 64 0 128;
#X floatatom 94 192 4 0 0 0 - \$0-det \$0-dummy 0;
#X floatatom 94 214 4 0 0 0 - \$0-res \$0-dummy 0;
#X text 19 168 == GLITZTUNE ==;
#X obj 206 108 lop~ 50;
#X obj 10 113 s~ \$0-dry;
#X obj 308 408 r~ \$0-dry;
#X obj 23 236 hsl 65 18 0 1 0 0 \$0-drywet \$0-drywetinit DRY/WET 14 9 0 12 #fcfcfc #7c7c7c #000000 0 1;
#X floatatom 94 236 4 0 1 0 - \$0-drywet \$0-dummy 0;
#X obj 224 415 r \$0-drywet;
#X obj 224 439 sig~;
#X obj 224 463 lop~ 1;
#X obj 308 431 snake~;
#X obj 326 458 sig~ 1;
#X obj 326 482 -~;
#X obj 206 526 *~;
#X obj 308 529 *~;
#X obj 206 331 clip~ -1 1;
#X obj 308 331 clip~ -1 1;
#X obj 224 487 sqrt~;
#X obj 326 506 sqrt~;
#X text 26 365 Last updated 02.08.24;
#X connect 0 0 27 0;
#X connect 0 0 28 0;
#X connect 0 0 37 0;
#X connect 1 0 4 0;
#X connect 2 0 15 0;
#X connect 3 0 14 0;
#X connect 4 0 5 0;
#X connect 5 0 2 1;
#X connect 5 0 3 1;
#X connect 6 0 29 0;
#X connect 6 0 47 0;
#X connect 8 0 10 0;
#X connect 9 0 8 0;
#X connect 10 0 36 0;
#X connect 12 0 13 0;
#X connect 13 0 20 1;
#X connect 14 0 31 0;
#X connect 15 0 30 0;
#X connect 16 0 19 0;
#X connect 17 0 3 0;
#X connect 18 0 2 0;
#X connect 19 0 27 0;
#X connect 19 1 28 0;
#X connect 20 0 17 0;
#X connect 21 0 9 0;
#X connect 23 0 12 0;
#X connect 30 0 49 0;
#X connect 31 0 50 0;
#X connect 36 0 20 0;
#X connect 36 0 18 0;
#X connect 38 0 44 0;
#X connect 38 0 44 1;
#X connect 41 0 42 0;
#X connect 42 0 43 0;
#X connect 43 0 46 1;
#X connect 43 0 51 0;
#X connect 44 0 48 0;
#X connect 45 0 46 0;
#X connect 46 0 52 0;
#X connect 47 0 25 0;
#X connect 48 0 25 0;
#X connect 49 0 6 0;
#X connect 50 0 6 1;
#X connect 51 0 47 1;
#X connect 52 0 48 1;
#X coords 0 -1 1 1 125 95 2 10 165;
