#N canvas 816 116 768 653 12;
#X obj 216 75 inlet~;
#X obj 215 610 outlet~;
#X obj 22 610 outlet~;
#X obj 389 26 inlet;
#X obj 59 26 r \$0-buflen;
#X msg 59 50 \$1, f 2;
#X obj 251 26 r \$0-buflen;
#X msg 251 50 \$1, f 2;
#X obj 225 581 s~ \$0-goutr;
#X obj 32 581 s~ \$0-goutl;
#X obj 280 75 r~ \$0-goutr;
#X obj 280 101 r~ \$0-goutl;
#X obj 24 75 inlet~;
#X obj 88 75 r~ \$0-goutr;
#X obj 88 101 r~ \$0-goutl;
#X obj 24 481 *~;
#X obj 42 454 line;
#X obj 23 555 hip~ 5;
#X obj 42 366 tgl 19 0 empty empty empty 0 -10 0 12 #fcfcfc #000000 #000000 0 1;
#X obj 216 481 *~;
#X obj 234 454 line;
#X obj 215 555 hip~ 5;
#X obj 234 366 tgl 19 0 empty empty empty 0 -10 0 12 #fcfcfc #000000 #000000 0 1;
#X obj 24 310 delread4~ \$0-glitchl;
#X obj 216 310 delread4~ \$0-glitchr;
#X obj 41 505 r \$0-res;
#X obj 233 505 r \$0-res;
#X obj 392 429 hsl 48 16 0.005 0.45 1 0 \$0-res \$0-resinit Feedback -2 -10 0 12 #fcfcfc #000000 #000000 0 1;
#X floatatom 389 338 5 10 10000 1 Buffer\ length \$0-bufleninit \$0-buflen 12;
#X obj 553 26 loadbang;
#X obj 553 51 bng 20 250 50 0 empty empty empty 0 -10 0 12 #fcfcfc #000000 #000000;
#X obj 553 76 f \$0;
#X obj 23 530 *~;
#X obj 215 530 *~;
#X listbox 389 51 20 0 0 0 - - - 0;
#X obj 23 161 r \$0-phspl;
#X obj 215 161 r \$0-phspr;
#X floatatom 389 290 5 -10 10 1 Phase\ Speed\ L \$0-phsplinit \$0-phspl 12;
#X floatatom 389 313 5 -10 10 1 Phase\ Speed\ R \$0-phsprinit \$0-phspr 12;
#X floatatom 389 385 5 0 100 1 Buffer\ Offset \$0-bufofsinit \$0-bufofs 12;
#X obj 42 261 r \$0-bufofs;
#X obj 234 261 r \$0-bufofs;
#X obj 234 211 r \$0-buf;
#X obj 42 211 r \$0-buf;
#X obj 24 285 +~;
#X obj 216 285 +~;
#X floatatom 389 361 5 10 10000 1 Buffer \$0-bufinit \$0-buf 12;
#X obj 42 342 inlet;
#X obj 234 342 inlet;
#X obj 389 148 s \$0-phsplinit;
#X obj 389 172 s \$0-phsprinit;
#X obj 389 196 s \$0-bufofsinit;
#X obj 389 220 s \$0-bufinit;
#X obj 389 100 s \$0-resinit;
#X obj 389 124 s \$0-bufleninit;
#X msg 42 430 \$1 \$2;
#X obj 42 407 pack;
#X obj 67 381 r \$0-smoo;
#X msg 234 430 \$1 \$2;
#X obj 234 407 pack;
#X obj 259 381 r \$0-smoo;
#X obj 462 429 hsl 48 16 20 200 1 0 \$0-smoo \$0-smooinit Smooth -2 -10 0 12 #fcfcfc #000000 #000000 0 1;
#X msg 553 101 \; \$1-resinit 0.4 \; \$1-bufleninit 1000 \; \$1-phsplinit 0.2 \; \$1-phsprinit -0.3 \; \$1-bufofsinit 20 \; \$1-bufinit 100 \; \$1-smooinit 100;
#X text 555 273 Glitzher is a stereo delay unit that creates short delay glitch dub effects \, whatever that means. Last updated 22.08.23, f 21;
#X text 434 25 Preset inlet;
#X text 83 341 Activate L;
#X text 276 341 Activate R;
#X obj 389 245 s \$0-smooinit;
#X obj 389 75 unpack f f f f f f f;
#X obj 23 186 phasor~;
#X obj 215 186 phasor~;
#X obj 24 236 *~;
#X obj 216 236 *~;
#X floatatom 83 186 5 0 0 0 - - - 0;
#X obj 215 127 delwrite~ \$0-glitchr 100;
#X obj 23 127 delwrite~ \$0-glitchl 100;
#X connect 0 0 74 0;
#X connect 3 0 34 0;
#X connect 4 0 5 0;
#X connect 5 0 75 0;
#X connect 6 0 7 0;
#X connect 7 0 74 0;
#X connect 10 0 74 0;
#X connect 11 0 74 0;
#X connect 12 0 75 0;
#X connect 13 0 75 0;
#X connect 14 0 75 0;
#X connect 15 0 32 0;
#X connect 16 0 15 1;
#X connect 17 0 9 0;
#X connect 17 0 2 0;
#X connect 18 0 56 0;
#X connect 19 0 33 0;
#X connect 20 0 19 1;
#X connect 21 0 8 0;
#X connect 21 0 1 0;
#X connect 22 0 59 0;
#X connect 23 0 15 0;
#X connect 24 0 19 0;
#X connect 25 0 32 1;
#X connect 26 0 33 1;
#X connect 29 0 30 0;
#X connect 30 0 31 0;
#X connect 31 0 62 0;
#X connect 32 0 17 0;
#X connect 33 0 21 0;
#X connect 34 0 68 0;
#X connect 35 0 69 0;
#X connect 35 0 73 0;
#X connect 36 0 70 0;
#X connect 40 0 44 1;
#X connect 41 0 45 1;
#X connect 42 0 72 1;
#X connect 43 0 71 1;
#X connect 44 0 23 0;
#X connect 45 0 24 0;
#X connect 47 0 18 0;
#X connect 48 0 22 0;
#X connect 55 0 16 0;
#X connect 56 0 55 0;
#X connect 57 0 56 1;
#X connect 58 0 20 0;
#X connect 59 0 58 0;
#X connect 60 0 59 1;
#X connect 68 0 53 0;
#X connect 68 1 54 0;
#X connect 68 2 49 0;
#X connect 68 3 50 0;
#X connect 68 4 51 0;
#X connect 68 5 52 0;
#X connect 68 6 67 0;
#X connect 69 0 71 0;
#X connect 70 0 72 0;
#X connect 71 0 44 0;
#X connect 72 0 45 0;
#X coords 0 -1 1 1 155 180 2 375 280;
