#N canvas 372 286 658 459 12;
#X obj 202 329 s~ \$0-goutr;
#X obj 22 329 s~ \$0-goutl;
#X obj 23 63 r~ \$0-goutl;
#X obj 13 253 *~;
#X obj 192 253 *~;
#X obj 192 170 delread4~ \$0-glitchr;
#X obj 421 347 vsl 20 65 0 0.99 0 0 \$0-fb \$0-fbin fB 5 -9 0 8 #ffc7c6 #000000 #000000 0 1;
#X obj 492 15 loadbang;
#X obj 13 279 *~;
#X obj 192 279 *~;
#X obj 31 206 inlet;
#X obj 210 206 inlet;
#X obj 13 303 hip~ 50;
#X obj 192 303 hip~ 50;
#N canvas 806 401 233 138 presetprinter 0;
#X obj 74 33 t b f;
#X obj 153 33 t b f;
#X obj 7 82 list store;
#X obj 9 10 r \$0-fb;
#X obj 74 10 r \$0-lbuf;
#X obj 153 10 r \$0-rbuf;
#X obj 74 58 pack f f f, f 11;
#X obj 7 105 print \$0-glitzem2-Preset;
#X obj 7 59 inlet;
#X connect 0 0 6 0;
#X connect 0 1 6 1;
#X connect 1 0 6 0;
#X connect 1 1 6 2;
#X connect 2 0 7 0;
#X connect 3 0 6 0;
#X connect 4 0 0 0;
#X connect 5 0 1 0;
#X connect 6 0 2 1;
#X connect 8 0 2 0;
#X restore 399 225 pd presetprinter;
#X obj 399 201 bng 19 250 50 0 empty empty Prntr 22 8 0 10 #fcfcfc #000000 #000000;
#X obj 13 170 delread4~ \$0-glitchl;
#X obj 115 260 lop~ 1;
#X obj 201 63 r~ \$0-goutr;
#X obj 13 383 snake~, f 26;
#X text 463 405 Author: Martin Heinze;
#X listbox 399 67 13 0 0 0 - - - 0;
#X obj 192 146 lop~ 1;
#X obj 13 147 lop~ 1;
#X obj 13 120 r \$0-lbuf;
#X obj 359 348 vsl 20 65 0.5 50 1 0 \$0-lbuf \$0-lbufin lB 5 -9 0 8 #fcfcfc #000000 #000000 0 1;
#X obj 192 120 r \$0-rbuf;
#X obj 387 348 vsl 20 65 0.5 50 1 0 \$0-rbuf \$0-rbufin rB 5 -9 0 8 #fcfcfc #000000 #000000 0 1;
#X obj 13 39 snake~ out, f 26;
#X obj 13 87 delwrite~ \$0-glitchl 50;
#X obj 192 87 delwrite~ \$0-glitchr 50;
#X obj 399 141 s \$0-lbufin;
#X obj 399 165 s \$0-rbufin;
#X obj 115 234 r \$0-fb;
#X obj 399 117 s \$0-fbin;
#X floatatom 359 421 4 0 0 0 - \$0-lbuf \$0-lbufdummy 8;
#X floatatom 386 421 4 0 0 0 - \$0-rbuf \$0-rbufdummy 8;
#X floatatom 421 421 4 0 0 0 - \$0-fb \$0-fbdummy 8;
#X text 360 303 GLITZ'EM 2;
#X text 360 313 ==========;
#X msg 492 36 0.8 1.2 4.7;
#X obj 399 15 inlet Preset;
#X obj 399 92 unpack f f f;
#X obj 13 408 outlet~;
#X obj 13 15 inlet~ Signal;
#X obj 31 230 lop~ 100;
#X obj 210 230 lop~ 100;
#X text 463 419 Last updated 19.01.25;
#X text 463 304 Glitz'em 2 is a stereo in/out flanger delay unit that creates very short glitch fx \, whatever that means., f 21;
#X connect 2 0 29 0;
#X connect 3 0 8 0;
#X connect 4 0 9 0;
#X connect 5 0 4 0;
#X connect 7 0 40 0;
#X connect 8 0 12 0;
#X connect 9 0 13 0;
#X connect 10 0 45 0;
#X connect 11 0 46 0;
#X connect 12 0 1 0;
#X connect 12 0 19 0;
#X connect 13 0 0 0;
#X connect 13 0 19 1;
#X connect 15 0 14 0;
#X connect 16 0 3 0;
#X connect 17 0 8 1;
#X connect 17 0 9 1;
#X connect 18 0 30 0;
#X connect 19 0 43 0;
#X connect 21 0 42 0;
#X connect 22 0 5 0;
#X connect 23 0 16 0;
#X connect 24 0 23 0;
#X connect 26 0 22 0;
#X connect 28 0 29 0;
#X connect 28 1 30 0;
#X connect 33 0 17 0;
#X connect 40 0 21 0;
#X connect 41 0 21 0;
#X connect 42 0 34 0;
#X connect 42 1 31 0;
#X connect 42 2 32 0;
#X connect 44 0 28 0;
#X connect 45 0 3 1;
#X connect 46 0 4 1;
#X coords 0 -1 1 1 100 140 2 350 300;
