#N canvas 755 262 715 605 12;
#X obj 14 573 outlet~;
#X obj 17 42 inlet~;
#X obj 14 404 *~;
#X obj 179 404 *~;
#X obj 116 395 r \$0-res;
#X obj 14 460 *~;
#X obj 179 460 *~;
#X obj 52 337 inlet;
#X obj 52 361 sig~;
#X obj 116 417 sig~;
#X obj 116 441 lop~ 1;
#X obj 52 385 lop~ 10;
#X obj 14 508 snake~, f 24;
#X text 542 176 Author: Martin Heinze;
#X text 542 190 Last updated 29.07.24;
#X obj 333 156 expr 1000 / $f1;
#X obj 332 141 mtof;
#X text 542 135 Glitztune, f 21;
#X obj 333 179 sig~;
#X obj 541 234 hsl 48 16 0 0.99 0 0 \$0-res \$0-resinit Fdback 53 8 0 10 #fcfcfc #000000 #000000 0 1;
#X obj 333 254 s~ \$0-buf;
#X obj 14 260 r~ \$0-buf;
#X floatatom 197 179 5 0 0 0 - - - 0;
#X obj 197 202 / 1000;
#X obj 197 226 sig~;
#X obj 197 250 lop~ 1;
#X obj 179 484 hip~ 10;
#X obj 14 484 hip~ 10;
#X obj 24 537 s~ \$0-fed 2;
#X obj 70 42 r~ \$0-fed 2;
#X obj 17 127 delwrite~ \$0-glitchr 200;
#X obj 27 104 delwrite~ \$0-glitchl 200;
#X obj 179 305 delread4~ \$0-glitchr;
#X obj 14 305 delread4~ \$0-glitchl;
#X obj 70 66 snake~ out;
#X obj 179 278 -~;
#X obj 332 92 inlet;
#X floatatom 332 116 5 0 0 0 - - - 0;
#X obj 333 230 lop~ 100;
#X connect 1 0 30 0;
#X connect 1 0 31 0;
#X connect 2 0 5 0;
#X connect 3 0 6 0;
#X connect 4 0 9 0;
#X connect 5 0 27 0;
#X connect 6 0 26 0;
#X connect 7 0 8 0;
#X connect 8 0 11 0;
#X connect 9 0 10 0;
#X connect 10 0 5 1;
#X connect 10 0 6 1;
#X connect 11 0 2 1;
#X connect 11 0 3 1;
#X connect 12 0 0 0;
#X connect 12 0 28 0;
#X connect 15 0 18 0;
#X connect 16 0 15 0;
#X connect 18 0 38 0;
#X connect 21 0 33 0;
#X connect 21 0 35 0;
#X connect 22 0 23 0;
#X connect 23 0 24 0;
#X connect 24 0 25 0;
#X connect 25 0 35 1;
#X connect 26 0 12 1;
#X connect 27 0 12 0;
#X connect 29 0 34 0;
#X connect 32 0 3 0;
#X connect 33 0 2 0;
#X connect 34 0 31 0;
#X connect 34 1 30 0;
#X connect 35 0 32 0;
#X connect 36 0 37 0;
#X connect 37 0 16 0;
#X connect 38 0 20 0;
#X coords 0 605 1 604 110 140 0;
