#N canvas 385 191 904 263 12;
#X msg 66 126 start;
#X msg 20 126 stop;
#X msg 52 78 open -bytes 4 \$1;
#X obj 20 101 sel 0, f 7;
#X obj 20 33 t f f;
#N canvas 571 300 424 306 filenamegen 0;
#X obj 25 15 inlet;
#X obj 25 99 pdcontrol;
#X msg 25 145 set \$1;
#X obj 25 241 makefilename;
#X obj 25 52 sel 1;
#X obj 36 174 bng 19 250 50 0 empty empty empty 0 -10 0 12 #fcfcfc #000000 #000000;
#N canvas 735 115 428 353 concatdatetime 0;
#X obj 19 322 outlet;
#N canvas 136 388 173 168 filename 0;
#X obj 17 14 inlet;
#X msg 17 38 set \$1;
#X obj 17 102 makefilename;
#X obj 17 126 outlet;
#X obj 101 14 inlet;
#X connect 0 0 1 0;
#X connect 1 0 2 0;
#X connect 2 0 3 0;
#X connect 4 0 2 0;
#X restore 107 209 pd filename;
#N canvas 136 388 173 168 filename 0;
#X obj 17 14 inlet;
#X msg 17 38 set \$1;
#X obj 17 102 makefilename;
#X obj 17 126 outlet;
#X obj 101 14 inlet;
#X connect 0 0 1 0;
#X connect 1 0 2 0;
#X connect 2 0 3 0;
#X connect 4 0 2 0;
#X restore 107 182 pd filename;
#X obj 107 130 unpack f f f;
#N canvas 136 388 173 168 filename 0;
#X obj 17 14 inlet;
#X msg 17 38 set \$1;
#X obj 17 102 makefilename;
#X obj 17 126 outlet;
#X obj 101 14 inlet;
#X connect 0 0 1 0;
#X connect 1 0 2 0;
#X connect 2 0 3 0;
#X connect 4 0 2 0;
#X restore 19 130 pd filename;
#N canvas 136 388 173 168 filename 0;
#X obj 17 14 inlet;
#X msg 17 38 set \$1;
#X obj 17 102 makefilename;
#X obj 17 126 outlet;
#X obj 101 14 inlet;
#X connect 0 0 1 0;
#X connect 1 0 2 0;
#X connect 2 0 3 0;
#X connect 4 0 2 0;
#X restore 19 263 pd filename;
#X text 276 156 Concatenate yymmdd;
#X obj 19 48 else/datetime;
#X obj 19 14 inlet;
#X text 62 14 Input Bang;
#N canvas 136 388 173 168 filename 0;
#X obj 17 14 inlet;
#X msg 17 38 set \$1;
#X obj 17 102 makefilename;
#X obj 17 126 outlet;
#X obj 101 14 inlet;
#X connect 0 0 1 0;
#X connect 1 0 2 0;
#X connect 2 0 3 0;
#X connect 4 0 2 0;
#X restore 19 157 pd filename;
#X obj 19 78 unpack f f f;
#X text 188 103 Concatenate hhmmss, f 19;
#X listbox 19 287 20 0 0 0 - - - 0;
#X text 121 47 Requires porres' ELSE external;
#X obj 19 236 makefilename %s_%%s;
#X text 162 235 Concatenate to yymmdd_hhmmss;
#X obj 19 104 makefilename %%%%d%%d%d;
#X obj 107 157 makefilename %%%%d%%d%d;
#X connect 1 0 15 0;
#X connect 2 0 1 0;
#X connect 3 0 1 1;
#X connect 3 1 2 1;
#X connect 3 2 18 0;
#X connect 4 0 10 0;
#X connect 5 0 13 0;
#X connect 7 0 11 0;
#X connect 7 1 3 0;
#X connect 8 0 7 0;
#X connect 10 0 5 1;
#X connect 11 0 10 1;
#X connect 11 1 4 1;
#X connect 11 2 17 0;
#X connect 13 0 0 0;
#X connect 15 0 5 0;
#X connect 17 0 4 0;
#X connect 18 0 2 0;
#X restore 59 174 pd concatdatetime;
#X obj 196 174 bng 19 250 50 0 empty empty empty 0 -10 0 12 #fcfcfc #000000 #000000;
#X obj 219 174 random 10000;
#X floatatom 219 197 5 0 0 0 - - - 0;
#X text 216 222 Connect random number generator to makefilename object instead \, if ELSE is missing, f 27;
#X obj 25 265 outlet;
#X msg 25 76 dir 1;
#X obj 25 122 makefilename %s/rec-16tracks_%%s.wav;
#X connect 0 0 4 0;
#X connect 1 0 13 0;
#X connect 2 0 3 0;
#X connect 2 0 5 0;
#X connect 2 0 7 0;
#X connect 3 0 11 0;
#X connect 4 0 12 0;
#X connect 5 0 6 0;
#X connect 6 0 3 0;
#X connect 7 0 8 0;
#X connect 8 0 9 0;
#X connect 12 0 1 0;
#X connect 13 0 2 0;
#X restore 52 55 pd filenamegen;
#X obj 84 199 inlet~;
#X obj 134 199 inlet~;
#X obj 185 199 inlet~;
#X obj 235 199 inlet~;
#X obj 286 199 inlet~;
#X obj 337 199 inlet~;
#X obj 388 199 inlet~;
#X obj 438 199 inlet~;
#X obj 20 199 r \$0-dat;
#X obj 20 150 s \$0-dat;
#X text 436 94 Author: Martin Heinze, f 23;
#X obj 20 9 inlet;
#X text 205 54 First inlet toggles recording. All other inlets are for audio channels., f 56;
#X obj 84 223 writesf~ 16, f 109;
#X obj 489 198 inlet~;
#X obj 540 198 inlet~;
#X obj 590 198 inlet~;
#X obj 641 198 inlet~;
#X obj 692 198 inlet~;
#X obj 742 198 inlet~;
#X obj 793 198 inlet~;
#X obj 844 198 inlet~;
#X text 205 8 hd_recorder_16 is a simple 16 track hard disk recorder abstraction. Files are stored with time stamp in file name (dependency: ELSE library \, retrieve via deken)., f 56;
#X text 436 114 Last changed: 10.10.25, f 23;
#X connect 0 0 15 0;
#X connect 1 0 15 0;
#X connect 2 0 15 0;
#X connect 3 0 1 0;
#X connect 3 1 0 0;
#X connect 4 0 3 0;
#X connect 4 1 5 0;
#X connect 5 0 2 0;
#X connect 6 0 19 0;
#X connect 7 0 19 1;
#X connect 8 0 19 2;
#X connect 9 0 19 3;
#X connect 10 0 19 4;
#X connect 11 0 19 5;
#X connect 12 0 19 6;
#X connect 13 0 19 7;
#X connect 14 0 19 0;
#X connect 17 0 4 0;
#X connect 20 0 19 8;
#X connect 21 0 19 9;
#X connect 22 0 19 10;
#X connect 23 0 19 11;
#X connect 24 0 19 12;
#X connect 25 0 19 13;
#X connect 26 0 19 14;
#X connect 27 0 19 15;
