#N canvas 408 177 1009 598 12;
#N canvas 116 371 171 59 loader 0;
#N canvas 449 595 450 300 modelloader_0 0;
#X obj 20 20 r~ ld1;
#X obj 70 20 r~ ld2;
#X obj 120 20 r~ ld3;
#X obj 170 20 r~ ld4;
#X obj 20 200 s~ left;
#X obj 90 200 s~ right;
#X obj 20 100 nn~ /Users/portal/Documents/GitHub/PD-playground/2024/240202--hotswap-with-file/models/VCTK.ts decode;
#X connect 0 0 6 0;
#X connect 1 0 6 1;
#X connect 2 0 6 2;
#X connect 3 0 6 3;
#X connect 6 0 4 0;
#X connect 6 1 5 0;
#X restore 20 20 pd modelloader_0;
#X restore 359 546 pd loader;
#X text 430 545 <- Model load inside;
#X msg 359 107 \; pd-loader clear \; pd-loader obj 20 20 pd modelloader_\$1 \; pd-modelloader_\$1 obj 20 20 r~ ld1 \; pd-modelloader_\$1 obj 70 20 r~ ld2 \; pd-modelloader_\$1 obj 120 20 r~ ld3 \; pd-modelloader_\$1 obj 170 20 r~ ld4 \; pd-modelloader_\$1 obj 20 200 s~ left \; pd-modelloader_\$1 obj 90 200 s~ right \; mbang \$1 \; pd-modelloader_\$1 menuclose;
#X symbolatom 359 16 10 0 0 0 - \$0-sfoldinit - 0;
#X listbox 708 197 20 0 0 2 Model\ name \$0-modelname \$0-modelnamedummy 8;
#X obj 359 82 r \$0-selector;
#X obj 711 221 hsl 150 16 0 10 0 0 \$0-slsel \$0-slselinit Model\ select 45 9 0 8 #fcfcfc #000000 #000000 0 1;
#N canvas 565 569 163 225 sliderconf 0;
#X msg 18 37 range 0 \$1;
#X obj 18 113 i;
#X floatatom 18 137 5 0 0 0 - - - 0;
#X obj 18 89 r \$0-slsel;
#X obj 18 183 s \$0-selector;
#X obj 18 61 s \$0-slselinit;
#X obj 18 160 change;
#X obj 18 15 r \$0-modelcount;
#X connect 0 0 5 0;
#X connect 1 0 2 0;
#X connect 2 0 6 0;
#X connect 3 0 1 0;
#X connect 6 0 4 0;
#X connect 7 0 0 0;
#X restore 708 254 pd sliderconf;
#X obj 334 428 t b a;
#N canvas 378 350 442 295 connectors 0;
#X obj 253 16 inlet;
#X obj 253 45 bng 19 250 50 0 empty empty empty 0 -10 0 12 #fcfcfc #000000 #000000;
#X obj 253 122 until;
#X obj 253 98 i 4;
#X obj 253 170 + 1;
#X obj 253 194 mod 4;
#X obj 253 146 i;
#X msg 296 127 -1, f 2;
#X obj 253 69 t b b;
#X msg 253 220 connect \$1 0 6 \$1;
#X msg 20 220 connect 6 0 4 0;
#X msg 135 220 connect 6 1 5 0;
#X obj 253 255 outlet;
#X connect 0 0 1 0;
#X connect 1 0 8 0;
#X connect 2 0 6 0;
#X connect 3 0 2 0;
#X connect 4 0 5 0;
#X connect 5 0 6 1;
#X connect 5 0 9 0;
#X connect 6 0 4 0;
#X connect 7 0 6 1;
#X connect 8 0 3 0;
#X connect 8 0 10 0;
#X connect 8 0 11 0;
#X connect 8 1 7 0;
#X connect 9 0 12 0;
#X connect 10 0 12 0;
#X connect 11 0 12 0;
#X restore 334 456 pd connectors;
#X obj 391 481 makefilename pd-modelloader_%s;
#X obj 366 504 s \$1;
#X msg 334 405 obj 20 100 nn~ \$1 decode;
#X obj 308 355 list split 1;
#X obj 359 282 r mbang;
#X obj 359 306 t f f;
#X obj 308 379 s \$0-modelname;
#X obj 308 331 text get \$0-models;
#X text 55 183 Spawn 4 signal receives \, 2 signal sends ->;
#X text 97 233 Bang triggers nn~ object spawning ->;
#X text 6 137 Create model loader sub patch within pd loader ->;
#N canvas 425 168 424 655 scanner 0;
#X obj 20 15 inlet;
#X obj 21 210 file glob;
#X msg 21 234 \$2 \$1;
#X obj 21 258 route 0;
#X obj 21 137 file patchpath;
#X msg 21 186 symbol \$1/*.ts;
#X obj 21 306 symbol;
#X obj 21 161 t a a, f 6;
#X obj 21 330 file splitext;
#X obj 21 379 route ts;
#X msg 21 354 \$2 \$1;
#X obj 21 404 symbol;
#X msg 102 452 symbol \$1;
#X obj 21 452 list trim;
#X obj 21 476 route symbol;
#X obj 21 428 file splitname;
#X obj 21 500 t a b, f 6;
#X obj 90 548 + 1;
#X obj 21 64 t a b;
#X msg 53 88 -1;
#X obj 90 524 i 0;
#X obj 21 573 bng 19 250 50 0 empty empty empty 0 -10 0 12 #fcfcfc #000000 #000000;
#X obj 21 282 t a a;
#X obj 51 548 list;
#X msg 21 40 symbol \$1;
#X obj 245 15 r \$0-showtext;
#X msg 245 137 click;
#X msg 295 137 close;
#X obj 21 621 s \$0-modelcount;
#X obj 245 161 text define \$0-models;
#X obj 51 573 text set \$0-models;
#X obj 21 597 text size \$0-models;
#X obj 53 112 text delete \$0-models;
#X obj 245 40 i;
#X obj 245 64 + 1;
#X obj 245 88 mod 2;
#X obj 245 112 sel 1;
#X connect 0 0 24 0;
#X connect 1 0 2 0;
#X connect 2 0 3 0;
#X connect 3 0 22 0;
#X connect 4 0 7 0;
#X connect 5 0 1 0;
#X connect 6 0 8 0;
#X connect 7 0 5 0;
#X connect 7 1 12 0;
#X connect 8 0 10 0;
#X connect 9 0 11 0;
#X connect 10 0 9 0;
#X connect 11 0 15 0;
#X connect 12 0 14 1;
#X connect 13 0 14 0;
#X connect 14 0 16 0;
#X connect 15 0 13 0;
#X connect 16 0 23 0;
#X connect 16 0 21 0;
#X connect 16 1 20 0;
#X connect 17 0 20 1;
#X connect 17 0 30 1;
#X connect 18 0 4 0;
#X connect 18 1 19 0;
#X connect 19 0 32 0;
#X connect 20 0 17 0;
#X connect 21 0 31 0;
#X connect 22 0 6 0;
#X connect 22 1 23 1;
#X connect 23 0 30 0;
#X connect 24 0 18 0;
#X connect 25 0 33 0;
#X connect 26 0 29 0;
#X connect 27 0 29 0;
#X connect 31 0 28 0;
#X connect 33 0 34 0;
#X connect 34 0 35 0;
#X connect 35 0 33 1;
#X connect 35 0 36 0;
#X connect 36 0 26 0;
#X connect 36 1 27 0;
#X restore 359 46 pd scanner;
#X text 83 15 Model subfolder name. "." for root. ->;
#X text 172 455 Connect all objects ->;
#X text 73 404 Spawn nn~ object with decode arg. ->;
#X obj 708 127 inlet~;
#X obj 708 154 s~ ld1;
#X obj 758 154 s~ ld2;
#X obj 808 154 s~ ld3;
#X obj 858 154 s~ ld4;
#X obj 708 283 r~ left;
#X obj 808 283 r~ right;
#X obj 758 127 inlet~;
#X obj 808 127 inlet~;
#X obj 858 127 inlet~;
#X obj 708 307 outlet~;
#X obj 808 307 outlet~;
#X text 435 45 <- Model scan inside;
#X obj 815 197 bng 14 250 50 0 \$0-showtext \$0-showtextinit Show\ list 0 -7 0 8 #fcfcfc #000000 #000000;
#X obj 708 16 loadbang;
#X obj 708 40 i \$0;
#X obj 775 16 bng 19 250 50 0 empty empty empty 0 -10 0 12 #fcfcfc #000000 #000000;
#X msg 708 64 \; \$1-sfoldinit symbol models \; \$1-slselinit 0;
#X text 707 343 Hotswapper is a dynamic patching solution for loading/ swapping nn~ compatible neural audio models. A given sub folder to the main patch (or root folder) is being scanned for .ts files \; name and path are being written into a text object \, selection is enabled via Model select slider. On selecting a model \, a sub patch in pd loader is being spawned with 4 signal inlets to nn~ decoder and 2 signal outlets (audio out) and connections., f 36;
#X text 707 546 Last updated: 10.02.2024 Author: Martin Heinze, f 26;
#X connect 3 0 21 0;
#X connect 5 0 2 0;
#X connect 8 0 9 0;
#X connect 8 1 11 0;
#X connect 9 0 11 0;
#X connect 10 0 11 1;
#X connect 12 0 8 0;
#X connect 13 0 16 0;
#X connect 13 1 12 0;
#X connect 14 0 15 0;
#X connect 15 0 17 0;
#X connect 15 1 10 0;
#X connect 17 0 13 0;
#X connect 25 0 26 0;
#X connect 30 0 35 0;
#X connect 31 0 36 0;
#X connect 32 0 27 0;
#X connect 33 0 28 0;
#X connect 34 0 29 0;
#X connect 39 0 40 0;
#X connect 40 0 42 0;
#X connect 41 0 40 0;
#X coords 0 -1 1 1 170 65 2 700 180;
