#N canvas 215 68 569 344 12;
#N canvas 830 139 450 278 (subpatch) 0;
#X array \$0-rs_array 151200 float 2;
#X coords 0 1 151200 -1 200 75 2 0 0;
#X restore 20 109 graph;
#X symbolatom 38 189 19 0 0 0 - \$0-filename \$0-filenamedummy 10;
#N canvas 38 222 1404 617 sampleplayer 0;
#X obj 29 83 r \$0-slength;
#X obj 22 153 *;
#X obj 22 198 s \$0-tmeta;
#X obj 29 130 t b f;
#X floatatom 29 107 10 0 0 0 - - - 0;
#X floatatom 22 176 11 0 0 0 - - - 0;
#X floatatom 22 275 5 0 0 0 - - - 0;
#X obj 22 297 s \$0-b;
#X obj 22 530 env~;
#X obj 22 553 dbtorms;
#X obj 103 459 r \$0-slength;
#X obj 78 481 *~, f 4;
#X obj 78 530 *~;
#X obj 78 553 throw~ \$0-rs_bus;
#X obj 200 404 env~;
#X obj 200 425 dbtorms;
#X floatatom 200 446 5 0 0 0 - - - 0;
#X obj 200 469 vsl 19 85 0 1 0 0 empty empty empty 0 -9 0 12 #fcfcfc #000000 #000000 0 1;
#X text 62 274 b (bandwidth in octaves);
#X obj 1284 362 env~;
#X obj 1284 385 dbtorms;
#X obj 1287 409 hsl 85 19 0 1 0 0 \$0-meindic empty 1\ Metabar 10 10 0 12 #fcfcfc #000000 #000000 0 1;
#X obj 1284 339 r~ \$0-tet;
#X obj 1287 457 hsl 85 19 0 1 0 0 empty \$0-tlT0 Stream\ 0 12 10 0 12 #fcfcfc #000000 #000000 0 1;
#X obj 1287 481 hsl 85 19 0 1 0 0 empty \$0-tlT1 Stream\ 1 12 10 0 12 #fcfcfc #000000 #000000 0 1;
#X obj 1287 505 hsl 85 19 0 1 0 0 empty \$0-tlT2 Stream\ 2 12 10 0 12 #fcfcfc #000000 #000000 0 1;
#X obj 1287 529 hsl 85 19 0 1 0 0 empty \$0-tlT3 Stream\ 3 12 10 0 12 #fcfcfc #000000 #000000 0 1;
#X obj 1287 553 hsl 85 19 0 1 0 0 empty \$0-tlT4 Stream\ 4 12 10 0 12 #fcfcfc #000000 #000000 0 1;
#X obj 22 577 s \$0-tlT0;
#X obj 272 577 s \$0-tlT1;
#X obj 522 577 s \$0-tlT2;
#X obj 772 577 s \$0-tlT3;
#X obj 1022 577 s \$0-tlT4;
#X obj 22 385 snake~ out, f 11;
#X obj 22 455 phasor~, f 9;
#X obj 22 339 r~ \$0-tet;
#X obj 22 432 *~;
#X obj 50 433 sel 1;
#X obj 272 530 env~;
#X obj 272 553 dbtorms;
#X obj 353 459 r \$0-slength;
#X obj 328 481 *~, f 4;
#X obj 328 530 *~;
#X obj 328 553 throw~ \$0-rs_bus;
#X obj 448 404 env~;
#X obj 448 425 dbtorms;
#X floatatom 448 446 5 0 0 0 - - - 0;
#X obj 448 469 vsl 19 85 0 1 0 0 empty empty empty 0 -9 0 12 #fcfcfc #000000 #000000 0 1;
#X obj 272 385 snake~ out, f 11;
#X obj 272 455 phasor~, f 9;
#X obj 272 339 r~ \$0-tet;
#X obj 272 432 *~;
#X obj 300 433 sel 1;
#X obj 522 530 env~;
#X obj 522 553 dbtorms;
#X obj 603 459 r \$0-slength;
#X obj 578 481 *~, f 4;
#X obj 578 530 *~;
#X obj 578 553 throw~ \$0-rs_bus;
#X obj 698 404 env~;
#X obj 698 425 dbtorms;
#X floatatom 698 446 5 0 0 0 - - - 0;
#X obj 698 469 vsl 19 85 0 1 0 0 empty empty empty 0 -9 0 12 #fcfcfc #000000 #000000 0 1;
#X obj 522 385 snake~ out, f 11;
#X obj 522 455 phasor~, f 9;
#X obj 522 339 r~ \$0-tet;
#X obj 522 432 *~;
#X obj 550 433 sel 1;
#X obj 772 530 env~;
#X obj 772 553 dbtorms;
#X obj 853 459 r \$0-slength;
#X obj 828 481 *~, f 4;
#X obj 828 530 *~;
#X obj 828 553 throw~ \$0-rs_bus;
#X obj 948 404 env~;
#X obj 948 425 dbtorms;
#X floatatom 948 446 5 0 0 0 - - - 0;
#X obj 948 469 vsl 19 85 0 1 0 0 empty empty empty 0 -9 0 12 #fcfcfc #000000 #000000 0 1;
#X obj 772 385 snake~ out, f 11;
#X obj 772 455 phasor~, f 9;
#X obj 772 339 r~ \$0-tet;
#X obj 772 432 *~;
#X obj 800 433 sel 1;
#X obj 1022 530 env~;
#X obj 1022 553 dbtorms;
#X obj 1103 459 r \$0-slength;
#X obj 1078 481 *~, f 4;
#X obj 1078 530 *~;
#X obj 1078 553 throw~ \$0-rs_bus;
#X obj 1198 404 env~;
#X obj 1198 425 dbtorms;
#X floatatom 1198 446 5 0 0 0 - - - 0;
#X obj 1198 469 vsl 19 85 0 1 0 0 empty empty empty 0 -9 0 12 #fcfcfc #000000 #000000 0 1;
#X obj 1022 385 snake~ out, f 11;
#X obj 1022 455 phasor~, f 9;
#X obj 1022 339 r~ \$0-tet;
#X obj 1022 432 *~;
#X obj 1050 433 sel 1;
#X text 110 106 T (duration of original loop in samples);
#X text 112 175 τ (duration of metabar in samples);
#N canvas 744 88 591 621 stream_0 0;
#X obj 121 578 outlet~, f 8;
#X obj 12 33 r \$0-slength;
#X obj 12 131 /;
#X obj 22 104 t b f;
#X obj 22 81 r \$0-tmeta;
#X obj 119 196 *~;
#X obj 119 131 expr~ $v1+$v2;
#X obj 119 154 expr~ pow(2 \, $v1);
#X obj 12 57 expr $f1*ln(2);
#X obj 119 271 *~;
#X floatatom 12 154 13 0 0 0 - - - 0;
#X obj 12 177 sig~;
#X text 244 153 2^(te/τ)+v;
#X text 10 10 T*log2/τ;
#X text 16 258 Multiply with center rate, f 13;
#X obj 160 482 cos~;
#X obj 160 505 +~ 1;
#X obj 160 528 *~ 0.5;
#X obj 181 363 loadbang;
#X obj 181 387 expr 4*atan(1);
#X obj 181 411 t f f;
#X obj 181 435 * -1;
#X obj 160 460 clip~, f 8;
#X obj 160 290 expr~ $v1 / $v2;
#X obj 160 314 expr~ log($v1)/log(2);
#X text 167 386 π;
#X text 214 527 p(r) = 1/2 * (cos [π*b/2 * log2(r/rc)]/-π \, π/ + 1);
#X text 152 195 r(v \, te) = T*log2/τ * 2^(te/τ)+v;
#X obj 160 338 expr~ $v1*(4*atan(1)*$v2/2);
#X obj 346 314 sig~;
#X obj 346 290 r \$0-b;
#X obj 262 242 r \$0-rc;
#X obj 262 266 sig~;
#X obj 137 223 r \$0-rc;
#X obj 137 247 sig~;
#X obj 119 85 inlet~ te/τ;
#X obj 121 554 snake~;
#X obj 207 108 sig~ 0;
#X text 257 107 v (Stream level);
#X connect 1 0 8 0;
#X connect 2 0 10 0;
#X connect 3 0 2 0;
#X connect 3 1 2 1;
#X connect 4 0 3 0;
#X connect 5 0 9 0;
#X connect 6 0 7 0;
#X connect 7 0 5 0;
#X connect 8 0 2 0;
#X connect 9 0 23 0;
#X connect 9 0 36 0;
#X connect 10 0 11 0;
#X connect 11 0 5 1;
#X connect 15 0 16 0;
#X connect 16 0 17 0;
#X connect 17 0 36 1;
#X connect 18 0 19 0;
#X connect 19 0 20 0;
#X connect 20 0 21 0;
#X connect 20 1 22 2;
#X connect 21 0 22 1;
#X connect 22 0 15 0;
#X connect 23 0 24 0;
#X connect 24 0 28 0;
#X connect 28 0 22 0;
#X connect 29 0 28 1;
#X connect 30 0 29 0;
#X connect 31 0 32 0;
#X connect 32 0 23 1;
#X connect 33 0 34 0;
#X connect 34 0 9 1;
#X connect 35 0 6 0;
#X connect 36 0 0 0;
#X connect 37 0 6 1;
#X restore 22 362 pd stream_0;
#N canvas 744 88 591 621 stream_2 0;
#X obj 121 578 outlet~, f 8;
#X obj 12 33 r \$0-slength;
#X obj 12 131 /;
#X obj 22 104 t b f;
#X obj 22 81 r \$0-tmeta;
#X obj 119 196 *~;
#X obj 119 131 expr~ $v1+$v2;
#X obj 119 154 expr~ pow(2 \, $v1);
#X obj 12 57 expr $f1*ln(2);
#X obj 119 271 *~;
#X floatatom 12 154 13 0 0 0 - - - 0;
#X obj 12 177 sig~;
#X text 244 153 2^(te/τ)+v;
#X text 10 10 T*log2/τ;
#X text 16 258 Multiply with center rate, f 13;
#X obj 160 482 cos~;
#X obj 160 505 +~ 1;
#X obj 160 528 *~ 0.5;
#X obj 181 363 loadbang;
#X obj 181 387 expr 4*atan(1);
#X obj 181 411 t f f;
#X obj 181 435 * -1;
#X obj 160 460 clip~, f 8;
#X obj 160 290 expr~ $v1 / $v2;
#X obj 160 314 expr~ log($v1)/log(2);
#X text 214 527 p(r) = 1/2 * (cos [π*b/2 * log2(r/rc)]/-π \, π/ + 1);
#X text 152 195 r(v \, te) = T*log2/τ * 2^(te/τ)+v;
#X obj 160 338 expr~ $v1*(4*atan(1)*$v2/2);
#X obj 346 314 sig~;
#X obj 346 290 r \$0-b;
#X obj 262 242 r \$0-rc;
#X obj 262 266 sig~;
#X obj 137 223 r \$0-rc;
#X obj 137 247 sig~;
#X obj 119 85 inlet~ te/τ;
#X obj 121 554 snake~;
#X obj 207 108 sig~ 2;
#X text 258 107 v (Stream level);
#X text 167 386 π;
#X connect 1 0 8 0;
#X connect 2 0 10 0;
#X connect 3 0 2 0;
#X connect 3 1 2 1;
#X connect 4 0 3 0;
#X connect 5 0 9 0;
#X connect 6 0 7 0;
#X connect 7 0 5 0;
#X connect 8 0 2 0;
#X connect 9 0 23 0;
#X connect 9 0 35 0;
#X connect 10 0 11 0;
#X connect 11 0 5 1;
#X connect 15 0 16 0;
#X connect 16 0 17 0;
#X connect 17 0 35 1;
#X connect 18 0 19 0;
#X connect 19 0 20 0;
#X connect 20 0 21 0;
#X connect 20 1 22 2;
#X connect 21 0 22 1;
#X connect 22 0 15 0;
#X connect 23 0 24 0;
#X connect 24 0 27 0;
#X connect 27 0 22 0;
#X connect 28 0 27 1;
#X connect 29 0 28 0;
#X connect 30 0 31 0;
#X connect 31 0 23 1;
#X connect 32 0 33 0;
#X connect 33 0 9 1;
#X connect 34 0 6 0;
#X connect 35 0 0 0;
#X connect 36 0 6 1;
#X restore 522 362 pd stream_2;
#N canvas 744 88 591 621 stream_3 0;
#X obj 121 578 outlet~, f 8;
#X obj 12 33 r \$0-slength;
#X obj 12 131 /;
#X obj 22 104 t b f;
#X obj 22 81 r \$0-tmeta;
#X obj 119 196 *~;
#X obj 119 131 expr~ $v1+$v2;
#X obj 119 154 expr~ pow(2 \, $v1);
#X obj 12 57 expr $f1*ln(2);
#X obj 119 271 *~;
#X floatatom 12 154 13 0 0 0 - - - 0;
#X obj 12 177 sig~;
#X text 244 153 2^(te/τ)+v;
#X text 10 10 T*log2/τ;
#X text 16 258 Multiply with center rate, f 13;
#X obj 160 482 cos~;
#X obj 160 505 +~ 1;
#X obj 160 528 *~ 0.5;
#X obj 181 363 loadbang;
#X obj 181 387 expr 4*atan(1);
#X obj 181 411 t f f;
#X obj 181 435 * -1;
#X obj 160 460 clip~, f 8;
#X obj 160 290 expr~ $v1 / $v2;
#X obj 160 314 expr~ log($v1)/log(2);
#X text 214 527 p(r) = 1/2 * (cos [π*b/2 * log2(r/rc)]/-π \, π/ + 1);
#X text 152 195 r(v \, te) = T*log2/τ * 2^(te/τ)+v;
#X obj 160 338 expr~ $v1*(4*atan(1)*$v2/2);
#X obj 346 314 sig~;
#X obj 346 290 r \$0-b;
#X obj 262 242 r \$0-rc;
#X obj 262 266 sig~;
#X obj 137 223 r \$0-rc;
#X obj 137 247 sig~;
#X obj 119 85 inlet~ te/τ;
#X obj 121 554 snake~;
#X obj 207 108 sig~ 3;
#X text 258 107 v (Stream level);
#X text 167 386 π;
#X connect 1 0 8 0;
#X connect 2 0 10 0;
#X connect 3 0 2 0;
#X connect 3 1 2 1;
#X connect 4 0 3 0;
#X connect 5 0 9 0;
#X connect 6 0 7 0;
#X connect 7 0 5 0;
#X connect 8 0 2 0;
#X connect 9 0 23 0;
#X connect 9 0 35 0;
#X connect 10 0 11 0;
#X connect 11 0 5 1;
#X connect 15 0 16 0;
#X connect 16 0 17 0;
#X connect 17 0 35 1;
#X connect 18 0 19 0;
#X connect 19 0 20 0;
#X connect 20 0 21 0;
#X connect 20 1 22 2;
#X connect 21 0 22 1;
#X connect 22 0 15 0;
#X connect 23 0 24 0;
#X connect 24 0 27 0;
#X connect 27 0 22 0;
#X connect 28 0 27 1;
#X connect 29 0 28 0;
#X connect 30 0 31 0;
#X connect 31 0 23 1;
#X connect 32 0 33 0;
#X connect 33 0 9 1;
#X connect 34 0 6 0;
#X connect 35 0 0 0;
#X connect 36 0 6 1;
#X restore 772 362 pd stream_3;
#N canvas 744 88 591 621 stream_4 0;
#X obj 121 578 outlet~, f 8;
#X obj 12 33 r \$0-slength;
#X obj 12 131 /;
#X obj 22 104 t b f;
#X obj 22 81 r \$0-tmeta;
#X obj 119 196 *~;
#X obj 119 131 expr~ $v1+$v2;
#X obj 119 154 expr~ pow(2 \, $v1);
#X obj 12 57 expr $f1*ln(2);
#X obj 119 271 *~;
#X floatatom 12 154 13 0 0 0 - - - 0;
#X obj 12 177 sig~;
#X text 244 153 2^(te/τ)+v;
#X text 10 10 T*log2/τ;
#X text 16 258 Multiply with center rate, f 13;
#X obj 160 482 cos~;
#X obj 160 505 +~ 1;
#X obj 160 528 *~ 0.5;
#X obj 181 363 loadbang;
#X obj 181 387 expr 4*atan(1);
#X obj 181 411 t f f;
#X obj 181 435 * -1;
#X obj 160 460 clip~, f 8;
#X obj 160 290 expr~ $v1 / $v2;
#X obj 160 314 expr~ log($v1)/log(2);
#X text 214 527 p(r) = 1/2 * (cos [π*b/2 * log2(r/rc)]/-π \, π/ + 1);
#X text 152 195 r(v \, te) = T*log2/τ * 2^(te/τ)+v;
#X obj 160 338 expr~ $v1*(4*atan(1)*$v2/2);
#X obj 346 314 sig~;
#X obj 346 290 r \$0-b;
#X obj 262 242 r \$0-rc;
#X obj 262 266 sig~;
#X obj 137 223 r \$0-rc;
#X obj 137 247 sig~;
#X obj 119 85 inlet~ te/τ;
#X obj 121 554 snake~;
#X obj 207 108 sig~ 4;
#X text 258 107 v (Stream level);
#X text 167 386 π;
#X connect 1 0 8 0;
#X connect 2 0 10 0;
#X connect 3 0 2 0;
#X connect 3 1 2 1;
#X connect 4 0 3 0;
#X connect 5 0 9 0;
#X connect 6 0 7 0;
#X connect 7 0 5 0;
#X connect 8 0 2 0;
#X connect 9 0 23 0;
#X connect 9 0 35 0;
#X connect 10 0 11 0;
#X connect 11 0 5 1;
#X connect 15 0 16 0;
#X connect 16 0 17 0;
#X connect 17 0 35 1;
#X connect 18 0 19 0;
#X connect 19 0 20 0;
#X connect 20 0 21 0;
#X connect 20 1 22 2;
#X connect 21 0 22 1;
#X connect 22 0 15 0;
#X connect 23 0 24 0;
#X connect 24 0 27 0;
#X connect 27 0 22 0;
#X connect 28 0 27 1;
#X connect 29 0 28 0;
#X connect 30 0 31 0;
#X connect 31 0 23 1;
#X connect 32 0 33 0;
#X connect 33 0 9 1;
#X connect 34 0 6 0;
#X connect 35 0 0 0;
#X connect 36 0 6 1;
#X restore 1022 362 pd stream_4;
#X obj 358 229 r \$0-srate;
#X obj 256 252 expr 1/$f1*$f2, f 15;
#X obj 256 229 r \$0-slength;
#X floatatom 256 275 13 0 0 0 - - - 12;
#X obj 256 297 s \$0-rc;
#X text 359 274 rc (center playback rate);
#X obj 22 229 loadbang;
#X msg 22 252 0.15;
#X obj 22 36 loadbang;
#X msg 22 60 4, f 1;
#N canvas 744 88 591 621 stream_1 0;
#X obj 121 578 outlet~, f 8;
#X obj 12 33 r \$0-slength;
#X obj 12 131 /;
#X obj 22 104 t b f;
#X obj 22 81 r \$0-tmeta;
#X obj 119 196 *~;
#X obj 119 131 expr~ $v1+$v2;
#X obj 119 154 expr~ pow(2 \, $v1);
#X obj 12 57 expr $f1*ln(2);
#X obj 119 271 *~;
#X floatatom 12 154 13 0 0 0 - - - 0;
#X obj 12 177 sig~;
#X text 244 153 2^(te/τ)+v;
#X text 10 10 T*log2/τ;
#X text 16 258 Multiply with center rate, f 13;
#X obj 160 482 cos~;
#X obj 160 505 +~ 1;
#X obj 160 528 *~ 0.5;
#X obj 181 363 loadbang;
#X obj 181 387 expr 4*atan(1);
#X obj 181 411 t f f;
#X obj 181 435 * -1;
#X obj 160 460 clip~, f 8;
#X obj 160 290 expr~ $v1 / $v2;
#X obj 160 314 expr~ log($v1)/log(2);
#X text 214 527 p(r) = 1/2 * (cos [π*b/2 * log2(r/rc)]/-π \, π/ + 1);
#X text 152 195 r(v \, te) = T*log2/τ * 2^(te/τ)+v;
#X obj 160 338 expr~ $v1*(4*atan(1)*$v2/2);
#X obj 346 314 sig~;
#X obj 346 290 r \$0-b;
#X obj 262 242 r \$0-rc;
#X obj 262 266 sig~;
#X obj 137 223 r \$0-rc;
#X obj 137 247 sig~;
#X obj 119 85 inlet~ te/τ;
#X obj 121 554 snake~;
#X text 257 107 v (Stream level);
#X obj 207 108 sig~ 1;
#X text 167 386 π;
#X connect 1 0 8 0;
#X connect 2 0 10 0;
#X connect 3 0 2 0;
#X connect 3 1 2 1;
#X connect 4 0 3 0;
#X connect 5 0 9 0;
#X connect 6 0 7 0;
#X connect 7 0 5 0;
#X connect 8 0 2 0;
#X connect 9 0 23 0;
#X connect 9 0 35 0;
#X connect 10 0 11 0;
#X connect 11 0 5 1;
#X connect 15 0 16 0;
#X connect 16 0 17 0;
#X connect 17 0 35 1;
#X connect 18 0 19 0;
#X connect 19 0 20 0;
#X connect 20 0 21 0;
#X connect 20 1 22 2;
#X connect 21 0 22 1;
#X connect 22 0 15 0;
#X connect 23 0 24 0;
#X connect 24 0 27 0;
#X connect 27 0 22 0;
#X connect 28 0 27 1;
#X connect 29 0 28 0;
#X connect 30 0 31 0;
#X connect 31 0 23 1;
#X connect 32 0 33 0;
#X connect 33 0 9 1;
#X connect 34 0 6 0;
#X connect 35 0 0 0;
#X connect 37 0 6 1;
#X restore 272 362 pd stream_1;
#X text 51 59 Metabar duration factor \, e.g. τ = T * 4, f 40;
#X obj 40 409 r \$0-rares;
#X obj 290 409 r \$0-rares;
#X obj 540 409 r \$0-rares;
#X obj 790 409 r \$0-rares;
#X obj 1040 409 r \$0-rares;
#X obj 578 83 r \$0-tmeta;
#X obj 673 83 r \$0-srate;
#X floatatom 578 130 9 0 0 0 - - - 0;
#X obj 578 107 expr 1/$f1*$f2;
#X obj 556 275 phasor~;
#X text 616 274 te/τ;
#X obj 556 198 *, f 2;
#X obj 563 245 sel 1, f 6;
#X obj 556 297 s~ \$0-tet;
#X obj 556 36 inlet playback;
#X obj 566 60 s \$0-rares;
#X obj 556 176 f, f 2;
#X obj 578 153 t b f;
#N canvas 925 348 339 139 pb_stereo 0;
#X obj 10 16 inlet~;
#X obj 10 50 tabread4~ \$0-rs_array;
#X obj 169 50 tabread4~ \$0-rs_array2;
#X obj 10 74 snake~;
#X obj 10 98 outlet~;
#X connect 0 0 1 0;
#X connect 0 0 2 0;
#X connect 1 0 3 0;
#X connect 2 0 3 1;
#X connect 3 0 4 0;
#X restore 78 506 pd pb_stereo;
#N canvas 925 348 339 139 pb_stereo 0;
#X obj 10 16 inlet~;
#X obj 10 50 tabread4~ \$0-rs_array;
#X obj 169 50 tabread4~ \$0-rs_array2;
#X obj 10 74 snake~;
#X obj 10 98 outlet~;
#X connect 0 0 1 0;
#X connect 0 0 2 0;
#X connect 1 0 3 0;
#X connect 2 0 3 1;
#X connect 3 0 4 0;
#X restore 328 506 pd pb_stereo;
#N canvas 925 348 339 140 pb_stereo 0;
#X obj 10 16 inlet~;
#X obj 10 50 tabread4~ \$0-rs_array;
#X obj 169 50 tabread4~ \$0-rs_array2;
#X obj 10 74 snake~;
#X obj 10 98 outlet~;
#X connect 0 0 1 0;
#X connect 0 0 2 0;
#X connect 1 0 3 0;
#X connect 2 0 3 1;
#X connect 3 0 4 0;
#X restore 578 506 pd pb_stereo;
#N canvas 925 348 339 139 pb_stereo 0;
#X obj 10 16 inlet~;
#X obj 10 50 tabread4~ \$0-rs_array;
#X obj 169 50 tabread4~ \$0-rs_array2;
#X obj 10 74 snake~;
#X obj 10 98 outlet~;
#X connect 0 0 1 0;
#X connect 0 0 2 0;
#X connect 1 0 3 0;
#X connect 2 0 3 1;
#X connect 3 0 4 0;
#X restore 828 506 pd pb_stereo;
#N canvas 925 348 339 139 pb_stereo 0;
#X obj 10 16 inlet~;
#X obj 10 50 tabread4~ \$0-rs_array;
#X obj 169 50 tabread4~ \$0-rs_array2;
#X obj 10 74 snake~;
#X obj 10 98 outlet~;
#X connect 0 0 1 0;
#X connect 0 0 2 0;
#X connect 1 0 3 0;
#X connect 2 0 3 1;
#X connect 3 0 4 0;
#X restore 1078 506 pd pb_stereo;
#N canvas 612 109 277 173 switch 0;
#X obj 12 9 inlet;
#X obj 61 9 inlet;
#X msg 105 55 -1, f 2;
#X msg 61 55 1, f 1;
#X obj 12 119 *, f 2;
#X obj 12 141 outlet;
#X obj 61 78 t b f;
#X obj 105 78 t b f;
#X obj 61 32 sel 0 1, f 13;
#X text 34 120 Accelerando/ decelerando, f 26;
#X obj 162 9 loadbang;
#X msg 162 32 0, f 1;
#X obj 162 55 s \$0-direction;
#X obj 12 97 f, f 2;
#X connect 0 0 13 0;
#X connect 1 0 8 0;
#X connect 2 0 7 0;
#X connect 3 0 6 0;
#X connect 4 0 5 0;
#X connect 6 0 13 0;
#X connect 6 1 4 1;
#X connect 7 0 13 0;
#X connect 7 1 4 1;
#X connect 8 0 3 0;
#X connect 8 1 2 0;
#X connect 10 0 11 0;
#X connect 11 0 12 0;
#X connect 13 0 4 0;
#X restore 556 222 pd switch;
#X obj 616 197 r \$0-direction;
#X obj 897 206 r \$0-slength;
#X obj 879 229 *~;
#X obj 879 275 *~ 1;
#X obj 904 133 r \$0-rc;
#X obj 879 182 phasor~, f 10;
#X obj 879 157 *, f 4;
#X obj 879 133 tgl 19 0 empty empty empty 0 -10 0 12 #fcfcfc #000000 #000000 0 1;
#X obj 914 157 sel 1;
#X obj 879 297 throw~ \$0-rs_bus;
#X text 749 132 Playback sample in original speed, f 17;
#X obj 879 252 tabread4~ \$0-rs_array;
#X obj 626 246 s \$0-tgldummy;
#X msg 626 222 0, f 1;
#X connect 0 0 4 0;
#X connect 1 0 5 0;
#X connect 3 0 1 0;
#X connect 3 1 1 1;
#X connect 4 0 3 0;
#X connect 5 0 2 0;
#X connect 6 0 7 0;
#X connect 8 0 9 0;
#X connect 9 0 28 0;
#X connect 10 0 11 1;
#X connect 11 0 134 0;
#X connect 12 0 13 0;
#X connect 14 0 15 0;
#X connect 15 0 16 0;
#X connect 16 0 17 0;
#X connect 19 0 20 0;
#X connect 20 0 21 0;
#X connect 22 0 19 0;
#X connect 33 0 36 0;
#X connect 33 1 12 1;
#X connect 33 1 14 0;
#X connect 34 0 11 0;
#X connect 34 0 8 0;
#X connect 35 0 100 0;
#X connect 36 0 34 0;
#X connect 37 1 34 1;
#X connect 38 0 39 0;
#X connect 39 0 29 0;
#X connect 40 0 41 1;
#X connect 41 0 135 0;
#X connect 42 0 43 0;
#X connect 44 0 45 0;
#X connect 45 0 46 0;
#X connect 46 0 47 0;
#X connect 48 0 51 0;
#X connect 48 1 42 1;
#X connect 48 1 44 0;
#X connect 49 0 41 0;
#X connect 49 0 38 0;
#X connect 50 0 114 0;
#X connect 51 0 49 0;
#X connect 52 1 49 1;
#X connect 53 0 54 0;
#X connect 54 0 30 0;
#X connect 55 0 56 1;
#X connect 56 0 136 0;
#X connect 57 0 58 0;
#X connect 59 0 60 0;
#X connect 60 0 61 0;
#X connect 61 0 62 0;
#X connect 63 0 66 0;
#X connect 63 1 57 1;
#X connect 63 1 59 0;
#X connect 64 0 56 0;
#X connect 64 0 53 0;
#X connect 65 0 101 0;
#X connect 66 0 64 0;
#X connect 67 1 64 1;
#X connect 68 0 69 0;
#X connect 69 0 31 0;
#X connect 70 0 71 1;
#X connect 71 0 137 0;
#X connect 72 0 73 0;
#X connect 74 0 75 0;
#X connect 75 0 76 0;
#X connect 76 0 77 0;
#X connect 78 0 81 0;
#X connect 78 1 72 1;
#X connect 78 1 74 0;
#X connect 79 0 71 0;
#X connect 79 0 68 0;
#X connect 80 0 102 0;
#X connect 81 0 79 0;
#X connect 82 1 79 1;
#X connect 83 0 84 0;
#X connect 84 0 32 0;
#X connect 85 0 86 1;
#X connect 86 0 138 0;
#X connect 87 0 88 0;
#X connect 89 0 90 0;
#X connect 90 0 91 0;
#X connect 91 0 92 0;
#X connect 93 0 96 0;
#X connect 93 1 87 1;
#X connect 93 1 89 0;
#X connect 94 0 86 0;
#X connect 94 0 83 0;
#X connect 95 0 103 0;
#X connect 96 0 94 0;
#X connect 97 1 94 1;
#X connect 100 0 33 0;
#X connect 101 0 63 0;
#X connect 102 0 78 0;
#X connect 103 0 93 0;
#X connect 104 0 105 1;
#X connect 105 0 107 0;
#X connect 106 0 105 0;
#X connect 107 0 108 0;
#X connect 110 0 111 0;
#X connect 111 0 6 0;
#X connect 112 0 113 0;
#X connect 113 0 1 0;
#X connect 114 0 48 0;
#X connect 116 0 36 1;
#X connect 116 0 37 0;
#X connect 117 0 51 1;
#X connect 117 0 52 0;
#X connect 118 0 66 1;
#X connect 118 0 67 0;
#X connect 119 0 81 1;
#X connect 119 0 82 0;
#X connect 120 0 96 1;
#X connect 120 0 97 0;
#X connect 121 0 124 0;
#X connect 122 0 124 1;
#X connect 123 0 133 0;
#X connect 124 0 123 0;
#X connect 125 0 129 0;
#X connect 127 0 139 0;
#X connect 128 1 125 1;
#X connect 130 0 128 0;
#X connect 130 0 131 0;
#X connect 130 0 132 0;
#X connect 132 0 127 0;
#X connect 133 0 132 0;
#X connect 133 1 127 1;
#X connect 134 0 12 0;
#X connect 135 0 42 0;
#X connect 136 0 57 0;
#X connect 137 0 72 0;
#X connect 138 0 87 0;
#X connect 139 0 125 0;
#X connect 140 0 139 1;
#X connect 140 0 153 0;
#X connect 141 0 142 1;
#X connect 142 0 151 0;
#X connect 143 0 149 0;
#X connect 144 0 146 1;
#X connect 145 0 142 0;
#X connect 146 0 145 0;
#X connect 147 0 146 0;
#X connect 147 0 148 0;
#X connect 148 1 145 1;
#X connect 151 0 143 0;
#X connect 153 0 152 0;
#X restore 20 248 pd sampleplayer;
#X obj 258 178 bng 19 250 50 0 empty empty empty 0 -10 0 12 #9f9f9f #000000 #000000;
#N canvas 266 304 468 137 paper 0;
#X obj 11 13 inlet;
#X obj 11 104 pdcontrol;
#X msg 11 35 browse https://www.semanticscholar.org/paper/Scheduling-and-composing-with-Risset-eternal-Stowell/df6a5bf9566d609b120fe06cd7c2541f6aea453c;
#X connect 0 0 2 0;
#X connect 2 0 1 0;
#X restore 258 200 pd paper;
#X text 282 177 <-- click to open paper;
#N canvas 504 222 404 340 sampleloader 0;
#X obj 18 89 openpanel;
#X obj 18 264 soundfiler, f 14;
#X obj 113 286 unpack f;
#X obj 18 118 pack s f, f 11;
#X obj 18 309 s \$0-slength;
#X obj 92 64 loadbang;
#X obj 92 89 f \$0;
#X obj 33 143 unpack s;
#X obj 113 309 s \$0-srate;
#X obj 100 213 s \$0-filename;
#X obj 18 14 inlet;
#X text 206 161 Define array for second channel. Only channel 1 is used for display., f 23;
#X msg 18 239 read -resize \$1 \$2-rs_array \$2-rs_array2;
#X obj 33 166 file splitname;
#X obj 33 190 unpack s s;
#X obj 209 213 array define \$0-rs_array2;
#X obj 18 38 route bang symbol;
#X msg 112 118 \; \$1-rs_array edit 0;
#X connect 0 0 3 0;
#X connect 1 0 4 0;
#X connect 1 1 2 0;
#X connect 2 0 8 0;
#X connect 3 0 12 0;
#X connect 3 0 7 0;
#X connect 5 0 6 0;
#X connect 6 0 3 1;
#X connect 6 0 17 0;
#X connect 7 0 13 0;
#X connect 10 0 16 0;
#X connect 12 0 1 0;
#X connect 13 0 14 0;
#X connect 14 1 9 0;
#X connect 16 0 0 0;
#X connect 16 1 3 0;
#X restore 20 58 pd sampleloader;
#X obj 20 10 inlet load sample;
#X obj 153 10 inlet playback;
#X obj 20 306 outlet~;
#X obj 20 282 catch~ \$0-rs_bus 2;
#X text 255 83 Jaycee is an extended \, modular implementation of Risset eternal accelerando rhythms for audio samples described by Dan Stowell in his 2011 paper "SCHEDULING AND COMPOSING WITH RISSET ETERNAL ACCELERANDO RHYTHMS"., f 41;
#X obj 20 189 bng 15 250 50 0 \$0-load \$0-loaddummy empty 0 -10 0 12 #c6ffc7 #000000 #000000;
#X obj 205 91 tgl 15 0 \$0-tgl \$0-tgldummy empty 0 -10 0 12 #c6ffc7 #000000 #000000 0 1;
#X obj 20 219 r \$0-tgl;
#X obj 30 34 r \$0-load;
#X text 79 305 <-- Stereo out;
#X obj 153 58 s \$0-tgldummy;
#X obj 197 306 outlet;
#X obj 160 189 hsl 58 15 0 1 0 0 \$0-meindicdummy \$0-meindic Metabar 12 8 0 8 #fcfcfc #000000 #000000 0 1;
#N canvas 550 449 269 230 detector 0;
#X obj 12 83 samphold~;
#X obj 12 128 snapshot~;
#X obj 40 106 bang~;
#X obj 12 151 change;
#X obj 12 174 bng 19 250 50 0 empty empty empty 0 -10 0 12 #fcfcfc #000000 #000000;
#X obj 12 11 r~ \$0-tet;
#X text 64 151 Detect restart of metabar., f 27;
#X obj 12 198 outlet;
#X obj 100 11 r \$0-direction;
#X obj 12 35 expr~ $f2-$v1;
#X obj 12 59 abs~;
#X connect 0 0 1 0;
#X connect 1 0 3 0;
#X connect 2 0 1 0;
#X connect 3 0 4 0;
#X connect 4 0 7 0;
#X connect 5 0 9 0;
#X connect 8 0 9 1;
#X connect 9 0 10 0;
#X connect 10 0 0 1;
#X connect 10 0 0 0;
#X restore 197 282 pd detector;
#X text 250 305 <-- Output bang on metabar restart.;
#X obj 170 91 hradio 15 1 0 2 \$0-direction \$0-directiondummy +\ - 4 8 0 12 #fcfcfc #000000 #000000 0;
#X text 367 229 Martin Heinze. 15.09.2024;
#X obj 153 34 unpack, f 15;
#X obj 255 57 s \$0-directiondummy;
#X connect 3 0 4 0;
#X connect 7 0 6 0;
#X connect 8 0 24 0;
#X connect 10 0 9 0;
#X connect 14 0 2 0;
#X connect 15 0 6 0;
#X connect 20 0 18 0;
#X connect 24 0 17 0;
#X connect 24 1 25 0;
#X coords 0 -1 1 1 220 125 2 10 85;
