#N canvas 170 313 626 365 12;
#N canvas 830 139 450 278 (subpatch) 0;
#X array \$0-rs_array 1.00195e+06 float 2;
#X coords 0 1 1.00195e+06 -1 200 75 2 0 0;
#X restore 20 109 graph;
#X symbolatom 38 189 17 0 0 0 - \$0-filename \$0-filenamedummy 10;
#N canvas 63 207 1369 636 sampleplayer 0;
#X obj 19 60 r \$0-slength;
#X obj 12 130 *;
#X obj 12 175 s \$0-tmeta;
#X obj 19 107 t b f;
#X floatatom 19 84 10 0 0 0 - - - 0;
#X floatatom 12 153 11 0 0 0 - - - 0;
#X floatatom 12 252 5 0 0 0 - - - 0;
#X obj 12 274 s \$0-b;
#X obj 93 436 r \$0-slength;
#X obj 68 458 *~, f 4;
#X obj 68 507 *~;
#X obj 190 381 env~;
#X obj 190 402 dbtorms;
#X floatatom 190 423 5 0 0 0 - - - 0;
#X obj 190 446 vsl 19 85 0 1 0 0 empty empty empty 0 -9 0 12 #fcfcfc #000000 #000000 0 1;
#X text 52 251 b (bandwidth in octaves);
#X obj 12 362 snake~ out, f 11;
#X obj 12 432 phasor~, f 9;
#X obj 12 316 r~ \$0-tet;
#X obj 12 409 *~;
#X obj 40 410 sel 1;
#X obj 343 436 r \$0-slength;
#X obj 318 458 *~, f 4;
#X obj 318 507 *~;
#X obj 318 530 throw~ \$0-rs_bus;
#X obj 438 381 env~;
#X obj 438 402 dbtorms;
#X floatatom 438 423 5 0 0 0 - - - 0;
#X obj 438 446 vsl 19 85 0 1 0 0 empty empty empty 0 -9 0 12 #fcfcfc #000000 #000000 0 1;
#X obj 262 362 snake~ out, f 11;
#X obj 262 432 phasor~, f 9;
#X obj 262 316 r~ \$0-tet;
#X obj 262 409 *~;
#X obj 290 410 sel 1;
#X obj 593 436 r \$0-slength;
#X obj 568 458 *~, f 4;
#X obj 568 507 *~;
#X obj 568 530 throw~ \$0-rs_bus;
#X obj 688 381 env~;
#X obj 688 402 dbtorms;
#X floatatom 688 423 5 0 0 0 - - - 0;
#X obj 688 446 vsl 19 85 0 1 0 0 empty empty empty 0 -9 0 12 #fcfcfc #000000 #000000 0 1;
#X obj 512 362 snake~ out, f 11;
#X obj 512 432 phasor~, f 9;
#X obj 512 316 r~ \$0-tet;
#X obj 512 409 *~;
#X obj 540 410 sel 1;
#X obj 843 436 r \$0-slength;
#X obj 818 458 *~, f 4;
#X obj 818 507 *~;
#X obj 818 530 throw~ \$0-rs_bus;
#X obj 938 381 env~;
#X obj 938 402 dbtorms;
#X floatatom 938 423 5 0 0 0 - - - 0;
#X obj 938 446 vsl 19 85 0 1 0 0 empty empty empty 0 -9 0 12 #fcfcfc #000000 #000000 0 1;
#X obj 762 362 snake~ out, f 11;
#X obj 762 432 phasor~, f 9;
#X obj 762 316 r~ \$0-tet;
#X obj 762 409 *~;
#X obj 790 410 sel 1;
#X obj 1093 436 r \$0-slength;
#X obj 1068 458 *~, f 4;
#X obj 1068 507 *~;
#X obj 1068 530 throw~ \$0-rs_bus;
#X obj 1188 381 env~;
#X obj 1188 402 dbtorms;
#X floatatom 1188 423 5 0 0 0 - - - 0;
#X obj 1188 446 vsl 19 85 0 1 0 0 empty empty empty 0 -9 0 12 #fcfcfc #000000 #000000 0 1;
#X obj 1012 362 snake~ out, f 11;
#X obj 1012 432 phasor~, f 9;
#X obj 1012 316 r~ \$0-tet;
#X obj 1012 409 *~;
#X obj 1040 410 sel 1;
#X text 100 83 T (duration of original loop in samples);
#X text 102 152 τ (duration of metabar in samples);
#N canvas 744 88 591 621 stream_0 0;
#X obj 121 578 outlet~, f 8;
#X obj 12 33 r \$0-slength;
#X obj 12 131 /;
#X obj 22 104 t b f;
#X obj 22 81 r \$0-tmeta;
#X obj 119 196 *~;
#X obj 119 131 expr~ $v1+$v2;
#X obj 119 154 expr~ pow(2 \, $v1);
#X obj 12 57 expr $f1*ln(2);
#X obj 119 271 *~;
#X floatatom 12 154 13 0 0 0 - - - 0;
#X obj 12 177 sig~;
#X text 244 153 2^(te/τ)+v;
#X text 10 10 T*log2/τ;
#X text 16 258 Multiply with center rate, f 13;
#X obj 160 482 cos~;
#X obj 160 505 +~ 1;
#X obj 160 528 *~ 0.5;
#X obj 181 363 loadbang;
#X obj 181 387 expr 4*atan(1);
#X obj 181 411 t f f;
#X obj 181 435 * -1;
#X obj 160 460 clip~, f 8;
#X obj 160 290 expr~ $v1 / $v2;
#X obj 160 314 expr~ log($v1)/log(2);
#X text 167 386 π;
#X text 214 527 p(r) = 1/2 * (cos [π*b/2 * log2(r/rc)]/-π \, π/ + 1);
#X text 152 195 r(v \, te) = T*log2/τ * 2^(te/τ)+v;
#X obj 160 338 expr~ $v1*(4*atan(1)*$v2/2);
#X obj 346 314 sig~;
#X obj 346 290 r \$0-b;
#X obj 262 242 r \$0-rc;
#X obj 262 266 sig~;
#X obj 137 223 r \$0-rc;
#X obj 137 247 sig~;
#X obj 119 85 inlet~ te/τ;
#X obj 121 554 snake~;
#X obj 207 108 sig~ 0;
#X text 257 107 v (Stream level);
#X connect 1 0 8 0;
#X connect 2 0 10 0;
#X connect 3 0 2 0;
#X connect 3 1 2 1;
#X connect 4 0 3 0;
#X connect 5 0 9 0;
#X connect 6 0 7 0;
#X connect 7 0 5 0;
#X connect 8 0 2 0;
#X connect 9 0 23 0;
#X connect 9 0 36 0;
#X connect 10 0 11 0;
#X connect 11 0 5 1;
#X connect 15 0 16 0;
#X connect 16 0 17 0;
#X connect 17 0 36 1;
#X connect 18 0 19 0;
#X connect 19 0 20 0;
#X connect 20 0 21 0;
#X connect 20 1 22 2;
#X connect 21 0 22 1;
#X connect 22 0 15 0;
#X connect 23 0 24 0;
#X connect 24 0 28 0;
#X connect 28 0 22 0;
#X connect 29 0 28 1;
#X connect 30 0 29 0;
#X connect 31 0 32 0;
#X connect 32 0 23 1;
#X connect 33 0 34 0;
#X connect 34 0 9 1;
#X connect 35 0 6 0;
#X connect 36 0 0 0;
#X connect 37 0 6 1;
#X restore 12 339 pd stream_0;
#N canvas 744 88 591 621 stream_2 0;
#X obj 121 578 outlet~, f 8;
#X obj 12 33 r \$0-slength;
#X obj 12 131 /;
#X obj 22 104 t b f;
#X obj 22 81 r \$0-tmeta;
#X obj 119 196 *~;
#X obj 119 131 expr~ $v1+$v2;
#X obj 119 154 expr~ pow(2 \, $v1);
#X obj 12 57 expr $f1*ln(2);
#X obj 119 271 *~;
#X floatatom 12 154 13 0 0 0 - - - 0;
#X obj 12 177 sig~;
#X text 244 153 2^(te/τ)+v;
#X text 10 10 T*log2/τ;
#X text 16 258 Multiply with center rate, f 13;
#X obj 160 482 cos~;
#X obj 160 505 +~ 1;
#X obj 160 528 *~ 0.5;
#X obj 181 363 loadbang;
#X obj 181 387 expr 4*atan(1);
#X obj 181 411 t f f;
#X obj 181 435 * -1;
#X obj 160 460 clip~, f 8;
#X obj 160 290 expr~ $v1 / $v2;
#X obj 160 314 expr~ log($v1)/log(2);
#X text 214 527 p(r) = 1/2 * (cos [π*b/2 * log2(r/rc)]/-π \, π/ + 1);
#X text 152 195 r(v \, te) = T*log2/τ * 2^(te/τ)+v;
#X obj 160 338 expr~ $v1*(4*atan(1)*$v2/2);
#X obj 346 314 sig~;
#X obj 346 290 r \$0-b;
#X obj 262 242 r \$0-rc;
#X obj 262 266 sig~;
#X obj 137 223 r \$0-rc;
#X obj 137 247 sig~;
#X obj 119 85 inlet~ te/τ;
#X obj 121 554 snake~;
#X obj 207 108 sig~ 2;
#X text 258 107 v (Stream level);
#X text 167 386 π;
#X connect 1 0 8 0;
#X connect 2 0 10 0;
#X connect 3 0 2 0;
#X connect 3 1 2 1;
#X connect 4 0 3 0;
#X connect 5 0 9 0;
#X connect 6 0 7 0;
#X connect 7 0 5 0;
#X connect 8 0 2 0;
#X connect 9 0 23 0;
#X connect 9 0 35 0;
#X connect 10 0 11 0;
#X connect 11 0 5 1;
#X connect 15 0 16 0;
#X connect 16 0 17 0;
#X connect 17 0 35 1;
#X connect 18 0 19 0;
#X connect 19 0 20 0;
#X connect 20 0 21 0;
#X connect 20 1 22 2;
#X connect 21 0 22 1;
#X connect 22 0 15 0;
#X connect 23 0 24 0;
#X connect 24 0 27 0;
#X connect 27 0 22 0;
#X connect 28 0 27 1;
#X connect 29 0 28 0;
#X connect 30 0 31 0;
#X connect 31 0 23 1;
#X connect 32 0 33 0;
#X connect 33 0 9 1;
#X connect 34 0 6 0;
#X connect 35 0 0 0;
#X connect 36 0 6 1;
#X restore 512 339 pd stream_2;
#N canvas 744 88 591 621 stream_3 0;
#X obj 121 578 outlet~, f 8;
#X obj 12 33 r \$0-slength;
#X obj 12 131 /;
#X obj 22 104 t b f;
#X obj 22 81 r \$0-tmeta;
#X obj 119 196 *~;
#X obj 119 131 expr~ $v1+$v2;
#X obj 119 154 expr~ pow(2 \, $v1);
#X obj 12 57 expr $f1*ln(2);
#X obj 119 271 *~;
#X floatatom 12 154 13 0 0 0 - - - 0;
#X obj 12 177 sig~;
#X text 244 153 2^(te/τ)+v;
#X text 10 10 T*log2/τ;
#X text 16 258 Multiply with center rate, f 13;
#X obj 160 482 cos~;
#X obj 160 505 +~ 1;
#X obj 160 528 *~ 0.5;
#X obj 181 363 loadbang;
#X obj 181 387 expr 4*atan(1);
#X obj 181 411 t f f;
#X obj 181 435 * -1;
#X obj 160 460 clip~, f 8;
#X obj 160 290 expr~ $v1 / $v2;
#X obj 160 314 expr~ log($v1)/log(2);
#X text 214 527 p(r) = 1/2 * (cos [π*b/2 * log2(r/rc)]/-π \, π/ + 1);
#X text 152 195 r(v \, te) = T*log2/τ * 2^(te/τ)+v;
#X obj 160 338 expr~ $v1*(4*atan(1)*$v2/2);
#X obj 346 314 sig~;
#X obj 346 290 r \$0-b;
#X obj 262 242 r \$0-rc;
#X obj 262 266 sig~;
#X obj 137 223 r \$0-rc;
#X obj 137 247 sig~;
#X obj 119 85 inlet~ te/τ;
#X obj 121 554 snake~;
#X obj 207 108 sig~ 3;
#X text 258 107 v (Stream level);
#X text 167 386 π;
#X connect 1 0 8 0;
#X connect 2 0 10 0;
#X connect 3 0 2 0;
#X connect 3 1 2 1;
#X connect 4 0 3 0;
#X connect 5 0 9 0;
#X connect 6 0 7 0;
#X connect 7 0 5 0;
#X connect 8 0 2 0;
#X connect 9 0 23 0;
#X connect 9 0 35 0;
#X connect 10 0 11 0;
#X connect 11 0 5 1;
#X connect 15 0 16 0;
#X connect 16 0 17 0;
#X connect 17 0 35 1;
#X connect 18 0 19 0;
#X connect 19 0 20 0;
#X connect 20 0 21 0;
#X connect 20 1 22 2;
#X connect 21 0 22 1;
#X connect 22 0 15 0;
#X connect 23 0 24 0;
#X connect 24 0 27 0;
#X connect 27 0 22 0;
#X connect 28 0 27 1;
#X connect 29 0 28 0;
#X connect 30 0 31 0;
#X connect 31 0 23 1;
#X connect 32 0 33 0;
#X connect 33 0 9 1;
#X connect 34 0 6 0;
#X connect 35 0 0 0;
#X connect 36 0 6 1;
#X restore 762 339 pd stream_3;
#N canvas 744 88 591 621 stream_4 0;
#X obj 121 578 outlet~, f 8;
#X obj 12 33 r \$0-slength;
#X obj 12 131 /;
#X obj 22 104 t b f;
#X obj 22 81 r \$0-tmeta;
#X obj 119 196 *~;
#X obj 119 131 expr~ $v1+$v2;
#X obj 119 154 expr~ pow(2 \, $v1);
#X obj 12 57 expr $f1*ln(2);
#X obj 119 271 *~;
#X floatatom 12 154 13 0 0 0 - - - 0;
#X obj 12 177 sig~;
#X text 244 153 2^(te/τ)+v;
#X text 10 10 T*log2/τ;
#X text 16 258 Multiply with center rate, f 13;
#X obj 160 482 cos~;
#X obj 160 505 +~ 1;
#X obj 160 528 *~ 0.5;
#X obj 181 363 loadbang;
#X obj 181 387 expr 4*atan(1);
#X obj 181 411 t f f;
#X obj 181 435 * -1;
#X obj 160 460 clip~, f 8;
#X obj 160 290 expr~ $v1 / $v2;
#X obj 160 314 expr~ log($v1)/log(2);
#X text 214 527 p(r) = 1/2 * (cos [π*b/2 * log2(r/rc)]/-π \, π/ + 1);
#X text 152 195 r(v \, te) = T*log2/τ * 2^(te/τ)+v;
#X obj 160 338 expr~ $v1*(4*atan(1)*$v2/2);
#X obj 346 314 sig~;
#X obj 346 290 r \$0-b;
#X obj 262 242 r \$0-rc;
#X obj 262 266 sig~;
#X obj 137 223 r \$0-rc;
#X obj 137 247 sig~;
#X obj 119 85 inlet~ te/τ;
#X obj 121 554 snake~;
#X obj 207 108 sig~ 4;
#X text 258 107 v (Stream level);
#X text 167 386 π;
#X connect 1 0 8 0;
#X connect 2 0 10 0;
#X connect 3 0 2 0;
#X connect 3 1 2 1;
#X connect 4 0 3 0;
#X connect 5 0 9 0;
#X connect 6 0 7 0;
#X connect 7 0 5 0;
#X connect 8 0 2 0;
#X connect 9 0 23 0;
#X connect 9 0 35 0;
#X connect 10 0 11 0;
#X connect 11 0 5 1;
#X connect 15 0 16 0;
#X connect 16 0 17 0;
#X connect 17 0 35 1;
#X connect 18 0 19 0;
#X connect 19 0 20 0;
#X connect 20 0 21 0;
#X connect 20 1 22 2;
#X connect 21 0 22 1;
#X connect 22 0 15 0;
#X connect 23 0 24 0;
#X connect 24 0 27 0;
#X connect 27 0 22 0;
#X connect 28 0 27 1;
#X connect 29 0 28 0;
#X connect 30 0 31 0;
#X connect 31 0 23 1;
#X connect 32 0 33 0;
#X connect 33 0 9 1;
#X connect 34 0 6 0;
#X connect 35 0 0 0;
#X connect 36 0 6 1;
#X restore 1012 339 pd stream_4;
#X obj 348 206 r \$0-srate;
#X obj 246 229 expr 1/$f1*$f2, f 15;
#X obj 246 206 r \$0-slength;
#X floatatom 246 252 13 0 0 0 - - - 12;
#X obj 246 274 s \$0-rc;
#X text 349 251 rc (center playback rate);
#X obj 12 206 loadbang;
#X msg 12 229 0.15;
#X obj 12 13 loadbang;
#X msg 12 37 4, f 1;
#N canvas 744 88 591 621 stream_1 0;
#X obj 121 578 outlet~, f 8;
#X obj 12 33 r \$0-slength;
#X obj 12 131 /;
#X obj 22 104 t b f;
#X obj 22 81 r \$0-tmeta;
#X obj 119 196 *~;
#X obj 119 131 expr~ $v1+$v2;
#X obj 119 154 expr~ pow(2 \, $v1);
#X obj 12 57 expr $f1*ln(2);
#X obj 119 271 *~;
#X floatatom 12 154 13 0 0 0 - - - 0;
#X obj 12 177 sig~;
#X text 244 153 2^(te/τ)+v;
#X text 10 10 T*log2/τ;
#X text 16 258 Multiply with center rate, f 13;
#X obj 160 482 cos~;
#X obj 160 505 +~ 1;
#X obj 160 528 *~ 0.5;
#X obj 181 363 loadbang;
#X obj 181 387 expr 4*atan(1);
#X obj 181 411 t f f;
#X obj 181 435 * -1;
#X obj 160 460 clip~, f 8;
#X obj 160 290 expr~ $v1 / $v2;
#X obj 160 314 expr~ log($v1)/log(2);
#X text 214 527 p(r) = 1/2 * (cos [π*b/2 * log2(r/rc)]/-π \, π/ + 1);
#X text 152 195 r(v \, te) = T*log2/τ * 2^(te/τ)+v;
#X obj 160 338 expr~ $v1*(4*atan(1)*$v2/2);
#X obj 346 314 sig~;
#X obj 346 290 r \$0-b;
#X obj 262 242 r \$0-rc;
#X obj 262 266 sig~;
#X obj 137 223 r \$0-rc;
#X obj 137 247 sig~;
#X obj 119 85 inlet~ te/τ;
#X obj 121 554 snake~;
#X text 257 107 v (Stream level);
#X obj 207 108 sig~ 1;
#X text 167 386 π;
#X connect 1 0 8 0;
#X connect 2 0 10 0;
#X connect 3 0 2 0;
#X connect 3 1 2 1;
#X connect 4 0 3 0;
#X connect 5 0 9 0;
#X connect 6 0 7 0;
#X connect 7 0 5 0;
#X connect 8 0 2 0;
#X connect 9 0 23 0;
#X connect 9 0 35 0;
#X connect 10 0 11 0;
#X connect 11 0 5 1;
#X connect 15 0 16 0;
#X connect 16 0 17 0;
#X connect 17 0 35 1;
#X connect 18 0 19 0;
#X connect 19 0 20 0;
#X connect 20 0 21 0;
#X connect 20 1 22 2;
#X connect 21 0 22 1;
#X connect 22 0 15 0;
#X connect 23 0 24 0;
#X connect 24 0 27 0;
#X connect 27 0 22 0;
#X connect 28 0 27 1;
#X connect 29 0 28 0;
#X connect 30 0 31 0;
#X connect 31 0 23 1;
#X connect 32 0 33 0;
#X connect 33 0 9 1;
#X connect 34 0 6 0;
#X connect 35 0 0 0;
#X connect 37 0 6 1;
#X restore 262 339 pd stream_1;
#X text 41 36 Metabar duration factor \, e.g. τ = T * 4, f 40;
#X obj 30 386 r \$0-rares;
#X obj 280 386 r \$0-rares;
#X obj 530 386 r \$0-rares;
#X obj 780 386 r \$0-rares;
#X obj 1030 386 r \$0-rares;
#X obj 568 60 r \$0-tmeta;
#X obj 663 60 r \$0-srate;
#X floatatom 568 107 9 0 0 0 - - - 0;
#X obj 568 84 expr 1/$f1*$f2;
#X obj 546 252 phasor~;
#X text 606 251 te/τ;
#X obj 546 175 *, f 2;
#X obj 553 222 sel 1, f 6;
#X obj 546 274 s~ \$0-tet;
#X obj 546 13 inlet playback;
#X obj 556 37 s \$0-rares;
#X obj 546 153 f, f 2;
#X obj 568 130 t b f;
#N canvas 836 89 306 184 switch 0;
#X obj 12 9 inlet;
#X msg 105 55 -1, f 2;
#X msg 61 55 1, f 1;
#X obj 12 129 *, f 2;
#X obj 12 151 outlet;
#X obj 61 78 t b f;
#X obj 105 78 t b f;
#X obj 61 32 sel 0 1, f 13;
#X text 34 130 Accelerando/ decelerando, f 26;
#X obj 12 97 f, f 2;
#X obj 156 74 sig~;
#X obj 156 98 s~ \$0-directionsig;
#X obj 61 9 r \$0-direction;
#X obj 172 51 s \$0-tgldummy;
#X msg 172 28 0, f 1;
#X connect 0 0 9 0;
#X connect 1 0 6 0;
#X connect 1 0 10 0;
#X connect 2 0 5 0;
#X connect 2 0 10 0;
#X connect 3 0 4 0;
#X connect 5 0 9 0;
#X connect 5 1 3 1;
#X connect 6 0 9 0;
#X connect 6 1 3 1;
#X connect 7 0 2 0;
#X connect 7 1 1 0;
#X connect 9 0 3 0;
#X connect 10 0 11 0;
#X connect 12 0 7 0;
#X connect 12 0 14 0;
#X connect 14 0 13 0;
#X restore 546 199 pd switch;
#N canvas 925 348 306 91 pb_stereo 0;
#X obj 10 13 inlet~;
#X obj 10 59 outlet~;
#X obj 245 13 sig~ 1;
#X obj 10 36 tabread4~ \$0-rs_array \$0-rs_array2;
#X connect 0 0 3 0;
#X connect 2 0 3 1;
#X connect 3 0 1 0;
#X restore 318 483 pd pb_stereo;
#N canvas 925 348 306 91 pb_stereo 0;
#X obj 10 13 inlet~;
#X obj 10 59 outlet~;
#X obj 245 13 sig~ 1;
#X obj 10 36 tabread4~ \$0-rs_array \$0-rs_array2;
#X connect 0 0 3 0;
#X connect 2 0 3 1;
#X connect 3 0 1 0;
#X restore 68 483 pd pb_stereo;
#X obj 68 530 throw~ \$0-rs_bus;
#N canvas 925 348 306 91 pb_stereo 0;
#X obj 10 13 inlet~;
#X obj 10 59 outlet~;
#X obj 245 13 sig~ 1;
#X obj 10 36 tabread4~ \$0-rs_array \$0-rs_array2;
#X connect 0 0 3 0;
#X connect 2 0 3 1;
#X connect 3 0 1 0;
#X restore 818 483 pd pb_stereo;
#N canvas 925 348 306 91 pb_stereo 0;
#X obj 10 13 inlet~;
#X obj 10 59 outlet~;
#X obj 245 13 sig~ 1;
#X obj 10 36 tabread4~ \$0-rs_array \$0-rs_array2;
#X connect 0 0 3 0;
#X connect 2 0 3 1;
#X connect 3 0 1 0;
#X restore 568 483 pd pb_stereo;
#N canvas 925 348 306 91 pb_stereo 0;
#X obj 10 13 inlet~;
#X obj 10 59 outlet~;
#X obj 245 13 sig~ 1;
#X obj 10 36 tabread4~ \$0-rs_array \$0-rs_array2;
#X connect 0 0 3 0;
#X connect 2 0 3 1;
#X connect 3 0 1 0;
#X restore 1068 483 pd pb_stereo;
#X obj 62 554 s~ \$0-tlT0;
#X obj 312 554 s~ \$0-tlT1;
#X obj 562 554 s~ \$0-tlT2;
#X obj 812 554 s~ \$0-tlT3;
#X obj 1062 554 s~ \$0-tlT4;
#X obj 15 601 hsl 85 19 0 1 0 0 empty empty Stream\ 0 12 10 0 12 #fcfcfc #000000 #000000 0 1;
#X obj 265 601 hsl 85 19 0 1 0 0 empty empty Stream\ 1 12 10 0 12 #fcfcfc #000000 #000000 0 1;
#X obj 515 601 hsl 85 19 0 1 0 0 empty empty Stream\ 2 12 10 0 12 #fcfcfc #000000 #000000 0 1;
#X obj 765 601 hsl 85 19 0 1 0 0 empty empty Stream\ 3 12 10 0 12 #fcfcfc #000000 #000000 0 1;
#X obj 1015 601 hsl 85 19 0 1 0 0 empty empty Stream\ 4 12 10 0 12 #fcfcfc #000000 #000000 0 1;
#X obj 12 554 env~;
#X obj 12 578 dbtorms;
#X obj 262 554 env~;
#X obj 262 578 dbtorms;
#X obj 512 554 env~;
#X obj 512 578 dbtorms;
#X obj 762 554 env~;
#X obj 762 578 dbtorms;
#X obj 1012 554 env~;
#X obj 1012 578 dbtorms;
#X obj 1239 554 env~;
#X obj 1239 578 dbtorms;
#X obj 1242 601 hsl 85 19 0 1 0 0 \$0-meindic empty 1\ Metabar 10 10 0 12 #fcfcfc #000000 #000000 0 1;
#X obj 1239 531 r~ \$0-tet;
#X text 619 198 <- Accelerando/ Decelerando switch.;
#X connect 0 0 4 0;
#X connect 1 0 5 0;
#X connect 3 0 1 0;
#X connect 3 1 1 1;
#X connect 4 0 3 0;
#X connect 5 0 2 0;
#X connect 6 0 7 0;
#X connect 8 0 9 1;
#X connect 9 0 111 0;
#X connect 10 0 112 0;
#X connect 11 0 12 0;
#X connect 12 0 13 0;
#X connect 13 0 14 0;
#X connect 16 0 19 0;
#X connect 16 1 10 1;
#X connect 16 1 11 0;
#X connect 17 0 9 0;
#X connect 17 0 116 0;
#X connect 17 0 126 0;
#X connect 18 0 75 0;
#X connect 19 0 17 0;
#X connect 20 1 17 1;
#X connect 21 0 22 1;
#X connect 22 0 110 0;
#X connect 23 0 24 0;
#X connect 25 0 26 0;
#X connect 26 0 27 0;
#X connect 27 0 28 0;
#X connect 29 0 32 0;
#X connect 29 1 23 1;
#X connect 29 1 25 0;
#X connect 30 0 22 0;
#X connect 30 0 117 0;
#X connect 30 0 128 0;
#X connect 31 0 89 0;
#X connect 32 0 30 0;
#X connect 33 1 30 1;
#X connect 34 0 35 1;
#X connect 35 0 114 0;
#X connect 36 0 37 0;
#X connect 38 0 39 0;
#X connect 39 0 40 0;
#X connect 40 0 41 0;
#X connect 42 0 45 0;
#X connect 42 1 36 1;
#X connect 42 1 38 0;
#X connect 43 0 35 0;
#X connect 43 0 118 0;
#X connect 43 0 130 0;
#X connect 44 0 76 0;
#X connect 45 0 43 0;
#X connect 46 1 43 1;
#X connect 47 0 48 1;
#X connect 48 0 113 0;
#X connect 49 0 50 0;
#X connect 51 0 52 0;
#X connect 52 0 53 0;
#X connect 53 0 54 0;
#X connect 55 0 58 0;
#X connect 55 1 49 1;
#X connect 55 1 51 0;
#X connect 56 0 48 0;
#X connect 56 0 119 0;
#X connect 56 0 132 0;
#X connect 57 0 77 0;
#X connect 58 0 56 0;
#X connect 59 1 56 1;
#X connect 60 0 61 1;
#X connect 61 0 115 0;
#X connect 62 0 63 0;
#X connect 64 0 65 0;
#X connect 65 0 66 0;
#X connect 66 0 67 0;
#X connect 68 0 71 0;
#X connect 68 1 62 1;
#X connect 68 1 64 0;
#X connect 69 0 61 0;
#X connect 69 0 120 0;
#X connect 69 0 134 0;
#X connect 70 0 78 0;
#X connect 71 0 69 0;
#X connect 72 1 69 1;
#X connect 75 0 16 0;
#X connect 76 0 42 0;
#X connect 77 0 55 0;
#X connect 78 0 68 0;
#X connect 79 0 80 1;
#X connect 80 0 82 0;
#X connect 81 0 80 0;
#X connect 82 0 83 0;
#X connect 85 0 86 0;
#X connect 86 0 6 0;
#X connect 87 0 88 0;
#X connect 88 0 1 0;
#X connect 89 0 29 0;
#X connect 91 0 19 1;
#X connect 91 0 20 0;
#X connect 92 0 32 1;
#X connect 92 0 33 0;
#X connect 93 0 45 1;
#X connect 93 0 46 0;
#X connect 94 0 58 1;
#X connect 94 0 59 0;
#X connect 95 0 71 1;
#X connect 95 0 72 0;
#X connect 96 0 99 0;
#X connect 97 0 99 1;
#X connect 98 0 108 0;
#X connect 99 0 98 0;
#X connect 100 0 104 0;
#X connect 102 0 109 0;
#X connect 103 1 100 1;
#X connect 105 0 103 0;
#X connect 105 0 106 0;
#X connect 105 0 107 0;
#X connect 107 0 102 0;
#X connect 108 0 107 0;
#X connect 108 1 102 1;
#X connect 109 0 100 0;
#X connect 110 0 23 0;
#X connect 111 0 10 0;
#X connect 113 0 49 0;
#X connect 114 0 36 0;
#X connect 115 0 62 0;
#X connect 126 0 127 0;
#X connect 127 0 121 0;
#X connect 128 0 129 0;
#X connect 129 0 122 0;
#X connect 130 0 131 0;
#X connect 131 0 123 0;
#X connect 132 0 133 0;
#X connect 133 0 124 0;
#X connect 134 0 135 0;
#X connect 135 0 125 0;
#X connect 136 0 137 0;
#X connect 137 0 138 0;
#X connect 139 0 136 0;
#X restore 20 268 pd sampleplayer;
#X obj 258 183 bng 19 250 50 0 empty empty empty 0 -10 0 12 #9f9f9f #000000 #000000;
#N canvas 266 304 468 137 paper 0;
#X obj 11 13 inlet;
#X obj 11 104 pdcontrol;
#X msg 11 35 browse https://www.semanticscholar.org/paper/Scheduling-and-composing-with-Risset-eternal-Stowell/df6a5bf9566d609b120fe06cd7c2541f6aea453c;
#X connect 0 0 2 0;
#X connect 2 0 1 0;
#X restore 258 205 pd paper;
#N canvas 504 222 415 350 sampleloader 0;
#X obj 18 89 openpanel;
#X obj 18 264 soundfiler, f 14;
#X obj 113 286 unpack f;
#X obj 18 118 pack s f, f 11;
#X obj 18 309 s \$0-slength;
#X obj 92 64 loadbang;
#X obj 92 89 f \$0;
#X obj 33 143 unpack s;
#X obj 113 309 s \$0-srate;
#X obj 100 213 s \$0-filename;
#X obj 18 14 inlet;
#X text 206 161 Define array for second channel. Only channel 1 is used for display., f 23;
#X msg 18 239 read -resize \$1 \$2-rs_array \$2-rs_array2;
#X obj 33 166 file splitname;
#X obj 33 190 unpack s s;
#X obj 209 213 array define \$0-rs_array2;
#X obj 18 38 route bang symbol;
#X msg 112 118 \; \$1-rs_array edit 0;
#X msg 168 38 vis \$1;
#X obj 168 64 s \$0-rs_array;
#X obj 168 14 r \$0-vis;
#X obj 281 14 loadbang;
#X msg 281 38 1, f 1;
#X obj 281 64 s \$0-visdummy;
#X connect 0 0 3 0;
#X connect 1 0 4 0;
#X connect 1 1 2 0;
#X connect 2 0 8 0;
#X connect 3 0 12 0;
#X connect 3 0 7 0;
#X connect 5 0 6 0;
#X connect 6 0 3 1;
#X connect 6 0 17 0;
#X connect 7 0 13 0;
#X connect 10 0 16 0;
#X connect 12 0 1 0;
#X connect 13 0 14 0;
#X connect 14 1 9 0;
#X connect 16 0 0 0;
#X connect 16 1 3 0;
#X connect 18 0 19 0;
#X connect 20 0 18 0;
#X connect 21 0 22 0;
#X connect 22 0 23 0;
#X restore 20 58 pd sampleloader;
#X obj 20 10 inlet load sample;
#X obj 153 10 inlet playback;
#X obj 20 326 outlet~;
#X obj 20 302 catch~ \$0-rs_bus 2;
#X text 255 93 Jaycee is an extended \, modular implementation of Risset eternal accelerando rhythms for audio samples described by Dan Stowell in his 2011 paper "SCHEDULING AND COMPOSING WITH RISSET ETERNAL ACCELERANDO RHYTHMS"., f 45;
#X obj 20 189 bng 15 250 50 0 \$0-load \$0-loaddummy empty 0 -10 0 12 #c6feff #000000 #000000;
#X obj 205 91 tgl 15 0 \$0-tgl \$0-tgldummy empty 0 -10 0 12 #c6ffc7 #000000 #000000 0 1;
#X obj 20 245 r \$0-tgl;
#X obj 30 34 r \$0-load;
#X text 79 325 <-- Stereo out;
#X obj 153 58 s \$0-tgldummy;
#X obj 197 326 outlet;
#X obj 148 189 hsl 70 15 0 1 0 0 \$0-meindicdummy \$0-meindic Metabar 18 8 0 8 #fcfcfc #000000 #000000 0 1;
#N canvas 53 121 1169 339 detector 0;
#X obj 12 83 samphold~;
#X obj 12 128 snapshot~;
#X obj 40 106 bang~;
#X obj 12 151 change;
#X obj 12 59 abs~;
#X obj 218 83 samphold~;
#X obj 218 128 snapshot~;
#X obj 246 106 bang~;
#X obj 218 151 change;
#X obj 218 59 abs~;
#X obj 425 83 samphold~;
#X obj 425 128 snapshot~;
#X obj 453 106 bang~;
#X obj 425 151 change;
#X obj 425 59 abs~;
#X obj 631 83 samphold~;
#X obj 631 128 snapshot~;
#X obj 659 106 bang~;
#X obj 631 151 change;
#X obj 631 59 abs~;
#X obj 837 83 samphold~;
#X obj 837 128 snapshot~;
#X obj 865 106 bang~;
#X obj 837 151 change;
#X obj 837 59 abs~;
#X obj 12 11 r~ \$0-tlT0;
#X obj 218 11 r~ \$0-tlT1;
#X obj 425 11 r~ \$0-tlT2;
#X obj 631 11 r~ \$0-tlT3;
#X obj 837 11 r~ \$0-tlT4;
#X obj 915 11 r \$0-directionsig;
#X obj 708 11 r \$0-directionsig;
#X obj 503 11 r \$0-directionsig;
#X obj 296 11 r \$0-directionsig;
#X obj 90 11 r \$0-directionsig;
#X obj 837 35 expr~ $v2-$v1;
#X obj 631 35 expr~ $v2-$v1;
#X obj 425 35 expr~ $v2-$v1;
#X obj 218 35 expr~ $v2-$v1;
#X obj 12 35 expr~ $v2-$v1;
#X obj 425 292 outlet;
#X obj 953 106 r \$0-strmtrg;
#X obj 953 130 expr if($f1 == 0 \, 1 \, 0) \; if($f1 == 1 \, 1 \, 0) \; if($f1 == 2 \, 1 \, 0) \; if($f1 == 3 \, 1 \, 0) \; if($f1 == 4 \, 1 \, 0);
#X obj 12 205 spigot;
#X obj 218 205 spigot;
#X obj 425 205 spigot;
#X obj 631 205 spigot;
#X obj 837 205 spigot;
#X connect 0 0 1 0;
#X connect 1 0 3 0;
#X connect 2 0 1 0;
#X connect 3 0 43 0;
#X connect 4 0 0 1;
#X connect 4 0 0 0;
#X connect 5 0 6 0;
#X connect 6 0 8 0;
#X connect 7 0 6 0;
#X connect 8 0 44 0;
#X connect 9 0 5 1;
#X connect 9 0 5 0;
#X connect 10 0 11 0;
#X connect 11 0 13 0;
#X connect 12 0 11 0;
#X connect 13 0 45 0;
#X connect 14 0 10 1;
#X connect 14 0 10 0;
#X connect 15 0 16 0;
#X connect 16 0 18 0;
#X connect 17 0 16 0;
#X connect 18 0 46 0;
#X connect 19 0 15 1;
#X connect 19 0 15 0;
#X connect 20 0 21 0;
#X connect 21 0 23 0;
#X connect 22 0 21 0;
#X connect 23 0 47 0;
#X connect 24 0 20 1;
#X connect 24 0 20 0;
#X connect 25 0 39 0;
#X connect 26 0 38 0;
#X connect 27 0 37 0;
#X connect 28 0 36 0;
#X connect 29 0 35 0;
#X connect 30 0 35 1;
#X connect 31 0 36 1;
#X connect 32 0 37 1;
#X connect 33 0 38 1;
#X connect 34 0 39 1;
#X connect 35 0 24 0;
#X connect 36 0 19 0;
#X connect 37 0 14 0;
#X connect 38 0 9 0;
#X connect 39 0 4 0;
#X connect 41 0 42 0;
#X connect 42 0 43 1;
#X connect 42 1 44 1;
#X connect 42 2 45 1;
#X connect 42 3 46 1;
#X connect 42 4 47 1;
#X connect 43 0 40 0;
#X connect 44 0 40 0;
#X connect 45 0 40 0;
#X connect 46 0 40 0;
#X connect 47 0 40 0;
#X restore 197 300 pd detector;
#X obj 170 91 hradio 15 1 0 2 \$0-direction \$0-directiondummy +\ - 4 8 0 12 #fcfcfc #000000 #000000 0;
#X obj 256 57 s \$0-directiondummy;
#X obj 20 169 tgl 15 0 \$0-vis \$0-visdummy Plot 18 8 0 8 #ffc7c6 #000000 #000000 0 1;
#X obj 401 57 s \$0-visdummy;
#X obj 153 34 unpack f f f, f 30;
#X text 395 259 Martin Heinze. 03.11.2024;
#X obj 145 209 hradio 15 1 0 5 \$0-strmtrg \$0-strmtrginit Stream\ Trg. -57 8 0 8 #fcfcfc #000000 #000000 0;
#X text 282 182 <- click to open paper;
#X text 250 325 <- Bang on stream restarts. Select via Stream trg.;
#N canvas 672 52 215 155 presets 0;
#X obj 16 11 loadbang;
#X obj 16 35 f \$0;
#X msg 16 59 \; \$1-directiondummy 0 \; \$1-visdummy 1 \; \$1-tgldummy 0 \; \$1-strmtrginit 3;
#X connect 0 0 1 0;
#X connect 1 0 2 0;
#X restore 291 10 pd presets;
#X connect 3 0 4 0;
#X connect 6 0 5 0;
#X connect 7 0 24 0;
#X connect 9 0 8 0;
#X connect 13 0 2 0;
#X connect 14 0 5 0;
#X connect 19 0 17 0;
#X connect 24 0 16 0;
#X connect 24 1 21 0;
#X connect 24 2 23 0;
#X coords 0 -1 1 1 220 145 2 10 85;
