#N canvas 315 270 474 329 12;
#X obj 21 11 inlet~;
#X obj 39 59 lop~ 1;
#X obj 21 179 *~;
#X obj 21 204 outlet~;
#X obj 298 61 loadbang;
#X obj 298 85 bng 19 250 50 0 empty empty empty 0 -10 0 12 #fcfcfc #000000 #000000;
#X obj 298 109 f \$0;
#X obj 39 36 r \$0-lfader;
#X obj 192 98 vsl 19 90 0 1 0 0 \$0-lfader \$0-lfaderinit empty 0 -9 0 12 #889999 #000000 #000000 0 1;
#X obj 221 69 vu 19 120 \$0-lfdvum empty -1 -10 0 8 #404040 #000000 1 0;
#X obj 90 198 snake~ out;
#X obj 90 222 env~ 1024;
#X text 296 234 lfader is a simple linefader abstraction., f 22;
#X obj 192 70 tgl 19 0 \$0-mute \$0-muteinit Mute 1 -6 0 8 #fcfcfc #000000 #000000 0 1;
#X obj 57 84 r \$0-mute;
#X obj 39 155 *~;
#X obj 57 108 != 1;
#X obj 57 132 lop~ 10;
#N canvas 730 110 173 199 fadercol 0;
#X msg 13 128 color \$1 \$2 \$3;
#X obj 13 152 s \$0-lfaderinit;
#X obj 13 38 sel 0;
#X obj 13 14 r \$0-mute;
#X msg 87 62 list #666666 #444444 #000000, f 7;
#X msg 13 62 list #889999 #000000 #000000, f 7;
#X connect 0 0 1 0;
#X connect 2 0 5 0;
#X connect 2 1 4 0;
#X connect 3 0 2 0;
#X connect 4 0 0 0;
#X connect 5 0 0 0;
#X restore 298 202 pd fadercol;
#X obj 90 246 - 100;
#X obj 90 270 s \$0-lfdvum;
#X msg 298 133 \; \$1-lfaderinit 0.7 \; \$1-muteinit 0;
#X obj 298 11 inlet;
#X obj 298 36 s \$0-lfaderinit;
#X text 296 277 Author: Martin Heinze. Last updated 09.11.25, f 22;
#X connect 0 0 2 0;
#X connect 1 0 15 0;
#X connect 2 0 3 0;
#X connect 2 0 10 0;
#X connect 4 0 5 0;
#X connect 5 0 6 0;
#X connect 6 0 21 0;
#X connect 7 0 1 0;
#X connect 10 0 11 0;
#X connect 11 0 19 0;
#X connect 14 0 16 0;
#X connect 15 0 2 1;
#X connect 16 0 17 0;
#X connect 17 0 15 1;
#X connect 19 0 20 0;
#X connect 22 0 23 0;
#X coords 0 -1 1 1 90 150 2 180 50;
