#N canvas 316 191 832 282 12;
#X obj 643 141 hsl 155 19 1 0 0 0 \$0-xfader \$0-xfaderinit empty -2 -10 0 12 #00faff #000000 #000000 0 1;
#X obj 120 75 r \$0-xfader;
#X obj 475 21 inlet;
#X obj 475 45 s \$0-xfaderinit;
#X obj 21 21 inlet~;
#X obj 120 125 lop~ 1;
#X obj 21 160 *~;
#X obj 120 100 sig~;
#X obj 310 45 sig~ 1;
#X obj 310 100 -~;
#X obj 328 75 r \$0-xfader;
#X obj 211 234 outlet~;
#X obj 21 45 snake~ out 2;
#X obj 102 160 *~;
#X obj 310 125 lop~ 1;
#X obj 211 21 inlet~;
#X obj 211 160 *~;
#X obj 211 45 snake~ out 2;
#X obj 292 160 *~;
#X obj 21 184 snake~ in 2, f 12;
#X obj 211 184 snake~ in 2, f 12;
#X text 265 20 2 multichannel inputs;
#X text 273 233 1 multichannel output;
#X obj 640 21 loadbang;
#X obj 640 45 bng 19 250 50 0 empty empty empty 0 -10 0 12 #fcfcfc #000000 #000000;
#X obj 640 69 f \$0;
#X msg 640 93 \; \$1-xfaderinit 0.5;
#X text 466 207 linxfader is a simple linear crossfader abstraction with multichannel in/output. Last updated 02.01.24, f 42;
#X connect 1 0 7 0;
#X connect 2 0 3 0;
#X connect 4 0 12 0;
#X connect 5 0 6 1;
#X connect 5 0 13 1;
#X connect 6 0 19 0;
#X connect 7 0 5 0;
#X connect 8 0 9 0;
#X connect 9 0 14 0;
#X connect 10 0 9 1;
#X connect 12 0 6 0;
#X connect 12 1 13 0;
#X connect 13 0 19 1;
#X connect 14 0 18 1;
#X connect 14 0 16 1;
#X connect 15 0 17 0;
#X connect 16 0 20 0;
#X connect 17 0 16 0;
#X connect 17 1 18 0;
#X connect 18 0 20 1;
#X connect 19 0 11 0;
#X connect 20 0 11 0;
#X connect 23 0 24 0;
#X connect 24 0 25 0;
#X connect 25 0 26 0;
#X coords 0 -1 1 1 170 30 2 635 135;
