#N canvas 325 88 737 142 12;
#X obj 148 19 inlet;
#N canvas 105 230 260 439 lucsmall 0;
#X obj 20 20 loadbang;
#X obj 20 70 t b b;
#X obj 20 44 bng 19 250 50 0 empty empty empty 0 -10 0 12 #fcfcfc #000000 #000000;
#X msg 20 123 2 1 3 4 7;
#X obj 20 146 array set \$0-lucsmall;
#X obj 52 95 array define \$0-lucsmall 5;
#X obj 73 235 i;
#X obj 73 259 + 1;
#X obj 20 212 bng 19 250 50 0 empty empty empty 0 -10 0 12 #fcfcfc #000000 #000000;
#X obj 20 235 i;
#X obj 20 259 + 1;
#X obj 20 306 sel 0;
#X obj 20 330 bng 19 250 50 0 empty empty empty 0 -10 0 12 #fcfcfc #000000 #000000;
#X obj 73 282 mod 5;
#X obj 73 306 array get \$0-lucsmall;
#X obj 20 188 inlet;
#X obj 20 282 mod 2;
#X obj 73 380 bng 19 250 50 0 empty empty empty 0 -10 0 12 #fcfcfc #000000 #000000;
#X obj 73 404 outlet;
#X obj 20 404 outlet;
#X obj 73 354 sel 2;
#X obj 20 354 t b b;
#X obj 73 330 t f f;
#X connect 0 0 2 0;
#X connect 1 0 3 0;
#X connect 1 1 5 0;
#X connect 2 0 1 0;
#X connect 3 0 4 0;
#X connect 6 0 7 0;
#X connect 7 0 13 0;
#X connect 8 0 9 0;
#X connect 9 0 10 0;
#X connect 10 0 16 0;
#X connect 11 0 12 0;
#X connect 12 0 21 0;
#X connect 13 0 6 1;
#X connect 13 0 14 0;
#X connect 14 0 22 0;
#X connect 15 0 8 0;
#X connect 16 0 9 1;
#X connect 16 0 11 0;
#X connect 17 0 18 0;
#X connect 20 0 17 0;
#X connect 21 0 19 0;
#X connect 21 1 6 0;
#X connect 22 0 16 1;
#X connect 22 1 20 0;
#X restore 17 47 pd lucsmall;
#X obj 17 81 bng 19 250 50 0 empty empty empty 0 -10 0 12 #fcfcfc #000000 #000000;
#X obj 148 81 bng 19 250 50 0 empty empty empty 0 -10 0 12 #fcfcfc #000000 #000000;
#X obj 17 105 outlet;
#X obj 148 105 outlet;
#X obj 266 81 bng 19 250 50 0 empty empty empty 0 -10 0 12 #fcfcfc #000000 #000000;
#X obj 266 105 outlet;
#X obj 91 81 bng 19 250 50 0 empty empty empty 0 -10 0 12 #fcfcfc #000000 #000000;
#X obj 91 105 outlet;
#X obj 208 81 bng 19 250 50 0 empty empty empty 0 -10 0 12 #fcfcfc #000000 #000000;
#X obj 208 105 outlet;
#X obj 326 81 bng 19 250 50 0 empty empty empty 0 -10 0 12 #fcfcfc #000000 #000000;
#X obj 326 105 outlet;
#N canvas 385 226 253 443 lucmed 0;
#X obj 20 20 loadbang;
#X obj 20 70 t b b;
#X obj 20 44 bng 19 250 50 0 empty empty empty 0 -10 0 12 #fcfcfc #000000 #000000;
#X msg 20 122 2 1 3 4 7 11 18 29 47 76;
#X obj 52 95 array define \$0-lucmed 10;
#X obj 20 149 array set \$0-lucmed;
#X obj 73 235 i;
#X obj 73 259 + 1;
#X obj 20 212 bng 19 250 50 0 empty empty empty 0 -10 0 12 #fcfcfc #000000 #000000;
#X obj 20 235 i;
#X obj 20 259 + 1;
#X obj 20 306 sel 0;
#X obj 20 330 bng 19 250 50 0 empty empty empty 0 -10 0 12 #fcfcfc #000000 #000000;
#X obj 20 188 inlet;
#X obj 20 282 mod 2;
#X obj 73 380 bng 19 250 50 0 empty empty empty 0 -10 0 12 #fcfcfc #000000 #000000;
#X obj 73 404 outlet;
#X obj 20 404 outlet;
#X obj 73 354 sel 2;
#X obj 20 354 t b b;
#X obj 73 330 t f f;
#X obj 73 282 mod 10;
#X obj 73 306 array get \$0-lucmed;
#X connect 0 0 2 0;
#X connect 1 0 3 0;
#X connect 1 1 4 0;
#X connect 2 0 1 0;
#X connect 3 0 5 0;
#X connect 6 0 7 0;
#X connect 7 0 21 0;
#X connect 8 0 9 0;
#X connect 9 0 10 0;
#X connect 10 0 14 0;
#X connect 11 0 12 0;
#X connect 12 0 19 0;
#X connect 13 0 8 0;
#X connect 14 0 9 1;
#X connect 14 0 11 0;
#X connect 15 0 16 0;
#X connect 18 0 15 0;
#X connect 19 0 17 0;
#X connect 19 1 6 0;
#X connect 20 0 14 1;
#X connect 20 1 18 0;
#X connect 21 0 6 1;
#X connect 21 0 22 0;
#X connect 22 0 20 0;
#X restore 148 47 pd lucmed;
#N canvas 684 227 355 445 luclrg 0;
#X obj 20 20 loadbang;
#X obj 20 70 t b b;
#X obj 20 44 bng 19 250 50 0 empty empty empty 0 -10 0 12 #fcfcfc #000000 #000000;
#X msg 20 123 2 1 3 4 7 11 18 29 47 76 123 199 322 521 843;
#X obj 52 95 array define \$0-luclrg 15;
#X obj 20 146 array set \$0-luclrg;
#X obj 73 235 i;
#X obj 73 259 + 1;
#X obj 20 212 bng 19 250 50 0 empty empty empty 0 -10 0 12 #fcfcfc #000000 #000000;
#X obj 20 235 i;
#X obj 20 259 + 1;
#X obj 20 306 sel 0;
#X obj 20 330 bng 19 250 50 0 empty empty empty 0 -10 0 12 #fcfcfc #000000 #000000;
#X obj 20 188 inlet;
#X obj 20 282 mod 2;
#X obj 73 380 bng 19 250 50 0 empty empty empty 0 -10 0 12 #fcfcfc #000000 #000000;
#X obj 73 404 outlet;
#X obj 20 404 outlet;
#X obj 73 354 sel 2;
#X obj 20 354 t b b;
#X obj 73 330 t f f;
#X obj 73 282 mod 15;
#X obj 73 306 array get \$0-luclrg;
#X connect 0 0 2 0;
#X connect 1 0 3 0;
#X connect 1 1 4 0;
#X connect 2 0 1 0;
#X connect 3 0 5 0;
#X connect 6 0 7 0;
#X connect 7 0 21 0;
#X connect 8 0 9 0;
#X connect 9 0 10 0;
#X connect 10 0 14 0;
#X connect 11 0 12 0;
#X connect 12 0 19 0;
#X connect 13 0 8 0;
#X connect 14 0 9 1;
#X connect 14 0 11 0;
#X connect 15 0 16 0;
#X connect 18 0 15 0;
#X connect 19 0 17 0;
#X connect 19 1 6 0;
#X connect 20 0 14 1;
#X connect 20 1 18 0;
#X connect 21 0 6 1;
#X connect 21 0 22 0;
#X connect 22 0 20 0;
#X restore 266 47 pd luclrg;
#X text 411 18 Lucas generates bang patterns based on the Lucas number sequence. Inlet takes in bangs e.g. from main metro and forwards to three different Lucas number sequence length sub patches. First outlets bang on Lucas numbers \, second outlets bang on cycle completion. Last updated 08.08.23, f 41;
#X connect 0 0 1 0;
#X connect 0 0 14 0;
#X connect 0 0 15 0;
#X connect 1 0 2 0;
#X connect 1 1 8 0;
#X connect 2 0 4 0;
#X connect 3 0 5 0;
#X connect 6 0 7 0;
#X connect 8 0 9 0;
#X connect 10 0 11 0;
#X connect 12 0 13 0;
#X connect 14 0 3 0;
#X connect 14 1 10 0;
#X connect 15 0 6 0;
#X connect 15 1 12 0;
