#N canvas 264 55 640 310 12;
#X obj 21 213 dac~, f 18;
#X obj 349 118 vsl 18 55 0 1 0 0 \$0-mainvol \$0-mainvolinit VOL 0 -9 0 8 #fcfcfc #000000 #000000 0 1;
#X obj 464 103 loadbang;
#X obj 323 116 tgl 15 0 \$0-dac \$0-dacinit DAC 0 -7 0 8 #00ff04 #000000 #000000 0 1;
#X msg 285 48 \; pd dsp \$1;
#X obj 381 112 vu 15 80 \$0-vul empty -1 -8 0 10 #404040 #000000 0 0;
#X obj 404 112 vu 15 80 \$0-vur empty -1 -8 0 8 #404040 #000000 1 0;
#X obj 380 48 env~;
#X obj 454 48 env~;
#X obj 21 20 inlet~;
#X obj 144 20 inlet~;
#X obj 323 179 tgl 15 0 \$0-rec \$0-recinit Rec. 0 -7 0 8 #00faff #000000 #000000 0 1;
#X obj 380 72 - 100;
#X obj 454 72 - 100;
#X msg 162 65 \$1 20;
#X obj 162 89 line 0 1;
#X obj 21 158 hip~ 5;
#X obj 144 158 hip~ 5;
#X text 19 242 Master out component. Requires porres' ELSE external for generation of record file name based on current time stamp.;
#X obj 285 20 r \$0-dac;
#X obj 464 131 f \$0;
#X obj 162 43 r \$0-mainvol;
#X obj 21 113 *~;
#X obj 144 113 *~;
#X obj 29 181 s~ \$0-al;
#X obj 151 181 s~ \$0-ar;
#X obj 454 20 r~ \$0-ar;
#X obj 380 20 r~ \$0-al;
#X obj 21 135 clip~ -2 2;
#X obj 144 135 clip~ -2 2;
#X msg 464 155 \; \$1-dacinit 0 \; \$1-recinit 0 \; \$1-mainvolinit 0.7;
#X floatatom 349 180 4 0 0 2 - \$0-mainvol \$0-mainvoldummy 8;
#N canvas 918 81 238 242 recorder 0;
#X obj 20 192 writesf~ 2, f 16;
#X msg 66 135 start;
#X msg 20 135 stop;
#X msg 52 87 open -bytes 4 \$1;
#X obj 20 110 sel 0, f 7;
#X obj 20 42 t f f;
#X obj 20 18 r \$0-rec;
#N canvas 788 329 455 306 filenamegen 0;
#X obj 25 15 inlet;
#X obj 25 99 pdcontrol;
#X msg 25 145 set \$1;
#X obj 25 241 makefilename;
#X obj 25 52 sel 1;
#X obj 36 174 bng 19 250 50 0 empty empty empty 0 -10 0 12 #fcfcfc #000000 #000000;
#N canvas 735 115 428 353 concatdatetime 0;
#X obj 19 322 outlet;
#N canvas 136 388 173 168 filename 0;
#X obj 17 14 inlet;
#X msg 17 38 set \$1;
#X obj 17 102 makefilename;
#X obj 17 126 outlet;
#X obj 101 14 inlet;
#X connect 0 0 1 0;
#X connect 1 0 2 0;
#X connect 2 0 3 0;
#X connect 4 0 2 0;
#X restore 107 209 pd filename;
#N canvas 136 388 173 168 filename 0;
#X obj 17 14 inlet;
#X msg 17 38 set \$1;
#X obj 17 102 makefilename;
#X obj 17 126 outlet;
#X obj 101 14 inlet;
#X connect 0 0 1 0;
#X connect 1 0 2 0;
#X connect 2 0 3 0;
#X connect 4 0 2 0;
#X restore 107 182 pd filename;
#X obj 107 130 unpack f f f;
#N canvas 136 388 173 168 filename 0;
#X obj 17 14 inlet;
#X msg 17 38 set \$1;
#X obj 17 102 makefilename;
#X obj 17 126 outlet;
#X obj 101 14 inlet;
#X connect 0 0 1 0;
#X connect 1 0 2 0;
#X connect 2 0 3 0;
#X connect 4 0 2 0;
#X restore 19 130 pd filename;
#N canvas 136 388 173 168 filename 0;
#X obj 17 14 inlet;
#X msg 17 38 set \$1;
#X obj 17 102 makefilename;
#X obj 17 126 outlet;
#X obj 101 14 inlet;
#X connect 0 0 1 0;
#X connect 1 0 2 0;
#X connect 2 0 3 0;
#X connect 4 0 2 0;
#X restore 19 263 pd filename;
#X text 276 156 Concatenate yymmdd;
#X obj 19 48 else/datetime;
#X obj 19 14 inlet;
#X text 62 14 Input Bang;
#N canvas 136 388 173 168 filename 0;
#X obj 17 14 inlet;
#X msg 17 38 set \$1;
#X obj 17 102 makefilename;
#X obj 17 126 outlet;
#X obj 101 14 inlet;
#X connect 0 0 1 0;
#X connect 1 0 2 0;
#X connect 2 0 3 0;
#X connect 4 0 2 0;
#X restore 19 157 pd filename;
#X obj 19 78 unpack f f f;
#X text 188 103 Concatenate hhmmss, f 19;
#X listbox 19 287 20 0 0 0 - - - 0;
#X text 121 47 Requires porres' ELSE external;
#X obj 19 236 makefilename %s_%%s;
#X text 162 235 Concatenate to yymmdd_hhmmss;
#X obj 19 104 makefilename %%%%d%%d%d;
#X obj 107 157 makefilename %%%%d%%d%d;
#X connect 1 0 15 0;
#X connect 2 0 1 0;
#X connect 3 0 1 1;
#X connect 3 1 2 1;
#X connect 3 2 18 0;
#X connect 4 0 10 0;
#X connect 5 0 13 0;
#X connect 7 0 11 0;
#X connect 7 1 3 0;
#X connect 8 0 7 0;
#X connect 10 0 5 1;
#X connect 11 0 10 1;
#X connect 11 1 4 1;
#X connect 11 2 17 0;
#X connect 13 0 0 0;
#X connect 15 0 5 0;
#X connect 17 0 4 0;
#X connect 18 0 2 0;
#X restore 59 174 pd concatdatetime;
#X obj 25 122 makefilename %s/rec_%%s.wav;
#X obj 196 174 bng 19 250 50 0 empty empty empty 0 -10 0 12 #fcfcfc #000000 #000000;
#X obj 219 174 random 10000;
#X floatatom 219 197 5 0 0 0 - - - 0;
#X text 216 222 Connect random number generator to makefilename object instead \, if ELSE is missing, f 27;
#X obj 25 265 outlet;
#X msg 25 76 dir 1;
#X connect 0 0 4 0;
#X connect 1 0 7 0;
#X connect 2 0 3 0;
#X connect 2 0 5 0;
#X connect 2 0 8 0;
#X connect 3 0 12 0;
#X connect 4 0 13 0;
#X connect 5 0 6 0;
#X connect 6 0 3 0;
#X connect 7 0 2 0;
#X connect 8 0 9 0;
#X connect 9 0 10 0;
#X connect 13 0 1 0;
#X restore 52 64 pd filenamegen;
#X obj 129 165 r~ \$0-ar;
#X obj 61 165 r~ \$0-al;
#X connect 1 0 0 0;
#X connect 2 0 0 0;
#X connect 3 0 0 0;
#X connect 4 0 2 0;
#X connect 4 1 1 0;
#X connect 5 0 4 0;
#X connect 5 1 7 0;
#X connect 6 0 5 0;
#X connect 7 0 3 0;
#X connect 8 0 0 1;
#X connect 9 0 0 0;
#X restore 464 220 pd recorder;
#X connect 2 0 20 0;
#X connect 7 0 12 0;
#X connect 8 0 13 0;
#X connect 9 0 22 0;
#X connect 10 0 23 0;
#X connect 12 0 5 0;
#X connect 13 0 6 0;
#X connect 14 0 15 0;
#X connect 15 0 22 1;
#X connect 15 0 23 1;
#X connect 16 0 0 0;
#X connect 16 0 24 0;
#X connect 17 0 0 1;
#X connect 17 0 25 0;
#X connect 19 0 4 0;
#X connect 20 0 30 0;
#X connect 21 0 14 0;
#X connect 22 0 28 0;
#X connect 23 0 29 0;
#X connect 26 0 8 0;
#X connect 27 0 7 0;
#X connect 28 0 16 0;
#X connect 29 0 17 0;
#X coords 0 -1 1 1 135 100 2 315 100;
