#N canvas 285 -852 736 449 12;
#X obj 86 348 vsl 15 65 0 1 0 0 \$0-mainvol \$0-mainvolinit VOL 0 -8 0 10 #fcfcfc #000000 #000000 0 1;
#X obj 465 245 loadbang;
#X obj 36 346 tgl 15 0 \$0-dac \$0-dacinit DAC 0 -6 0 10 #00ff04 #000000 #000000 0 1;
#X msg 326 358 \; pd dsp \$1;
#X obj 112 334 vu 15 80 \$0-vul empty -1 -8 0 10 #404040 #000000 0 0;
#X obj 175 334 vu 15 80 \$0-vur empty -1 -8 0 8 #404040 #000000 1 0;
#X obj 21 268 env~;
#X obj 223 268 env~;
#X obj 21 30 inlet~;
#X obj 143 30 inlet~;
#X obj 36 401 tgl 15 0 \$0-rec \$0-recinit Rec. 0 -6 0 10 #00faff #000000 #000000 0 1;
#X obj 66 348 vsl 15 65 0.5 1.5 0 0 \$0-od \$0-odinit IN 0 -8 0 10 #fcfcfc #000000 #000000 0 1;
#X obj 21 292 - 100;
#X obj 223 292 - 100;
#X obj 510 13 r \$0-od;
#X obj 326 335 r \$0-dac;
#X obj 465 268 f \$0;
#X obj 510 63 r \$0-mainvol;
#X obj 21 55 *~;
#X obj 143 55 *~;
#X obj 21 103 *~;
#X obj 143 103 *~;
#X obj 29 171 s~ \$0-al;
#X obj 150 171 s~ \$0-ar;
#X obj 21 245 r~ \$0-al;
#X obj 21 78 expr~ atan($v1);
#X obj 143 78 expr~ atan($v1);
#X msg 465 292 \; \$1-dacinit 0 \; \$1-recinit 0 \; \$1-odinit 0.5 \; \$1-mainvolinit 0.7;
#X obj 510 84 lop~ 1;
#X obj 510 36 lop~ 1;
#X obj 36 373 bng 15 250 50 0 \$0-mute \$0-muteinit Mute 0 -6 0 10 #fcfcfc #000000 #000000;
#X obj 326 245 r \$0-mute;
#X obj 326 268 f \$0;
#X msg 326 292 \; \$1-mainvolinit 0;
#X obj 21 125 clip~ -1 1;
#X obj 143 125 clip~ -1 1;
#X obj 21 148 hip~ 5;
#X obj 143 148 hip~ 5;
#X obj 266 30 inlet~;
#X obj 266 55 *~;
#X obj 266 103 *~;
#X obj 266 78 expr~ atan($v1);
#X obj 266 125 clip~ -1 1;
#X obj 266 148 hip~ 5;
#X obj 274 171 s~ \$0-aff;
#X obj 389 30 inlet~;
#X obj 389 55 *~;
#X obj 389 103 *~;
#X obj 389 78 expr~ atan($v1);
#X obj 389 125 clip~ -1 1;
#X obj 389 148 hip~ 5;
#X obj 397 171 s~ \$0-arr;
#X obj 21 196 dac~ 1 2 3 4, f 53;
#X obj 132 334 vu 15 80 \$0-vul empty -1 -8 0 10 #404040 #000000 0 0;
#X obj 86 268 env~;
#X obj 86 292 - 100;
#X obj 86 245 r~ \$0-al;
#X obj 152 334 vu 15 80 \$0-vul empty -1 -8 0 10 #404040 #000000 0 0;
#X obj 151 268 env~;
#X obj 151 292 - 100;
#X obj 151 245 r~ \$0-aff;
#X obj 223 245 r~ \$0-arr;
#N canvas 579 -518 450 300 recorder 1;
#X msg 61 131 start;
#X msg 15 131 stop;
#X msg 47 83 open -bytes 4 \$1;
#X obj 15 106 sel 0, f 7;
#X obj 15 38 t f f;
#X obj 15 14 r \$0-rec;
#N canvas 788 329 417 284 filenamegen 0;
#X obj 15 15 inlet;
#X obj 15 86 pdcontrol;
#X msg 15 132 set \$1;
#X obj 15 228 makefilename;
#X obj 15 39 sel 1;
#X obj 26 161 bng 19 250 50 0 empty empty empty 0 -10 0 12 #fcfcfc #000000 #000000;
#N canvas 735 115 428 353 concatdatetime 0;
#X obj 19 322 outlet;
#N canvas 136 388 173 168 filename 0;
#X obj 17 14 inlet;
#X msg 17 38 set \$1;
#X obj 17 102 makefilename;
#X obj 17 126 outlet;
#X obj 101 14 inlet;
#X connect 0 0 1 0;
#X connect 1 0 2 0;
#X connect 2 0 3 0;
#X connect 4 0 2 0;
#X restore 107 209 pd filename;
#N canvas 136 388 173 168 filename 0;
#X obj 17 14 inlet;
#X msg 17 38 set \$1;
#X obj 17 102 makefilename;
#X obj 17 126 outlet;
#X obj 101 14 inlet;
#X connect 0 0 1 0;
#X connect 1 0 2 0;
#X connect 2 0 3 0;
#X connect 4 0 2 0;
#X restore 107 182 pd filename;
#X obj 107 130 unpack f f f;
#N canvas 136 388 173 168 filename 0;
#X obj 17 14 inlet;
#X msg 17 38 set \$1;
#X obj 17 102 makefilename;
#X obj 17 126 outlet;
#X obj 101 14 inlet;
#X connect 0 0 1 0;
#X connect 1 0 2 0;
#X connect 2 0 3 0;
#X connect 4 0 2 0;
#X restore 19 130 pd filename;
#N canvas 136 388 173 168 filename 0;
#X obj 17 14 inlet;
#X msg 17 38 set \$1;
#X obj 17 102 makefilename;
#X obj 17 126 outlet;
#X obj 101 14 inlet;
#X connect 0 0 1 0;
#X connect 1 0 2 0;
#X connect 2 0 3 0;
#X connect 4 0 2 0;
#X restore 19 263 pd filename;
#X text 276 156 Concatenate yymmdd;
#X obj 19 48 else/datetime;
#X obj 19 14 inlet;
#X text 62 14 Input Bang;
#N canvas 136 388 173 168 filename 0;
#X obj 17 14 inlet;
#X msg 17 38 set \$1;
#X obj 17 102 makefilename;
#X obj 17 126 outlet;
#X obj 101 14 inlet;
#X connect 0 0 1 0;
#X connect 1 0 2 0;
#X connect 2 0 3 0;
#X connect 4 0 2 0;
#X restore 19 157 pd filename;
#X obj 19 78 unpack f f f;
#X text 188 103 Concatenate hhmmss, f 19;
#X listbox 19 287 20 0 0 0 - - - 0;
#X text 121 47 Requires porres' ELSE external;
#X obj 19 236 makefilename %s_%%s;
#X text 162 235 Concatenate to yymmdd_hhmmss;
#X obj 19 104 makefilename %%%%d%%d%d;
#X obj 107 157 makefilename %%%%d%%d%d;
#X connect 1 0 15 0;
#X connect 2 0 1 0;
#X connect 3 0 1 1;
#X connect 3 1 2 1;
#X connect 3 2 18 0;
#X connect 4 0 10 0;
#X connect 5 0 13 0;
#X connect 7 0 11 0;
#X connect 7 1 3 0;
#X connect 8 0 7 0;
#X connect 10 0 5 1;
#X connect 11 0 10 1;
#X connect 11 1 4 1;
#X connect 11 2 17 0;
#X connect 13 0 0 0;
#X connect 15 0 5 0;
#X connect 17 0 4 0;
#X connect 18 0 2 0;
#X restore 26 183 pd concatdatetime;
#X obj 15 109 makefilename %s/rec_%%s.wav;
#X obj 156 161 bng 19 250 50 0 empty empty empty 0 -10 0 12 #fcfcfc #000000 #000000;
#X obj 156 183 random 10000;
#X floatatom 156 205 5 0 0 0 - - - 0;
#X text 198 204 Connect random number generator to makefilename object instead \, if ELSE is missing, f 27;
#X obj 15 252 outlet;
#X msg 15 63 dir 1;
#X connect 0 0 4 0;
#X connect 1 0 7 0;
#X connect 2 0 3 0;
#X connect 2 0 5 0;
#X connect 2 0 8 0;
#X connect 3 0 12 0;
#X connect 4 0 13 0;
#X connect 5 0 6 0;
#X connect 6 0 3 0;
#X connect 7 0 2 0;
#X connect 8 0 9 0;
#X connect 9 0 10 0;
#X connect 13 0 1 0;
#X restore 47 60 pd filenamegen;
#X obj 126 161 r~ \$0-ar;
#X obj 56 161 r~ \$0-al;
#X obj 15 188 writesf~ 4, f 37;
#X obj 196 161 r~ \$0-aff;
#X obj 273 161 r~ \$0-arr;
#X connect 0 0 9 0;
#X connect 1 0 9 0;
#X connect 2 0 9 0;
#X connect 3 0 1 0;
#X connect 3 1 0 0;
#X connect 4 0 3 0;
#X connect 4 1 6 0;
#X connect 5 0 4 0;
#X connect 6 0 2 0;
#X connect 7 0 9 1;
#X connect 8 0 9 0;
#X connect 10 0 9 2;
#X connect 11 0 9 3;
#X restore 326 401 pd recorder;
#X text 497 120 4 channel master out abstraction. Requires porres' ELSE external for generation of record file name based on current time stamp., f 30;
#X text 546 400 Last updated 14.03.2025;
#X text 560 383 Author: Martin Heinze;
#X connect 1 0 16 0;
#X connect 6 0 12 0;
#X connect 7 0 13 0;
#X connect 8 0 18 0;
#X connect 9 0 19 0;
#X connect 12 0 4 0;
#X connect 13 0 5 0;
#X connect 14 0 29 0;
#X connect 15 0 3 0;
#X connect 16 0 27 0;
#X connect 17 0 28 0;
#X connect 18 0 25 0;
#X connect 19 0 26 0;
#X connect 20 0 34 0;
#X connect 21 0 35 0;
#X connect 24 0 6 0;
#X connect 25 0 20 0;
#X connect 26 0 21 0;
#X connect 28 0 20 1;
#X connect 28 0 21 1;
#X connect 28 0 40 1;
#X connect 28 0 47 1;
#X connect 29 0 19 1;
#X connect 29 0 18 1;
#X connect 29 0 39 1;
#X connect 29 0 46 1;
#X connect 31 0 32 0;
#X connect 32 0 33 0;
#X connect 34 0 36 0;
#X connect 35 0 37 0;
#X connect 36 0 22 0;
#X connect 36 0 52 0;
#X connect 37 0 23 0;
#X connect 37 0 52 1;
#X connect 38 0 39 0;
#X connect 39 0 41 0;
#X connect 40 0 42 0;
#X connect 41 0 40 0;
#X connect 42 0 43 0;
#X connect 43 0 44 0;
#X connect 43 0 52 2;
#X connect 45 0 46 0;
#X connect 46 0 48 0;
#X connect 47 0 49 0;
#X connect 48 0 47 0;
#X connect 49 0 50 0;
#X connect 50 0 51 0;
#X connect 50 0 52 3;
#X connect 54 0 55 0;
#X connect 55 0 53 0;
#X connect 56 0 54 0;
#X connect 58 0 59 0;
#X connect 59 0 57 0;
#X connect 60 0 58 0;
#X connect 61 0 7 0;
#X coords 0 -1 1 1 200 110 2 25 320;
