#N canvas 243 144 564 418 12;
#X obj 389 66 vsl 15 65 0 1 0 0 \$0-mainvol \$0-mainvolinit VOL 0 -8 0 10 #fcfcfc #000000 #000000 0 1;
#X obj 174 20 loadbang;
#X obj 339 64 tgl 15 0 \$0-dac \$0-dacinit DAC 0 -6 0 10 #00ff04 #000000 #000000 0 1;
#X msg 174 175 \; pd dsp \$1;
#X obj 415 52 vu 15 80 \$0-vul empty -1 -8 0 10 #404040 #000000 0 0;
#X obj 438 52 vu 15 80 \$0-vur empty -1 -8 0 8 #404040 #000000 1 0;
#X obj 21 20 inlet~;
#X obj 339 119 tgl 15 0 \$0-rec \$0-recinit REC 0 -6 0 10 #00faff #000000 #000000 0 1;
#X obj 369 66 vsl 15 65 1 3 0 0 \$0-od \$0-odinit OD 0 -8 0 10 #fcfcfc #000000 #000000 0 1;
#X obj 39 45 r \$0-od;
#X obj 174 152 r \$0-dac;
#X obj 174 43 f \$0;
#X obj 39 199 r \$0-mainvol;
#X obj 21 90 *~;
#X obj 21 245 *~;
#X obj 21 335 s~ \$0-al;
#X obj 94 335 s~ \$0-ar;
#X obj 21 138 expr~ atan($v1), f 9;
#X obj 95 138 expr~ atan($v1), f 9;
#X obj 39 222 lop~ 1;
#X obj 39 67 lop~ 1;
#X obj 21 267 clip~ -1 1;
#X obj 21 114 snake~ out, f 11;
#X obj 21 175 snake~, f 11;
#X obj 21 289 snake~ out, f 11;
#N canvas 324 362 197 223 recorder 0;
#X obj 13 187 writesf~ 2, f 16;
#X msg 59 130 start;
#X msg 13 130 stop;
#X msg 45 82 open -bytes 4 \$1;
#X obj 13 105 sel 0, f 7;
#X obj 13 37 t f f;
#X obj 13 13 r \$0-rec;
#N canvas 788 329 455 306 filenamegen 0;
#X obj 25 15 inlet;
#X obj 25 99 pdcontrol;
#X msg 25 145 set \$1;
#X obj 25 241 makefilename;
#X obj 25 52 sel 1;
#X obj 36 174 bng 19 250 50 0 empty empty empty 0 -10 0 12 #fcfcfc #000000 #000000;
#N canvas 735 115 428 353 concatdatetime 0;
#X obj 19 322 outlet;
#N canvas 136 388 173 168 filename 0;
#X obj 17 14 inlet;
#X msg 17 38 set \$1;
#X obj 17 102 makefilename;
#X obj 17 126 outlet;
#X obj 101 14 inlet;
#X connect 0 0 1 0;
#X connect 1 0 2 0;
#X connect 2 0 3 0;
#X connect 4 0 2 0;
#X restore 107 209 pd filename;
#N canvas 136 388 173 168 filename 0;
#X obj 17 14 inlet;
#X msg 17 38 set \$1;
#X obj 17 102 makefilename;
#X obj 17 126 outlet;
#X obj 101 14 inlet;
#X connect 0 0 1 0;
#X connect 1 0 2 0;
#X connect 2 0 3 0;
#X connect 4 0 2 0;
#X restore 107 182 pd filename;
#X obj 107 130 unpack f f f;
#N canvas 136 388 173 168 filename 0;
#X obj 17 14 inlet;
#X msg 17 38 set \$1;
#X obj 17 102 makefilename;
#X obj 17 126 outlet;
#X obj 101 14 inlet;
#X connect 0 0 1 0;
#X connect 1 0 2 0;
#X connect 2 0 3 0;
#X connect 4 0 2 0;
#X restore 19 130 pd filename;
#N canvas 136 388 173 168 filename 0;
#X obj 17 14 inlet;
#X msg 17 38 set \$1;
#X obj 17 102 makefilename;
#X obj 17 126 outlet;
#X obj 101 14 inlet;
#X connect 0 0 1 0;
#X connect 1 0 2 0;
#X connect 2 0 3 0;
#X connect 4 0 2 0;
#X restore 19 263 pd filename;
#X text 276 156 Concatenate yymmdd;
#X obj 19 48 else/datetime;
#X obj 19 14 inlet;
#X text 62 14 Input Bang;
#N canvas 136 388 173 168 filename 0;
#X obj 17 14 inlet;
#X msg 17 38 set \$1;
#X obj 17 102 makefilename;
#X obj 17 126 outlet;
#X obj 101 14 inlet;
#X connect 0 0 1 0;
#X connect 1 0 2 0;
#X connect 2 0 3 0;
#X connect 4 0 2 0;
#X restore 19 157 pd filename;
#X obj 19 78 unpack f f f;
#X text 188 103 Concatenate hhmmss, f 19;
#X listbox 19 287 20 0 0 0 - - - 0;
#X text 121 47 Requires porres' ELSE external;
#X obj 19 236 makefilename %s_%%s;
#X text 162 235 Concatenate to yymmdd_hhmmss;
#X obj 19 104 makefilename %%%%d%%d%d;
#X obj 107 157 makefilename %%%%d%%d%d;
#X connect 1 0 15 0;
#X connect 2 0 1 0;
#X connect 3 0 1 1;
#X connect 3 1 2 1;
#X connect 3 2 18 0;
#X connect 4 0 10 0;
#X connect 5 0 13 0;
#X connect 7 0 11 0;
#X connect 7 1 3 0;
#X connect 8 0 7 0;
#X connect 10 0 5 1;
#X connect 11 0 10 1;
#X connect 11 1 4 1;
#X connect 11 2 17 0;
#X connect 13 0 0 0;
#X connect 15 0 5 0;
#X connect 17 0 4 0;
#X connect 18 0 2 0;
#X restore 59 174 pd concatdatetime;
#X obj 25 122 makefilename %s/rec_%%s.wav;
#X obj 196 174 bng 19 250 50 0 empty empty empty 0 -10 0 12 #fcfcfc #000000 #000000;
#X obj 219 174 random 10000;
#X floatatom 219 197 5 0 0 0 - - - 0;
#X text 216 222 Connect random number generator to makefilename object instead \, if ELSE is missing, f 27;
#X obj 25 265 outlet;
#X msg 25 76 dir 1;
#X connect 0 0 4 0;
#X connect 1 0 7 0;
#X connect 2 0 3 0;
#X connect 2 0 5 0;
#X connect 2 0 8 0;
#X connect 3 0 12 0;
#X connect 4 0 13 0;
#X connect 5 0 6 0;
#X connect 6 0 3 0;
#X connect 7 0 2 0;
#X connect 8 0 9 0;
#X connect 9 0 10 0;
#X connect 13 0 1 0;
#X restore 45 59 pd filenamegen;
#X obj 122 160 r~ \$0-ar;
#X obj 54 160 r~ \$0-al;
#X connect 1 0 0 0;
#X connect 2 0 0 0;
#X connect 3 0 0 0;
#X connect 4 0 2 0;
#X connect 4 1 1 0;
#X connect 5 0 4 0;
#X connect 5 1 7 0;
#X connect 6 0 5 0;
#X connect 7 0 3 0;
#X connect 8 0 0 1;
#X connect 9 0 0 0;
#X restore 174 241 pd recorder;
#N canvas 440 478 162 110 vum 0;
#X obj 8 31 env~;
#X obj 82 31 env~;
#X obj 8 55 - 100;
#X obj 82 55 - 100;
#X obj 82 8 r~ \$0-ar;
#X obj 8 8 r~ \$0-al;
#X obj 8 79 s \$0-vul;
#X obj 82 79 s \$0-vur;
#X connect 0 0 2 0;
#X connect 1 0 3 0;
#X connect 2 0 6 0;
#X connect 3 0 7 0;
#X connect 4 0 1 0;
#X connect 5 0 0 0;
#X restore 174 218 pd vum;
#X msg 174 67 \; \$1-dacinit 0 \; \$1-recinit 0 \; \$1-odinit 1 \; \$1-mainvolinit 0.8;
#X text 333 22 ..== MASTER OUT2 ==..;
#X text 273 160 Master out2 component with overdrive and 2 channel recorder. Requires porres' ELSE external for generation of record file name based on current time stamp., f 29;
#X text 322 256 Author: Martin Heinze, f 22;
#X text 322 274 Last updated: 18.05.25;
#X obj 21 313 hip~ 5;
#X obj 94 313 hip~ 5;
#X obj 21 387 dac~, f 11;
#X obj 21 364 r~ \$0-al;
#X obj 94 364 r~ \$0-ar;
#X connect 1 0 11 0;
#X connect 6 0 13 0;
#X connect 9 0 20 0;
#X connect 10 0 3 0;
#X connect 11 0 27 0;
#X connect 12 0 19 0;
#X connect 13 0 22 0;
#X connect 14 0 21 0;
#X connect 17 0 23 0;
#X connect 18 0 23 1;
#X connect 19 0 14 1;
#X connect 20 0 13 1;
#X connect 21 0 24 0;
#X connect 22 0 17 0;
#X connect 22 1 18 0;
#X connect 23 0 14 0;
#X connect 24 0 32 0;
#X connect 24 1 33 0;
#X connect 32 0 15 0;
#X connect 33 0 16 0;
#X connect 35 0 34 0;
#X connect 36 0 34 1;
#X coords 0 -1 1 1 155 125 2 330 20;
