#N canvas 338 159 448 268 12;
#X obj 19 17 inlet~;
#X obj 19 122 snapshot~;
#X obj 19 146 t f f;
#X obj 119 122 snapshot~;
#X obj 119 146 t f f;
#X obj 19 203 pack;
#X obj 19 228 outlet;
#X obj 186 41 sel 0;
#X obj 119 167 t b f;
#X obj 119 93 max~ 1e-13;
#X obj 19 93 min~ 1e+13;
#X msg 86 70 1e+13;
#X msg 186 70 1e-13;
#X obj 228 103 metro 20;
#X obj 242 61 loadbang;
#X msg 341 127 0, f 2;
#X obj 341 17 inlet Reset;
#X listbox 104 228 20 0 0 0 - - - 0;
#X obj 228 17 inlet Switch;
#X text 181 155 Messer measures min/max signal values as provided through signal inlet and outputs as list. Last updated 31.05.23. Martin Heinze, f 35;
#X connect 0 0 9 0;
#X connect 0 0 10 0;
#X connect 1 0 2 0;
#X connect 2 0 5 0;
#X connect 2 1 10 1;
#X connect 3 0 4 0;
#X connect 4 0 8 0;
#X connect 4 1 9 1;
#X connect 5 0 6 0;
#X connect 5 0 17 0;
#X connect 7 0 11 0;
#X connect 7 0 12 0;
#X connect 8 0 5 0;
#X connect 8 1 5 1;
#X connect 9 0 3 0;
#X connect 10 0 1 0;
#X connect 11 0 10 1;
#X connect 12 0 9 1;
#X connect 13 0 3 0;
#X connect 13 0 1 0;
#X connect 14 0 13 0;
#X connect 15 0 4 0;
#X connect 15 0 2 0;
#X connect 16 0 15 0;
#X connect 18 0 7 0;
#X connect 18 0 13 0;
#X coords 0 -1 1 1 150 25 2 100 225;
