#N canvas 95 131 591 410 12;
#X floatatom 273 298 5 0 0 0 - - - 0;
#X obj 22 9 inlet, f 6;
#X floatatom 273 185 4 1 16 0 Notes \$0-notevalinit \$0-noteval 0;
#X obj 84 139 /;
#X obj 22 216 outlet;
#X obj 94 115 t b f;
#X obj 273 321 expr 60000 / $f1;
#X obj 382 348 *;
#X obj 368 279 t b f;
#X obj 22 158 metro;
#X obj 382 374 s \$0-dur-pr;
#X obj 84 64 r \$0-dur-pr;
#X obj 230 9 inlet;
#X listbox 230 50 20 0 0 0 - - - 0;
#X obj 230 73 unpack f f f, f 33;
#X obj 458 98 s \$0-notevalinit;
#X obj 344 98 s \$0-metinit;
#X floatatom 273 163 4 1 16 0 Meter \$0-metinit \$0-met 0;
#X floatatom 273 141 4 1 999 0 BPM \$0-locbpminit \$0-locbpm 0;
#X obj 230 98 s \$0-locbpminit;
#X obj 230 218 bng 12 250 50 0 empty \$0-sigbnginit empty 0 -10 0 12 #fcfcfc #000000 #000000;
#X obj 32 185 s \$0-sigbnginit;
#X obj 368 256 r \$0-met;
#X obj 273 256 r \$0-locbpm;
#X msg 380 31 171 4 6;
#X obj 94 92 r \$0-noteval;
#X text 74 8 Global toggle, f 15;
#X obj 380 9 loadbang;
#X text 272 8 Preset in;
#X obj 22 64 r \$0-tgl;
#X obj 22 31 s \$0-tglinit;
#X obj 273 207 tgl 19 0 \$0-tgl \$0-tglinit empty 0 -10 0 12 #fcfcfc #000000 #000000 0 1;
#X text 329 140 Attn: BPM and note value changes require reset of main metro (from calling patch), f 15;
#X text 21 255 POLLY generates poly rhythm bang patterns based on a given tempo in BPM \, a standard meter in 4ths and the number of notes to be triggered in the calculated bar length instead. Inlets take in global toggle for synchronization and preset. Last updated 11.6.23, f 30;
#X text 416 320 Calculate the duration of one bar in msec., f 16;
#X connect 0 0 6 0;
#X connect 1 0 30 0;
#X connect 3 0 9 1;
#X connect 5 0 3 0;
#X connect 5 1 3 1;
#X connect 6 0 7 0;
#X connect 7 0 10 0;
#X connect 8 0 0 0;
#X connect 8 1 7 1;
#X connect 9 0 4 0;
#X connect 9 0 21 0;
#X connect 11 0 3 0;
#X connect 12 0 13 0;
#X connect 13 0 14 0;
#X connect 14 0 19 0;
#X connect 14 1 16 0;
#X connect 14 2 15 0;
#X connect 22 0 8 0;
#X connect 23 0 0 0;
#X connect 24 0 13 0;
#X connect 25 0 5 0;
#X connect 27 0 24 0;
#X connect 29 0 9 0;
#X coords 0 -1 1 1 80 95 2 230 135;
