#N canvas 586 85 593 707 12;
#X obj 97 579 chordculator;
#X obj 12 13 loadbang;
#X obj 12 37 bng 19 250 50 0 empty empty empty 0 -10 0 12 #fcfcfc #000000 #000000;
#X obj 12 61 t b b, f 22;
#X obj 163 109 text define \$0-progtxt;
#X msg 163 85 read progression.txt;
#X obj 12 85 text size \$0-progtxt;
#X floatatom 12 109 5 0 0 0 - - - 0;
#X msg 34 132 range 0 \$1;
#X obj 12 156 s \$0-progselinit;
#X symbolatom 177 182 19 0 0 1 Progr.\ Type \$0-progtype \$0-progtypeotp 0;
#X obj 180 154 hsl 129 19 0 15 0 0 \$0-progsel \$0-progselinit Progr.\ Select 133 10 0 12 #fcfcfc #000000 #000000 0 1;
#X obj 12 193 r \$0-progsel;
#X obj 12 217 text get \$0-progtxt;
#X obj 12 241 list split 1, f 44;
#X symbolatom 12 265 21 0 0 0 - - - 0;
#X obj 12 288 s \$0-progtype;
#X listbox 164 265 32 0 0 0 - - - 0;
#X obj 164 288 t l l;
#X obj 196 311 list length;
#X obj 97 345 bng 19 250 50 0 empty empty empty 0 -10 0 12 #fcfcfc #000000 #000000;
#X obj 97 415 mod, f 4;
#X floatatom 325 535 3 0 0 0 - - - 0;
#X obj 325 556 - 1;
#X obj 97 556 +;
#X floatatom 115 535 5 0 0 1 Note\  - - 0;
#X obj 97 464 list store;
#X msg 97 439 get \$1 2;
#X obj 97 391 + 2;
#X obj 97 367 i 0;
#X obj 97 488 unpack f f, f 33;
#X listbox 97 649 20 0 0 0 - - - 0;
#X obj 97 672 outlet;
#X obj 115 512 inlet;
#X obj 97 321 inlet;
#X text 355 555 Offset;
#X msg 12 132 0, f 1;
#X text 198 347 Progressor imports an external text file of chord progressions with their type \, half tone distance to key note and position in chordculator's list of chords. The key MIDI note value is parsed through the second inlet. The first inlet takes bangs in order to cycle through the progression. Chord note values are being generated with chordculator and forwarded as a list via first outlet to the calling patch. Last updated 25.05.24 - Martin Heinze, f 53;
#X connect 0 0 31 0;
#X connect 1 0 2 0;
#X connect 2 0 3 0;
#X connect 3 0 6 0;
#X connect 3 1 5 0;
#X connect 5 0 4 0;
#X connect 6 0 7 0;
#X connect 7 0 8 0;
#X connect 7 0 36 0;
#X connect 8 0 9 0;
#X connect 12 0 13 0;
#X connect 13 0 14 0;
#X connect 14 0 15 0;
#X connect 14 1 17 0;
#X connect 15 0 16 0;
#X connect 17 0 18 0;
#X connect 18 0 26 1;
#X connect 18 1 19 0;
#X connect 19 0 21 1;
#X connect 20 0 29 0;
#X connect 21 0 27 0;
#X connect 21 0 29 1;
#X connect 22 0 23 0;
#X connect 23 0 0 1;
#X connect 24 0 0 0;
#X connect 25 0 24 1;
#X connect 26 0 30 0;
#X connect 27 0 26 0;
#X connect 28 0 21 0;
#X connect 29 0 28 0;
#X connect 30 0 24 0;
#X connect 30 1 22 0;
#X connect 31 0 32 0;
#X connect 33 0 25 0;
#X connect 34 0 20 0;
#X connect 36 0 9 0;
#X coords 0 -1 1 1 240 65 2 170 145;
