#N canvas 222 140 613 314 12;
#N canvas 512 333 450 278 (subpatch) 0;
#X array \$0-sampler 8192 float 2;
#X coords 0 3 8192 -3 180 70 2 0 0;
#X restore 17 73 graph;
#X obj 241 136 inlet~;
#X obj 241 207 tabread4~ \$0-sampler;
#X obj 241 275 outlet~;
#X obj 241 184 *~;
#X obj 259 160 r \$0-ssiz;
#X obj 17 149 hradio 15 1 0 5 \$0-preselinit \$0-preseldummy empty 0 -10 0 12 #fcfcfc #000000 #000000 0;
#X floatatom 97 149 4 0 0 0 - \$0-presel \$0-setwin 10;
#N canvas 859 267 255 153 selektor 0;
#X msg 19 83 512;
#X obj 19 35 loadbang;
#X msg 90 83 2048;
#X msg 130 83 4096;
#X msg 170 83 8192;
#X msg 51 83 1024;
#X obj 100 11 r \$0-preselinit;
#X obj 100 35 sel 0 1 2 3 4;
#X obj 90 115 s \$0-presel;
#X connect 0 0 8 0;
#X connect 1 0 0 0;
#X connect 2 0 8 0;
#X connect 3 0 8 0;
#X connect 4 0 8 0;
#X connect 5 0 8 0;
#X connect 6 0 7 0;
#X connect 7 0 0 0;
#X connect 7 1 5 0;
#X connect 7 2 2 0;
#X connect 7 3 3 0;
#X connect 7 4 4 0;
#X restore 18 202 pd selektor;
#N canvas 62 447 867 343 arrayconf 0;
#X obj 17 13 r \$0-ssiz;
#X msg 17 110 \; \$1-sampler resize \$2;
#X obj 17 37 t b f;
#X obj 17 61 f \$0;
#X obj 17 85 pack f f;
#X obj 433 37 savepanel;
#X obj 433 85 f \$0;
#X obj 433 61 t b s;
#X obj 433 110 pack f s;
#X msg 433 132 \; \$1-sampler write \$2;
#X obj 433 13 r \$0-svar;
#X obj 180 13 r \$0-opar;
#X msg 180 132 read -ascii -resize \$2 \$1-sampler;
#X obj 180 37 openpanel;
#X obj 180 85 f \$0;
#X obj 180 110 pack f s;
#X obj 180 156 soundfiler;
#X obj 180 61 t b b s;
#X obj 180 180 s \$0-loadsiz;
#X obj 240 85 s \$0-filnam;
#X obj 605 155 until;
#X obj 735 61 i;
#X obj 735 85 + 1;
#X obj 695 132 sel 0;
#X obj 605 179 t b b;
#X obj 605 203 expr random(-1000 \, 1000)*0.001;
#X obj 637 85 s \$0-ssiz;
#X obj 764 85 r \$0-ssiz;
#X obj 628 110 r \$0-ssiz;
#X obj 735 110 mod;
#X obj 605 132 f;
#X obj 605 61 t b f;
#X obj 605 306 tabwrite \$0-sampler;
#X obj 605 13 r \$0-setwin;
#X obj 260 37 r \$0-ofiler;
#X obj 591 228 r \$0-wd;
#X obj 605 281 *;
#X obj 591 252 t b f;
#X obj 605 37 f;
#X connect 0 0 2 0;
#X connect 2 0 3 0;
#X connect 2 1 4 1;
#X connect 3 0 4 0;
#X connect 4 0 1 0;
#X connect 5 0 7 0;
#X connect 6 0 8 0;
#X connect 7 0 6 0;
#X connect 7 1 8 1;
#X connect 8 0 9 0;
#X connect 10 0 5 0;
#X connect 11 0 13 0;
#X connect 12 0 16 0;
#X connect 13 0 17 0;
#X connect 14 0 15 0;
#X connect 15 0 12 0;
#X connect 16 0 18 0;
#X connect 17 1 14 0;
#X connect 17 2 15 1;
#X connect 17 2 19 0;
#X connect 20 0 24 0;
#X connect 21 0 22 0;
#X connect 22 0 29 0;
#X connect 23 0 20 1;
#X connect 24 0 25 0;
#X connect 24 1 21 0;
#X connect 25 0 36 0;
#X connect 27 0 29 1;
#X connect 28 0 30 1;
#X connect 29 0 21 1;
#X connect 29 0 23 0;
#X connect 29 0 32 1;
#X connect 30 0 20 0;
#X connect 31 0 30 0;
#X connect 31 1 26 0;
#X connect 33 0 38 0;
#X connect 34 0 17 0;
#X connect 35 0 37 0;
#X connect 36 0 32 0;
#X connect 37 0 38 0;
#X connect 37 1 36 1;
#X connect 38 0 31 0;
#X restore 18 177 pd arrayconf;
#X obj 17 37 bng 15 250 50 0 \$0-opar \$0-opardummy Open 0 -5 0 8 #fcfcfc #000000 #000000;
#X obj 128 149 bng 15 250 50 0 \$0-svar \$0-svardummy Save 17 7 0 8 #fcfcfc #000000 #000000;
#X floatatom 191 37 4 0 0 0 - \$0-loadsiz \$0-loadsizdummy 10;
#X symbolatom 36 37 25 0 0 0 - \$0-filnam \$0-filnamdummy 10;
#X obj 411 136 inlet;
#X obj 411 160 s \$0-ofiler;
#X obj 241 252 *~;
#X obj 259 229 r \$0-wd;
#X obj 201 75 vsl 17 46 0 3 0 0 \$0-wd \$0-wdinit empty 0 -9 0 12 #fcfcfc #000000 #000000 0 1;
#X floatatom 201 129 3 0 0 0 - \$0-wd \$0-wddummy 8;
#X text 238 18 Saatgut generates an array full of randomized values between -1 and 1 to use as repetitive seed bank for inference and latent space tampering for nn~ compatible models. Values can be retrieved as signal values through the first inlet/outlet. The slider defines the possible value range. Last updated 22.12.23, f 49;
#X connect 1 0 4 0;
#X connect 2 0 16 0;
#X connect 4 0 2 0;
#X connect 5 0 4 1;
#X connect 14 0 15 0;
#X connect 16 0 3 0;
#X connect 17 0 16 1;
#X coords 0 -1 1 1 215 145 2 10 25;
