#N canvas 349 99 607 321 12;
#N canvas 512 333 450 278 (subpatch) 0;
#X array \$0-sampler 1024 float 2;
#X coords 0 3 1024 -3 175 70 1 0 0;
#X restore 18 60 graph;
#X obj 244 139 inlet~;
#X obj 244 210 tabread4~ \$0-sampler;
#X obj 244 278 outlet~;
#X obj 244 187 *~;
#X obj 262 163 r \$0-ssiz;
#X obj 95 42 hradio 13 1 0 3 \$0-preselinit \$0-preseldummy Preset 0 -6 0 8 #fcfcfc #000000 #000000 0;
#X floatatom 137 42 5 16 8192 2 Size \$0-presel \$0-setwin 8;
#N canvas 629 287 137 130 selektor 0;
#X obj 13 11 r \$0-preselinit;
#X obj 13 95 s \$0-presel;
#X msg 13 63 64, f 2;
#X msg 37 63 256;
#X msg 68 63 1024;
#X obj 13 35 sel 0 1 2;
#X connect 0 0 5 0;
#X connect 2 0 1 0;
#X connect 3 0 1 0;
#X connect 4 0 1 0;
#X connect 5 0 2 0;
#X connect 5 1 3 0;
#X connect 5 2 4 0;
#X restore 112 176 pd selektor;
#N canvas 244 451 797 371 arrayconf 1;
#X obj 572 13 r \$0-ssiz;
#X msg 572 110 \; \$1-sampler resize \$2;
#X obj 572 37 t b f;
#X obj 572 61 f \$0;
#X obj 572 85 pack f f;
#X obj 171 37 savepanel;
#X obj 171 109 f \$0;
#X obj 171 85 t b s;
#X obj 171 134 pack f s;
#X msg 171 156 \; \$1-sampler write \$2;
#X obj 171 13 r \$0-svar;
#X obj 12 13 r \$0-opar;
#X msg 12 156 read -ascii -resize \$2 \$1-sampler, f 20;
#X obj 12 37 openpanel;
#X obj 12 109 f \$0;
#X obj 12 134 pack f s;
#X obj 12 194 soundfiler;
#X obj 22 218 s \$0-loadsiz;
#X obj 55 109 s \$0-filnam;
#X obj 335 155 until;
#X obj 465 61 i;
#X obj 465 85 + 1;
#X obj 425 132 sel 0;
#X obj 335 179 t b b;
#X obj 335 203 expr random(-1000 \, 1000)*0.001;
#X obj 367 85 s \$0-ssiz;
#X obj 494 85 r \$0-ssiz;
#X obj 358 110 r \$0-ssiz;
#X obj 465 110 mod;
#X obj 335 132 f;
#X obj 335 61 t b f;
#X obj 335 306 tabwrite \$0-sampler;
#X obj 335 13 r \$0-setwin;
#X obj 22 61 r \$0-ofiler;
#X obj 335 281 *;
#X obj 321 252 t b f;
#X obj 335 37 f;
#X obj 572 179 bng 19 250 50 0 empty empty empty 0 -10 0 12 #fcfcfc #000000 #000000;
#X obj 572 203 f \$0;
#X obj 572 155 loadbang;
#X obj 12 266 array max \$0-sampler;
#X obj 321 229 r \$0-wd;
#X obj 44 290 array min \$0-sampler;
#X obj 12 242 t b b;
#X obj 12 313 expr ($f1-$f2)/2;
#X obj 12 337 s \$0-loadspr;
#X obj 12 85 t b s;
#X msg 572 229 \; \$1-sampler yticks 0 0.5 3 \;;
#X connect 0 0 2 0;
#X connect 2 0 3 0;
#X connect 2 1 4 1;
#X connect 3 0 4 0;
#X connect 4 0 1 0;
#X connect 5 0 7 0;
#X connect 6 0 8 0;
#X connect 7 0 6 0;
#X connect 7 1 8 1;
#X connect 8 0 9 0;
#X connect 10 0 5 0;
#X connect 11 0 13 0;
#X connect 12 0 16 0;
#X connect 13 0 46 0;
#X connect 14 0 15 0;
#X connect 15 0 12 0;
#X connect 16 0 17 0;
#X connect 16 0 43 0;
#X connect 19 0 23 0;
#X connect 20 0 21 0;
#X connect 21 0 28 0;
#X connect 22 0 19 1;
#X connect 23 0 24 0;
#X connect 23 1 20 0;
#X connect 24 0 34 0;
#X connect 26 0 28 1;
#X connect 27 0 29 1;
#X connect 28 0 20 1;
#X connect 28 0 22 0;
#X connect 28 0 31 1;
#X connect 29 0 19 0;
#X connect 30 0 29 0;
#X connect 30 1 25 0;
#X connect 32 0 36 0;
#X connect 33 0 46 0;
#X connect 34 0 31 0;
#X connect 35 0 36 0;
#X connect 35 1 34 1;
#X connect 36 0 30 0;
#X connect 37 0 38 0;
#X connect 38 0 47 0;
#X connect 39 0 37 0;
#X connect 40 0 44 0;
#X connect 41 0 35 0;
#X connect 42 0 44 1;
#X connect 43 0 40 0;
#X connect 43 1 42 0;
#X connect 44 0 45 0;
#X connect 46 0 14 0;
#X connect 46 1 18 0;
#X connect 46 1 15 1;
#X coords 0 0 1 1 85 60 0;
#X restore 19 176 pd arrayconf;
#X obj 19 149 bng 13 250 50 0 \$0-opar \$0-opardummy Open 0 -6 0 8 #fcfcfc #000000 #000000;
#X obj 201 42 bng 13 250 50 0 \$0-svar \$0-svardummy Save 0 -6 0 8 #fcfcfc #000000 #000000;
#X floatatom 157 149 5 0 0 2 Size \$0-loadsiz \$0-loadsizdummy 8;
#X symbolatom 38 149 22 0 0 0 - \$0-filnam \$0-filnamdummy 8;
#X obj 414 139 inlet;
#X obj 414 163 s \$0-ofiler;
#X obj 244 255 *~;
#X obj 262 232 r \$0-wd;
#X obj 201 62 vsl 13 65 0 3 0 0 \$0-wddis \$0-wdinit empty 0 -9 0 12 #fcfcfc #000000 #000000 0 1;
#X floatatom 168 42 5 0 0 2 Spread \$0-wddis \$0-wd 8;
#X obj 414 210 loadbang;
#X obj 414 234 f \$0;
#X msg 414 258 \; \$1-wdinit 1 \; \$1-preseldummy 3;
#X text 241 21 Saatgut generates an array full of randomized values between -1 and 1 to use as repetitive seed bank for inference and latent space tampering for nn~ compatible models. Values can be retrieved as signal values through the first inlet/outlet. The slider defines the possible value range. Last updated 30.12.23, f 49;
#X floatatom 188 149 5 0 0 2 Spread \$0-loadspr \$0-loadsprdummy 8;
#X connect 1 0 4 0;
#X connect 2 0 16 0;
#X connect 4 0 2 0;
#X connect 5 0 4 1;
#X connect 14 0 15 0;
#X connect 16 0 3 0;
#X connect 17 0 16 1;
#X connect 20 0 21 0;
#X connect 21 0 22 0;
#X coords 0 -1 1 1 215 145 2 10 25;
