#N canvas 114 -955 508 459 12;
#X obj 24 84 f 0;
#X msg 24 108 seed \$1;
#X obj 24 132 noise~;
#X obj 24 209 *~;
#X obj 24 285 +~;
#X obj 24 397 *~;
#X obj 24 421 outlet~;
#X obj 24 31 inlet bang;
#X obj 42 60 r \$0-seed;
#X obj 42 185 lop~ 10;
#X obj 42 262 lop~ 10;
#X obj 167 31 inlet config;
#X obj 167 137 s \$0-seedinit;
#X obj 167 161 s \$0-rnginit;
#X obj 167 185 s \$0-ofsinit;
#X listbox 167 89 20 0 0 0 - - - 0;
#X floatatom 188 250 8 0 0 1 Seed \$0-seedinit \$0-seed 10;
#X floatatom 238 275 4 -12 12 1 - \$0-rng \$0-rngdummy 10;
#X obj 42 161 r \$0-rng;
#X obj 42 238 r \$0-ofs;
#X obj 266 31 loadbang;
#X obj 170 275 hsl 60 15 -4 4 0 0 \$0-rng \$0-rnginit Range 15 7 0 10 #fcfcfc #000000 #000000 0 1;
#X floatatom 238 295 4 -2 2 1 - \$0-ofs \$0-ofsdummy 10;
#X obj 170 295 hsl 60 15 -2 2 0 0 \$0-ofs \$0-ofsinit Offset 15 7 0 10 #fcfcfc #000000 #000000 0 1;
#X text 297 235 saatR generates modulated repeatable noise patterns for latent mimicry mayhem., f 26;
#X text 297 285 Author: Martin Heinze, f 26;
#X text 283 420 Last updated: Feb. 28th 2025;
#X msg 266 60 4444 1 0 1 2 3 0;
#X obj 167 113 unpack f f f;
#X obj 42 349 inlet~ mod;
#X obj 167 250 bng 15 250 50 0 \$0-rndm \$0-rndminit empty 0 -10 0 12 #fcfcfc #000000 #000000;
#X obj 297 137 r \$0-rndm;
#X obj 297 185 s \$0-seedinit;
#X obj 297 161 random 999999;
#X obj 167 318 tgl 15 0 \$0-modo \$0-modoinit Mod. 18 8 0 10 #fcfcfc #000000 #000000 0 1;
#X obj 42 373 expr~ if($f2 == 1 \, $v1 \, 1);
#X obj 221 349 r \$0-modo;
#X obj 330 31 r \$0-res;
#X obj 217 318 bng 15 250 50 0 \$0-res \$0-resinit Res. 18 8 0 10 #fcfcfc #000000 #000000;
#X connect 0 0 1 0;
#X connect 1 0 2 0;
#X connect 2 0 3 0;
#X connect 3 0 4 0;
#X connect 4 0 5 0;
#X connect 5 0 6 0;
#X connect 7 0 0 0;
#X connect 8 0 0 1;
#X connect 9 0 3 1;
#X connect 10 0 4 1;
#X connect 11 0 15 0;
#X connect 15 0 28 0;
#X connect 18 0 9 0;
#X connect 19 0 10 0;
#X connect 20 0 27 0;
#X connect 27 0 15 0;
#X connect 28 0 12 0;
#X connect 28 1 13 0;
#X connect 28 2 14 0;
#X connect 29 0 35 0;
#X connect 31 0 33 0;
#X connect 33 0 32 0;
#X connect 35 0 5 1;
#X connect 36 0 35 1;
#X connect 37 0 27 0;
#X coords 0 -1 1 1 110 100 2 160 240;
