#N canvas 1104 224 595 534 12;
#X obj 26 277 bng 15 250 50 0 \$0-sloadfile empty Load 18 8 0 10 #00ff04 #000000 #000000;
#N canvas 830 139 450 278 (subpatch) 0;
#X array \$0-waver 251031 float 2;
#X coords 0 1 251031 -1 145 80 2 0 0;
#X restore 26 192 graph;
#X obj 174 195 vsl 15 75 0 1 0 0 \$0-sampl \$0-samplinit Vol. 0 -9 0 10 #feffc6 #000000 #000000 0 1;
#X symbolatom 73 277 35 0 0 0 - \$0-sfilename - 10;
#X obj 26 38 f \$0;
#X obj 26 15 loadbang;
#X text 91 14 Local preset, f 13;
#X obj 26 370 inlet;
#X obj 26 491 outlet~;
#N canvas 293 227 236 340 sampleloader 0;
#X obj 18 39 openpanel;
#X obj 18 241 soundfiler;
#X floatatom 18 266 8 0 0 0 - - - 0;
#X listbox 116 261 15 0 0 0 - - - 0;
#X obj 116 284 unpack f;
#X obj 18 135 pack s f, f 16;
#X msg 18 216 read -resize \$1 \$2-waver;
#X obj 18 310 s \$0-slength;
#X obj 127 86 loadbang;
#X obj 127 110 f \$0;
#X obj 35 64 inlet;
#X obj 33 160 unpack s;
#X obj 116 310 s \$0-srate;
#X obj 18 14 inlet;
#X text 60 13 Open file panel;
#X text 76 63 Ext. filepath;
#X obj 33 184 s \$0-sfilename;
#X obj 35 104 bng 20 250 50 0 empty \$0-sreload empty 0 -10 0 12 #fcfcfc #000000 #000000;
#X connect 0 0 5 0;
#X connect 1 0 2 0;
#X connect 1 1 3 0;
#X connect 2 0 7 0;
#X connect 3 0 4 0;
#X connect 4 0 12 0;
#X connect 5 0 6 0;
#X connect 5 0 11 0;
#X connect 6 0 1 0;
#X connect 8 0 9 0;
#X connect 9 0 5 1;
#X connect 10 0 5 0;
#X connect 11 0 16 0;
#X connect 13 0 0 0;
#X connect 17 0 5 0;
#X restore 26 142 pd sampleloader;
#X f 17;
#N canvas 198 327 509 457 sampleplayer 0;
#X obj 16 251 outlet~;
#X obj 16 195 *~;
#X obj 34 171 r \$0-sampl;
#X obj 16 142 tabplay~ \$0-waver;
#X obj 166 258 pack, f 7;
#X msg 166 283 \$1 \$2;
#X obj 166 111 r \$0-sstart;
#X obj 256 111 r \$0-send;
#X obj 41 31 r \$0-splayer;
#X obj 16 9 inlet;
#X obj 16 57 list;
#X obj 166 428 s \$0-splayer;
#X obj 295 9 r \$0-sendslider;
#X obj 166 9 r \$0-sstartslider;
#X text 62 8 Bang = play;
#X floatatom 180 210 8 0 0 0 - - - 0;
#X obj 180 233 t b f;
#X obj 256 191 expr $f1-$f2;
#X obj 305 135 r \$0-sstart;
#X obj 305 159 t b f;
#X floatatom 166 33 8 0 0 0 - - - 0;
#X obj 166 56 s \$0-sstart;
#X floatatom 295 33 8 0 0 0 - - - 0;
#X obj 295 56 s \$0-send;
#X obj 26 86 r \$0-sstopsample;
#X msg 26 110 stop;
#X text 242 212 duration in samples;
#X obj 166 186 +;
#X obj 174 135 r \$0-soffset;
#X obj 174 160 t b f;
#X obj 198 360 expr $f1 \; $f1+$f2, f 10;
#X obj 198 333 unpack f f;
#X obj 198 403 s \$0-sstartslidershow;
#X obj 355 403 s \$0-sendslidershow;
#X obj 166 308 t l l;
#X connect 1 0 0 0;
#X connect 2 0 1 1;
#X connect 3 0 1 0;
#X connect 4 0 5 0;
#X connect 5 0 34 0;
#X connect 6 0 27 0;
#X connect 7 0 17 0;
#X connect 8 0 10 1;
#X connect 9 0 10 0;
#X connect 10 0 3 0;
#X connect 12 0 22 0;
#X connect 13 0 20 0;
#X connect 15 0 16 0;
#X connect 16 0 4 0;
#X connect 16 1 4 1;
#X connect 17 0 15 0;
#X connect 18 0 19 0;
#X connect 19 0 17 0;
#X connect 19 1 17 1;
#X connect 20 0 21 0;
#X connect 22 0 23 0;
#X connect 24 0 25 0;
#X connect 25 0 3 0;
#X connect 27 0 4 0;
#X connect 28 0 29 0;
#X connect 29 0 27 0;
#X connect 29 1 27 1;
#X connect 30 0 32 0;
#X connect 30 1 33 0;
#X connect 31 0 30 0;
#X connect 31 1 30 1;
#X connect 34 0 11 0;
#X connect 34 1 31 0;
#X coords 0 457 1 456 180 45 0;
#X restore 26 457 pd sampleplayer;
#X obj 29 232 hsl 140 40 0 251031 0 0 \$0-dummy \$0-sendslidershow empty -2 -10 0 12 #ffffff #9c00ff #000000 0 1;
#X obj 29 192 hsl 140 40 0 251031 0 0 \$0-dummy \$0-sstartslidershow empty -2 -10 0 12 #ffffff #00faff #000000 0 1;
#N canvas 246 86 497 292 sliderinit 0;
#X obj 175 12 r \$0-slength;
#X obj 322 129 pack;
#X obj 322 154 t l b;
#X msg 322 179 set 0;
#X msg 322 206 range \$2 \$1;
#X obj 322 260 s \$0-soffsetsliderinit;
#X obj 322 89 expr $f1/2 \; (0-$f1)/2;
#X msg 175 179 set \$1;
#X msg 175 206 range 0 \$1;
#X obj 175 233 s \$0-sendsliderinit;
#X obj 175 260 s \$0-sendslidershow;
#X msg 14 206 range 0 \$1;
#X obj 14 233 s \$0-sstartsliderinit;
#X obj 14 260 s \$0-sstartslidershow;
#X msg 14 179 set 0;
#X obj 184 35 r \$0-sreslength;
#X obj 175 69 t b f;
#X connect 0 0 16 0;
#X connect 1 0 2 0;
#X connect 2 0 4 0;
#X connect 2 1 3 0;
#X connect 3 0 5 0;
#X connect 4 0 5 0;
#X connect 6 0 1 0;
#X connect 6 1 1 1;
#X connect 7 0 10 0;
#X connect 7 0 9 0;
#X connect 8 0 10 0;
#X connect 8 0 9 0;
#X connect 11 0 12 0;
#X connect 11 0 13 0;
#X connect 14 0 12 0;
#X connect 14 0 13 0;
#X connect 15 0 16 0;
#X connect 16 0 5 0;
#X connect 16 0 9 0;
#X connect 16 0 10 0;
#X connect 16 0 12 0;
#X connect 16 0 13 0;
#X connect 16 0 14 0;
#X connect 16 1 6 0;
#X connect 16 1 7 0;
#X connect 16 1 8 0;
#X connect 16 1 11 0;
#X restore 26 344 pd sliderinit;
#X obj 26 301 bng 15 250 50 0 \$0-splaysample \$0-splaysampleinit Play 18 8 0 10 #fcfcfc #000000 #000000;
#X obj 26 118 r \$0-sloadfile;
#X text 69 369 Play;
#X obj 26 394 s \$0-splaysampleinit;
#X obj 142 119 inlet;
#X obj 26 433 r \$0-splaysample;
#X obj 233 250 bng 15 250 50 0 \$0-sreslength \$0-sreslengthinit Reset 18 8 0 10 #fcfcfc #000000 #000000;
#X msg 26 61 \; \$1-samplinit 0.4 \;, f 19;
#X obj 73 301 bng 15 250 50 0 \$0-sstopsample \$0-sstopsampleinit Stop 18 8 0 10 #fcfcfc #000000 #000000;
#X text 182 118 Filepath;
#X obj 198 211 hsl 48 15 0 251031 0 0 \$0-sendslider \$0-sendsliderinit End 52 8 0 10 #e3c6ff #9c00ff #000000 0 1;
#X obj 198 192 hsl 48 15 0 251031 0 0 \$0-sstartslider \$0-sstartsliderinit Start 52 8 0 10 #c6feff #00faff #000000 0 1;
#X obj 198 230 hsl 48 15 -125516 125516 0 0 \$0-soffset \$0-soffsetsliderinit Posit. 52 8 0 10 #ffc7c6 #ff0400 #000000 0 1;
#X obj 153 491 outlet;
#X obj 120 301 bng 15 250 50 0 \$0-sreload \$0-sreloadinit Sample\ Reload 18 8 0 10 #fcfcfc #000000 #000000;
#X obj 215 15 inlet;
#X obj 215 40 s \$0-soffsetsliderinit;
#X text 324 82 Sampler is a simple sample player that uses tabplay~ to play back a single sample in an array. Sliders next to the graphical array allow to define start and end position of sample playback. Once defined \, the position slider allows to alter the position of the defined range. The first inlet takes in bangs to trigger playback of the sample \, the second inlet takes in the sample filepath. The playback position can be altered via the third inlet. First outlet outputs the audio \, the second outlet outputs the sample length. Attn.: slider solution is a bit sketchy :), f 34;
#X text 324 385 Last updated 20.10.23, f 25;
#X obj 153 457 r \$0-slength;
#X connect 4 0 21 0;
#X connect 5 0 4 0;
#X connect 7 0 17 0;
#X connect 10 0 8 0;
#X connect 15 0 9 0;
#X connect 18 0 9 1;
#X connect 19 0 10 0;
#X connect 29 0 30 0;
#X connect 33 0 27 0;
#X coords 0 -1 1 1 275 155 2 15 170;
