#N canvas 65 57 585 775 12;
#X floatatom 33 382 5 0 115 1 - - - 0;
#X obj 33 358 inlet;
#X floatatom 356 681 5 0 0 1 Array\ pos.\ select - - 0;
#X obj 356 605 inlet;
#X obj 356 704 array get \$0-scl;
#X obj 356 739 outlet;
#X obj 13 14 loadbang;
#X obj 13 38 bng 19 250 50 0 empty empty empty 0 -10 0 12 #fcfcfc #000000 #000000;
#X msg 13 110 range 0 \$1;
#X obj 13 62 t b b, f 24;
#X msg 178 86 read scales.txt;
#X obj 178 110 text define \$0-scalestxt;
#X obj 13 86 text size \$0-scalestxt;
#X symbolatom 210 173 40 0 0 2 Scale\ Name \$0-scltype \$0-scltypeotp 0;
#X obj 213 196 hsl 129 18 0 50 0 0 \$0-sclsel \$0-sclselinit Scale\ Select 0 10 0 12 #dfdfdf #ff0400 #606060 0 1;
#X obj 44 158 s \$0-sclselinit;
#X listbox 134 307 24 0 0 0 - - - 0;
#X obj 13 283 list split 1, f 35;
#X listbox 13 307 15 0 0 0 - - - 0;
#X obj 13 189 r \$0-sclsel;
#X obj 13 259 text get \$0-scalestxt;
#X obj 13 330 s \$0-scltype;
#X obj 208 358 list length;
#X obj 33 477 +, f 2;
#X obj 56 477 +, f 2;
#X obj 79 477 +, f 2;
#X obj 103 477 +, f 2;
#X obj 126 477 +, f 2;
#X obj 58 432 t f f;
#X obj 149 477 +, f 2;
#X obj 33 540 list;
#X obj 33 406 t b f;
#X obj 43 611 array set \$0-scl;
#X listbox 33 588 36 0 0 0 - - - 0;
#X obj 134 330 t b l l, f 11;
#X text 339 326 Calculated midi note values from the selected scale can be called via the second inlet (position) \; the value is sent through second outlet., f 30;
#X floatatom 410 196 2 0 0 1 Index \$0-sclindex \$0-sclindexotp 0;
#X obj 172 477 +, f 2;
#X obj 196 477 +, f 2;
#X obj 33 564 list split \$1;
#X obj 33 739 outlet;
#X obj 356 658 min;
#X obj 374 629 r \$0-sclindex;
#X obj 43 659 array size \$0-scl;
#X obj 84 14 array define \$0-scl;
#X msg 13 139 0, f 1;
#X text 295 85 Load ./scales.txt;
#X obj 208 406 s \$0-sclindex;
#X obj 208 382 + 1;
#X obj 121 540 r \$0-sclindex;
#X obj 43 635 r \$0-sclindex;
#X obj 108 432 unpack f f f f f f f f f f f f;
#X obj 220 477 +, f 2;
#X obj 243 477 +, f 2;
#X obj 266 477 +, f 2;
#X obj 290 477 +, f 2;
#X obj 58 506 pack f f f f f f f f f f f f f;
#X text 339 253 Scaleculator 2 takes in a midi note value through the first inlet and calculates one array of note values based on the selected harmonic scale., f 30;
#X text 400 604 Position;
#X text 75 357 Note;
#X floatatom 350 196 3 0 0 1 No. \$0-sclseli \$0-sclseliotp 0;
#X obj 13 212 i;
#X obj 171 259 s \$0-sclseli;
#X obj 43 134 inlet;
#X text 86 133 Scale;
#X text 84 738 Output index \, scale name and list ID;
#X text 407 738 Note value;
#X text 339 413 The selected scale's index \, its name and list ID (from the scales.txt list is put out through first outlet to main patch., f 30;
#X text 395 500 Last updated 28.04.24, f 22;
#X obj 33 710 pack f s f, f 27;
#X obj 33 687 list length;
#X obj 126 687 r \$0-scltype;
#X obj 219 687 r \$0-sclseliotp;
#X obj 13 235 t f f, f 23;
#X connect 0 0 31 0;
#X connect 1 0 0 0;
#X connect 2 0 4 0;
#X connect 3 0 41 0;
#X connect 4 0 5 0;
#X connect 6 0 7 0;
#X connect 7 0 9 0;
#X connect 8 0 15 0;
#X connect 8 0 45 0;
#X connect 9 0 12 0;
#X connect 9 1 10 0;
#X connect 10 0 11 0;
#X connect 12 0 8 0;
#X connect 16 0 34 0;
#X connect 17 0 18 0;
#X connect 17 1 16 0;
#X connect 18 0 21 0;
#X connect 19 0 61 0;
#X connect 20 0 17 0;
#X connect 22 0 48 0;
#X connect 23 0 56 1;
#X connect 24 0 56 2;
#X connect 25 0 56 3;
#X connect 26 0 56 4;
#X connect 27 0 56 5;
#X connect 28 0 56 0;
#X connect 28 1 23 0;
#X connect 28 1 24 0;
#X connect 28 1 38 0;
#X connect 28 1 37 0;
#X connect 28 1 29 0;
#X connect 28 1 27 0;
#X connect 28 1 26 0;
#X connect 28 1 25 0;
#X connect 28 1 52 0;
#X connect 28 1 55 0;
#X connect 28 1 54 0;
#X connect 28 1 53 0;
#X connect 29 0 56 6;
#X connect 30 0 39 0;
#X connect 31 0 30 0;
#X connect 31 1 28 0;
#X connect 33 0 32 0;
#X connect 33 0 70 0;
#X connect 34 0 0 0;
#X connect 34 1 51 0;
#X connect 34 2 22 0;
#X connect 37 0 56 7;
#X connect 38 0 56 8;
#X connect 39 0 33 0;
#X connect 41 0 2 0;
#X connect 42 0 41 1;
#X connect 45 0 15 0;
#X connect 48 0 47 0;
#X connect 49 0 39 1;
#X connect 50 0 43 0;
#X connect 51 0 23 1;
#X connect 51 1 24 1;
#X connect 51 2 25 1;
#X connect 51 3 26 1;
#X connect 51 4 27 1;
#X connect 51 5 29 1;
#X connect 51 6 37 1;
#X connect 51 7 38 1;
#X connect 51 8 52 1;
#X connect 51 9 53 1;
#X connect 51 10 54 1;
#X connect 51 11 55 1;
#X connect 52 0 56 9;
#X connect 53 0 56 10;
#X connect 54 0 56 11;
#X connect 55 0 56 12;
#X connect 56 0 30 1;
#X connect 61 0 73 0;
#X connect 63 0 15 0;
#X connect 69 0 40 0;
#X connect 70 0 69 0;
#X connect 71 0 69 1;
#X connect 72 0 69 2;
#X connect 73 0 20 0;
#X connect 73 1 62 0;
#X coords 0 -1 1 1 300 75 2 200 150;
