#N canvas 418 128 938 302 12;
#X obj 19 61 hsl 55 15 0 1000 0 0 \$0-prtmpms \$0-prtmpmsinit Temp.(MSPrior) 60 8 0 8 #fcfcfc #000000 #000000 0 1;
#X msg 684 94 set temperature \$1;
#X obj 99 16 tgl 15 0 \$0-prlg \$0-prlginit Listen\ mode 18 8 0 8 #fcfcfc #000000 #000000 0 1;
#X obj 490 41 sel 0 1;
#X msg 490 94 set listen \$1;
#X msg 490 67 symbol False;
#X msg 594 67 symbol True;
#X obj 16 36 bng 15 250 50 0 \$0-prcr \$0-prcrinit Cache\ Reset 18 8 0 8 #fcfcfc #000000 #000000;
#X obj 16 16 tgl 15 0 \$0-pren \$0-preninit Enable\ Prior 18 8 0 8 #fcfcfc #000000 #000000 0 1;
#X msg 301 94 enable \$1;
#X msg 379 94 set reset True;
#X obj 301 16 r \$0-pren;
#X obj 490 150 outlet;
#X obj 379 16 r \$0-prcr;
#X obj 490 16 r \$0-prlg;
#X obj 19 80 hsl 55 15 -1 11 0 0 \$0-prtmpleg \$0-prtmpleginit Temp.(Legacy\ Prior) 60 8 0 8 #fcfcfc #000000 #000000 0 1;
#X obj 684 16 r \$0-prtmpms;
#X obj 825 16 r \$0-prtmpleg;
#X obj 825 94 sig~;
#X obj 826 150 outlet~;
#X floatatom 684 67 5 0 0 0 - - - 0;
#X floatatom 825 67 5 0 0 0 - - - 0;
#X obj 99 36 bng 15 250 50 0 \$0-prrel \$0-prrelinit Model\ Reload 18 8 0 8 #fcfcfc #000000 #000000;
#X obj 211 16 r \$0-prrel;
#X msg 243 94 reload;
#X obj 16 169 f \$0;
#X obj 16 119 loadbang;
#X msg 16 194 \; \$1-preninit 1 \; \$1-prlginit 0 \; \$1-prtmpmsinit 35 \; \$1-prtmpleginit 0.35;
#X obj 16 144 bng 20 250 50 0 empty empty empty 0 -10 0 12 #fcfcfc #000000 #000000;
#X obj 211 41 t b b;
#X obj 211 169 f \$0;
#X msg 211 194 \; \$1-preninit 1 \; \$1-prlginit 0 \; \$1-prtmpmsinit bang \; \$1-prtmpleginit bang;
#X text 433 193 Settings abstraction for RAVE Legacy Prior and MSPrior. Note that Legacy Prior does not process Cache Reset and Listen Mode and has its temperature set via signal value (hence the second signal outlet. Last updated 30.11.2023, f 49;
#X connect 1 0 12 0;
#X connect 3 0 5 0;
#X connect 3 1 6 0;
#X connect 4 0 12 0;
#X connect 5 0 4 0;
#X connect 6 0 4 0;
#X connect 9 0 12 0;
#X connect 10 0 12 0;
#X connect 11 0 9 0;
#X connect 13 0 10 0;
#X connect 14 0 3 0;
#X connect 16 0 20 0;
#X connect 17 0 21 0;
#X connect 18 0 19 0;
#X connect 20 0 1 0;
#X connect 21 0 18 0;
#X connect 23 0 29 0;
#X connect 24 0 12 0;
#X connect 25 0 27 0;
#X connect 26 0 28 0;
#X connect 28 0 25 0;
#X connect 29 0 30 0;
#X connect 29 1 24 0;
#X connect 30 0 31 0;
#X coords 0 -1 1 1 180 90 2 10 10;
