#N canvas 241 419 1076 332 12;
#X floatatom 284 271 3 0 0 1 Slcs \$0-slicesinit \$0-slices 10;
#X obj 189 130 bng 15 250 50 0 \$0-loadfile \$0-loadfiledummy empty 17 7 0 10 #00ff04 #000000 #000000;
#N canvas 830 139 450 278 (subpatch) 0;
#X array \$0-waver 121656 float 2;
#X coords 0 1 121656 -1 135 80 2 0 0;
#X restore 189 187 graph;
#X obj 416 219 bng 15 250 50 0 \$0-rndmz \$0-rndmzinit r 4 7 0 10 #ff8300 #000000 #000000;
#X obj 327 189 vsl 15 75 0 1 0 0 \$0-ampl \$0-amplinit Vol. 0 -9 0 10 #feffc6 #000000 #000000 0 1;
#X floatatom 239 152 4 0 0 1 Org.BPM \$0-orgbpminit \$0-orgbpm 10;
#X obj 189 152 hradio 15 1 0 3 \$0-bars \$0-barsinit 1\ \ 2\ \ 4 5 8 0 8 #fcfcfc #000000 #000000 0;
#X obj 189 271 hradio 15 1 0 6 \$0-split \$0-splitinit empty 92 8 0 10 #fcfcfc #000000 #000000 0;
#X obj 347 187 tgl 15 0 \$0-glotriggerforward \$0-glotrigger Playback 17 7 0 10 #00ff04 #000000 #000000 0 1;
#X symbolatom 209 130 37 0 0 0 - \$0-filename \$0-filenamedummy 10;
#X floatatom 326 152 4 0 0 1 Adj.BPM \$0-adjbpminit \$0-adjbpm 10;
#X obj 383 219 hradio 15 1 0 2 \$0-sgldbl \$0-sgldblinit 1\ \ 2 5 8 0 8 #feffc6 #000000 #000000 0;
#N canvas 914 322 546 239 calcoriginbpm 0;
#X obj 105 22 r \$0-slength;
#X obj 165 46 /;
#X text 284 19 Calculate loop origin BPM (only works with tightly edited drum loops in 4/4 scheme). Uses total loop length \, no. of bars (1 or 2) as input., f 32;
#X obj 196 22 r \$0-srate;
#X obj 35 100 expr (60*$f1*4)/$f2;
#X obj 35 22 r \$0-bars;
#X obj 35 124 s \$0-orgbpminit;
#X obj 35 45 sel 0 1 2;
#X msg 35 69 1, f 1;
#X msg 55 69 2, f 1;
#X msg 75 69 4, f 1;
#X obj 35 153 r \$0-orgbpm;
#X obj 35 199 s \$0-adjbpminit;
#X obj 35 176 bng 19 250 50 0 empty empty empty 0 -10 0 12 #fcfcfc #000000 #000000;
#X connect 0 0 1 0;
#X connect 1 0 4 1;
#X connect 3 0 1 1;
#X connect 4 0 6 0;
#X connect 5 0 7 0;
#X connect 7 0 8 0;
#X connect 7 1 9 0;
#X connect 7 2 10 0;
#X connect 8 0 4 0;
#X connect 9 0 4 0;
#X connect 10 0 4 0;
#X connect 11 0 13 0;
#X connect 13 0 12 0;
#X restore 16 179 pd calcoriginbpm;
#N canvas 460 364 380 206 calcpitch 0;
#X obj 18 142 s \$0-pitch;
#X floatatom 18 122 5 0 0 0 - - - 0;
#X obj 190 21 r \$0-slength;
#X obj 190 44 /;
#X obj 280 21 r \$0-srate;
#X obj 18 98 expr ((60*$f2*4)/$f1)/$f3;
#X obj 104 21 r \$0-bars;
#X obj 18 21 r \$0-adjbpm;
#X text 109 126 Calculate pitch according to adjusted BPM value., f 30;
#X obj 104 45 sel 0 1 2;
#X msg 104 69 1, f 1;
#X msg 124 69 2, f 1;
#X msg 144 69 4, f 1;
#X connect 1 0 0 0;
#X connect 2 0 3 0;
#X connect 3 0 5 2;
#X connect 4 0 3 1;
#X connect 5 0 1 0;
#X connect 6 0 9 0;
#X connect 7 0 5 0;
#X connect 9 0 10 0;
#X connect 9 1 11 0;
#X connect 9 2 12 0;
#X connect 10 0 5 1;
#X connect 11 0 5 1;
#X connect 12 0 5 1;
#X restore 16 201 pd calcpitch;
#X obj 16 73 r \$0-loadfile;
#X obj 490 20 loadbang;
#X obj 128 43 s \$0-rndmzinit;
#X obj 245 43 s \$0-glotrigger;
#X obj 491 117 s \$0-adjbpminit;
#X obj 16 150 outlet~;
#X obj 16 44 s \$0-petrest;
#N canvas 315 170 406 339 sampleloader 0;
#X obj 18 39 openpanel;
#X obj 18 189 soundfiler, f 19;
#X obj 148 212 unpack f;
#X obj 18 88 pack s f, f 11;
#X obj 64 307 s \$0-slength;
#X obj 92 39 loadbang;
#X obj 92 63 f \$0;
#X obj 185 14 inlet;
#X obj 33 113 unpack s;
#X obj 148 235 s \$0-srate;
#X obj 18 14 inlet;
#X text 60 13 Open file panel;
#X obj 33 137 s \$0-filename;
#X obj 18 262 s \$0-adjbpminit;
#X obj 41 240 s \$0-barsinit;
#X text 226 13 Ext. filepath;
#X obj 41 284 s \$0-samplebang;
#X obj 18 211 t b b f;
#X msg 18 166 read -resize \$1 \$2-waver \$2-waver2;
#X obj 218 134 array define \$0-waver2;
#X text 215 82 Define array for second channel. Only channel 1 is used for display., f 23;
#X obj 248 212 loadbang;
#X obj 248 235 f \$0;
#X msg 248 257 \; \$1-waver edit 0;
#X connect 0 0 3 0;
#X connect 1 0 17 0;
#X connect 1 1 2 0;
#X connect 2 0 9 0;
#X connect 3 0 18 0;
#X connect 3 0 8 0;
#X connect 5 0 6 0;
#X connect 6 0 3 1;
#X connect 7 0 3 0;
#X connect 8 0 12 0;
#X connect 10 0 0 0;
#X connect 17 0 13 0;
#X connect 17 1 14 0;
#X connect 17 1 16 0;
#X connect 17 2 4 0;
#X connect 18 0 1 0;
#X connect 21 0 22 0;
#X connect 22 0 23 0;
#X restore 16 97 pd sampleloader;
#N canvas 96 284 1005 598 sampleplayer 0;
#X obj 332 409 vline~;
#X msg 332 385 \$1 \, \$2 \$3;
#X obj 332 361 pack f f f;
#X floatatom 752 141 10 0 0 1 slice\ duration\ (samples) - - 0;
#X obj 332 280 t f f;
#X obj 815 43 t b f;
#X obj 752 117 expr $f2 / $f1;
#X obj 332 338 *;
#X obj 365 338 *;
#X obj 365 305 + 1;
#X floatatom 752 343 10 0 0 1 slice\ duration\ in\ ms - - 0;
#X obj 312 569 outlet~;
#X obj 14 162 i;
#X obj 14 186 + 1;
#X floatatom 332 252 5 0 0 0 - - - 0;
#X obj 312 443 tabread4~ \$0-waver;
#X obj 815 17 r \$0-slength;
#X obj 752 191 /;
#X obj 43 210 r \$0-slices;
#X obj 752 92 r \$0-slices;
#X obj 14 210 mod;
#X obj 312 545 *~;
#X obj 330 496 r \$0-ampl;
#X obj 332 136 random;
#X obj 371 113 r \$0-slices;
#X obj 14 87 spigot;
#X obj 332 87 spigot;
#X obj 14 63 r \$0-durbang;
#X obj 332 63 r \$0-durbang;
#X obj 752 366 s \$0-sldur;
#X text 847 214 Alter pitch;
#X obj 770 261 * 1000;
#X obj 770 215 r \$0-pitch;
#X msg 778 238 1, f 1;
#X obj 752 310 *;
#X obj 770 285 t b f;
#X obj 770 167 r \$0-srate;
#X msg 32 136 -1, f 2;
#X obj 14 233 array get \$0-dpettern;
#X obj 158 136 f \$0;
#X obj 158 112 sel 0 1, f 8;
#X obj 184 186 f \$0;
#X msg 184 210 symbol \$1-dpettern;
#X msg 158 162 symbol \$1-pettern;
#X obj 797 238 r \$0-samplebang;
#X obj 815 68 s \$0-splitinit;
#X obj 158 87 r \$0-sgldbl;
#X obj 854 167 s \$0-sldursamp;
#X obj 395 319 r \$0-sldursamp;
#X text 35 391 Jump to starting point in samples \, go to end point in samples in "one slice in ms", f 41;
#N canvas 222 298 307 382 petterner 0;
#X obj 69 69 array define \$0-pettern;
#X obj 36 168 array set \$0-pettern;
#X obj 13 15 r \$0-slices;
#X obj 59 221 * 2;
#X obj 13 345 array set \$0-dpettern;
#X obj 59 244 array define \$0-dpettern;
#X obj 13 295 list prepend;
#X listbox 13 320 38 0 0 0 - - - 0;
#X obj 13 38 t f f f;
#N canvas 483 205 359 314 ranpat 0;
#X obj 105 11 inlet;
#X msg 137 136 \$1;
#X obj 137 160 until;
#X obj 237 135 i;
#X obj 237 160 + 1;
#X obj 237 208 sel 0;
#X obj 137 184 random;
#X msg 137 208 append \$1;
#X obj 137 232 list store;
#X listbox 137 256 25 0 0 0 - - - 0;
#X obj 105 37 t b f;
#X obj 105 62 f;
#X msg 99 111 0;
#X obj 105 86 sel 1;
#X obj 237 184 mod;
#X obj 137 111 t f b f f b;
#X obj 21 37 r \$0-rndmz;
#X obj 137 279 outlet;
#X text 150 10 Input amount of slices;
#X text 189 278 Output random pattern;
#X connect 0 0 10 0;
#X connect 1 0 2 0;
#X connect 2 0 3 0;
#X connect 2 0 6 0;
#X connect 3 0 4 0;
#X connect 4 0 14 0;
#X connect 5 0 2 1;
#X connect 5 0 8 0;
#X connect 6 0 7 0;
#X connect 7 0 8 0;
#X connect 8 0 9 0;
#X connect 9 0 17 0;
#X connect 10 0 11 0;
#X connect 10 1 11 1;
#X connect 11 0 13 0;
#X connect 12 0 9 0;
#X connect 13 0 12 0;
#X connect 13 1 15 0;
#X connect 14 0 3 1;
#X connect 14 0 5 0;
#X connect 15 0 1 0;
#X connect 15 1 6 0;
#X connect 15 2 14 1;
#X connect 15 3 6 1;
#X connect 15 4 8 1;
#X connect 16 0 11 0;
#X restore 36 96 pd ranpat;
#X obj 46 120 s \$0-ranpat1;
#X obj 94 270 r \$0-ranpat1;
#N canvas 483 205 359 314 ranpat 0;
#X obj 105 11 inlet;
#X msg 137 136 \$1;
#X obj 137 160 until;
#X obj 237 135 i;
#X obj 237 160 + 1;
#X obj 237 208 sel 0;
#X obj 137 184 random;
#X msg 137 208 append \$1;
#X obj 137 232 list store;
#X listbox 137 256 25 0 0 0 - - - 0;
#X obj 105 37 t b f;
#X obj 105 62 f;
#X msg 99 111 0;
#X obj 105 86 sel 1;
#X obj 237 184 mod;
#X obj 137 111 t f b f f b;
#X obj 21 37 r \$0-rndmz;
#X obj 137 279 outlet;
#X text 150 10 Input amount of slices;
#X text 189 278 Output random pattern;
#X connect 0 0 10 0;
#X connect 1 0 2 0;
#X connect 2 0 3 0;
#X connect 2 0 6 0;
#X connect 3 0 4 0;
#X connect 4 0 14 0;
#X connect 5 0 2 1;
#X connect 5 0 8 0;
#X connect 6 0 7 0;
#X connect 7 0 8 0;
#X connect 8 0 9 0;
#X connect 9 0 17 0;
#X connect 10 0 11 0;
#X connect 10 1 11 1;
#X connect 11 0 13 0;
#X connect 12 0 9 0;
#X connect 13 0 12 0;
#X connect 13 1 15 0;
#X connect 14 0 3 1;
#X connect 14 0 5 0;
#X connect 15 0 1 0;
#X connect 15 1 6 0;
#X connect 15 2 14 1;
#X connect 15 3 6 1;
#X connect 15 4 8 1;
#X connect 16 0 11 0;
#X restore 13 270 pd ranpat;
#X listbox 36 144 29 0 0 0 - - - 0;
#X connect 2 0 8 0;
#X connect 3 0 5 0;
#X connect 6 0 7 0;
#X connect 7 0 4 0;
#X connect 8 0 12 0;
#X connect 8 1 9 0;
#X connect 8 2 0 0;
#X connect 8 2 3 0;
#X connect 9 0 10 0;
#X connect 9 0 13 0;
#X connect 11 0 6 1;
#X connect 12 0 6 0;
#X connect 13 0 1 0;
#X restore 14 22 pd petterner;
#X text 108 22 Create single/ double length pattern.;
#X text 223 111 Pattern mode;
#X obj 32 112 r \$0-petrest;
#X obj 577 16 r \$0-patmode;
#X obj 496 112 r \$0-slices;
#X obj 472 87 spigot;
#X obj 472 63 r \$0-durbang;
#X obj 577 40 expr if($f1==0 \, 1 \, 0) \; if($f1==1 \, 1 \, 0) \; if($f1==2 \, 1 \, 0) \;, f 23;
#N canvas 242 462 308 376 random_centre 0;
#X obj 57 84 i;
#X obj 57 108 + 1;
#X obj 57 132 mod, f 4;
#X obj 82 9 inlet;
#X obj 96 346 outlet;
#X obj 18 34 bng 19 250 50 0 empty empty empty 0 -10 0 12 #fcfcfc #000000 #000000;
#X obj 18 9 inlet;
#X obj 18 58 t b b;
#X obj 18 156 random;
#X obj 96 322 mod;
#X obj 96 299 +, f 4;
#X obj 18 179 random;
#X obj 18 202 random;
#X obj 18 225 random;
#X obj 18 280 i, f 1;
#X obj 18 251 expr ($f1+$f2+$f3+$f4) / 8;
#X obj 82 58 * 2;
#X obj 121 276 inlet;
#X text 134 141 Set "centre" slice and play other slices in increasing random range (gaussian distribution \, double pattern length)., f 22;
#X obj 82 34 t f f;
#X connect 0 0 1 0;
#X connect 1 0 2 0;
#X connect 2 0 0 1;
#X connect 2 0 8 1;
#X connect 2 0 11 1;
#X connect 2 0 12 1;
#X connect 2 0 13 1;
#X connect 3 0 19 0;
#X connect 5 0 7 0;
#X connect 6 0 5 0;
#X connect 7 0 8 0;
#X connect 7 0 11 0;
#X connect 7 0 12 0;
#X connect 7 0 13 0;
#X connect 7 1 0 0;
#X connect 8 0 15 0;
#X connect 9 0 4 0;
#X connect 10 0 9 0;
#X connect 11 0 15 1;
#X connect 12 0 15 2;
#X connect 13 0 15 3;
#X connect 14 0 10 0;
#X connect 15 0 14 0;
#X connect 16 0 2 1;
#X connect 17 0 10 1;
#X connect 19 0 16 0;
#X connect 19 1 9 1;
#X restore 472 136 pd random_centre;
#X obj 452 443 tabread4~ \$0-waver2;
#X obj 312 467 snake~;
#X obj 330 520 lop~ 10;
#X obj 581 112 r \$0-cslselinit;
#X connect 0 0 15 0;
#X connect 0 0 60 0;
#X connect 1 0 0 0;
#X connect 2 0 1 0;
#X connect 3 0 17 0;
#X connect 3 0 47 0;
#X connect 4 0 7 0;
#X connect 4 1 9 0;
#X connect 5 0 45 0;
#X connect 5 1 6 1;
#X connect 6 0 3 0;
#X connect 7 0 2 0;
#X connect 8 0 2 1;
#X connect 9 0 8 0;
#X connect 10 0 2 2;
#X connect 10 0 29 0;
#X connect 12 0 13 0;
#X connect 13 0 20 0;
#X connect 14 0 4 0;
#X connect 15 0 61 0;
#X connect 16 0 5 0;
#X connect 17 0 34 0;
#X connect 18 0 20 1;
#X connect 19 0 6 0;
#X connect 20 0 12 1;
#X connect 20 0 38 0;
#X connect 21 0 11 0;
#X connect 22 0 62 0;
#X connect 23 0 14 0;
#X connect 24 0 23 1;
#X connect 25 0 12 0;
#X connect 26 0 23 0;
#X connect 27 0 25 0;
#X connect 28 0 26 0;
#X connect 31 0 35 0;
#X connect 32 0 31 0;
#X connect 33 0 31 0;
#X connect 34 0 10 0;
#X connect 35 0 34 0;
#X connect 35 1 34 1;
#X connect 36 0 17 1;
#X connect 37 0 12 1;
#X connect 38 0 14 0;
#X connect 39 0 43 0;
#X connect 40 0 39 0;
#X connect 40 1 41 0;
#X connect 41 0 42 0;
#X connect 42 0 38 2;
#X connect 43 0 38 2;
#X connect 44 0 33 0;
#X connect 46 0 40 0;
#X connect 48 0 8 1;
#X connect 48 0 7 1;
#X connect 53 0 37 0;
#X connect 54 0 58 0;
#X connect 55 0 59 1;
#X connect 56 0 59 0;
#X connect 57 0 56 0;
#X connect 58 0 25 1;
#X connect 58 1 26 1;
#X connect 58 2 56 1;
#X connect 59 0 14 0;
#X connect 60 0 61 1;
#X connect 61 0 21 0;
#X connect 62 0 21 1;
#X connect 63 0 59 2;
#X restore 16 126 pd sampleplayer;
#X listbox 491 72 20 0 0 0 - - - 0;
#N canvas 497 420 202 134 metro 0;
#X obj 19 70 metro;
#X obj 19 93 s \$0-durbang;
#X obj 51 45 r \$0-sldur;
#X text 64 69 Master metro;
#X obj 19 20 r \$0-glotriggerforward;
#X connect 0 0 1 0;
#X connect 2 0 0 1;
#X connect 4 0 0 0;
#X restore 16 223 pd metro;
#X obj 347 219 vradio 16 1 0 3 \$0-patmode \$0-patmodeinit Mode 0 -7 0 10 #c6feff #000000 #000000 0;
#X obj 118 73 inlet filepath;
#X obj 16 20 inlet restart;
#X obj 128 20 inlet randomize;
#X obj 245 20 inlet global trigger;
#X obj 491 184 s \$0-patmodeinit;
#X obj 491 139 s \$0-splitinit;
#X obj 491 161 s \$0-sgldblinit;
#X obj 491 206 s \$0-barsinit;
#X obj 399 20 inlet preset;
#X obj 491 228 s \$0-amplinit;
#X text 723 298 Author: Martin Heinze. Last updated 02.01.25;
#X floatatom 415 252 3 0 0 1 - \$0-cslselinit \$0-cslsel 10;
#X obj 491 94 unpack f f f f f f f;
#X msg 491 43 170 4 1 1 1 0.8 0;
#X text 363 217 ->;
#X text 363 250 ->;
#X obj 386 252 hsl 24 15 0 16 0 0 \$0-csselsl \$0-csselslinit empty -2 -10 0 12 #fcfcfc #000000 #000000 0 1;
#N canvas 798 235 192 200 selconf 0;
#X msg 48 64 range 0 \$1;
#X obj 48 88 s \$0-csselslinit;
#X obj 48 114 r \$0-csselsl;
#X obj 48 137 i, f 1;
#X obj 48 162 s \$0-cslselinit;
#X obj 16 16 r \$0-slices;
#X obj 16 40 t b f;
#X msg 16 64 0, f 1;
#X connect 0 0 1 0;
#X connect 2 0 3 0;
#X connect 3 0 4 0;
#X connect 5 0 6 0;
#X connect 6 0 7 0;
#X connect 6 1 0 0;
#X connect 7 0 1 0;
#X restore 16 274 pd selconf;
#X obj 491 251 s \$0-csselslinit;
#N canvas 1000 399 168 98 slcalc 0;
#X obj 12 34 expr pow (2 \, $f1);
#X obj 12 57 s \$0-slicesinit;
#X obj 12 11 r \$0-split;
#X connect 0 0 1 0;
#X connect 2 0 0 0;
#X restore 16 252 pd slcalc;
#X text 639 21 Slicer2 is a stereo sampler engine primarily useful for breakbeats. Samples can be loaded using the loading button or by sending the file path as message through the second inlet. The original tempo of the sample is calculated based on the assumption that it's a 4/4 meter (and either 1 \, 2 or 4 bars in length \, selectable via the radio button below sample load button). BPM can be adjusted \, e.g. to the global tempo of the main patch. The file can be split in half 0-5 times resulting in 1-32 equal slices that can be played back in a randomly generated but fixed pattern (mode 0) \, a totally random order (mode 1) or a centered random pattern with increasing values (mode 2). Radio button 1 / 3 switches between a pattern length 1x / 2x the amount of slices generated (mode 0). The "r" button (or a bang sent to the third inlet) generates another random pattern (mode 0). Slider in the bottom left selects center slide value for playback mode 2 Fifth inlet allows setting all parameters from outside the patch., f 58;
#X connect 14 0 21 0;
#X connect 15 0 39 0;
#X connect 22 0 19 0;
#X connect 23 0 38 0;
#X connect 26 0 21 1;
#X connect 27 0 20 0;
#X connect 28 0 16 0;
#X connect 29 0 17 0;
#X connect 34 0 23 0;
#X connect 38 0 18 0;
#X connect 38 1 31 0;
#X connect 38 2 32 0;
#X connect 38 3 30 0;
#X connect 38 4 33 0;
#X connect 38 5 35 0;
#X connect 38 6 44 0;
#X connect 39 0 23 0;
#X coords 0 -1 1 1 260 175 2 180 120;
