#N canvas 159 207 860 426 12;
#X obj 22 190 expr~ ($v1 + $v2) / (2 * $v2), f 42;
#X text 434 100 "'sinusoidal run rhythm' proposes a definition of rhythm as a wave. It does not conceive of time as discrete subdivisions \, but makes it continuously quantifiable. Concurrently \, through the aesthetics of wave additions \, it does not present physicality as a merely subjective concept and thus liberates it from mystification." (Krebber \, 2024), f 55;
#X obj 22 166 +~;
#X obj 313 166 +~;
#X obj 22 94 unpack f f f f, f 35;
#N canvas 969 199 404 142 rect 0;
#X obj 284 58 samphold~;
#X obj 344 34 *~ -1;
#X obj 14 82 fexpr~ if($x1[0] >= $x1[-1] \, 0 \, $x2[0]);
#X text 298 81 <- RECT;
#X obj 14 15 inlet~;
#X obj 14 106 outlet~;
#X connect 0 0 2 1;
#X connect 1 0 0 1;
#X connect 2 0 5 0;
#X connect 4 0 2 0;
#X connect 4 0 1 0;
#X connect 4 0 0 0;
#X restore 119 222 pd rect;
#X obj 22 18 inlet;
#X obj 33 270 r \$0-xfader;
#X obj 33 317 lop~ 1;
#X obj 22 366 *~, f 2;
#X obj 33 293 sig~;
#X obj 130 248 sig~ 1;
#X obj 130 293 -~;
#X obj 148 270 r \$0-xfader;
#X obj 119 394 outlet~;
#X obj 33 340 sqrt~;
#X obj 130 317 lop~ 1;
#X obj 119 366 *~, f 2;
#X obj 130 340 sqrt~;
#X text 434 66 It can be used for all kinds of signal based modulation., f 55;
#X text 177 393 <- Modulation out;
#X text 67 17 <- Partial preset in;
#X listbox 367 273 14 0 0 2 PARTIALS \$0-partials \$0-partialsout 12;
#X obj 370 298 hsl 95 19 0 2 0 0 \$0-spd \$0-spdinit SPEED 28 10 0 12 #dfdfdf #7c7c7c #000000 0 1;
#X obj 22 42 s \$0-partials;
#X obj 22 71 r \$0-partialsout;
#N canvas 179 217 312 97 presets 0;
#X msg 11 36 2 9 7 3;
#X obj 11 11 loadbang;
#X msg 112 36 0.5;
#X obj 11 60 s \$0-partials;
#X obj 112 60 s \$0-xfaderin;
#X msg 212 36 1;
#X obj 212 60 s \$0-spdinit;
#X connect 0 0 3 0;
#X connect 1 0 0 0;
#X connect 1 0 2 0;
#X connect 1 0 5 0;
#X connect 2 0 4 0;
#X connect 5 0 6 0;
#X restore 127 42 pd presets;
#X text 434 17 SSRMOD is a modular version of the PD implementation of 'Sinusoidal Run Rhythm' as described by Steffen Krebber in his research project and book of the same name., f 55;
#X text 728 370 Martin Heinze;
#X obj 648 262 bng 19 250 50 0 empty empty empty 0 -10 0 12 #fcfcfc #000000 #000000;
#N canvas 411 449 448 103 source 0;
#X obj 7 7 inlet;
#X msg 7 31 browse https://steffenkrebber.de/research/sinusoidal-run-rhythm/;
#X obj 7 69 pdcontrol;
#X connect 0 0 1 0;
#X connect 1 0 2 0;
#X restore 648 286 pd source;
#X text 672 263 <- click to read more;
#N canvas 956 309 173 235 partial 0;
#X obj 10 10 inlet;
#X obj 10 34 t b f;
#X msg 10 58 0, f 1;
#X obj 42 86 phasor~;
#X obj 42 110 cos~;
#X obj 42 157 *~;
#X obj 60 134 != 0;
#X obj 102 158 sig~;
#X obj 42 205 outlet~;
#X obj 60 10 inlet Speed;
#X obj 60 34 t b f;
#X obj 42 58 * 1;
#X obj 102 205 outlet~;
#X connect 0 0 1 0;
#X connect 1 0 2 0;
#X connect 1 1 6 0;
#X connect 1 1 11 0;
#X connect 2 0 3 1;
#X connect 3 0 4 0;
#X connect 4 0 5 0;
#X connect 5 0 8 0;
#X connect 6 0 5 1;
#X connect 6 0 7 0;
#X connect 7 0 12 0;
#X connect 9 0 10 0;
#X connect 10 0 11 0;
#X connect 10 1 11 1;
#X connect 11 0 3 0;
#X restore 183 118 pd partial;
#N canvas 956 309 173 235 partial 0;
#X obj 10 10 inlet;
#X obj 10 34 t b f;
#X msg 10 58 0, f 1;
#X obj 42 86 phasor~;
#X obj 42 110 cos~;
#X obj 42 157 *~;
#X obj 60 134 != 0;
#X obj 102 158 sig~;
#X obj 42 205 outlet~;
#X obj 60 10 inlet Speed;
#X obj 60 34 t b f;
#X obj 42 58 * 1;
#X obj 102 205 outlet~;
#X connect 0 0 1 0;
#X connect 1 0 2 0;
#X connect 1 1 6 0;
#X connect 1 1 11 0;
#X connect 2 0 3 1;
#X connect 3 0 4 0;
#X connect 4 0 5 0;
#X connect 5 0 8 0;
#X connect 6 0 5 1;
#X connect 6 0 7 0;
#X connect 7 0 12 0;
#X connect 9 0 10 0;
#X connect 10 0 11 0;
#X connect 10 1 11 1;
#X connect 11 0 3 0;
#X restore 264 118 pd partial;
#N canvas 956 309 173 235 partial 0;
#X obj 10 10 inlet;
#X obj 10 34 t b f;
#X msg 10 58 0, f 1;
#X obj 42 86 phasor~;
#X obj 42 110 cos~;
#X obj 42 157 *~;
#X obj 60 134 != 0;
#X obj 102 158 sig~;
#X obj 42 205 outlet~;
#X obj 60 10 inlet Speed;
#X obj 60 34 t b f;
#X obj 42 58 * 1;
#X obj 102 205 outlet~;
#X connect 0 0 1 0;
#X connect 1 0 2 0;
#X connect 1 1 6 0;
#X connect 1 1 11 0;
#X connect 2 0 3 1;
#X connect 3 0 4 0;
#X connect 4 0 5 0;
#X connect 5 0 8 0;
#X connect 6 0 5 1;
#X connect 6 0 7 0;
#X connect 7 0 12 0;
#X connect 9 0 10 0;
#X connect 10 0 11 0;
#X connect 10 1 11 1;
#X connect 11 0 3 0;
#X restore 22 118 pd partial;
#N canvas 956 309 173 235 partial 0;
#X obj 10 10 inlet;
#X obj 10 34 t b f;
#X msg 10 58 0, f 1;
#X obj 42 86 phasor~;
#X obj 42 110 cos~;
#X obj 42 157 *~;
#X obj 60 134 != 0;
#X obj 102 158 sig~;
#X obj 42 205 outlet~;
#X obj 60 10 inlet Speed;
#X obj 60 34 t b f;
#X obj 42 58 * 1;
#X obj 102 205 outlet~;
#X connect 0 0 1 0;
#X connect 1 0 2 0;
#X connect 1 1 6 0;
#X connect 1 1 11 0;
#X connect 2 0 3 1;
#X connect 3 0 4 0;
#X connect 4 0 5 0;
#X connect 5 0 8 0;
#X connect 6 0 5 1;
#X connect 6 0 7 0;
#X connect 7 0 12 0;
#X connect 9 0 10 0;
#X connect 10 0 11 0;
#X connect 10 1 11 1;
#X connect 11 0 3 0;
#X restore 102 118 pd partial;
#X obj 345 99 r \$0-spd;
#X obj 370 322 hsl 95 19 1 0 0 0 \$0-xfader \$0-xfaderinit SIN/RECT 20 10 0 12 #dfdfdf #7c7c7c #000000 0 1;
#X text 679 390 Last updated 1.11.24;
#X connect 0 0 5 0;
#X connect 0 0 9 0;
#X connect 2 0 0 0;
#X connect 3 0 0 1;
#X connect 4 0 34 0;
#X connect 4 1 35 0;
#X connect 4 2 32 0;
#X connect 4 3 33 0;
#X connect 5 0 17 0;
#X connect 6 0 24 0;
#X connect 7 0 10 0;
#X connect 8 0 15 0;
#X connect 9 0 14 0;
#X connect 10 0 8 0;
#X connect 11 0 12 0;
#X connect 12 0 16 0;
#X connect 13 0 12 1;
#X connect 15 0 9 1;
#X connect 16 0 18 0;
#X connect 17 0 14 0;
#X connect 18 0 17 1;
#X connect 25 0 4 0;
#X connect 29 0 30 0;
#X connect 32 0 2 1;
#X connect 32 1 3 1;
#X connect 33 0 2 1;
#X connect 33 1 3 1;
#X connect 34 0 2 0;
#X connect 34 1 3 0;
#X connect 35 0 2 1;
#X connect 35 1 3 1;
#X connect 36 0 33 1;
#X connect 36 0 32 1;
#X connect 36 0 35 1;
#X connect 36 0 34 1;
#X coords 0 -1 1 1 115 100 2 360 250;
