#N canvas 235 181 827 342 12;
#X obj 643 141 hsl 95 38 1 0 0 0 \$0-xfader \$0-xfaderinit empty -2 -10 0 12 #ff8300 #000000 #000000 0 1;
#X obj 39 101 r \$0-xfader;
#X obj 119 45 s \$0-xfaderinit;
#X obj 21 21 inlet~;
#X obj 39 148 lop~ 1;
#X obj 21 252 *~;
#X obj 39 124 sig~;
#X obj 256 79 sig~ 1;
#X obj 256 124 -~;
#X obj 274 101 r \$0-xfader;
#X obj 238 310 outlet~;
#X obj 21 45 snake~ out 2;
#X obj 102 252 *~;
#X obj 238 21 inlet~;
#X obj 238 45 snake~ out 2;
#X obj 21 276 snake~ in 2, f 12;
#X text 292 20 2 multichannel inputs;
#X text 300 309 1 multichannel output;
#X obj 120 223 sqrt~;
#X obj 39 200 *~;
#X obj 781 141 vradio 19 1 0 2 \$0-law \$0-lawinit empty 0 -10 0 12 #fcfcfc #000000 #000000 0;
#X obj 138 176 == 0;
#X obj 120 200 *~;
#X obj 138 148 r \$0-law;
#X obj 256 148 lop~ 1;
#X obj 238 252 *~;
#X obj 319 252 *~;
#X obj 337 223 sqrt~;
#X obj 256 200 *~;
#X obj 355 176 == 0;
#X obj 337 200 *~;
#X obj 355 148 r \$0-law;
#X obj 238 276 snake~ in 2, f 12;
#X text 745 140 Sqrt;
#X text 745 161 Linr;
#X obj 452 101 loadbang;
#X obj 452 125 bng 19 250 50 0 empty empty empty 0 -10 0 12 #fcfcfc #000000 #000000;
#X obj 452 149 f \$0;
#X msg 452 173 \; \$1-xfaderinit 0.5 \; \$1-lawinit 0;
#X obj 119 21 inlet Control;
#X text 593 20 xfader is a 2 law crossfader abstraction with multichannel in/output., f 29;
#X text 649 73 Author: Martin Heinze;
#X text 642 90 Last updated: 07.11.25;
#X connect 1 0 6 0;
#X connect 3 0 11 0;
#X connect 4 0 19 0;
#X connect 4 0 22 0;
#X connect 5 0 15 0;
#X connect 6 0 4 0;
#X connect 7 0 8 0;
#X connect 8 0 24 0;
#X connect 9 0 8 1;
#X connect 11 0 5 0;
#X connect 11 1 12 0;
#X connect 12 0 15 1;
#X connect 13 0 14 0;
#X connect 14 0 25 0;
#X connect 14 1 26 0;
#X connect 15 0 10 0;
#X connect 18 0 12 1;
#X connect 18 0 5 1;
#X connect 19 0 5 1;
#X connect 19 0 12 1;
#X connect 21 0 22 1;
#X connect 22 0 18 0;
#X connect 23 0 19 1;
#X connect 23 0 21 0;
#X connect 24 0 28 0;
#X connect 24 0 30 0;
#X connect 25 0 32 0;
#X connect 26 0 32 1;
#X connect 27 0 26 1;
#X connect 27 0 25 1;
#X connect 28 0 25 1;
#X connect 28 0 26 1;
#X connect 29 0 30 1;
#X connect 30 0 27 0;
#X connect 31 0 28 1;
#X connect 31 0 29 0;
#X connect 32 0 10 0;
#X connect 35 0 36 0;
#X connect 36 0 37 0;
#X connect 37 0 38 0;
#X connect 39 0 2 0;
#X coords 0 -1 1 1 170 50 2 635 135;
